<svg width="156" height="124" viewBox="0 0 156 124" fill="none" xmlns="http://www.w3.org/2000/svg">
<path d="M38.6621 8.67001V8.78001C38.1721 8.71001 37.2521 9.04001 35.6621 11.16C33.1121 14.7 20.9021 27.79 0.102083 95.3C-0.0352062 95.7391 -0.0339892 96.2097 0.105562 96.6481C0.245114 97.0864 0.516232 97.4711 0.882082 97.75C4.39208 100.45 14.9621 107.75 26.8821 107.94C27.3628 107.954 27.8353 107.814 28.231 107.54C28.6267 107.267 28.9248 106.874 29.0821 106.42C31.9721 97.8 46.3521 54.42 49.5121 34.55C53.0021 12.38 38.6621 8.67001 38.6621 8.67001Z" fill="url(#paint0_linear_95_214)"/>
<path d="M116.842 8.67001V8.78001C117.332 8.71001 118.252 9.04001 119.842 11.16C122.422 14.7 134.612 27.79 155.432 95.3C155.569 95.7391 155.568 96.2097 155.429 96.6481C155.289 97.0864 155.018 97.4711 154.652 97.75C151.142 100.45 140.562 107.75 128.652 107.94C128.171 107.954 127.699 107.814 127.303 107.54C126.908 107.267 126.609 106.874 126.452 106.42C123.562 97.8 109.182 54.42 106.022 34.55C102.512 12.38 116.842 8.67001 116.842 8.67001Z" fill="url(#paint1_linear_95_214)"/>
<path d="M122.762 106.53C121.702 101.23 120.262 96.8 117.462 75.12C114.662 53.44 116.902 9.5 116.992 8.67C117.082 7.84 114.832 4.23 107.312 2.1C106.312 1.81 104.982 1.52 103.502 1.25C101.022 0.79 98.0421 0.37 94.9921 0C94.0253 3.82001 91.8136 7.20911 88.7061 9.63206C85.5986 12.055 81.7725 13.3738 77.8321 13.38C73.8912 13.3755 70.0643 12.0574 66.9565 9.63417C63.8487 7.21094 61.6373 3.82086 60.6721 0C57.6221 0.37 54.6721 0.79 52.1521 1.25C50.6721 1.52 49.3721 1.81 48.3421 2.1C40.8321 4.23 38.5921 7.84 38.6621 8.67C38.7321 9.5 40.9921 53.45 38.2021 75.12C35.4121 96.79 33.9521 101.23 32.9021 106.53C31.8521 111.83 30.2021 113.27 40.9021 117.03C50.0421 120.24 60.7321 123.59 77.8421 123.35C94.9521 123.59 105.642 120.24 114.772 117.03C125.462 113.27 123.822 111.83 122.762 106.53Z" fill="url(#paint2_linear_95_214)"/>
<path d="M103.502 1.25C101.022 0.79 98.0421 0.37 94.9921 0C94.0253 3.82001 91.8136 7.20911 88.7061 9.63206C85.5986 12.055 81.7725 13.3738 77.8321 13.38C73.8912 13.3755 70.0643 12.0574 66.9565 9.63417C63.8486 7.21094 61.6373 3.82086 60.6721 0C57.6221 0.37 54.6721 0.79 52.1521 1.25C53.4189 7.11781 56.6549 12.3757 61.3227 16.1503C65.9905 19.9249 71.8091 21.9891 77.8121 22C83.8202 21.9959 89.6459 19.9349 94.3198 16.1597C98.9938 12.3845 102.234 7.12284 103.502 1.25Z" fill="url(#paint3_linear_95_214)"/>
<defs>
<linearGradient id="paint0_linear_95_214" x1="25.0221" y1="8.67001" x2="25.0221" y2="107.94" gradientUnits="userSpaceOnUse">
<stop stop-color="#FF98BA"/>
<stop offset="0.21" stop-color="#FF8EB3"/>
<stop offset="0.52" stop-color="#FF719F"/>
<stop offset="0.9" stop-color="#FF427F"/>
<stop offset="1" stop-color="#FF3376"/>
</linearGradient>
<linearGradient id="paint1_linear_95_214" x1="130.492" y1="8.67001" x2="130.492" y2="107.94" gradientUnits="userSpaceOnUse">
<stop stop-color="#FF98BA"/>
<stop offset="0.21" stop-color="#FF8EB3"/>
<stop offset="0.52" stop-color="#FF719F"/>
<stop offset="0.9" stop-color="#FF427F"/>
<stop offset="1" stop-color="#FF3376"/>
</linearGradient>
<linearGradient id="paint2_linear_95_214" x1="77.8321" y1="0" x2="77.8321" y2="123.36" gradientUnits="userSpaceOnUse">
<stop stop-color="#FF98BA"/>
<stop offset="0.48" stop-color="#FF96B8"/>
<stop offset="0.66" stop-color="#FF8BB1"/>
<stop offset="0.78" stop-color="#FF7BA6"/>
<stop offset="0.88" stop-color="#FF6295"/>
<stop offset="0.97" stop-color="#FF4380"/>
<stop offset="1" stop-color="#FF3376"/>
</linearGradient>
<linearGradient id="paint3_linear_95_214" x1="77.8321" y1="21.95" x2="77.8321" y2="0" gradientUnits="userSpaceOnUse">
<stop stop-color="#FF98BA"/>
<stop offset="0.55" stop-color="#FF5D92"/>
<stop offset="1" stop-color="#FF3376"/>
</linearGradient>
</defs>
</svg>
