<svg xmlns="http://www.w3.org/2000/svg" xmlns:xlink="http://www.w3.org/1999/xlink" viewBox="0 0 123.28 95.03"><defs><style>.cls-1{fill:url(#linear-gradient);}</style><linearGradient id="linear-gradient" x1="61.64" y1="95.03" x2="61.64" gradientUnits="userSpaceOnUse"><stop offset="0" stop-color="#282828"/><stop offset="0.01" stop-color="#252525"/><stop offset="0.13" stop-color="#141414"/><stop offset="0.26" stop-color="#090909"/><stop offset="0.46" stop-color="#020202"/><stop offset="1"/></linearGradient></defs><g id="Layer_2" data-name="Layer 2"><g id="Layer_1-2" data-name="Layer 1"><path class="cls-1" d="M123.08,61.78c0-.18,0-.35,0-.53A61.24,61.24,0,0,0,.84,56Q.33,59.14.11,62.35a77.88,77.88,0,0,0,0,7.94,59.7,59.7,0,0,0,.6,7.45c.52,3.18,1.23,6.34,2.05,9.47.68,2.62,1.63,5.17,2.49,7.82a3.49,3.49,0,0,0,.8-.38c1.78-1.48,3.46-3.09,5.32-4.45A16.78,16.78,0,0,0,17,82.82a49.63,49.63,0,0,0,1.93-7c.4-1.59.67-3.21,1-4.82a8.23,8.23,0,0,1,.59,2.53,23.79,23.79,0,0,0,2,7c.08.21.38.33.81.67,0-.58,0-.9-.08-1.22a6.27,6.27,0,0,1,1.73-5.52,13.48,13.48,0,0,1,3.72-2.4,10.5,10.5,0,0,0,4-2.77,55,55,0,0,0,3.2-5s.06.21.09.38c.49,3.13,2.44,4.25,5,4.23a1,1,0,0,0,1-1.43,9.22,9.22,0,0,1,.7-7.46,7.72,7.72,0,0,1,1.64-1.58c.5.61,1.24,1.15,1.46,1.86a12.91,12.91,0,0,1,0,8.48c-.1.27-.13.77,0,.9a.94.94,0,0,0,.92,0,18.31,18.31,0,0,0,2.49-2.15,17.34,17.34,0,0,0,4.45-10.49c.26-3.51,0-7.05,0-10.58,0-.23.28-.45.43-.68a1.88,1.88,0,0,0,.23.16c-.13.51-.47,1.13.38,1a8.21,8.21,0,0,0,.32,1.88c.3.69.14,1.71,1.11,2a3.27,3.27,0,0,0,.13.7c.43.91,1,1.77,1.34,2.71.77,2,1.56,3.92,2.15,5.94a17.55,17.55,0,0,1,.81,4.68c0,2.08-.38,4.17-.58,6.25a1.94,1.94,0,0,0,.12.57c.19,0,.45,0,.57-.15A40.51,40.51,0,0,0,64,68.07a10.67,10.67,0,0,0,2.14-6A56.65,56.65,0,0,0,66,53.34c-.23-2.55-.82-5.07-.56-7.64a33.24,33.24,0,0,1,.66-3.39l.24,0a1.51,1.51,0,0,1,.06.35,17.55,17.55,0,0,0,.4,7.32A21.78,21.78,0,0,0,68,53.08c.09.21.44.29.68.43a2.57,2.57,0,0,0,.25-.7c.05-1.2,0-2.41.11-3.59a7.32,7.32,0,0,1,1.33-3.7c0,1.07.06,1.92,0,2.76a26.1,26.1,0,0,0,.47,7.28,18.63,18.63,0,0,0,4,8.28,16.51,16.51,0,0,0,2.64,2.28.87.87,0,0,0,.85-.08.9.9,0,0,0,.09-.81,11,11,0,0,1-.73-5.42,18.19,18.19,0,0,1,1-4.12,1.17,1.17,0,0,1,2-.43,9.37,9.37,0,0,1,1.45,3,9.73,9.73,0,0,1-.11,5.8c-.08.23.48.94.82,1a4.33,4.33,0,0,0,4.83-2.9c.21-.6.36-1.21.53-1.81a21.72,21.72,0,0,0,1.07,2.16,15.5,15.5,0,0,0,2.49,3.57,19.14,19.14,0,0,0,4.5,2.72c3,1.41,4.66,3.76,4.54,6.82,0,.58-.06,1.15-.09,1.73l.32.06c1.92-3.16,2.5-6.7,2.71-10.37a1.62,1.62,0,0,1,.42.76c.25,1.52.42,3.06.72,4.58.14.69.69,1.3.78,2A16.2,16.2,0,0,0,108,80.77a16.79,16.79,0,0,0,6.1,5.86c1.81,1,3.79,1.75,5.78,2.65a5.53,5.53,0,0,0,.23-.61c.29-1,.59-2,.83-3,.45-1.94,1-3.88,1.27-5.85.38-2.58.57-5.19.82-7.79A60.26,60.26,0,0,0,123.08,61.78Z"/></g></g></svg>