<svg xmlns="http://www.w3.org/2000/svg" xmlns:xlink="http://www.w3.org/1999/xlink" viewBox="0 0 636.55 221.55"><defs><style>.cls-1{fill:url(#linear-gradient);}.cls-2{fill:url(#linear-gradient-2);}.cls-3{fill:url(#linear-gradient-3);}.cls-4{fill:url(#linear-gradient-4);}.cls-5{fill:url(#linear-gradient-5);}.cls-6{fill:#8fa6b5;}.cls-7{fill:url(#linear-gradient-6);}.cls-8{fill:url(#linear-gradient-7);}.cls-9{fill:#ce0000;}.cls-10{fill:url(#linear-gradient-8);}.cls-11{fill:url(#linear-gradient-9);}.cls-12{fill:#090d56;}.cls-13{fill:url(#linear-gradient-10);}.cls-14{fill:url(#linear-gradient-11);}.cls-15{fill:url(#linear-gradient-12);}.cls-16{fill:url(#linear-gradient-13);}.cls-17{fill:url(#linear-gradient-14);}.cls-18{fill:url(#linear-gradient-15);}.cls-19{fill:url(#linear-gradient-16);}.cls-20{fill:url(#linear-gradient-17);}.cls-21{fill:url(#linear-gradient-18);}.cls-22{fill:#c10505;}.cls-23{fill:url(#linear-gradient-19);}.cls-24{fill:url(#linear-gradient-20);}.cls-25{fill:url(#linear-gradient-21);}.cls-26{fill:url(#linear-gradient-22);}.cls-27{fill:url(#linear-gradient-23);}.cls-28{fill:url(#linear-gradient-24);}.cls-29{fill:url(#linear-gradient-25);}.cls-30{fill:url(#linear-gradient-26);}.cls-31{fill:url(#linear-gradient-27);}.cls-32{fill:none;}</style><linearGradient id="linear-gradient" x1="568.88" y1="221.55" x2="568.88" y2="82.25" gradientUnits="userSpaceOnUse"><stop offset="0" stop-color="#003a8e"/><stop offset="0.32" stop-color="#002f7b"/><stop offset="0.7" stop-color="#00256b"/><stop offset="1" stop-color="#026"/></linearGradient><linearGradient id="linear-gradient-2" x1="516.4" y1="12.76" x2="516.4" y2="79.06" gradientUnits="userSpaceOnUse"><stop offset="0.36" stop-color="#f7f7f7"/><stop offset="0.71" stop-color="#f5f6f6"/><stop offset="0.84" stop-color="#eef2f4"/><stop offset="0.93" stop-color="#e3ebf0"/><stop offset="1" stop-color="#d3e2ea"/></linearGradient><linearGradient id="linear-gradient-3" x1="621.36" y1="12.65" x2="621.36" y2="78.95" xlink:href="#linear-gradient-2"/><linearGradient id="linear-gradient-4" x1="568.66" y1="4.82" x2="568.66" y2="100.92" xlink:href="#linear-gradient-2"/><linearGradient id="linear-gradient-5" x1="568.85" y1="100.92" x2="568.85" y2="9.7" gradientUnits="userSpaceOnUse"><stop offset="0" stop-color="#f7f7f7"/><stop offset="0.55" stop-color="#f5f6f6"/><stop offset="0.75" stop-color="#eef2f4"/><stop offset="0.89" stop-color="#e3ebf0"/><stop offset="1" stop-color="#d3e2ea"/></linearGradient><linearGradient id="linear-gradient-6" x1="562.59" y1="64.48" x2="562.59" y2="18.83" gradientUnits="userSpaceOnUse"><stop offset="0.36" stop-color="#ce0000"/><stop offset="0.69" stop-color="#c00"/><stop offset="0.81" stop-color="#c50000"/><stop offset="0.89" stop-color="#ba0000"/><stop offset="0.96" stop-color="#a90000"/><stop offset="1" stop-color="#9b0000"/></linearGradient><linearGradient id="linear-gradient-7" x1="575.56" y1="58.22" x2="575.56" y2="18.81" xlink:href="#linear-gradient-6"/><linearGradient id="linear-gradient-8" x1="558.89" x2="558.89" y2="22.36" gradientUnits="userSpaceOnUse"><stop offset="0" stop-color="#f7f7f7"/><stop offset="0.38" stop-color="#f4f5f6"/><stop offset="0.66" stop-color="#ebf0f3"/><stop offset="0.91" stop-color="#dbe7ed"/><stop offset="1" stop-color="#d3e2ea"/></linearGradient><linearGradient id="linear-gradient-9" x1="578.87" x2="578.87" y2="22.36" xlink:href="#linear-gradient-8"/><linearGradient id="linear-gradient-10" x1="13.15" y1="8.77" x2="13.15" y2="67.31" gradientUnits="userSpaceOnUse"><stop offset="0" stop-color="#ff4d4d"/><stop offset="0.26" stop-color="#fd4a4a"/><stop offset="0.49" stop-color="#f93f3f"/><stop offset="0.71" stop-color="#f12d2d"/><stop offset="0.91" stop-color="#e61414"/><stop offset="1" stop-color="#e00707"/></linearGradient><linearGradient id="linear-gradient-11" x1="114.2" y1="8.77" x2="114.2" y2="67.31" xlink:href="#linear-gradient-10"/><linearGradient id="linear-gradient-12" x1="63.68" x2="63.68" y2="123.19" gradientUnits="userSpaceOnUse"><stop offset="0" stop-color="#ff4d4d"/><stop offset="0.48" stop-color="#fe4b4b"/><stop offset="0.66" stop-color="#fb4444"/><stop offset="0.78" stop-color="#f63939"/><stop offset="0.88" stop-color="#ee2828"/><stop offset="0.97" stop-color="#e51212"/><stop offset="1" stop-color="#e00707"/></linearGradient><linearGradient id="linear-gradient-13" x1="63.71" y1="21.96" x2="63.71" gradientUnits="userSpaceOnUse"><stop offset="0" stop-color="#ff4d4d"/><stop offset="0.55" stop-color="#ed2424"/><stop offset="1" stop-color="#e00707"/></linearGradient><linearGradient id="linear-gradient-14" x1="172.28" y1="8.67" x2="172.28" y2="107.94" gradientUnits="userSpaceOnUse"><stop offset="0" stop-color="#ff4d4d"/><stop offset="0.21" stop-color="#fc4646"/><stop offset="0.52" stop-color="#f33232"/><stop offset="0.9" stop-color="#e41111"/><stop offset="1" stop-color="#e00707"/></linearGradient><linearGradient id="linear-gradient-15" x1="-103.79" y1="8.67" x2="-103.79" y2="107.94" gradientTransform="matrix(-1, 0, 0, 1, 173.97, 0)" xlink:href="#linear-gradient-14"/><linearGradient id="linear-gradient-16" x1="225.1" x2="225.1" y2="123.2" xlink:href="#linear-gradient-12"/><linearGradient id="linear-gradient-17" x1="225.09" y1="21.95" x2="225.09" xlink:href="#linear-gradient-13"/><linearGradient id="linear-gradient-18" x1="464.59" y1="90.79" x2="464.59" y2="112.24" gradientUnits="userSpaceOnUse"><stop offset="0" stop-color="#c10505"/><stop offset="0.35" stop-color="#c60505"/><stop offset="0.77" stop-color="#d50606"/><stop offset="1" stop-color="#e00707"/></linearGradient><linearGradient id="linear-gradient-19" x1="454.85" y1="15.62" x2="454.85" y2="102.93" gradientUnits="userSpaceOnUse"><stop offset="0" stop-color="#ff4d4d"/><stop offset="0.21" stop-color="#f53636"/><stop offset="0.51" stop-color="#e91c1c"/><stop offset="0.79" stop-color="#e20d0d"/><stop offset="1" stop-color="#e00707"/></linearGradient><linearGradient id="linear-gradient-20" x1="49.04" y1="90.67" x2="49.04" y2="112.13" gradientTransform="matrix(-1, 0, 0, 1, 387.02, 0)" xlink:href="#linear-gradient-18"/><linearGradient id="linear-gradient-21" x1="39.3" y1="15.62" x2="39.3" y2="102.93" gradientTransform="matrix(-1, 0, 0, 1, 387.02, 0)" xlink:href="#linear-gradient-19"/><linearGradient id="linear-gradient-22" x1="401.29" y1="6.84" x2="401.29" y2="130.49" xlink:href="#linear-gradient-14"/><linearGradient id="linear-gradient-23" x1="401.27" y1="121.5" x2="401.27" y2="140.87" gradientUnits="userSpaceOnUse"><stop offset="0" stop-color="#c10505"/><stop offset="0.37" stop-color="#c50505"/><stop offset="0.71" stop-color="#d00606"/><stop offset="1" stop-color="#e00707"/></linearGradient><linearGradient id="linear-gradient-24" x1="393.58" y1="14.52" x2="393.58" y2="44.22" gradientUnits="userSpaceOnUse"><stop offset="0.15" stop-color="#f7f7f7"/><stop offset="0.64" stop-color="#f5f5f5"/><stop offset="0.82" stop-color="#eee"/><stop offset="0.95" stop-color="#e3e3e3"/><stop offset="1" stop-color="#dbdbdb"/></linearGradient><linearGradient id="linear-gradient-25" x1="409" y1="14.52" x2="409" y2="44.22" xlink:href="#linear-gradient-24"/><linearGradient id="linear-gradient-26" x1="400.7" y1="16.43" x2="400.7" gradientUnits="userSpaceOnUse"><stop offset="0" stop-color="#ff4d4d"/><stop offset="0.26" stop-color="#f23030"/><stop offset="0.52" stop-color="#e81919"/><stop offset="0.78" stop-color="#e20c0c"/><stop offset="1" stop-color="#e00707"/></linearGradient><linearGradient id="linear-gradient-27" x1="401.29" y1="81.95" x2="401.29" y2="120.52" gradientUnits="userSpaceOnUse"><stop offset="0" stop-color="#ff4d4d"/><stop offset="0.21" stop-color="#fd4848"/><stop offset="0.48" stop-color="#f63838"/><stop offset="0.78" stop-color="#ea1e1e"/><stop offset="1" stop-color="#e00707"/></linearGradient></defs><g id="Layer_2" data-name="Layer 2"><g id="Layer_1-2" data-name="Layer 1"><path class="cls-1" d="M626.12,209.19C622.56,173.13,607,82.25,607,82.25l-38.16.33-37.66-.33s-16,90.88-19.58,126.94a2.51,2.51,0,0,0,1.08,2.32c4.09,2.79,18.79,11,48.64,10a2.52,2.52,0,0,0,2.43-2.45c.31-11.95,1.74-65.58,2.38-68.51.71-3.29,1.32-3.62,2.71-3.73,1.39.11,2,.44,2.71,3.73.64,2.93,2.07,56.56,2.38,68.51a2.52,2.52,0,0,0,2.43,2.45c29.85,1.08,44.55-7.16,48.64-10A2.51,2.51,0,0,0,626.12,209.19Z"/><path class="cls-2" d="M528.84,12.94s-.1-1.12-1.91,2.2S503,55.56,501.21,62.82c0,0,14.81,15.38,30.38,16.24Z"/><path class="cls-3" d="M608.92,12.84s.1-1.13,1.91,2.19,23.9,40.42,25.72,47.68c0,0-14.81,15.38-30.38,16.24Z"/><path class="cls-4" d="M602.32,96l-.5.12-.27.06-.27.06h0c-10.77,2.33-17.83,4.26-32.17,4.66v0c-.29,0-.57,0-.87,0v0c-14.3-.41-21.4-2.31-32.18-4.66l-.27-.06c-13.46-2.9-7.12-12.87-8.4-33.79s1.34-50.17,1.34-50.17c5.92-7.86,10.09-7.43,20.57-7.37,3.55,0,6.49,0,6.49,0,.66.26,11.86,5.3,12.12,5.4.73.41.86.35,1.56,0,0-.26,11.64-5,12.1-5.39,2.29,0,16.32,0,18.2.43,3.18.47,7,4.72,8.86,7,0,0,2.63,29.11,1.34,50.17C608.69,82.89,614.77,92.87,602.32,96Z"/><path class="cls-5" d="M570.78,9.7v91.14l-1.47,0v0h-.87v0l-1.52,0V9.7h.47l.71.53.77.35.79-.35h0l.69-.52Z"/><circle class="cls-6" cx="568.85" cy="25.29" r="0.86"/><circle class="cls-6" cx="568.85" cy="40.41" r="0.86"/><circle class="cls-6" cx="568.85" cy="55.52" r="0.86"/><circle class="cls-6" cx="568.85" cy="70.69" r="0.86"/><circle class="cls-6" cx="568.85" cy="85.81" r="0.86"/><path class="cls-7" d="M566.07,19.74a1.31,1.31,0,0,0-1.89-.73c-2.19,1.36-6.34,5.57-6,18,.35,13.89,1.08,22.62,1.57,27.3a.17.17,0,1,0,.34,0,136.78,136.78,0,0,1,3.49-22.22C565.82,33,568.56,26.24,566.07,19.74Z"/><path class="cls-8" d="M571.39,19.7a1.13,1.13,0,0,1,1.59-.77c2,1,5.94,4.38,6.58,15.23.72,12.13.72,19.79.63,23.91a.15.15,0,0,1-.3,0A121,121,0,0,0,575.23,39C572.66,31.2,569.69,25.54,571.39,19.7Z"/><path class="cls-9" d="M564.45,15.73c1.27-.35,5.1-1.22,8.16,0a.45.45,0,0,1,.25.54,77,77,0,0,1-2.05,7.44.43.43,0,0,1-.35.26,18.15,18.15,0,0,1-3.07,0,.42.42,0,0,1-.32-.23,49.11,49.11,0,0,1-2.92-7.42A.45.45,0,0,1,564.45,15.73Z"/><path class="cls-10" d="M568.88,10.82h0c-.71,1-1.36,2.08-2,3.11-.29.48-.56,1-.82,1.42-.52.94-1,1.85-1.4,2.67-.17.33-.32.65-.47,1-1,2-1.51,3.37-1.51,3.37-.37-.27-.74-.56-1.12-.88C556.48,17.08,551.23,8,549.49,4.84c-.39-.7-.6-1.11-.6-1.11A38.55,38.55,0,0,0,555.48,0c1.07,1.4,8.65,7.22,11.91,9.7l.71.53.78.59Z"/><path class="cls-11" d="M588.86,3.73s-.21.41-.6,1.11C586.51,8,581.17,17.28,576,21.61c-.32.27-.64.52-1,.75,0,0-.48-1.2-1.34-3-.31-.65-.66-1.38-1.07-2.15-.29-.57-.61-1.17-1-1.79s-.58-1-.9-1.57c-.58-1-1.22-2-1.9-3h0l.78-.59h0l.69-.52c3.26-2.48,10.85-8.3,11.91-9.7A38.55,38.55,0,0,0,588.86,3.73Z"/><path class="cls-12" d="M529,124.23a.55.55,0,0,1-.46-.24.54.54,0,0,1,.15-.76c8.58-5.7,14.23-20.37,14.28-20.52a.56.56,0,0,1,.72-.32.55.55,0,0,1,.34.7c-.24.62-5.83,15.15-14.71,21A.62.62,0,0,1,529,124.23Z"/><path class="cls-12" d="M609.5,124.23A.57.57,0,0,0,610,124a.54.54,0,0,0-.15-.76c-8.58-5.7-14.23-20.37-14.29-20.52a.56.56,0,0,0-.72-.32.54.54,0,0,0-.33.7c.24.62,5.83,15.15,14.71,21A.59.59,0,0,0,609.5,124.23Z"/><path class="cls-13" d="M25,9.07s-.84-1.47-3.44,2.09S4.55,36.53,0,47.22c0,0,3.54,14.39,26.3,20.09Z"/><path class="cls-14" d="M102.35,9.07s.85-1.47,3.45,2.09,17,25.37,21.56,36.06c0,0-3.54,14.39-26.31,20.09Z"/><path class="cls-15" d="M108.35,98.17c-1.2-9.67-5.74-71.35-5.53-89.5.66-1.68-7.18-6.91-13.43-7.41h0C86.9.79,83.92.37,80.88,0h-.07C76.36,17.66,51,17.65,46.54,0h-.06c-3,.37-6,.79-8.51,1.25h0c-6.29.55-14,5.65-13.43,7.41.19,18-4.33,79.94-5.54,89.5-1.51,8.38-5.38,14.84,5.86,18.36a36.13,36.13,0,0,1,3.48,1.26c16.74,7.2,53.94,7.21,70.68,0a35.19,35.19,0,0,1,3.48-1.26C113.74,113,109.86,106.55,108.35,98.17Z"/><path class="cls-16" d="M89.39,1.25A26.29,26.29,0,0,1,63.73,22h-.46A26.31,26.31,0,0,1,38,1.25C40.51.79,43.49.37,46.54,0c.12.48.26,1,.42,1.42l.12.34q.26.69.57,1.35t.66,1.29l.18.31c.19.32.38.62.59.92s.27.4.42.59l.44.57c.14.18.3.37.46.55s.32.36.49.53l.25.26a17.62,17.62,0,0,0,12.13,5.24h.44A17.7,17.7,0,0,0,77.92,6.22l.42-.59c.2-.3.4-.6.58-.92l.18-.31a17.63,17.63,0,0,0,1.23-2.64l.12-.34c.16-.47.3-.94.42-1.42h0C83.92.37,86.9.79,89.39,1.25Z"/><path class="cls-17" d="M185.93,8.67v.11c-.5-.07-1.42.26-3,2.38-2.59,3.54-14.78,16.63-35.6,84.14a2.26,2.26,0,0,0,.79,2.45c3.51,2.7,14.08,10,26,10.19a2.25,2.25,0,0,0,2.2-1.52c2.9-8.62,17.28-52,20.44-71.87C200.26,12.38,185.93,8.67,185.93,8.67Z"/><path class="cls-18" d="M264.11,8.67v.11c.5-.07,1.42.26,3,2.38,2.58,3.54,14.77,16.63,35.59,84.14a2.26,2.26,0,0,1-.78,2.45c-3.52,2.7-14.09,10-26,10.19a2.26,2.26,0,0,1-2.2-1.52c-2.9-8.62-17.28-52-20.43-71.87C249.78,12.38,264.11,8.67,264.11,8.67Z"/><path class="cls-19" d="M269.78,98.18c-1.21-9.68-5.74-71.35-5.53-89.51.66-1.68-7.18-6.91-13.44-7.41h0C248.33.8,245.35.38,242.3,0h-.06C237.79,17.66,212.41,17.65,208,0h-.06c-3,.38-6,.8-8.52,1.25h0c-6.29.56-14.06,5.65-13.44,7.41.2,18-4.32,80-5.53,89.51-1.51,8.37-5.39,14.84,5.85,18.35,1.19.37,2.35.78,3.49,1.26,16.73,7.2,53.93,7.21,70.67,0a36.13,36.13,0,0,1,3.48-1.26C275.17,113,271.29,106.55,269.78,98.18Z"/><path class="cls-20" d="M250.77,1.25C248.29.79,245.3.37,242.26,0a17.74,17.74,0,0,1-17.17,13.38A17.73,17.73,0,0,1,207.93,0c-3,.37-6,.79-8.51,1.25A26.3,26.3,0,0,0,225.07,22h.05A26.3,26.3,0,0,0,250.77,1.25Z"/><path class="cls-21" d="M480.69,99.24s0,0,0,0c-.21,1.29-1.29,2.72-2.93,4.15-.26.23-.54.46-.84.7a36.12,36.12,0,0,1-5.63,3.54l-.91.46a49.3,49.3,0,0,1-5.64,2.34l-1,.32a31.64,31.64,0,0,1-6.33,1.4c-.35,0-.69.06-1,.07a7.93,7.93,0,0,1-4.45-.82s0,0,0,0c-1.7-.89-2.33-3.51-3.62-8.79a14.56,14.56,0,0,0,5.23.16c.33,0,.67-.08,1-.13a41.24,41.24,0,0,0,6.28-1.58l.95-.32a54.16,54.16,0,0,0,5.65-2.33c.31-.14.61-.28.91-.44a46,46,0,0,0,5.7-3.32c.29-.2.58-.4.86-.62a19.39,19.39,0,0,0,3.56-3.23C480.26,95,481.18,98.1,480.69,99.24Z"/><path class="cls-22" d="M457.46,112.16c-.35,0-.69.06-1,.07l-2.85-9.47c.33,0,.67-.08,1-.13Z"/><path class="cls-22" d="M464.75,110.44l-1,.32-2.91-9.71.95-.32Z"/><path class="cls-22" d="M471.3,107.64l-.91.46-2.91-9.7c.31-.14.61-.28.91-.44Z"/><path class="cls-22" d="M477.77,103.4c-.26.23-.54.46-.84.7l-2.84-9.46c.29-.2.58-.4.86-.62Z"/><path class="cls-23" d="M480.08,87.87s0,0,0,0c-1.21,7.3-26.25,18.39-33.23,14.07,0,0,0,0,0,0-3.43-1.8-3.12-9.61-9.53-29.08-5.71-18.71-15.8-52.09,3.1-57.24l0,.11c3.7,1.71,5.14,4.32,9.6,10.82h0C453.53,32.13,482.57,82.1,480.08,87.87Z"/><path class="cls-24" d="M321.88,99.12h0c.21,1.29,1.29,2.72,2.93,4.15.26.23.54.46.84.7a36.12,36.12,0,0,0,5.63,3.54l.91.46a49.3,49.3,0,0,0,5.64,2.34l1,.32a31.64,31.64,0,0,0,6.33,1.4c.35,0,.69.06,1,.07a7.93,7.93,0,0,0,4.45-.82s0,0,0,0c1.7-.89,2.33-3.51,3.62-8.79a14.56,14.56,0,0,1-5.23.16c-.33,0-.67-.08-1-.13a41.24,41.24,0,0,1-6.28-1.58l-.95-.32a54.16,54.16,0,0,1-5.65-2.33c-.31-.14-.61-.28-.91-.44a46,46,0,0,1-5.7-3.32c-.29-.2-.58-.4-.86-.62a19.39,19.39,0,0,1-3.56-3.23C322.31,94.87,321.39,98,321.88,99.12Z"/><path class="cls-22" d="M345.11,112c.35,0,.69.06,1,.07l2.85-9.47c-.33,0-.67-.08-1-.13Z"/><path class="cls-22" d="M337.82,110.32l1,.32,2.91-9.71-.95-.32Z"/><path class="cls-22" d="M331.27,107.52l.91.46,2.91-9.7c-.31-.14-.61-.28-.91-.44Z"/><path class="cls-22" d="M324.8,103.28c.26.23.54.46.84.7l2.84-9.46c-.29-.2-.58-.4-.86-.62Z"/><path class="cls-25" d="M322.5,87.87s0,0,0,0c1.2,7.3,26.25,18.39,33.23,14.07,0,0,0,0,0,0,3.42-1.8,3.11-9.61,9.52-29.08,5.71-18.71,15.8-52.09-3.1-57.24l0,.11c-3.7,1.71-5.13,4.32-9.59,10.82h0C349,32.13,320,82.1,322.5,87.87Z"/><path class="cls-26" d="M440.1,123.68c-20.84,8.62-53.08,9.06-74.25,1.26-13-3.25-12.29-8.88-9.35-19.64,1.21-9.57,5.74-71.55,5.54-89.62,1.42-4.27,8.75-6.56,13.45-7.42h0A68.06,68.06,0,0,1,391.13,7c4.38,2.53,9,5,9.53,5.31C407.31,9,408.6,5.9,419.44,7.12c2.53.34,5.07.66,7.53,1.14a.44.44,0,0,1,.16,0c4.74.92,11.85,3.14,13.3,7.4-.21,18.17,4.33,79.93,5.53,89.62C447.48,113.68,451.36,120.16,440.1,123.68Z"/><path class="cls-27" d="M438.16,134.32l-1,.34-.19.07c-3.48,1.22-7.18,2.47-11.41,3.51l-1,.24a89,89,0,0,1-15,2.18l-1,.06c-2.32.12-4.78.17-7.4.14-3.08,0-5.94,0-8.62-.22l-1-.07a87.92,87.92,0,0,1-14.15-2.19l-1-.24c-4.05-1-7.62-2.23-11-3.41l-1.47-.53-.95-.36c-7.66-3-6.26-4.58-5.32-9.27.2-1,.42-2,.66-3.06a40.32,40.32,0,0,0,5.89,2.47l.37.13,1,.33A111.86,111.86,0,0,0,377.88,128l1,.22a92.7,92.7,0,0,0,13.58,1.86l1,.06c2.46.13,5.06.19,7.83.15,2.31,0,4.5,0,6.59-.09l1-.05a94.45,94.45,0,0,0,14.39-1.84l1-.21a107.34,107.34,0,0,0,11.35-3.23c.33-.11.65-.22,1-.34l1.66-.57a39.06,39.06,0,0,0,5.89-2.48c.24,1.08.46,2.06.66,3.07C445.75,129.5,447.24,131,438.16,134.32Z"/><path class="cls-22" d="M365.67,124.44l-1.61,9.76-.95-.36,1.6-9.73Z"/><path class="cls-22" d="M378.86,128.24l-1.37,10.14-1-.24L377.88,128Z"/><path class="cls-22" d="M393.44,130.16l-.79,10.48-1-.07.8-10.47Z"/><path class="cls-22" d="M438.16,134.32l-1,.34-1.62-9.77c.33-.11.65-.22,1-.34Z"/><path class="cls-22" d="M425.61,138.24l-1,.24-1.38-10.15,1-.21Z"/><path class="cls-22" d="M409.67,140.66l-1,.06-.81-10.5,1-.05Z"/><path class="cls-28" d="M396.2,44.22H391a.74.74,0,0,1-.71-.94l1.53-5.57.68-2.45V14.52l2.24.4V35.26l.68,2.45,1.53,5.57A.74.74,0,0,1,396.2,44.22Z"/><path class="cls-29" d="M406.38,44.22h5.24a.74.74,0,0,0,.71-.94l-1.53-5.57-.68-2.45V14.52l-2.24.4V35.26l-.68,2.45-1.53,5.57A.74.74,0,0,0,406.38,44.22Z"/><path class="cls-30" d="M427.17,8.24a38.52,38.52,0,0,1-7,3.74,58.24,58.24,0,0,1-19.44,4.45h0c-15-.85-24.56-6.89-26.21-8l-.26-.18c-1.71-4.72,1.95-6.14,1.95-6.14.47-2.94,4.77-2.53,6.9-.35l.83.69c1.48,1.11,4.32,2.82,7.26,4.52,4.38,2.53,9,5,9.53,5.31.57-.31,5.15-2.79,9.53-5.31,3.66-2.11,7.17-4.25,8.1-5.21,2.12-2.18,6.43-2.59,6.9.35C425.23,2.1,428.88,3.52,427.17,8.24Z"/><path class="cls-31" d="M432.86,112.79c-4.22,10.76-56.35,9.37-62.53,1.42-1.48-1,.22-5.88-.06-5.9,4.26-6.16,8.36-20.37,9.66-25.13A1.65,1.65,0,0,1,381.86,82a150.29,150.29,0,0,0,38.84,0,1.66,1.66,0,0,1,1.93,1.19c1.3,4.76,5.4,19,9.66,25.13C432.29,108.31,432.65,111,432.86,112.79Z"/><path class="cls-32" d="M359.19,83.05l-.64,0"/></g></g></svg>