<svg xmlns="http://www.w3.org/2000/svg" xmlns:xlink="http://www.w3.org/1999/xlink" viewBox="0 0 637.86 192.3"><defs><style>.cls-1{fill:url(#linear-gradient);}.cls-2{fill:url(#linear-gradient-2);}.cls-3{fill:url(#linear-gradient-3);}.cls-4{fill:url(#linear-gradient-4);}.cls-5{fill:url(#linear-gradient-5);}.cls-6{fill:url(#linear-gradient-6);}.cls-7{fill:url(#linear-gradient-7);}.cls-8{fill:url(#linear-gradient-8);}.cls-9{fill:url(#linear-gradient-9);}.cls-10{fill:#8fa6b5;}.cls-11{fill:#ce0000;}.cls-12{fill:url(#linear-gradient-10);}.cls-13{fill:url(#linear-gradient-11);}.cls-14{fill:url(#linear-gradient-12);}.cls-15{fill:url(#linear-gradient-13);}.cls-16{fill:url(#linear-gradient-14);}.cls-17{fill:url(#linear-gradient-15);}.cls-18{fill:url(#linear-gradient-16);}.cls-19{fill:url(#linear-gradient-17);}.cls-20{fill:url(#linear-gradient-18);}.cls-21{fill:url(#linear-gradient-19);}.cls-22{fill:url(#linear-gradient-20);}.cls-23{fill:#c10505;}.cls-24{fill:url(#linear-gradient-21);}.cls-25{fill:url(#linear-gradient-22);}.cls-26{fill:url(#linear-gradient-23);}.cls-27{fill:url(#linear-gradient-24);}.cls-28{fill:url(#linear-gradient-25);}.cls-29{fill:url(#linear-gradient-26);}.cls-30{fill:url(#linear-gradient-27);}.cls-31{fill:url(#linear-gradient-28);}.cls-32{fill:url(#linear-gradient-29);}.cls-33{fill:none;}</style><linearGradient id="linear-gradient" x1="528.8" y1="179.31" x2="528.8" y2="83.97" gradientUnits="userSpaceOnUse"><stop offset="0" stop-color="#003a8e"/><stop offset="0.1" stop-color="#003585"/><stop offset="0.37" stop-color="#002a74"/><stop offset="0.66" stop-color="#002469"/><stop offset="1" stop-color="#026"/></linearGradient><linearGradient id="linear-gradient-2" x1="543.67" y1="186.74" x2="543.67" y2="87.54" gradientUnits="userSpaceOnUse"><stop offset="0" stop-color="#003a8e"/><stop offset="0.59" stop-color="#002a73"/><stop offset="1" stop-color="#026"/></linearGradient><linearGradient id="linear-gradient-3" x1="610.58" y1="179.31" x2="610.58" y2="82.16" xlink:href="#linear-gradient"/><linearGradient id="linear-gradient-4" x1="595.75" y1="186.77" x2="595.75" y2="87.18" xlink:href="#linear-gradient-2"/><linearGradient id="linear-gradient-5" x1="569.48" y1="192.3" x2="569.48" y2="90.03" gradientUnits="userSpaceOnUse"><stop offset="0" stop-color="#003a8e"/><stop offset="0.3" stop-color="#003688"/><stop offset="0.71" stop-color="#002c77"/><stop offset="1" stop-color="#026"/></linearGradient><linearGradient id="linear-gradient-6" x1="516.9" y1="12.85" x2="516.9" y2="79.6" gradientUnits="userSpaceOnUse"><stop offset="0.36" stop-color="#f7f7f7"/><stop offset="0.71" stop-color="#f5f6f6"/><stop offset="0.84" stop-color="#eef2f4"/><stop offset="0.93" stop-color="#e3ebf0"/><stop offset="1" stop-color="#d3e2ea"/></linearGradient><linearGradient id="linear-gradient-7" x1="622.57" y1="12.74" x2="622.57" y2="79.49" xlink:href="#linear-gradient-6"/><linearGradient id="linear-gradient-8" x1="569.73" y1="4.86" x2="569.73" y2="101.61" xlink:href="#linear-gradient-6"/><linearGradient id="linear-gradient-9" x1="569.7" y1="101.61" x2="569.7" y2="9.76" gradientUnits="userSpaceOnUse"><stop offset="0" stop-color="#f7f7f7"/><stop offset="0.55" stop-color="#f5f6f6"/><stop offset="0.75" stop-color="#eef2f4"/><stop offset="0.89" stop-color="#e3ebf0"/><stop offset="1" stop-color="#d3e2ea"/></linearGradient><linearGradient id="linear-gradient-10" x1="559.67" x2="559.67" y2="22.51" gradientUnits="userSpaceOnUse"><stop offset="0" stop-color="#f7f7f7"/><stop offset="0.38" stop-color="#f4f5f6"/><stop offset="0.66" stop-color="#ebf0f3"/><stop offset="0.91" stop-color="#dbe7ed"/><stop offset="1" stop-color="#d3e2ea"/></linearGradient><linearGradient id="linear-gradient-11" x1="579.79" x2="579.79" y2="22.51" xlink:href="#linear-gradient-10"/><linearGradient id="linear-gradient-12" x1="13.15" y1="8.77" x2="13.15" y2="67.3" gradientUnits="userSpaceOnUse"><stop offset="0" stop-color="#ff4d4d"/><stop offset="0.26" stop-color="#fd4a4a"/><stop offset="0.49" stop-color="#f93f3f"/><stop offset="0.71" stop-color="#f12d2d"/><stop offset="0.91" stop-color="#e61414"/><stop offset="1" stop-color="#e00707"/></linearGradient><linearGradient id="linear-gradient-13" x1="114.17" y1="8.77" x2="114.17" y2="67.3" xlink:href="#linear-gradient-12"/><linearGradient id="linear-gradient-14" x1="63.69" x2="63.69" y2="123.36" gradientUnits="userSpaceOnUse"><stop offset="0" stop-color="#ff4d4d"/><stop offset="0.48" stop-color="#fe4b4b"/><stop offset="0.66" stop-color="#fb4444"/><stop offset="0.78" stop-color="#f63939"/><stop offset="0.88" stop-color="#ee2828"/><stop offset="0.97" stop-color="#e51212"/><stop offset="1" stop-color="#e00707"/></linearGradient><linearGradient id="linear-gradient-15" x1="63.69" y1="21.95" x2="63.69" gradientUnits="userSpaceOnUse"><stop offset="0" stop-color="#ff4d4d"/><stop offset="0.55" stop-color="#ed2424"/><stop offset="1" stop-color="#e00707"/></linearGradient><linearGradient id="linear-gradient-16" x1="166.12" y1="8.67" x2="166.12" y2="107.94" gradientUnits="userSpaceOnUse"><stop offset="0" stop-color="#ff4d4d"/><stop offset="0.21" stop-color="#fc4646"/><stop offset="0.52" stop-color="#f33232"/><stop offset="0.9" stop-color="#e41111"/><stop offset="1" stop-color="#e00707"/></linearGradient><linearGradient id="linear-gradient-17" x1="-103.08" y1="8.67" x2="-103.08" y2="107.94" gradientTransform="matrix(-1, 0, 0, 1, 168.51, 0)" xlink:href="#linear-gradient-16"/><linearGradient id="linear-gradient-18" x1="218.93" x2="218.93" y2="123.36" xlink:href="#linear-gradient-14"/><linearGradient id="linear-gradient-19" x1="218.93" y1="21.95" x2="218.93" xlink:href="#linear-gradient-15"/><linearGradient id="linear-gradient-20" x1="463" y1="90.79" x2="463" y2="112.24" gradientUnits="userSpaceOnUse"><stop offset="0" stop-color="#c10505"/><stop offset="0.35" stop-color="#c60505"/><stop offset="0.77" stop-color="#d50606"/><stop offset="1" stop-color="#e00707"/></linearGradient><linearGradient id="linear-gradient-21" x1="453.26" y1="15.62" x2="453.26" y2="102.93" gradientUnits="userSpaceOnUse"><stop offset="0" stop-color="#ff4d4d"/><stop offset="0.21" stop-color="#f53636"/><stop offset="0.51" stop-color="#e91c1c"/><stop offset="0.79" stop-color="#e20d0d"/><stop offset="1" stop-color="#e00707"/></linearGradient><linearGradient id="linear-gradient-22" x1="45.17" y1="90.67" x2="45.17" y2="112.13" gradientTransform="matrix(-1, 0, 0, 1, 381.57, 0)" xlink:href="#linear-gradient-20"/><linearGradient id="linear-gradient-23" x1="35.43" y1="15.62" x2="35.43" y2="102.93" gradientTransform="matrix(-1, 0, 0, 1, 381.57, 0)" xlink:href="#linear-gradient-21"/><linearGradient id="linear-gradient-24" x1="399.68" y1="6.96" x2="399.68" y2="130.32" xlink:href="#linear-gradient-16"/><linearGradient id="linear-gradient-25" x1="399.69" y1="121.5" x2="399.69" y2="140.87" gradientUnits="userSpaceOnUse"><stop offset="0" stop-color="#c10505"/><stop offset="0.37" stop-color="#c50505"/><stop offset="0.71" stop-color="#d00606"/><stop offset="1" stop-color="#e00707"/></linearGradient><linearGradient id="linear-gradient-26" x1="391.99" y1="14.52" x2="391.99" y2="44.22" gradientUnits="userSpaceOnUse"><stop offset="0.15" stop-color="#f7f7f7"/><stop offset="0.64" stop-color="#f5f5f5"/><stop offset="0.82" stop-color="#eee"/><stop offset="0.95" stop-color="#e3e3e3"/><stop offset="1" stop-color="#dbdbdb"/></linearGradient><linearGradient id="linear-gradient-27" x1="407.41" y1="14.52" x2="407.41" y2="44.22" xlink:href="#linear-gradient-26"/><linearGradient id="linear-gradient-28" x1="399.11" y1="16.43" x2="399.11" gradientUnits="userSpaceOnUse"><stop offset="0" stop-color="#ff4d4d"/><stop offset="0.26" stop-color="#f23030"/><stop offset="0.52" stop-color="#e81919"/><stop offset="0.78" stop-color="#e20c0c"/><stop offset="1" stop-color="#e00707"/></linearGradient><linearGradient id="linear-gradient-29" x1="399.7" y1="81.95" x2="399.7" y2="120.52" gradientUnits="userSpaceOnUse"><stop offset="0" stop-color="#ff4d4d"/><stop offset="0.21" stop-color="#fd4848"/><stop offset="0.48" stop-color="#f63838"/><stop offset="0.78" stop-color="#ea1e1e"/><stop offset="1" stop-color="#e00707"/></linearGradient></defs><g id="Layer_2" data-name="Layer 2"><g id="Layer_1-2" data-name="Layer 1"><path class="cls-1" d="M545.08,87.54c-4.76,27.89-10.84,62.94-15.58,91.77-4.61-.87-17.12-4.26-17-6.28.3-2.07,15.74-67.3,20.89-89.06C536.59,85.12,540.55,86.4,545.08,87.54Z"/><path class="cls-2" d="M558.12,90a1.85,1.85,0,0,1,0,.24l-.57,0c-.15,1.86-6.38,72.74-8.26,96.52-4.95-.31-19.41-3-20.07-5.49.79-5.3,1.56-9.57,2.6-15.88,4.12-24.49,9.3-54.63,13.27-77.83A111.23,111.23,0,0,0,558.12,90Z"/><path class="cls-3" d="M626.89,173c.14,2-12.37,5.4-17,6.28-5-30.53-10.45-61.74-15.64-92.13a62.87,62.87,0,0,0,11.29-5C610.22,101.82,626.58,170.9,626.89,173Z"/><path class="cls-4" d="M610.2,181.25c-.82,2.6-15.47,5.18-20.53,5.52-1.84-23.46-8.15-95.15-8.26-96.55h-.11a.19.19,0,0,1,0-.08,69.84,69.84,0,0,0,13-3C599.53,118.19,605.16,150.1,610.2,181.25Z"/><path class="cls-5" d="M589.78,188.52c-6.24,5-34.37,5-40.61,0,1.74-23.47,8.26-96.43,8.37-98.3l.57,0a1.85,1.85,0,0,0,0-.24,96.53,96.53,0,0,0,11.37.82v.41l.42,0v-.38a80.1,80.1,0,0,0,11.38-.7.19.19,0,0,0,0,.08h.11C581.58,92.6,588,164.65,589.78,188.52Z"/><path class="cls-6" d="M529.43,13s-.11-1.13-1.93,2.21-24.06,40.7-25.89,48c0,0,14.91,15.48,30.58,16.35Z"/><path class="cls-7" d="M610.05,12.92s.1-1.13,1.92,2.21,24.07,40.7,25.89,48c0,0-14.9,15.48-30.58,16.35Z"/><path class="cls-8" d="M608.63,81.84c.28,6.27,5.38,12.63-6.06,15-10.88,2.29-16.37,4.06-30.92,4.64-.48,0-1,0-1.48.06v0l-.44,0-.44,0v0l-1.53-.06c-14.51-.58-20-2.35-30.87-4.64-11.44-2.41-6.35-8.77-6.06-15,0-.82.08-1.63.1-2.44.2-5.37.22-10.49.38-15.69,0-.62,0-1.65,0-3h0c-.15-7-.86-22.69-1.42-34.23v-.2c-.31-6.44-.57-11.56-.65-13.12a1.58,1.58,0,0,1,0-.38,1.11,1.11,0,0,1,.25-.48c1.88-2.25,5.72-6.53,8.92-7,1.88-.28,7.32-.38,11.78-.41,3.58,0,6.54,0,6.54,0l11,4.91,1.19.53.78.35.79-.35h0l1.12-.5,11.06-4.93s3,0,6.54,0c4.46,0,9.9.14,11.78.42,3.2.48,7,4.76,8.92,7a1.26,1.26,0,0,1,.24.46,1,1,0,0,1,0,.4c-.11,2.14-.56,11.07-1,20.89h0a.53.53,0,0,0,0,.13c-.38,8.19-.76,17-1,23a.22.22,0,0,1,0,.08h0c-.09,3.09-.14,5.41-.1,6.48.16,5.19.18,10.31.38,15.68C608.55,80.2,608.59,81,608.63,81.84Z"/><path class="cls-9" d="M571.65,9.76v91.76c-.48,0-1,0-1.48.06v0l-.44,0-.44,0v0l-1.53-.06V9.76h.48l.71.54.78.35.79-.35h0l.7-.53Z"/><circle class="cls-10" cx="569.71" cy="25.46" r="0.87"/><circle class="cls-10" cx="569.71" cy="40.68" r="0.87"/><circle class="cls-10" cx="569.71" cy="55.9" r="0.87"/><circle class="cls-10" cx="569.71" cy="71.17" r="0.87"/><circle class="cls-10" cx="569.71" cy="86.39" r="0.87"/><path class="cls-11" d="M566.91,19.88a1.31,1.31,0,0,0-1.9-.74c-2.21,1.37-6.39,5.61-6.08,18.12.34,14,1.07,22.77,1.57,27.49a.18.18,0,0,0,.35,0,138.07,138.07,0,0,1,3.51-22.38C566.66,33.22,569.42,26.42,566.91,19.88Z"/><path class="cls-11" d="M572.26,19.83a1.15,1.15,0,0,1,1.61-.77c2,1,6,4.41,6.62,15.33.72,12.21.72,19.92.63,24.07a.15.15,0,1,1-.3,0,122,122,0,0,0-4.69-19.23C573.54,31.41,570.56,25.72,572.26,19.83Z"/><path class="cls-11" d="M565.27,15.83c1.28-.35,5.14-1.22,8.22,0a.46.46,0,0,1,.25.55,75.27,75.27,0,0,1-2.07,7.49.4.4,0,0,1-.35.26,17.37,17.37,0,0,1-3.09,0,.39.39,0,0,1-.31-.23A48.06,48.06,0,0,1,565,16.42.48.48,0,0,1,565.27,15.83Z"/><path class="cls-12" d="M569.74,10.89h0c-.71,1-1.37,2.1-2,3.13-.29.49-.56,1-.82,1.43-.53.95-1,1.86-1.41,2.69l-.48,1c-1,2-1.52,3.39-1.52,3.39-.37-.27-.75-.57-1.12-.89C557.25,17.2,552,8.06,550.21,4.88c-.39-.72-.6-1.13-.6-1.13A38.49,38.49,0,0,0,556.25,0c1.07,1.41,8.7,7.27,12,9.76l.71.54.78.59Z"/><path class="cls-13" d="M589.85,3.75s-.21.41-.6,1.12c-1.77,3.21-7.14,12.53-12.36,16.89q-.48.4-1,.75s-.47-1.2-1.34-3c-.31-.65-.67-1.38-1.08-2.17q-.43-.86-1-1.8c-.28-.51-.58-1-.9-1.57-.59-1-1.23-2-1.92-3h0l.79-.59h0l.7-.53c3.28-2.49,10.92-8.35,12-9.76A38.67,38.67,0,0,0,589.85,3.75Z"/><path class="cls-14" d="M25,9.07s-.85-1.47-3.45,2.09S4.55,36.52,0,47.21c0,0,3.54,14.38,26.3,20.09Z"/><path class="cls-15" d="M102.32,9.07s.85-1.47,3.45,2.09,17,25.36,21.55,36.05c0,0-3.54,14.38-26.3,20.09Z"/><path class="cls-16" d="M108.62,106.53c-1.05-5.3-2.5-9.73-5.3-31.41s-.53-65.62-.46-66.45-2.17-4.44-9.68-6.57c-1-.29-2.33-.58-3.81-.85C86.88.79,83.9.37,80.85,0A17.72,17.72,0,0,1,63.69,13.38,17.73,17.73,0,0,1,46.53,0C43.48.37,40.5.79,38,1.25c-1.48.27-2.78.56-3.81.85-7.52,2.13-9.75,5.74-9.68,6.57s2.32,44.78-.47,66.45-4.24,26.11-5.3,31.41-2.7,6.74,8,10.5c9.13,3.21,19.82,6.56,36.93,6.32,17.11.24,27.8-3.11,36.94-6.32C111.32,113.27,109.68,111.83,108.62,106.53Z"/><path class="cls-17" d="M89.37,1.25C86.88.79,83.9.37,80.85,0A17.72,17.72,0,0,1,63.69,13.38,17.73,17.73,0,0,1,46.53,0C43.48.37,40.5.79,38,1.25A26.3,26.3,0,0,0,63.67,22h0A26.3,26.3,0,0,0,89.37,1.25Z"/><path class="cls-18" d="M179.76,8.67v.11c-.49-.07-1.41.26-3,2.38C174.21,14.7,162,27.79,141.2,95.3a2.24,2.24,0,0,0,.78,2.45c3.51,2.7,14.08,10,26,10.19a2.26,2.26,0,0,0,2.2-1.52c2.89-8.62,17.27-52,20.43-71.87C194.1,12.38,179.76,8.67,179.76,8.67Z"/><path class="cls-19" d="M257.94,8.67l0,.11c.49-.07,1.41.26,3,2.38,2.58,3.54,14.77,16.63,35.59,84.14a2.24,2.24,0,0,1-.78,2.45c-3.51,2.7-14.09,10-26,10.19a2.26,2.26,0,0,1-2.2-1.52c-2.89-8.62-17.27-52-20.43-71.87C243.61,12.38,257.94,8.67,257.94,8.67Z"/><path class="cls-20" d="M263.86,106.53c-1.06-5.3-2.5-9.73-5.3-31.41S258,9.5,258.09,8.67s-2.16-4.44-9.68-6.57c-1-.29-2.33-.58-3.81-.85C242.12.79,239.14.37,236.09,0a17.73,17.73,0,0,1-17.16,13.38A17.72,17.72,0,0,1,201.77,0c-3.05.37-6,.79-8.52,1.25-1.48.27-2.78.56-3.81.85-7.51,2.13-9.75,5.74-9.68,6.57s2.33,44.78-.46,66.45-4.25,26.11-5.3,31.41-2.7,6.74,8,10.5c9.14,3.21,19.83,6.56,36.94,6.32,17.11.24,27.8-3.11,36.93-6.32C266.56,113.27,264.92,111.83,263.86,106.53Z"/><path class="cls-21" d="M244.6,1.25C242.12.79,239.14.37,236.09,0a17.73,17.73,0,0,1-17.16,13.38A17.72,17.72,0,0,1,201.77,0c-3.05.37-6,.79-8.52,1.25A26.3,26.3,0,0,0,218.91,22h0A26.3,26.3,0,0,0,244.6,1.25Z"/><path class="cls-22" d="M479.1,99.24s0,0,0,0c-.21,1.29-1.29,2.72-2.93,4.15-.26.23-.54.46-.84.7a36.12,36.12,0,0,1-5.63,3.54l-.91.46a49.3,49.3,0,0,1-5.64,2.34l-1,.32a31.64,31.64,0,0,1-6.33,1.4c-.35,0-.69.06-1,.07a7.93,7.93,0,0,1-4.45-.82s0,0,0,0c-1.7-.89-2.33-3.51-3.62-8.79a14.56,14.56,0,0,0,5.23.16c.33,0,.67-.08,1-.13a41.24,41.24,0,0,0,6.28-1.58l.95-.32a54.16,54.16,0,0,0,5.65-2.33c.31-.14.61-.28.91-.44a46,46,0,0,0,5.7-3.32c.29-.2.58-.4.86-.62a19.39,19.39,0,0,0,3.56-3.23C478.67,95,479.59,98.1,479.1,99.24Z"/><path class="cls-23" d="M455.87,112.16c-.35,0-.69.06-1,.07L452,102.76c.33,0,.67-.08,1-.13Z"/><path class="cls-23" d="M463.16,110.44l-1,.32-2.91-9.71.95-.32Z"/><path class="cls-23" d="M469.71,107.64l-.91.46-2.91-9.7c.31-.14.61-.28.91-.44Z"/><path class="cls-23" d="M476.18,103.4c-.26.23-.54.46-.84.7l-2.84-9.46c.29-.2.58-.4.86-.62Z"/><path class="cls-24" d="M478.49,87.87s0,0,0,0c-1.2,7.3-26.25,18.39-33.23,14.07,0,0,0,0,0,0-3.42-1.8-3.12-9.61-9.53-29.08-5.71-18.71-15.8-52.09,3.1-57.24l0,.11c3.71,1.71,5.14,4.32,9.6,10.82h0C451.94,32.13,481,82.1,478.49,87.87Z"/><path class="cls-25" d="M320.29,99.12h0c.21,1.29,1.28,2.72,2.93,4.15.26.23.53.46.83.7a36.12,36.12,0,0,0,5.63,3.54l.91.46a48.71,48.71,0,0,0,5.65,2.34l.95.32a31.64,31.64,0,0,0,6.33,1.4c.35,0,.7.06,1,.07a8,8,0,0,0,4.46-.82v0c1.7-.89,2.33-3.51,3.62-8.79a14.56,14.56,0,0,1-5.23.16c-.33,0-.66-.08-1-.13a41.24,41.24,0,0,1-6.28-1.58l-1-.32a54.16,54.16,0,0,1-5.65-2.33c-.31-.14-.61-.28-.91-.44a46.69,46.69,0,0,1-5.7-3.32c-.29-.2-.58-.4-.85-.62a18.75,18.75,0,0,1-3.56-3.23C320.73,94.87,319.8,98,320.29,99.12Z"/><path class="cls-23" d="M343.52,112c.35,0,.7.06,1,.07l2.85-9.47c-.33,0-.66-.08-1-.13Z"/><path class="cls-23" d="M336.24,110.32l.95.32,2.91-9.71-1-.32Z"/><path class="cls-23" d="M329.68,107.52l.91.46,2.91-9.7c-.31-.14-.61-.28-.91-.44Z"/><path class="cls-23" d="M323.22,103.28c.26.23.53.46.83.7l2.84-9.46c-.29-.2-.58-.4-.85-.62Z"/><path class="cls-26" d="M320.91,87.87s0,0,0,0c1.2,7.3,26.25,18.39,33.23,14.07,0,0,0,0,0,0,3.42-1.8,3.12-9.61,9.52-29.08,5.71-18.71,15.8-52.09-3.09-57.24l0,.11c-3.71,1.71-5.14,4.32-9.6,10.82h0C347.45,32.13,318.41,82.1,320.91,87.87Z"/><path class="cls-27" d="M436.62,124c-9.14,3.21-19.82,6.56-36.94,6.33-17.11.23-27.8-3.12-36.93-6.33-10.7-3.76-9.06-5.2-8-10.5s2.51-9.73,5.3-31.4.54-65.63.47-66.46,2.17-4.44,9.68-6.57c.76-.22,1.68-.42,2.7-.63L374,8.2c2.48-.45,5.47-.87,8.51-1.24h7.06c4.38,2.53,9,5,9.53,5.31.57-.31,5.15-2.79,9.53-5.31h8.21c3,.37,6,.79,8.51,1.24l.22,0c1.39.27,2.61.53,3.59.81,7.51,2.13,9.75,5.74,9.68,6.57s-2.32,44.78.47,66.46,4.24,26.1,5.3,31.4S447.31,120.22,436.62,124Z"/><path class="cls-28" d="M436.57,134.32l-.95.34-.19.07C432,136,428.25,137.2,424,138.24l-1,.24a89,89,0,0,1-15,2.18l-1,.06c-2.32.12-4.78.17-7.4.14-3.08,0-5.94,0-8.62-.22l-1-.07a87.92,87.92,0,0,1-14.15-2.19l-1-.24c-4.05-1-7.62-2.23-11-3.41l-1.47-.53-1-.36c-7.66-3-6.26-4.58-5.32-9.27.2-1,.42-2,.66-3.06a40.32,40.32,0,0,0,5.89,2.47l.37.13,1,.33A111.86,111.86,0,0,0,376.29,128l1,.22a92.7,92.7,0,0,0,13.58,1.86l1,.06c2.46.13,5.06.19,7.83.15,2.31,0,4.5,0,6.59-.09l1-.05a94.45,94.45,0,0,0,14.39-1.84l1-.21A107.34,107.34,0,0,0,434,124.89c.33-.11.65-.22,1-.34l1.66-.57a39.06,39.06,0,0,0,5.89-2.48c.24,1.08.46,2.06.66,3.07C444.16,129.5,445.65,131,436.57,134.32Z"/><path class="cls-23" d="M364.08,124.44l-1.61,9.76-1-.36,1.6-9.73Z"/><path class="cls-23" d="M377.27,128.24l-1.37,10.14-1-.24L376.29,128Z"/><path class="cls-23" d="M391.85,130.16l-.79,10.48-1-.07.8-10.47Z"/><path class="cls-23" d="M436.57,134.32l-.95.34L434,124.89c.33-.11.65-.22,1-.34Z"/><path class="cls-23" d="M424,138.24l-1,.24-1.38-10.15,1-.21Z"/><path class="cls-23" d="M408.08,140.66l-1,.06-.81-10.5,1-.05Z"/><path class="cls-29" d="M394.61,44.22h-5.24a.74.74,0,0,1-.71-.94l1.53-5.57.68-2.45V14.52l2.24.4V35.26l.68,2.45,1.53,5.57A.74.74,0,0,1,394.61,44.22Z"/><path class="cls-30" d="M404.79,44.22H410a.74.74,0,0,0,.71-.94l-1.53-5.57-.68-2.45V14.52l-2.24.4V35.26l-.68,2.45-1.53,5.57A.74.74,0,0,0,404.79,44.22Z"/><path class="cls-31" d="M425.58,8.24a38.52,38.52,0,0,1-7,3.74,58.24,58.24,0,0,1-19.44,4.45h0c-15-.85-24.56-6.89-26.21-8l-.26-.18c-1.71-4.72,1.95-6.14,1.95-6.14.47-2.94,4.77-2.53,6.9-.35l.83.69c1.48,1.11,4.32,2.82,7.26,4.52,4.38,2.53,9,5,9.53,5.31.57-.31,5.15-2.79,9.53-5.31,3.66-2.11,7.17-4.25,8.1-5.21,2.12-2.18,6.43-2.59,6.9.35C423.64,2.1,427.29,3.52,425.58,8.24Z"/><path class="cls-32" d="M431.27,112.79c-4.22,10.76-56.35,9.37-62.53,1.42-1.48-1,.22-5.88-.06-5.9,4.26-6.16,8.36-20.37,9.66-25.13A1.65,1.65,0,0,1,380.27,82a150.29,150.29,0,0,0,38.84,0A1.66,1.66,0,0,1,421,83.18c1.3,4.76,5.4,19,9.66,25.13C430.7,108.31,431.06,111,431.27,112.79Z"/><path class="cls-33" d="M357.6,83.05,357,83"/></g></g></svg>