<svg xmlns="http://www.w3.org/2000/svg" xmlns:xlink="http://www.w3.org/1999/xlink" viewBox="0 0 755.44 595.62"><defs><style>.cls-1{fill:url(#linear-gradient);}.cls-2{fill:url(#linear-gradient-2);}.cls-3{fill:url(#linear-gradient-3);}.cls-4{fill:url(#linear-gradient-4);}.cls-5{fill:url(#linear-gradient-5);}.cls-6{fill:url(#linear-gradient-6);}.cls-7{fill:url(#linear-gradient-7);}.cls-8{fill:url(#linear-gradient-8);}.cls-9{fill:url(#linear-gradient-9);}</style><linearGradient id="linear-gradient" x1="314.89" y1="202.08" x2="314.89" y2="29.7" gradientUnits="userSpaceOnUse"><stop offset="0" stop-color="#282828"/><stop offset="0.14" stop-color="#1a1a1a"/><stop offset="0.35" stop-color="#0b0b0b"/><stop offset="0.6" stop-color="#030303"/><stop offset="1"/></linearGradient><linearGradient id="linear-gradient-2" x1="111.08" y1="181.15" x2="111.08" y2="29.92" xlink:href="#linear-gradient"/><linearGradient id="linear-gradient-3" x1="497.22" y1="211.25" x2="497.22" y2="25.54" xlink:href="#linear-gradient"/><linearGradient id="linear-gradient-4" x1="675.34" y1="169.93" x2="675.34" y2="0" xlink:href="#linear-gradient"/><linearGradient id="linear-gradient-5" x1="104.54" y1="423.26" x2="104.54" y2="226.37" xlink:href="#linear-gradient"/><linearGradient id="linear-gradient-6" x1="302.51" y1="433.33" x2="302.51" y2="212.22" xlink:href="#linear-gradient"/><linearGradient id="linear-gradient-7" x1="489.42" y1="487.69" x2="489.42" y2="230.16" xlink:href="#linear-gradient"/><linearGradient id="linear-gradient-8" x1="669.61" y1="396.83" x2="669.61" y2="230.75" xlink:href="#linear-gradient"/><linearGradient id="linear-gradient-9" x1="94.6" y1="595.62" x2="94.6" y2="441.61" xlink:href="#linear-gradient"/></defs><g id="Layer_2" data-name="Layer 2"><g id="Layer_1-2" data-name="Layer 1"><path class="cls-1" d="M395,179.55c-9-6.19-15.93-15.13-18-26.1-.59-5.38,1.8-10.5,3.36-15.78a67.27,67.27,0,0,0,4.51-24.24V97.2a67.5,67.5,0,0,0-67.51-67.5h-4.86A67.5,67.5,0,0,0,245,97.2v16.23a67.33,67.33,0,0,0,2.77,19.15l.21,1.66c2.61,14.93,9.09,18-.86,32.95-2.75,5.49-8.13,8.52-12.26,12.34,1.08,1.29,3.52,1.29,5.13,1.52,8.37.2,16.72.08,24.08-4.49,2.19,8.4-5.34,17.16-2.22,16.59,7.62-1.08,14.35-5.17,19.86-10.48a28.88,28.88,0,0,1-2.05,7.11c-.19,2.09-6.62,8.15-2.74,8.54a34.13,34.13,0,0,0,24.61-8.73c.22,4.82-5,8.12-6.52,12.36,8.2,1,15-4.48,19.91-10.43,4.77,5.81,11.94,11.76,19.89,10.35-2.17-4.17-6.06-7.33-7-12.58,7,6.32,15.54,9.09,25,9,4.54,1.11-5.36-11.49-4.9-15.51l.3-.13a34.45,34.45,0,0,0,13.73,8.88c1.42.18,8.3,3.5,6.73.07a21.46,21.46,0,0,1-2.87-15.09C374.39,180.94,385.83,183.19,395,179.55Z"/><path class="cls-2" d="M202.19,113.58c-4.23-3.46-11.47-5.51-10.44-12.22,1.14-11.27,15.4-18.59,10.51-31.17C198,55.51,174.77,37.83,161.86,51.8a69.69,69.69,0,0,0-50.78-21.88h0a70.69,70.69,0,0,0-13.9,1.38A65.3,65.3,0,0,0,66.91,45.63a70,70,0,0,0-6.55,6.1c-15-15-42.8,7.68-41.17,25.7.4,9.48,10.54,14.35,11.12,23.68.86,9.58-11.22,10.25-15.33,17.33-5.7,6.73-6.65,17.89-.26,24.49,4.77,4.68,11.85,4.52,17.9,6.26,18.61,6,3.61,30.12-10.67,22.34,4.18,14.72,32.55,10.55,28.47-5.49-.57-3.89,6.48-1.25,10.74-5.86a69.69,69.69,0,0,0,49.92,21h0a69.72,69.72,0,0,0,49.92-21c4.41,4.93,12.36,1.51,10.55,6.7-2.74,15.79,24.56,18.66,28.94,4.39-10.31,6.21-24.62-6.2-18-17.08,5.67-9,19.62-3.85,25.85-12.31C215.39,132.69,211,119.78,202.19,113.58Z"/><path class="cls-3" d="M558.1,166.39c6.17-12.14,7.45-25.75,7.76-39.09a71.09,71.09,0,0,0,2.58-19V96.76A71.19,71.19,0,0,0,533.37,35.4c-.61-.36-1.23-.71-1.85-1.06l-.78-.42a70,70,0,0,0-33.44-8.38h-.12c-.94,0-1.89,0-2.84.07l-1.4.07-1,.08c-1.08.08-2.16.18-3.23.31h-.07l-.12,0c-1,.12-1.93.25-2.89.41-30.44,4.67-51.2,25.49-57.17,51.72A71.25,71.25,0,0,0,426,96.76v11.57a71.54,71.54,0,0,0,2.39,18.34c.48,13.66,1.67,27.27,7.85,39.79-9.77,4.89-13.94,17.3-9.46,26.79,1.93,4,5.46,5.95,10,6.36,4,.32,10.23,3.42,8.69,7.91-1.51,3.54-5.72,1-4.59,3.62,8.65,1,16.08-5.33,19-12.72,2.21-5.56,1.55-11.32-.31-16.88,2.74,0,5.59.05,8.31-.25A34.79,34.79,0,0,0,478.94,178a3.61,3.61,0,0,1,1.91-.19q1,.13,2.1.3a71.63,71.63,0,0,0,7.81,1.13c.71.07,1.42.13,2.13.17l.5,0,.47,0c1.1.05,2.19.07,3.29.08h.09a69,69,0,0,0,7-.35l.36,0,1.17-.14a72.38,72.38,0,0,0,7.72-1.37,5.73,5.73,0,0,1,2.65.61c5.83,3,12.27,3.47,18.8,3.28-5.93,12.39,2.84,31.14,18.59,29.56.92-2.72-3.06,0-4.62-3.54-1.65-5,5.46-7.83,9.66-8.14a10.93,10.93,0,0,0,9.14-6.49C572.14,183.42,567.69,171.37,558.1,166.39Z"/><path class="cls-4" d="M745.25,85c.64-24.41-14-47.72-36.75-59.51,5.9-1.67,11.27-9.94,6-14.61,1.19,5.22-2.06,10-7.31,11.56,2.19-29-61.59-30.17-63.38-1.95-5-1.34-5.88-3.2-7-7.69-4.58,4.88-1.63,11.36,4.94,12.93C624,34.38,613.66,48.67,608.82,65a67.54,67.54,0,0,0-3.41,21.2v16.22a67.5,67.5,0,0,0,67.5,67.5h4.87a67.5,67.5,0,0,0,67.5-67.5V86.21C745.28,85.8,745.26,85.41,745.25,85Z"/><path class="cls-5" d="M170.47,270.92A67.52,67.52,0,0,0,107,226.37h-4.87a67.17,67.17,0,0,0-41.58,14.34,64.17,64.17,0,0,0-17.21,18.75c-4.89,7.42-7.06,15.75-9.07,24.12-2.52,3.71-5.84,7.3-5.48,12a37.54,37.54,0,0,0,1.71,10.8c2.15,6.35,3.3,5.69,4.2,6.66a67.66,67.66,0,0,0,2.9,17c1.17,10.36,1.56,20.88,5.14,30.82,5.67,17.87,26.52,29.37,45.87,23.58-3.85,7.8-5,16.76,4,21.81,4.89,3.87,21.64,9.7,13,16.8l.26.28c6.35-2.09,11.93-5.8,15.18-11.4,5.17-7.93,9.27-19.44,1.22-27,15.13,3.49,31.43-2.59,39.68-15,7.43-11.73,8.51-25.87,9.49-39.7a67.22,67.22,0,0,0,2.95-17.24c4.81-2.79,5.31-10.37,5.82-15.14a15,15,0,0,0-3.77-12.05,24.16,24.16,0,0,1-3.54-6.23"/><path class="cls-6" d="M371.87,286.79c-1.75-23.39-17.12-45.51-40.54-55.13-1.71-1.49-1.62-4.23-2.8-6.07-4.78-9.35-16.7-15.05-27.64-12.93-8.68,1.58-16.35,7.33-19.21,15.22a2.16,2.16,0,0,1-1.5,1.37,65.73,65.73,0,0,0-47.51,62.65c-.06,1.23-.1,2.48-.1,3.73V307a69.7,69.7,0,0,0,17.91,46.73c1.2,1.55,2.49,3.17,3.89,4.89a47.56,47.56,0,0,0-7,30.61c5.68,47.15,72.78,60.66,98.88,20l-.28-.18c-2.55,2-4.8,4.31-7.48,6.13-15.18,11.56-36.13,3.88-40.58-13.53-2.53-8.06-2-16.52.45-24.53a1.53,1.53,0,0,1,.13-.32c1.33.08,2.67.13,4,.13h0A69.93,69.93,0,0,0,372.44,307V295.63A71.47,71.47,0,0,0,371.87,286.79Z"/><path class="cls-7" d="M569.53,471.14a43.77,43.77,0,0,1,1.69-6,18.48,18.48,0,0,0,1.14-8.35,45.09,45.09,0,0,0-3.51-11.95c-2.13-5.12-4.24-10.24-6.19-15.43a16,16,0,0,1,.19-11.71,38.75,38.75,0,0,0,2.83-12.13c.32-7.13-1.1-14-3.22-20.73-1.92-6.16-3.88-12.3-5.71-18.48a34.21,34.21,0,0,1,.56-20.73c1.1-3.39,2.17-6.79,3-10.25a55.14,55.14,0,0,0,1.55-8.72,85.43,85.43,0,0,0,.11-11,74.92,74.92,0,0,0-1.24-9.55c-.56-3.08-.61-6.23-1.34-9.29a5.4,5.4,0,0,1-.11-.58,67.49,67.49,0,0,0-67.47-66.09H487A67.52,67.52,0,0,0,423.38,275c-.29.75-.6,1.49-.87,2.25a71.84,71.84,0,0,0-4.11,23.54,40.5,40.5,0,0,1-.39,5.83,82.59,82.59,0,0,0-1.34,16.83,61.82,61.82,0,0,0,2.58,14.83c.93,3,1.93,6,2.77,9a32.67,32.67,0,0,1,1.09,14.18c-.95,6-3,11.61-4.79,17.33-2.1,6.63-4.41,13.2-5,20.22a38.18,38.18,0,0,0,2.2,17.27,20.51,20.51,0,0,1,1.66,6.94c.07,3.8-1.23,7.27-2.57,10.69-1.69,4.32-3.63,8.54-5.42,12.82a36.81,36.81,0,0,0-2.77,10.58c-.34,3.44.86,6.56,1.91,9.74a25.16,25.16,0,0,1,1.07,5.84c.13,1.82-1,3.25-2.4,4.54a8.09,8.09,0,0,0,4.94.89c8.73-1,14.94-9.87,13.72-16.87a16.46,16.46,0,0,1,0-2.81l.37,0c1.17,3.75,3.43,6.89,5.54,10.12a12.52,12.52,0,0,1,2,5.32,14.42,14.42,0,0,1-1.16,7.43c-.39.93-.17,1.46.8,1.66a12.05,12.05,0,0,0,6.31-.12c5.44-1.8,8.9-5.65,11-10.87.1-.25.2-.5.38-.92.19,1.2.32,2.19.51,3.17a13.11,13.11,0,0,0,5.5,8.16,16.13,16.13,0,0,0,8,3.21,1.71,1.71,0,0,0,1.32-.41,1.42,1.42,0,0,0,0-1.29c-1.71-3-1.17-5.86.24-8.68a5,5,0,0,1,7.17-2,5.75,5.75,0,0,1,2.52,7.22,40,40,0,0,1-2.07,4.4c-.38.78-.64,1.56.43,2,2.54.95,6.81,1.11,9.25-1.43a24.43,24.43,0,0,0,4.21-5.5c1-1.88,1.66-1.86,2.83,0,.8,1.25,1.6,2.51,2.5,3.69,2.44,3.19,5.57,4.6,9.63,3.67,2.36-.54,2.57-1.05,1.33-3.19s-2.54-4.6-1.77-7.37a5.42,5.42,0,0,1,4.26-4,4.56,4.56,0,0,1,4.84,1.52,8.79,8.79,0,0,1,1.36,9c-.28.74-.84,1.57-.25,2.16.35.35,1.32.23,2,.13a15.9,15.9,0,0,0,11.17-7.09c1.48-2.11,1.8-4.6,2.28-7.13.15.46.28.92.46,1.37a18.82,18.82,0,0,0,5.6,7.52,12.68,12.68,0,0,0,10.47,3.1c1.86-.27,2.44-.36,1.56-2.55a12.54,12.54,0,0,1,1.2-12.29q2-3.07,3.86-6.27c.65-1.15,1.09-2.42,1.63-3.64a24.06,24.06,0,0,1,.18,3.57,14.69,14.69,0,0,0,0,2.39A16.35,16.35,0,0,0,564.9,478a9.83,9.83,0,0,0,6.81-.41,3.06,3.06,0,0,0-.42-.7A5.64,5.64,0,0,1,569.53,471.14Z"/><path class="cls-8" d="M749.63,389c-4.57-1.11-6.56-7.79-3-10.93,4.78-3.32,10.75-7.7,6.87-14.14-3.11-7.62-11.71-10.84-14.69-18.45-4-22.47,3.68-11.17,4.07,2.75,9.87-12.52,0-20.43-3.41-31.76,0-.66,0-1.32,0-2V298.25a67.5,67.5,0,0,0-67.5-67.5h-4.87a67.5,67.5,0,0,0-67.5,67.5v16.23c0,.62,0,1.24.05,1.86-3.17,11.13-13.39,19.62-3.49,31.89,1.46-5-.3-12.07,4.63-15.73,1.25,6.15.74,14-4.16,18.62-7.16,6.17-19.44,18.43-6.28,25.14,5,2.5,5.19,10.58-.35,12.55-2,1-4.46.38-6.29,1.24,1.48,5.5,9,6.88,14,6.38,8.5-.36,14.72-7.39,23-8.37,11.2-1,19,11.17,30.55,8.34a34.34,34.34,0,0,0,11.92-3.55c9.78-4.76,18.45,5,28.55,3.78,8.45.36,14-6.75,21.86-8.3,13.94-2.26,29.54,18.07,41.64,2.62C756.3,388.71,750.94,390,749.63,389Z"/><path class="cls-9" d="M189.07,585.25c-5,7-5.89-3.69-11.81-1.16-2.18-4.59-4.39-5.78-9.25-7-1.38-3.71-4.53-5.59-8.77-5.07.72-4.82.2-9.24-4-12.46a67.12,67.12,0,0,0,9.26-34.11V509.2a67.64,67.64,0,0,0-2.74-19.05,48.57,48.57,0,0,0-3.09-8.85A64.71,64.71,0,0,0,135,453.37l-.59-.39-.3-.2a67.2,67.2,0,0,0-35.41-11,81.56,81.56,0,0,0-9.25,0,67,67,0,0,0-21.59,4.47c-19,6.89-35,21.42-41.27,43.22A109.85,109.85,0,0,0,24.67,522v3.45a67.11,67.11,0,0,0,9.11,33.85c-3.06,3.84-4.75,7.42-3.72,12.69A7.74,7.74,0,0,0,21.32,577c-2.71,1.24-5.09.72-7.16,3.74-1.67,4.76-5.5,1.58-8,5.23-2.29,3.31-4,1.21-6-.87-1.73,9.85,10.06,13,16.55,7,4.64,2.46,15.82,6.66,17.73-.28,3.91.38,11,.34,11.29-4.56,0-.4.11-.67.69-.58a10.14,10.14,0,0,0,9.17-3,6.75,6.75,0,0,1,1-.86,67.16,67.16,0,0,0,35.6,10.16H97a67.15,67.15,0,0,0,35.67-10.21,11.77,11.77,0,0,0,10.75,4c0,5.69,7.22,5,11.49,5.22,1,6.64,14,2.93,17.62-.12,3.59,5.08,13.41,4.29,16.1-1.29C189.47,588.82,189.17,587.07,189.07,585.25Z"/></g></g></svg>