<svg xmlns="http://www.w3.org/2000/svg" xmlns:xlink="http://www.w3.org/1999/xlink" viewBox="0 0 721.18 446.03"><defs><style>.cls-1{fill:url(#linear-gradient);}.cls-2{fill:url(#linear-gradient-2);}.cls-3{fill:url(#linear-gradient-3);}.cls-4{fill:url(#linear-gradient-4);}.cls-5{fill:url(#linear-gradient-5);}.cls-6{fill:url(#linear-gradient-6);}.cls-7{fill:url(#linear-gradient-7);}.cls-8{fill:url(#linear-gradient-8);}</style><linearGradient id="linear-gradient" x1="91.33" y1="155.62" x2="91.33" y2="4.39" gradientUnits="userSpaceOnUse"><stop offset="0" stop-color="#282828"/><stop offset="0.14" stop-color="#1a1a1a"/><stop offset="0.35" stop-color="#0b0b0b"/><stop offset="0.6" stop-color="#030303"/><stop offset="1"/></linearGradient><linearGradient id="linear-gradient-2" x1="442.19" y1="349.38" x2="442.19" y2="190.4" xlink:href="#linear-gradient"/><linearGradient id="linear-gradient-3" x1="268.39" y1="154.24" x2="268.39" y2="0.46" xlink:href="#linear-gradient"/><linearGradient id="linear-gradient-4" x1="630.03" y1="345.68" x2="630.03" y2="194.45" xlink:href="#linear-gradient"/><linearGradient id="linear-gradient-5" x1="442.17" y1="164.84" x2="442.17" y2="0" xlink:href="#linear-gradient"/><linearGradient id="linear-gradient-6" x1="267.4" y1="350.81" x2="267.4" y2="188.57" xlink:href="#linear-gradient"/><linearGradient id="linear-gradient-7" x1="91.33" y1="446.03" x2="91.33" y2="189.65" xlink:href="#linear-gradient"/><linearGradient id="linear-gradient-8" x1="612.87" y1="155.39" x2="612.87" y2="1.13" xlink:href="#linear-gradient"/></defs><g id="Layer_2" data-name="Layer 2"><g id="Layer_1-2" data-name="Layer 1"><rect class="cls-1" x="21.4" y="4.39" width="139.87" height="151.23" rx="67.5"/><path class="cls-2" d="M528.9,221.59c-1-20.21-22.78-35.37-42-30.16-7.74,1.41-13.57,6.64-18.93,11.63a69.36,69.36,0,0,0-16.17-4.25,47.62,47.62,0,0,0-9.52-.67h-.1a47.67,47.67,0,0,0-9.52.67,69.36,69.36,0,0,0-16.17,4.25c-5.35-5-11.19-10.22-18.93-11.63-19.25-5.21-41.06,9.95-42,30.16-.79,13.43,6,26.67,18.11,32.9a70,70,0,0,0-1.33,13.59v11.36a69.93,69.93,0,0,0,69.93,69.94h0a69.94,69.94,0,0,0,69.94-69.94V268.08a70.77,70.77,0,0,0-1.33-13.59C522.87,248.26,529.7,235,528.9,221.59Z"/><path class="cls-3" d="M352.55,78.47a4.38,4.38,0,0,0-1.06-.33,24.77,24.77,0,0,1-4.05-1.5c-4.1-2.36-6.61-6.14-8.93-10a4,4,0,0,1-.26-.56,62.8,62.8,0,0,0-1.26-10s0-.06,0-.09c-.18-1.23-.47-2.44-.72-3.66l.25-.13a27.62,27.62,0,0,1,2.36,2.22c.82,1,1.49,2,2.25,3,.13.17.4.39.53.35a1.24,1.24,0,0,0,.57-.52,1.55,1.55,0,0,0,.12-.66,38.07,38.07,0,0,0-.5-9.47,23.67,23.67,0,0,0-7.76-14.4A79.77,79.77,0,0,0,321.37,24a29.67,29.67,0,0,1-4-3.6c.9.06,1.49.13,2.07.13,2.64,0,5.29,0,7.93,0,.41,0,.81-.38,1.22-.58-.29-.37-.51-.89-.9-1.07-1.23-.57-2.5-1-3.78-1.49-4.33-1.52-8.72-2.91-13-4.55s-8.5-3.55-12.76-5.32c-3.08-1.28-6.12-2.67-9.28-3.72-3.43-1.13-6.94-2-10.47-2.83a19.92,19.92,0,0,0-8.56-.09,19.28,19.28,0,0,1-3.39.33c-2.06,0-4.15-.25-6.19-.06-5.88.54-11.34,2.55-16.72,4.74-4.31,1.75-8.55,3.64-12.85,5.41-2.85,1.18-5.75,2.3-8.65,3.37-2.61,1-5.26,1.8-7.88,2.72-1.74.62-3.46,1.27-5.15,2-.34.14-.51.63-.76.95.33.21.63.56,1,.61a18.59,18.59,0,0,0,3.16.22c2.27,0,4.55-.2,6.92-.31-1,1-1.81,2-2.79,2.86A20.18,20.18,0,0,1,214.4,25c-3.13,2.08-6.34,4.06-9.34,6.3a25.22,25.22,0,0,0-8.22,9.94,33.58,33.58,0,0,0-2.24,16.3c0,.27.36.52.55.77a3.21,3.21,0,0,0,.69-.5c.51-.68.91-1.44,1.47-2.07.95-1.07,2-2.07,3-3.11a2.49,2.49,0,0,1,.23.49,62.5,62.5,0,0,0-2,13.76s0,0,0,0c-1.82,2.45-3.6,5-5.57,7.3A10.82,10.82,0,0,1,187.11,78a13.16,13.16,0,0,0-2.41.73,4.83,4.83,0,0,0-1.17,1,5.9,5.9,0,0,0,1.05.83,10,10,0,0,0,5.36.68c1.19-.1,2.35-.37,3.66-.59-.08.53-.13.92-.21,1.3a11,11,0,0,0,1.46,8.63,15.36,15.36,0,0,0,3.94,4.1,62.92,62.92,0,0,0,5.82,20.7l-.05.08c-1.68,2.61-3.36,5.23-6.18,6.91-1.06.64-1.07,1.52,0,2.15.35.2.77.28,1.11.49a6.23,6.23,0,0,0,4.71.82c1.64-.4,3.21-1.08,4.78-1.62.14,10.55,6.48,14.85,13.73,15.49-.5-.91-.95-1.75-1.4-2.56a69.94,69.94,0,0,0,27.31,14.37l.68.45a3,3,0,0,1-.09-.29l.47.13s0,.08,0,.12h.45c.65.16,1.31.29,2,.44l0,.09c1.12.21,2.15.43,3.17.58a1.76,1.76,0,0,0,.32,0c.42.07.83.15,1.26.21a.52.52,0,0,0,.26.1l2.05.19c1.51.17,3,.32,4.57.4l3.06.24c.24,0,.74.25.85-.14h.59v.19c1.4-.22,2.88.1,4.26-.27.39,0,.78,0,1.17-.06.18.32.55.08.84-.06a70.45,70.45,0,0,0,40.71-16.44c-.32.59-.65,1.17-1,1.75l.3.27a15.72,15.72,0,0,0,7.76-3c4.49-3.17,5.28-7.88,5.66-12.81l1.5.76a8.83,8.83,0,0,0,9.1-.29c.83-.49,1-1.59.36-1.94a12.48,12.48,0,0,1-4.9-4.65c-.48-.79-1.16-1.54-1.7-2.32A63.06,63.06,0,0,0,338,94.27a16.28,16.28,0,0,0,4.51-5.3,10.52,10.52,0,0,0,1.14-5.54c-.05-1-.27-2.07-.41-3.11a3.85,3.85,0,0,1,.44,0c.16,0,.33.08.5.11,2.77.62,5.53.92,8.2-.31.35-.15.84-.47.85-.72S352.87,78.68,352.55,78.47Z"/><path class="cls-4" d="M721.13,269.48c.12-22.53-5-48.69-23.27-63.65-8.26-7-23-11.69-30-1.39a67.24,67.24,0,0,0-35.35-10H627.6a67.21,67.21,0,0,0-35.35,10c-7.07-10.3-21.79-5.61-30,1.39-18.26,15-23.39,41.12-23.27,63.65-.64,13.58,5.47,27.16,14.45,35.9-5.55-15.35-2.2-26.88,6.71-39.15v11.95a67.5,67.5,0,0,0,67.5,67.5h4.87a67.5,67.5,0,0,0,67.5-67.5V266.23c8.91,12.27,12.26,23.8,6.71,39.15C715.66,296.64,721.77,283.06,721.13,269.48Z"/><path class="cls-5" d="M498.51,124.45a67.25,67.25,0,0,0,13.67-40.72V67.5A67.5,67.5,0,0,0,444.67,0h-4.86a67.5,67.5,0,0,0-67.5,67.5V83.73a67.18,67.18,0,0,0,13.62,40.66c-12.37,7.18-21.27,13.62-22.75,17.92.45,13.48,24.61,24.07,29.68,22.35,4.91-1.66,10.36-22.65,10.7-24a67.13,67.13,0,0,0,36.25,10.57h4.86a67.2,67.2,0,0,0,36.13-10.49c.47,1.83,5.84,22.28,10.68,23.92,5.07,1.72,29.23-8.87,29.69-22.35C519.69,138,510.83,131.6,498.51,124.45Z"/><path class="cls-6" d="M351.06,350c-2.15-2.53-3.47-5.52-4.92-8.47-1.58-3.25-2.39-6.71-3.55-10.09-1.54-4.45-2.07-9.12-3-13.71-.27-1.38-.28-2.81-.51-4.21a72.58,72.58,0,0,1-1-10.7c0-4.4,0-8.81.05-13.21.05-1.74.48-3.47.69-5.21.35-3,.71-6,1-9q.49-5.72.84-11.44a61.87,61.87,0,0,0-.18-13.19c-.45-3-.75-6.12-1.49-9.08a58.3,58.3,0,0,0-3.14-9.49,88.84,88.84,0,0,0-5.28-9.91,50.44,50.44,0,0,0-5.13-7.33,113.51,113.51,0,0,0-8.13-8.14,53,53,0,0,0-5.78-4.65,76.62,76.62,0,0,0-7.27-4.52,67.14,67.14,0,0,0-13.46-5.67,81.43,81.43,0,0,0-12.38-2.8c-.94-.12-1.88-.21-2.83-.29l-.54-.06-.43,0c-2.1-.19-4.22-.3-6.36-.3h-1.68c-2.14,0-4.26.11-6.36.3l-.43,0-.54.06c-1,.08-1.89.17-2.83.29a81.43,81.43,0,0,0-12.38,2.8,67.14,67.14,0,0,0-13.46,5.67,76.62,76.62,0,0,0-7.27,4.52,53,53,0,0,0-5.78,4.65,113.51,113.51,0,0,0-8.13,8.14,50.44,50.44,0,0,0-5.13,7.33,88.84,88.84,0,0,0-5.28,9.91,58.3,58.3,0,0,0-3.14,9.49c-.74,3-1,6.05-1.49,9.08a61.87,61.87,0,0,0-.18,13.19q.34,5.73.84,11.44c.26,3,.62,6,1,9,.21,1.74.64,3.47.69,5.21.1,4.4.08,8.81.05,13.21a72.58,72.58,0,0,1-1,10.7c-.23,1.4-.24,2.83-.51,4.21-.89,4.59-1.42,9.26-3,13.71-1.16,3.38-2,6.84-3.55,10.09-1.45,2.95-2.77,5.94-4.92,8.47-.13.15-.06.46-.09.77h.92l12.49-.21,12-.15a37.9,37.9,0,0,1,5.22,0c1.26.16,1.6-.41,1.93-1.31a29.79,29.79,0,0,0,1.85-7.55c.14-1.81.33-3.62.5-5.42l.36,0c.39,4.59.79,9.19,1.18,13.75a18,18,0,0,0,2.67.42c1.5,0,3-.11,4.48-.14,4.41-.09,8.83-.14,13.24-.25.38,0,1-.25,1.08-.49a11.4,11.4,0,0,0,.13-2.41c0-.46,0-.92-.06-1.37a17.55,17.55,0,0,1,1.89,3.46,1.2,1.2,0,0,0,1.38.84c2.27-.06,4.55-.14,6.83-.16l15.7-.18,15.7.18c2.28,0,4.56.1,6.83.16a1.2,1.2,0,0,0,1.38-.84,17.55,17.55,0,0,1,1.89-3.46c0,.45-.07.91-.06,1.37a11.4,11.4,0,0,0,.13,2.41c.05.24.7.49,1.08.49,4.41.11,8.83.16,13.24.25,1.49,0,3,.17,4.48.14a18,18,0,0,0,2.67-.42c.39-4.56.79-9.16,1.18-13.75l.36,0c.17,1.8.36,3.61.5,5.42a29.79,29.79,0,0,0,1.85,7.55c.33.9.67,1.47,1.93,1.31a37.9,37.9,0,0,1,5.22,0l12,.15,12.49.21h.92C351.12,350.5,351.19,350.19,351.06,350Z"/><path class="cls-7" d="M181.84,430.65a12,12,0,0,1-1.63-2.4c-1.45-4.05-3-8.09-4.11-12.24-1.36-5-2.4-10.05-3.46-15.11-.79-3.75-1.41-7.55-2.08-11.33q-.78-4.43-1.49-8.86-.6-3.84-1.11-7.68c-.34-2.64-.62-5.29-.93-7.94-.34-2.85-.72-5.71-1-8.57-.27-2.47-.46-4.95-.69-7.43-.28-2.87-.59-5.73-.84-8.6-.19-2.12-.29-4.25-.46-6.37-.35-4.21-.73-8.41-1.06-12.61-.25-3.13-.45-6.26-.65-9.39-.23-3.49-.47-7-.65-10.46-.19-3.73-.31-7.45-.47-11.18-.05-1.21-.12-2.42-.17-3.62a69.55,69.55,0,0,0,.45-7.81V262.53c0-1.44.06-2.87,0-4.3a69.23,69.23,0,0,0-69.22-68.58H90.44A69.24,69.24,0,0,0,25.08,236c-.08.21-.16.41-.23.62a65.78,65.78,0,0,0-3.74,17c-.34,4.49-.09,9-.07,13.55,0,1,.08,2,.16,3v8.83a67.89,67.89,0,0,0,.36,7c-.21,3.9-.32,7.81-.51,11.71s-.45,7.5-.66,11.26c-.24,4.17-.45,8.34-.68,12.52-.06,1-.14,2.09-.23,3.13-.28,3.34-.58,6.68-.85,10-.17,2.19-.28,4.39-.46,6.59-.26,3.19-.56,6.39-.86,9.58-.14,1.58-.3,3.16-.47,4.74-.27,2.39-.56,4.79-.83,7.18-.25,2.22-.46,4.45-.74,6.66-.38,3-.81,6-1.22,9s-.83,6.17-1.32,9.24q-.8,4.93-1.74,9.84c-.88,4.59-1.7,9.19-2.8,13.72C6.94,416.46,5.51,421.66,4,426.81a16,16,0,0,1-3.43,6.78A4.06,4.06,0,0,0,0,434.76c2.32.55,4.4,1.08,6.49,1.53q12.19,2.59,24.38,5.16c.54.12.86,0,1-.65.7-3.15,1.48-6.27,2.16-9.42q1.28-5.85,2.42-11.71c.4-2,.67-4.07,1-6.11a14.14,14.14,0,0,1,.27,2.74c-.07,3.29-.18,6.57-.28,9.87,0,1.76,0,3.54-.14,5.31-.16,3.24-.37,6.48-.59,9.72-.05.72.21,1.08.93,1.18,1.77.27,3.53.58,5.3.83,2.71.37,5.41.71,8.12,1a.93.93,0,0,0,.76-.45c.25-.7.36-1.46.54-2.18q.87-3.39,1.76-6.78a2,2,0,0,1,.49,1.13c.22,2.66.43,5.32.61,8,.05.6.28.8.87.84,4,.26,7.92.61,11.88.82,4.29.22,8.59.41,12.88.43,5.57,0,11.14-.11,16.71-.19,1.08,0,2.15-.14,3.23-.19a42.88,42.88,0,0,1,5.19-.12c.75.06.91-.13,1-.68s.1-1.15.19-1.72c.4-2.63.89-5.24,1.22-7.88.38-3,.66-6,.9-9,.33-4.17.6-8.35.86-12.53.15-2.29.2-4.59.31-7,1.63,12.73,3.24,25.36,4.86,38,3.69-.37,7.35-.69,11-1.11,2.42-.27,4.83-.7,7.25-1,1.81-.25,3.63-.57,5.46-.64.9,0,1.16-.25,1.28-1.12.31-2.18.74-4.34,1.12-6.51l.29,0c.82,2.28,1.63,4.56,2.4,6.74l14.75-2.86a140.24,140.24,0,0,1-4.1-27.64c.92,3.19,1.72,6.42,2.78,9.56,1.28,3.8,2.73,7.55,4.23,11.27a40.1,40.1,0,0,0,2.52,4.87,1.06,1.06,0,0,0,.93.39q5.73-1.46,11.43-3c2-.53,3.9-1.13,6-1.74Z"/><path class="cls-8" d="M682.81,84.86V69.11a77.54,77.54,0,0,0-.24-9.64,44.44,44.44,0,0,0-1.52-7.7,98.36,98.36,0,0,0-3.2-9.85,52.43,52.43,0,0,0-3.56-6.85c-1-1.79-2.23-3.5-3.4-5.23-.6-.88-1.27-1.75-2-2.58-1.26-1.5-2.52-3-3.87-4.42s-2.62-2.65-4-3.91a6.87,6.87,0,0,0-.66-.52A67.26,67.26,0,0,0,615.31,1.13h-4.87a71.65,71.65,0,0,0-46.65,18.53A64.41,64.41,0,0,0,552.73,32.8,62.57,62.57,0,0,0,546,46.9a50.21,50.21,0,0,0-2.73,13c-.18,3.25-.42,6.5-.34,9.74,0,.29,0,.59,0,.88V84.86a67.26,67.26,0,0,0,8.41,32.64v0a26.09,26.09,0,0,1-2.2,10c-.41.91-1,1.75-1.44,2.64-.33.66,0,.92.69.71,1.21-.4,2.42-.81,3.58-1.32s2.22-1.16,3.39-1.78a3.33,3.33,0,0,1,0,.51c0,.2-.1.39-.13.59a17.67,17.67,0,0,0,.43,8.6c1.17,3.35,3.58,5.84,6.39,8,.93.72,1.92,1.64,3.55,1.31-.1-.56-.16-1.08-.3-1.57a10.45,10.45,0,0,1,1.38-9,68.52,68.52,0,0,0,9.82,6.95s0,.07,0,.11c.57,2.28,0,4.45-.19,6.67-.07.69-.73,1.43-.07,2.09a16.75,16.75,0,0,0,7.11-5.37q2.64,1.16,5.39,2.08a3.88,3.88,0,0,1,.55,1,5.4,5.4,0,0,0,1.11,1.5,12.52,12.52,0,0,0,6.81,4c1,.24,1.46-.11,1.16-1a4.24,4.24,0,0,1-.08-3,67.85,67.85,0,0,0,12.08,1.1h4.87a67.85,67.85,0,0,0,12.08-1.1c.42,1,0,1.94-.21,2.9s.23,1.22,1.06,1a25.28,25.28,0,0,0,3.68-1.37,12.53,12.53,0,0,0,4.86-4.88s0,0,0,0q2.85-1,5.6-2.16a16.63,16.63,0,0,0,7.2,5.28c-.1-.78-.16-1.47-.26-2.15a17.65,17.65,0,0,1-.37-6.1c0-.15.06-.28.1-.42a68.09,68.09,0,0,0,10-7.07,10.51,10.51,0,0,1,1.58,7.54c-.15,1-.41,1.89-.63,2.86,1.44.11,1.62.29,4.9-2.39,5.41-4.42,6.9-10.14,5.2-16.82.53.29.73.43,1,.53,2,.89,4.06,1.8,6.11,2.67a2.07,2.07,0,0,0,.78,0,1.86,1.86,0,0,0-.07-.72c-.33-.65-.78-1.25-1.1-1.91a24.92,24.92,0,0,1-2.38-8.64,9.52,9.52,0,0,1,0-1.85A67.15,67.15,0,0,0,682.81,84.86Z"/></g></g></svg>