<svg xmlns="http://www.w3.org/2000/svg" xmlns:xlink="http://www.w3.org/1999/xlink" viewBox="0 0 607.56 250.83"><defs><style>.cls-1{fill:url(#linear-gradient);}.cls-2{fill:url(#linear-gradient-2);}.cls-3{fill:url(#linear-gradient-3);}.cls-4{fill:url(#linear-gradient-4);}.cls-5{fill:url(#linear-gradient-5);}.cls-6{fill:url(#linear-gradient-6);}.cls-7{fill:url(#linear-gradient-7);}.cls-8{fill:url(#linear-gradient-8);}.cls-9{fill:url(#linear-gradient-9);}</style><linearGradient id="linear-gradient" x1="379" y1="77.62" x2="379" gradientUnits="userSpaceOnUse"><stop offset="0" stop-color="#282828"/><stop offset="0.01" stop-color="#252525"/><stop offset="0.13" stop-color="#141414"/><stop offset="0.26" stop-color="#090909"/><stop offset="0.46" stop-color="#020202"/><stop offset="1"/></linearGradient><linearGradient id="linear-gradient-2" x1="61.25" y1="85.48" x2="61.25" gradientUnits="userSpaceOnUse"><stop offset="0" stop-color="#282828"/><stop offset="0.14" stop-color="#1a1a1a"/><stop offset="0.35" stop-color="#0b0b0b"/><stop offset="0.6" stop-color="#030303"/><stop offset="1"/></linearGradient><linearGradient id="linear-gradient-3" x1="376.72" y1="250.83" x2="376.72" y2="156.96" xlink:href="#linear-gradient"/><linearGradient id="linear-gradient-4" x1="216.84" y1="95.85" x2="216.84" xlink:href="#linear-gradient-2"/><linearGradient id="linear-gradient-5" x1="546.31" y1="85.48" x2="546.31" xlink:href="#linear-gradient-2"/><linearGradient id="linear-gradient-6" x1="61.7" y1="242.44" x2="61.7" y2="156.96" xlink:href="#linear-gradient-2"/><linearGradient id="linear-gradient-7" x1="216.99" y1="240.68" x2="216.99" y2="156.96" xlink:href="#linear-gradient"/><linearGradient id="linear-gradient-8" x1="538.62" y1="203.97" x2="538.62" y2="175.21" xlink:href="#linear-gradient-2"/><linearGradient id="linear-gradient-9" x1="538.63" y1="244.46" x2="538.63" y2="156.96" xlink:href="#linear-gradient"/></defs><g id="Layer_2" data-name="Layer 2"><g id="Layer_1-2" data-name="Layer 1"><path class="cls-1" d="M441.38,58.79a55.62,55.62,0,0,1-3.27,18.83H411.53A92.06,92.06,0,0,0,403.18,60s1.3,11.38.85,17.53v.13H391.09a24,24,0,0,1-4.6-5.55,11.73,11.73,0,0,0,1.23,5.55h-22A29.5,29.5,0,0,1,357.81,54c-1.36,9.27,0,19.39.69,23.63H345.68c-2.42-7.17-3-17.64-3-16.16,0,1.64,0,.51-.09,1s-2,11.44-2.64,15.13h-20a55.38,55.38,0,0,1-3.27-18.83C316.63,26.33,344.55,0,379,0S441.38,26.33,441.38,58.79Z"/><path class="cls-2" d="M122.5,61.25a60.94,60.94,0,0,1-4.9,24l-6.09-3.78a51.7,51.7,0,1,0-100.46.2L5,85.48A61.26,61.26,0,1,1,122.5,61.25Z"/><path class="cls-3" d="M441.05,222.46a65.48,65.48,0,0,1-.62,9c-.29,5.67-.65,13.08-.89,19.35,0,0-25.81-5.81-42.94-50.72.24,1,5.39,23.72-14.9,38.22a34.06,34.06,0,0,0,5.79,7.6,60.78,60.78,0,0,1-10.83-4.47,61.33,61.33,0,0,1-10.84,4.47,33.89,33.89,0,0,0,5.8-7.6c-20.29-14.5-15.14-37.21-14.9-38.22-17.13,44.91-43,50.72-43,50.72-.26-7-.68-15.37-1-21.21-.23-4.26-.39-7.16-.39-7.16,0-36.17,28.8-65.5,64.33-65.5S441.05,186.29,441.05,222.46Z"/><path class="cls-4" d="M279.34,71.37c0,2.61-.13,5.19-.37,7.73a25.7,25.7,0,0,1-8.54,16.75l-1-9.6c-24.45-11.86-39.56-27.67-48.2-39.52-.58,15.47,1.39,24.69,1.39,24.69-7.86-7-8.05-20.4-7.26-28.74-8,12.08-23.67,30.31-51,43.57l-1,9.6a25.76,25.76,0,0,1-8.55-16.75q-.36-3.81-.36-7.73c0-19.69,7-37.52,18.29-50.43S199.55,0,216.8,0h.09C251.39.06,279.34,32,279.34,71.37Z"/><path class="cls-5" d="M546.31,0A61.28,61.28,0,0,0,490,85.48a55,55,0,0,0,5.52-3.43l.55-.34v0c9.3-6.53,27.16-21.93,38.06-49.71,0,0-.68,21.89,17.43,34.85,0,0-10.55-14.9-10.66-25.45,0,0,23.73,32.23,61.74,43.92A61.3,61.3,0,0,0,546.31,0Z"/><path class="cls-6" d="M118.06,242.25a61.25,61.25,0,1,0-112.63.19S39.57,228.07,74.88,199c0,0,13.43,22.77,37.11,39.28"/><path class="cls-7" d="M278.21,218.21A61.25,61.25,0,0,0,217,157h0a61.25,61.25,0,0,0-61.21,61.25c0,8.61-.13,12.38,1,22.47a95,95,0,0,1,8.91-8.14A108.17,108.17,0,0,1,196,214.82a55.09,55.09,0,0,1,3.72-17s.44,8.73,1.35,15.34c.63-.19,1.27-.37,1.91-.54a54.48,54.48,0,0,1,28.06,0c.64.17,1.27.35,1.91.54.91-6.61,1.35-15.34,1.35-15.34a55.09,55.09,0,0,1,3.72,17,108.17,108.17,0,0,1,30.29,17.72,95,95,0,0,1,8.91,8.14C278.34,230.59,278.21,226.82,278.21,218.21Z"/><path class="cls-8" d="M562.93,202.16c-16.74-10.32-24.31-5.57-24.31-5.57s-7.57-4.75-24.31,5.57,19.26-26.95,19.26-26.95l5,1,5-1S579.67,212.48,562.93,202.16Z"/><path class="cls-9" d="M599.87,219c0-.24,0-.49,0-.74a61.25,61.25,0,0,0-122.5-.23.9.9,0,0,0,0,.23c-.13,15.07-1.07,25-1.07,25,28.35,8.1,36-25.53,36-25.53,1.81,11.32,12,8.87,12,8.87s-10.66-9.33.62-29c10.3-18,13.23-3.75,13.65-1.15v0c0,.08,0,.16,0,.21a1,1,0,0,0,0-.21.06.06,0,0,0,0,0c.42-2.6,3.36-16.85,13.65,1.15,11.28,19.72.62,29,.62,29s10.21,2.45,12-8.87c0,0,7.62,33.63,36,25.53C601,243.2,600,233.61,599.87,219ZM538.54,174.6l.08-.06.1.06Z"/></g></g></svg>