<svg xmlns="http://www.w3.org/2000/svg" xmlns:xlink="http://www.w3.org/1999/xlink" viewBox="0 0 379.42 159.4"><defs><style>.cls-1{fill:url(#linear-gradient);}.cls-2{fill:url(#linear-gradient-2);}.cls-3{fill:url(#linear-gradient-3);}</style><linearGradient id="linear-gradient" x1="61.76" y1="159.4" x2="61.76" gradientUnits="userSpaceOnUse"><stop offset="0" stop-color="#ffd97b"/><stop offset="0.21" stop-color="#ffd775"/><stop offset="0.47" stop-color="#ffd365"/><stop offset="0.77" stop-color="#ffcb4a"/><stop offset="1" stop-color="#ffc431"/></linearGradient><linearGradient id="linear-gradient-2" x1="200.38" y1="127.36" x2="200.38" xlink:href="#linear-gradient"/><linearGradient id="linear-gradient-3" x1="331.72" y1="61.48" x2="331.72" xlink:href="#linear-gradient"/></defs><g id="Layer_2" data-name="Layer 2"><g id="Layer_1-2" data-name="Layer 1"><path class="cls-1" d="M103.73,0C82,8.85,67.2,9.43,62.55,9.36V9.29l-.78.05L61,9.29v.07C56.31,9.43,41.51,8.85,19.79,0,19.79,0,3.06,73.57,0,144.82a1.11,1.11,0,0,0,.52,1c3.69,2.37,25.77,15.54,57.35,13.33A1.14,1.14,0,0,0,58.92,158c-.17-11.84-1.63-118.57,2.67-118.57h.33c4.3,0,2.85,106.73,2.68,118.57a1.14,1.14,0,0,0,1,1.15c31.59,2.21,53.67-11,57.36-13.33a1.1,1.1,0,0,0,.51-1C120.46,73.57,103.73,0,103.73,0Z"/><path class="cls-2" d="M262.47,115.26A838.54,838.54,0,0,0,242.73.15C220,9.42,206,9.52,201.17,9.44a.23.23,0,0,1,0-.07s-.41,0-.78,0-.72,0-.77,0a.56.56,0,0,0,0,.07c-4.88.08-19.11-.18-41.86-9.44A871.94,871.94,0,0,0,138.3,115.26a1.72,1.72,0,0,0,1,1.75c6.5,2.7,26.63,10,56,10.35a1.71,1.71,0,0,0,1.74-1.75c-1-47.42,1.18-80.5,3.32-82.36,2.14,1.86,4.32,34.94,3.33,82.36a1.71,1.71,0,0,0,1.74,1.75c29.34-.39,49.47-7.65,56-10.35A1.72,1.72,0,0,0,262.47,115.26Z"/><path class="cls-3" d="M374.42,0h0c-22.13,9-37.2,9.61-41.95,9.53,0,0,0,0,0-.06l-.74,0-.73,0s0,0,0,.06C326.23,9.61,311.16,9,289,0h0c-.09.57-3.51,23.64-5,50.75h0a1.61,1.61,0,0,0,.93,1.56,89,89,0,0,0,13.4,4.92,119.86,119.86,0,0,0,29.91,4.23A1.63,1.63,0,0,0,329.92,60c.22-3.58.3-6.61.57-9.15.52-4.9.66-7.84,1.23-8.38.58.54.72,3.48,1.24,8.38.27,2.54.35,5.57.57,9.15a1.63,1.63,0,0,0,1.65,1.52,119.86,119.86,0,0,0,29.91-4.23,89,89,0,0,0,13.4-4.92,1.61,1.61,0,0,0,.93-1.56h0C377.93,23.65,374.51.58,374.42,0Z"/></g></g></svg>