<svg width="123" height="84" viewBox="0 0 123 84" fill="none" xmlns="http://www.w3.org/2000/svg">
<path d="M122.425 61.21C122.414 44.9794 115.962 29.4165 104.485 17.9397C93.008 6.46289 77.4452 0.0105962 61.2146 0C44.977 0.0106041 29.4081 6.46839 17.9301 17.9538C6.45216 29.4393 0.00454496 45.0124 0.00454842 61.25C0.00454842 69.86 -0.125452 73.63 1.00455 83.72C3.79903 80.8206 6.77503 78.1018 9.91455 75.58C18.9796 68.0489 29.2145 62.0499 40.2146 57.82C40.5461 51.992 41.8017 46.2538 43.9346 40.82C43.9346 40.82 44.3746 49.55 45.2846 56.16C45.9146 55.97 46.5546 55.79 47.1945 55.62C56.3874 53.17 66.0617 53.17 75.2545 55.62C75.8945 55.79 76.5246 55.97 77.1646 56.16C78.0746 49.55 78.5146 40.82 78.5146 40.82C80.6474 46.2538 81.9031 51.992 82.2346 57.82C93.2284 62.0386 103.46 68.024 112.525 75.54C115.664 78.0617 118.64 80.7806 121.435 83.68C122.555 73.59 122.425 69.82 122.425 61.21Z" fill="url(#paint0_linear_66_11)"/>
<defs>
<linearGradient id="paint0_linear_66_11" x1="61.2045" y1="83.68" x2="61.2045" y2="-0.0400006" gradientUnits="userSpaceOnUse">
<stop stop-color="#a98ce5"/>
<stop offset="0.01" stop-color="#a487df"/>
<stop offset="0.13" stop-color="#886ac0"/>
<stop offset="0.26" stop-color="#7557ab"/>
<stop offset="0.46" stop-color="#694b9e"/>
<stop offset="1" stop-color="#66489a"/>
</linearGradient>
</defs>
</svg>
