<svg width="123" height="86" viewBox="0 0 123 86" fill="none" xmlns="http://www.w3.org/2000/svg">
<path d="M117.606 85.2418C121.574 75.9193 123.169 65.758 122.245 55.6681C121.322 45.5782 117.91 35.8749 112.315 27.4277C106.72 18.9805 99.1168 12.0532 90.1868 7.26644C81.2568 2.47968 71.2787 -0.017005 61.1467 8.71708e-05C51.0146 0.0171793 41.0451 2.54751 32.1313 7.36438C23.2174 12.1812 15.6378 19.1342 10.0714 27.6002C4.50497 36.0663 1.12573 45.7809 0.23641 55.8739C-0.652912 65.9669 0.975466 76.1228 4.97565 85.4318C4.97565 85.4318 39.1156 71.0618 74.4256 41.9918C74.4256 41.9918 87.8556 64.7618 111.536 81.2718" fill="url(#paint0_linear_66_10)"/>
<defs>
<linearGradient id="paint0_linear_66_10" x1="61.2456" y1="85.4318" x2="61.2456" y2="-0.0482293" gradientUnits="userSpaceOnUse">
<stop stop-color="#937a6f"/>
<stop offset="0.14" stop-color="#7d6458"/>
<stop offset="0.35" stop-color="#664c3e"/>
<stop offset="0.6" stop-color="#5a3f31"/>
<stop offset="1" stop-color="#553a2c"/>
</linearGradient>
</defs>
</svg>
