<svg width="124" height="95" viewBox="0 0 124 95" fill="none" xmlns="http://www.w3.org/2000/svg">
<path d="M123.071 61.6061C123.071 61.4261 123.071 61.2561 123.071 61.0761C123.029 45.3176 116.914 30.1819 105.997 18.8169C95.0807 7.45196 80.2033 0.732634 64.4592 0.0564537C48.7151 -0.619727 33.3164 4.79929 21.4656 15.1864C9.6149 25.5735 2.2244 40.1292 0.831253 55.8261C0.491253 57.9194 0.24792 60.0361 0.101253 62.1761C-0.033751 64.821 -0.033751 67.4712 0.101253 70.1161C0.145454 72.6095 0.345847 75.0977 0.701253 77.5661C1.22125 80.7461 1.93125 83.9061 2.75125 87.0361C3.43125 89.6561 4.38125 92.2061 5.24125 94.8561C5.52297 94.7639 5.79181 94.6362 6.04125 94.4761C7.82125 92.9961 9.50125 91.3861 11.3613 90.0261C13.8945 88.1444 15.8459 85.5866 16.9913 82.6461C17.8046 80.363 18.4497 78.0234 18.9213 75.6461C19.3213 74.0561 19.5913 72.4361 19.9213 70.8261C20.2506 71.6329 20.4498 72.4869 20.5113 73.3561C20.8148 75.7782 21.4894 78.1392 22.5113 80.3561C22.5913 80.5661 22.8913 80.6861 23.3213 81.0261C23.3213 80.4461 23.3213 80.1261 23.2413 79.8061C23.0652 78.8147 23.1305 77.7955 23.4316 76.8347C23.7327 75.8738 24.2608 74.9997 24.9713 74.2861C26.0705 73.2866 27.3275 72.4756 28.6913 71.8861C30.2231 71.2887 31.5932 70.3399 32.6913 69.1161C33.8472 67.5083 34.9154 65.8392 35.8913 64.1161C35.8913 64.1161 35.9513 64.3261 35.9813 64.4961C36.4713 67.6261 38.4213 68.7461 40.9813 68.7261C41.1581 68.7438 41.3365 68.714 41.4981 68.6399C41.6596 68.5657 41.7984 68.4498 41.9003 68.3041C42.0022 68.1585 42.0634 67.9883 42.0776 67.8111C42.0918 67.6339 42.0586 67.4562 41.9813 67.2961C41.5693 66.0729 41.4187 64.7769 41.5393 63.4918C41.6599 62.2067 42.0489 60.9613 42.6813 59.8361C43.1468 59.2313 43.6995 58.6988 44.3213 58.2561C44.8213 58.8661 45.5613 59.4061 45.7813 60.1161C46.7361 62.8621 46.7361 65.8501 45.7813 68.5961C45.6813 68.8661 45.6513 69.3661 45.7813 69.4961C45.9217 69.5749 46.0802 69.6163 46.2413 69.6163C46.4024 69.6163 46.5608 69.5749 46.7013 69.4961C47.5941 68.8556 48.4274 68.136 49.1913 67.3461C51.8139 64.4506 53.382 60.7542 53.6413 56.8561C53.9013 53.3461 53.6413 49.8061 53.6413 46.2761C53.6413 46.0461 53.9213 45.8261 54.0713 45.5961C54.1438 45.6551 54.2207 45.7086 54.3013 45.7561C54.1713 46.2661 53.8313 46.8861 54.6813 46.7561C54.7145 47.3931 54.8219 48.024 55.0013 48.6361C55.3013 49.3261 55.1413 50.3461 56.1113 50.6361C56.129 50.8735 56.1726 51.1082 56.2413 51.3361C56.6713 52.2461 57.2413 53.1061 57.5813 54.0461C58.3513 56.0461 59.1413 57.9661 59.7313 59.9861C60.2121 61.5022 60.4846 63.0766 60.5413 64.6661C60.5413 66.7461 60.1613 68.8361 59.9613 70.9161C59.9723 71.1111 60.0128 71.3032 60.0813 71.4861C60.2713 71.4861 60.5313 71.4861 60.6513 71.3361C61.8315 70.2564 62.9468 69.1077 63.9913 67.8961C65.2989 66.1607 66.0455 64.0674 66.1313 61.8961C66.3092 58.9868 66.2624 56.0682 65.9913 53.1661C65.7613 50.6161 65.1713 48.0961 65.4313 45.5261C65.5924 44.3854 65.8127 43.2539 66.0912 42.1361H66.3313C66.365 42.25 66.3851 42.3675 66.3913 42.4861C66.0078 44.9271 66.1441 47.4215 66.7913 49.8061C67.1117 50.8685 67.5129 51.9049 67.9913 52.9061C68.0813 53.1161 68.4313 53.1961 68.6712 53.3361C68.7881 53.1161 68.8723 52.8803 68.9212 52.6361C68.9713 51.4361 68.9212 50.2261 69.0312 49.0461C69.1289 47.7146 69.5888 46.4351 70.3613 45.3461C70.3613 46.4161 70.4212 47.2661 70.3613 48.1061C70.1763 50.5428 70.3345 52.9934 70.8313 55.3861C71.4518 58.437 72.827 61.2837 74.8313 63.6661C75.6283 64.5172 76.5132 65.2815 77.4713 65.9461C77.6079 66.007 77.7579 66.0316 77.9067 66.0175C78.0556 66.0035 78.1984 65.9514 78.3213 65.8661C78.3989 65.7477 78.4476 65.6126 78.4632 65.4719C78.4788 65.3311 78.461 65.1887 78.4113 65.0561C77.7155 63.3397 77.4644 61.4754 77.6813 59.6361C77.8529 58.2285 78.1885 56.8458 78.6813 55.5161C78.742 55.3164 78.855 55.1367 79.0085 54.9954C79.1621 54.8541 79.3507 54.7565 79.5547 54.7126C79.7587 54.6687 79.9708 54.6802 80.1689 54.7459C80.367 54.8116 80.5439 54.929 80.6813 55.0861C81.3399 55.9914 81.831 57.0075 82.1313 58.0861C82.6852 59.9856 82.6468 62.0089 82.0213 63.8861C81.9413 64.1161 82.5013 64.8261 82.8412 64.8861C83.8599 65.0584 84.9066 64.8608 85.7924 64.329C86.6781 63.7972 87.3445 62.9662 87.6712 61.9861C87.8812 61.3861 88.0312 60.7761 88.2012 60.1761C88.5177 60.9154 88.8749 61.6365 89.2713 62.3361C89.9292 63.6373 90.7675 64.8391 91.7612 65.9061C93.129 67.0155 94.6433 67.9308 96.2612 68.6261C99.2612 70.0361 100.921 72.3861 100.801 75.4461C100.801 76.0261 100.741 76.5961 100.711 77.1761L101.031 77.2361C102.951 74.0761 103.531 70.5361 103.741 66.8661C103.948 67.0765 104.093 67.3393 104.161 67.6261C104.411 69.1461 104.581 70.6861 104.881 72.2061C105.021 72.8961 105.571 73.5061 105.661 74.2061C105.977 76.477 106.771 78.655 107.991 80.5961C109.491 83.038 111.591 85.0554 114.091 86.4561C115.901 87.4561 117.881 88.2061 119.871 89.1061C119.96 88.9075 120.037 88.7038 120.101 88.4961C120.391 87.4961 120.691 86.4961 120.931 85.4961C121.381 83.5561 121.931 81.6161 122.201 79.6461C122.581 77.0661 122.771 74.4561 123.021 71.8561C123.329 68.4471 123.346 65.018 123.071 61.6061Z" fill="url(#paint0_linear_76_5)"/>
<defs>
<linearGradient id="paint0_linear_76_5" x1="61.6313" y1="94.8561" x2="61.6313" y2="-0.173898" gradientUnits="userSpaceOnUse">
<stop stop-color="#282828"/>
<stop offset="0.01" stop-color="#252525"/>
<stop offset="0.13" stop-color="#141414"/>
<stop offset="0.26" stop-color="#090909"/>
<stop offset="0.46" stop-color="#020202"/>
<stop offset="1"/>
</linearGradient>
</defs>
</svg>
