<svg width="123" height="86" viewBox="0 0 123 86" fill="none" xmlns="http://www.w3.org/2000/svg">
<path d="M122.52 60.94C122.528 69.1892 120.861 77.3541 117.62 84.94L111.53 81.16C113.369 73.5482 113.455 65.6182 111.781 57.9684C110.107 50.3186 106.717 43.1491 101.867 37.0008C97.0176 30.8526 90.8346 25.8864 83.785 22.477C76.7354 19.0676 69.0034 17.3041 61.1727 17.3197C53.3419 17.3353 45.6171 19.1295 38.5811 22.567C31.5451 26.0044 25.382 30.9952 20.5567 37.1627C15.7315 43.3302 12.3704 50.5132 10.727 58.1696C9.08355 65.8259 9.20084 73.7556 11.07 81.36L5.01998 85.17C1.41257 76.8165 -0.288632 67.7642 0.0399614 58.671C0.368555 49.5777 2.71869 40.6719 6.91963 32.6005C11.1206 24.5292 17.0668 17.495 24.3262 12.0091C31.5857 6.52316 39.9761 2.72331 48.8877 0.88561C57.7994 -0.952089 67.0085 -0.781484 75.846 1.38503C84.6835 3.55154 92.9274 7.65955 99.9787 13.4106C107.03 19.1616 112.712 26.4112 116.611 34.6326C120.51 42.8541 122.528 51.8408 122.52 60.94Z" fill="url(#paint0_linear_66_6)"/>
<defs>
<linearGradient id="paint0_linear_66_6" x1="61.27" y1="85.17" x2="61.27" y2="-0.310005" gradientUnits="userSpaceOnUse">
<stop stop-color="#94c6f0"/>
<stop offset="0.14" stop-color="#8bc1ef"/>
<stop offset="0.35" stop-color="#81bded"/>
<stop offset="0.6" stop-color="#7cbaec"/>
<stop offset="1" stop-color="#7ab9ec"/>
</linearGradient>
</defs>
</svg>
