<svg width="125" height="78" viewBox="0 0 125 78" fill="none" xmlns="http://www.w3.org/2000/svg">
<path d="M124.7 58.48C124.705 64.8983 123.598 71.269 121.43 77.31H94.8501C92.6983 71.1576 89.8993 65.2512 86.5001 59.69C86.5001 59.69 87.8001 71.07 87.3501 77.22V77.35H74.4101C72.6061 75.7421 71.0552 73.871 69.8101 71.8C69.7588 73.7229 70.1812 75.6288 71.0401 77.35H49.0401C46.0732 74.2236 43.8275 70.485 42.4609 66.3973C41.0944 62.3096 40.6401 57.9721 41.1301 53.69C39.7701 62.96 41.1301 73.08 41.8201 77.32H29.0001C26.5801 70.15 26.0001 59.68 26.0001 61.16C26.0001 62.8 26.0001 61.67 25.9101 62.16C25.8201 62.65 23.9101 73.6 23.2701 77.29H3.27009C1.09709 71.2503 -0.00940281 64.8787 6.70514e-05 58.46C-0.0499329 26.02 27.8701 -0.309998 62.3201 -0.309998C96.7701 -0.309998 124.7 26.02 124.7 58.48Z" fill="url(#paint0_linear_66_5)"/>
<defs>
<linearGradient id="paint0_linear_66_5" x1="62.3201" y1="77.31" x2="62.3201" y2="-0.309998" gradientUnits="userSpaceOnUse">
<stop stop-color="#fbd0e1"/>
<stop offset="0.01" stop-color="#fbcdde"/>
<stop offset="0.13" stop-color="#fcbaca"/>
<stop offset="0.26" stop-color="#fcaebe"/>
<stop offset="0.46" stop-color="#fca6b6"/>
<stop offset="1" stop-color="#fca4b4"/>
</linearGradient>
</defs>
</svg>
