<svg width="123" height="86" viewBox="0 0 123 86" fill="none" xmlns="http://www.w3.org/2000/svg">
<path d="M61.2908 -0.309997C51.1436 -0.311787 41.1546 2.20628 32.2208 7.01815C23.287 11.83 15.6879 18.7851 10.1058 27.2589C4.5236 35.7328 1.13308 45.4603 0.238578 55.568C-0.655927 65.6758 0.973582 75.8475 4.98083 85.17C6.88683 84.1365 8.73003 82.9911 10.5008 81.74L11.0508 81.4C20.3508 74.87 38.2108 59.47 49.1108 31.69C49.1108 31.69 48.4308 53.58 66.5408 66.54C66.5408 66.54 55.9909 51.64 55.8809 41.09C55.8809 41.09 79.6108 73.32 117.621 85.01C121.589 75.6932 123.187 65.5384 122.272 55.4532C121.358 45.368 117.959 35.6664 112.379 27.2155C106.8 18.7646 99.2136 11.8275 90.2986 7.02429C81.3836 2.22105 71.4174 -0.298773 61.2908 -0.309997Z" fill="url(#paint0_linear_66_9)"/>
<defs>
<linearGradient id="paint0_linear_66_9" x1="61.2908" y1="85.17" x2="61.2908" y2="-0.309998" gradientUnits="userSpaceOnUse">
<stop stop-color="#c8cee6"/>
<stop offset="0.14" stop-color="#babfd7"/>
<stop offset="0.35" stop-color="#aaafc8"/>
<stop offset="0.6" stop-color="#a2a6bf"/>
<stop offset="1" stop-color="#9fa3bc"/>
</linearGradient>
</defs>
</svg>
