<svg width="129" height="94" viewBox="0 0 129 94" fill="none" xmlns="http://www.w3.org/2000/svg">
<path d="M128.72 65.52C128.72 68.5307 128.513 71.5378 128.1 74.52C127.81 80.19 127.45 87.6 127.21 93.87C127.21 93.87 101.4 88.06 84.27 43.15C84.51 44.15 89.66 66.87 69.37 81.37C70.9334 84.1628 72.8825 86.7213 75.16 88.97C71.4145 87.8322 67.7877 86.3353 64.33 84.5C60.8677 86.3328 57.2378 87.8296 53.49 88.97C55.7728 86.7235 57.7255 84.1647 59.29 81.37C39 66.87 44.15 44.16 44.39 43.15C27.26 88.06 1.39001 93.87 1.39001 93.87C1.13001 86.87 0.710015 78.5 0.390015 72.66C0.160015 68.4 0 65.5 0 65.5C0 29.33 28.8 0 64.33 0C99.86 0 128.72 29.35 128.72 65.52Z" fill="url(#paint0_linear_66_7)"/>
<defs>
<linearGradient id="paint0_linear_66_7" x1="64.39" y1="93.89" x2="64.39" y2="0.0199968" gradientUnits="userSpaceOnUse">
<stop stop-color="#f1e7b4"/>
<stop offset="0.01" stop-color="#efe4b1"/>
<stop offset="0.13" stop-color="#e5d4a3"/>
<stop offset="0.26" stop-color="#dec99a"/>
<stop offset="0.46" stop-color="#dac294"/>
<stop offset="1" stop-color="#d9c092"/>
</linearGradient>
</defs>
</svg>
