<svg width="125" height="88" viewBox="0 0 125 88" fill="none" xmlns="http://www.w3.org/2000/svg">
<path d="M86.63 45.2651C69.89 34.9451 62.32 39.6951 62.32 39.6951C62.32 39.6951 54.75 34.9451 38.01 45.2651C21.27 55.5851 57.27 18.3151 57.27 18.3151L62.27 19.3151L67.27 18.3151C67.27 18.3151 103.37 55.5851 86.63 45.2651Z" fill="url(#paint0_linear_80_13)"/>
<path d="M123.57 62.1051C123.57 61.8651 123.57 61.6151 123.57 61.3651C123.601 45.1206 117.177 29.5293 105.712 18.0211C94.2466 6.51297 78.6795 0.030608 62.435 0.000108114C46.1905 -0.0303918 30.5992 6.39346 19.091 17.8585C7.58286 29.3235 1.10051 44.8906 1.07001 61.1351C1.06017 61.2115 1.06017 61.2887 1.07001 61.3651C0.940007 76.4351 0 86.3651 0 86.3651C28.35 94.4651 36 60.8351 36 60.8351C37.81 72.1551 48 69.7051 48 69.7051C48 69.7051 37.34 60.3751 48.62 40.7051C58.92 22.7051 61.85 36.9551 62.27 39.5551C62.27 39.6351 62.27 39.7151 62.27 39.7651C62.2774 39.6953 62.2774 39.6249 62.27 39.5551C62.69 36.9551 65.63 22.7051 75.92 40.7051C87.2 60.4251 76.54 69.7051 76.54 69.7051C76.54 69.7051 86.75 72.1551 88.54 60.8351C88.54 60.8351 96.16 94.4651 124.54 86.3651C124.7 86.3051 123.7 76.7151 123.57 62.1051ZM62.24 17.7051L62.32 17.6451L62.42 17.7051H62.24Z" fill="url(#paint1_linear_80_13)"/>
<defs>
<linearGradient id="paint0_linear_80_13" x1="62.32" y1="47.0751" x2="62.32" y2="18.3151" gradientUnits="userSpaceOnUse">
<stop stop-color="#fbd0e1"/>
<stop offset="0.14" stop-color="#fbc1d1"/>
<stop offset="0.35" stop-color="#fcb0c0"/>
<stop offset="0.6" stop-color="#fca7b7"/>
<stop offset="1" stop-color="#fca4b4"/>
</linearGradient>
<linearGradient id="paint1_linear_80_13" x1="62.33" y1="87.5651" x2="62.33" y2="0.0651091" gradientUnits="userSpaceOnUse">
<stop stop-color="#fbd0e1"/>
<stop offset="0.01" stop-color="#fbcdde"/>
<stop offset="0.13" stop-color="#fcbaca"/>
<stop offset="0.26" stop-color="#fcaebe"/>
<stop offset="0.46" stop-color="#fca6b6"/>
<stop offset="1" stop-color="#fca4b4"/>
</linearGradient>
</defs>
</svg>
