<svg width="172" height="167" viewBox="0 0 172 167" fill="none" xmlns="http://www.w3.org/2000/svg">
<path d="M165.92 158.25C161.35 157.14 159.36 150.46 162.92 147.32C167.7 144 173.67 139.62 169.79 133.18C166.68 125.56 158.08 122.34 155.1 114.73C151.1 92.26 158.78 103.56 159.17 117.48C169.04 104.96 159.17 97.05 155.76 85.72C155.76 85.06 155.76 84.4 155.76 83.72V67.5C155.76 49.5979 148.648 32.429 135.99 19.7703C123.331 7.11159 106.162 0 88.2599 0H83.39C65.4878 0 48.319 7.11159 35.6603 19.7703C23.0016 32.429 15.89 49.5979 15.89 67.5V83.73C15.89 84.35 15.89 84.97 15.94 85.59C12.77 96.72 2.54995 105.21 12.45 117.48C13.91 112.48 12.15 105.41 17.08 101.75C18.33 107.9 17.82 115.75 12.92 120.37C5.75998 126.54 -6.52005 138.8 6.63995 145.51C11.64 148.01 11.83 156.09 6.28998 158.06C4.28998 159.06 1.83 158.44 0 159.3C1.48 164.8 9 166.18 14 165.68C22.5 165.32 28.72 158.29 37 157.31C48.2 156.31 56 168.48 67.55 165.65C71.7063 165.202 75.7458 163.999 79.47 162.1C89.25 157.34 97.92 167.1 108.02 165.88C116.47 166.24 122.02 159.13 129.88 157.58C143.82 155.32 159.42 175.65 171.52 160.2C172.59 157.96 167.23 159.25 165.92 158.25Z" fill="url(#paint0_linear_106_94)"/>
<defs>
<linearGradient id="paint0_linear_106_94" x1="85.9" y1="166.08" x2="85.9" y2="0" gradientUnits="userSpaceOnUse">
<stop stop-color="#c8cee6"/>
<stop offset="0.14" stop-color="#babfd7"/>
<stop offset="0.35" stop-color="#aaafc8"/>
<stop offset="0.6" stop-color="#a2a6bf"/>
<stop offset="1" stop-color="#9fa3bc"/>
</linearGradient>
</defs>
</svg>
