<svg width="170" height="154" viewBox="0 0 170 154" fill="none" xmlns="http://www.w3.org/2000/svg">
<path d="M169.02 78.0114C168.682 77.8568 168.326 77.746 167.96 77.6814C166.569 77.3002 165.214 76.7983 163.91 76.1814C159.81 73.8214 157.3 70.0414 154.98 66.1814C154.879 66.0017 154.792 65.8144 154.72 65.6214C154.569 62.2597 154.147 58.9156 153.46 55.6214C153.46 55.6214 153.46 55.5614 153.46 55.5314C153.28 54.3014 152.99 53.0914 152.74 51.8714L152.99 51.7414C153.819 52.4345 154.607 53.1758 155.35 53.9614C156.17 54.9614 156.84 55.9614 157.6 56.9614C157.73 57.1314 158 57.3514 158.13 57.3114C158.37 57.2031 158.57 57.0209 158.7 56.7914C158.788 56.5828 158.829 56.3575 158.82 56.1314C159.049 52.9662 158.881 49.7848 158.32 46.6614C157.527 41.0917 154.776 35.9866 150.56 32.2614C146.612 28.9507 142.352 26.0304 137.84 23.5414C136.4 22.465 135.062 21.26 133.84 19.9414C134.74 20.0014 135.33 20.0714 135.91 20.0714C138.55 20.0714 141.2 20.0714 143.84 20.0714C144.25 20.0714 144.65 19.6914 145.06 19.4914C144.77 19.1214 144.55 18.6014 144.16 18.4214C142.93 17.8514 141.66 17.4214 140.38 16.9314C136.05 15.4114 131.66 14.0214 127.38 12.3814C123.1 10.7414 118.88 8.83136 114.62 7.06136C111.54 5.78136 108.5 4.39136 105.34 3.34136C101.91 2.21136 98.4 1.34136 94.87 0.511359C92.0569 -0.138631 89.1361 -0.16934 86.31 0.421359C85.1919 0.631153 84.0575 0.741584 82.92 0.751359C80.86 0.751359 78.77 0.501359 76.73 0.691359C70.85 1.23136 65.39 3.24136 60.01 5.43136C55.7 7.18136 51.46 9.07136 47.16 10.8414C44.31 12.0214 41.41 13.1414 38.51 14.2114C35.9 15.2114 33.25 16.0114 30.63 16.9314C28.89 17.5514 27.17 18.2014 25.48 18.9314C25.14 19.0714 24.97 19.5614 24.72 19.8814C25.05 20.0914 25.35 20.4414 25.72 20.4914C26.7652 20.6545 27.8223 20.7281 28.88 20.7114C31.15 20.7114 33.43 20.5114 35.8 20.4014C34.8 21.4014 33.99 22.4014 33.01 23.2614C32.3237 23.7317 31.609 24.1592 30.87 24.5414C27.74 26.6214 24.53 28.6014 21.53 30.8414C17.9747 33.3862 15.1421 36.8115 13.31 40.7814C11.2232 45.9449 10.4534 51.5463 11.07 57.0814C11.07 57.3514 11.43 57.6014 11.62 57.8514C11.8712 57.7161 12.1032 57.5479 12.31 57.3514C12.82 56.6714 13.22 55.9114 13.78 55.2814C14.73 54.2114 15.78 53.2114 16.78 52.1714C16.8742 52.3259 16.9514 52.4902 17.01 52.6614C15.8336 57.1594 15.1628 61.7746 15.01 66.4214C13.19 68.8714 11.41 71.4214 9.44 73.7214C7.96351 75.6084 5.90241 76.952 3.58 77.5414C2.75518 77.7071 1.94815 77.9516 1.17 78.2714C0.729054 78.54 0.334042 78.8776 0 79.2714C0.317384 79.587 0.669653 79.8654 1.05 80.1014C2.74043 80.8155 4.59479 81.0508 6.41 80.7814C7.6 80.6814 8.76001 80.4114 10.07 80.1914C9.99001 80.7214 9.94 81.1114 9.86 81.4914C9.49982 82.9532 9.44355 84.4734 9.69469 85.9578C9.94582 87.4423 10.499 88.8594 11.32 90.1214C12.3667 91.7213 13.7029 93.1118 15.26 94.2214C15.9979 101.404 17.9666 108.406 21.08 114.921L21.03 115.001C19.35 117.611 17.67 120.231 14.85 121.911C13.79 122.551 13.78 123.431 14.85 124.061C15.2 124.261 15.62 124.341 15.96 124.551C16.6524 124.991 17.4249 125.29 18.2332 125.431C19.0415 125.572 19.8696 125.552 20.67 125.371C22.31 124.971 23.88 124.291 25.45 123.751C25.59 134.301 31.93 138.601 39.18 139.241C38.68 138.331 38.23 137.491 37.78 136.681C45.6998 143.445 55.0303 148.355 65.09 151.051L65.77 151.501C65.7351 151.406 65.7051 151.309 65.68 151.211L66.15 151.341C66.15 151.341 66.15 151.421 66.15 151.461H66.6C67.25 151.621 67.91 151.751 68.6 151.901V151.991C69.72 152.201 70.75 152.421 71.77 152.571C71.8764 152.581 71.9836 152.581 72.09 152.571C72.51 152.641 72.92 152.721 73.35 152.781C73.426 152.838 73.5159 152.872 73.61 152.881L75.66 153.071C77.17 153.241 78.66 153.391 80.23 153.471L83.29 153.711C83.53 153.711 84.03 153.961 84.14 153.571H84.73V153.761C86.13 153.541 87.61 153.861 88.99 153.491C89.38 153.491 89.77 153.491 90.16 153.431C90.34 153.751 90.71 153.511 91 153.371C105.975 152.368 120.238 146.608 131.71 136.931C131.39 137.521 131.06 138.101 130.71 138.681L131.01 138.951C133.819 138.666 136.5 137.63 138.77 135.951C143.26 132.781 144.05 128.071 144.43 123.141L145.93 123.901C147.33 124.684 148.917 125.071 150.52 125.02C152.124 124.969 153.683 124.482 155.03 123.611C155.86 123.121 156.03 122.021 155.39 121.671C153.36 120.601 151.665 118.992 150.49 117.021C150.01 116.231 149.33 115.481 148.79 114.701C151.873 108.118 153.795 101.05 154.47 93.8114C156.338 92.3904 157.876 90.5824 158.98 88.5114C159.859 86.8034 160.253 84.8875 160.12 82.9714C160.07 81.9714 159.85 80.9014 159.71 79.8614C159.857 79.853 160.003 79.853 160.15 79.8614C160.31 79.8614 160.48 79.9414 160.65 79.9714C163.42 80.5914 166.18 80.8914 168.85 79.6614C169.2 79.5114 169.69 79.1914 169.7 78.9414C169.71 78.6914 169.34 78.2214 169.02 78.0114Z" fill="url(#paint0_linear_80_7)"/>
<defs>
<linearGradient id="paint0_linear_80_7" x1="84.86" y1="153.781" x2="84.86" y2="0.00135657" gradientUnits="userSpaceOnUse">
<stop stop-color="#565ca6"/>
<stop offset="0.14" stop-color="#44498f"/>
<stop offset="0.35" stop-color="#303577"/>
<stop offset="0.6" stop-color="#262a6a"/>
<stop offset="1" stop-color="#222665"/>
</linearGradient>
</defs>
</svg>
