<svg width="190" height="154" viewBox="0 0 190 154" fill="none" xmlns="http://www.w3.org/2000/svg">
<path d="M189.07 143.601C184.07 150.601 183.18 139.911 177.26 142.441C175.08 137.851 172.87 136.661 168.01 135.441C166.63 131.731 163.48 129.851 159.24 130.371C159.96 125.551 159.44 121.131 155.24 117.911C161.319 107.573 164.516 95.7944 164.5 83.8013V67.5513C164.499 61.1031 163.577 54.6882 161.76 48.5012C161.018 45.4585 159.983 42.4947 158.67 39.6512C153.633 28.2568 145.414 18.5586 135 11.7212L134.41 11.3313L134.11 11.1312C123.572 4.21631 111.301 0.40452 98.7 0.13124C95.6192 -0.0437466 92.5309 -0.0437466 89.45 0.13124C82.0559 0.418778 74.7605 1.92923 67.86 4.60124C48.86 11.4912 32.86 26.0212 26.59 47.8212C24.3363 58.5088 23.6892 69.4728 24.67 80.3512V83.8013C24.6541 95.6924 27.7981 107.374 33.78 117.651C30.72 121.491 29.03 125.071 30.06 130.341C28.245 129.996 26.3663 130.311 24.7634 131.23C23.1605 132.149 21.9391 133.61 21.32 135.351C18.61 136.591 16.23 136.071 14.16 139.091C12.49 143.851 8.66003 140.671 6.16003 144.321C3.87003 147.631 2.16003 145.531 0.160026 143.451C-1.56997 153.301 10.22 156.451 16.71 150.451C21.35 152.911 32.53 157.111 34.44 150.171C38.35 150.551 45.44 150.511 45.73 145.611C45.73 145.211 45.84 144.941 46.42 145.031C48.0774 145.332 49.7837 145.216 51.3847 144.692C52.9857 144.168 54.431 143.254 55.59 142.031C55.8945 141.713 56.2294 141.425 56.59 141.171C67.2705 147.826 79.6058 151.347 92.19 151.331H97C109.613 151.345 121.975 147.807 132.67 141.121C133.972 142.649 135.643 143.819 137.525 144.519C139.406 145.219 141.436 145.427 143.42 145.121C143.42 150.811 150.64 150.121 154.91 150.341C155.91 156.981 168.91 153.271 172.53 150.221C176.12 155.301 185.94 154.511 188.63 148.931C189.47 147.171 189.17 145.421 189.07 143.601Z" fill="url(#paint0_linear_106_95)"/>
<defs>
<linearGradient id="paint0_linear_106_95" x1="94.6" y1="153.971" x2="94.6" y2="-0.0387567" gradientUnits="userSpaceOnUse">
<stop stop-color="#3b767a"/>
<stop offset="0.14" stop-color="#326a6e"/>
<stop offset="0.35" stop-color="#295d61"/>
<stop offset="0.6" stop-color="#24565b"/>
<stop offset="1" stop-color="#225358"/>
</linearGradient>
</defs>
</svg>
