<svg width="168" height="163" viewBox="0 0 168 163" fill="none" xmlns="http://www.w3.org/2000/svg">
<path d="M167.37 161.47C165.22 158.94 163.9 155.95 162.45 153C160.87 149.75 160.06 146.29 158.9 142.91C157.36 138.46 156.83 133.79 155.9 129.2C155.63 127.82 155.62 126.39 155.39 124.99C154.793 121.453 154.458 117.876 154.39 114.29C154.39 109.89 154.39 105.48 154.44 101.08C154.49 99.34 154.92 97.61 155.13 95.87C155.48 92.87 155.84 89.87 156.13 86.87C156.457 83.0567 156.737 79.2433 156.97 75.43C157.38 71.0395 157.32 66.6177 156.79 62.24C156.34 59.24 156.04 56.12 155.3 53.16C154.527 49.9126 153.476 46.7376 152.16 43.67C150.611 40.2586 148.847 36.9487 146.88 33.76C145.391 31.1695 143.674 28.7166 141.75 26.43C139.179 23.581 136.466 20.8642 133.62 18.29C131.804 16.6069 129.873 15.0531 127.84 13.64C125.503 11.999 123.076 10.49 120.57 9.12C116.303 6.74616 111.789 4.84491 107.11 3.45C103.062 2.19598 98.9232 1.2598 94.73 0.649994C93.79 0.529994 92.85 0.440001 91.9 0.360001L91.36 0.300003H90.93C88.83 0.110003 86.71 0 84.57 0H82.89C80.75 0 78.63 0.110003 76.53 0.300003H76.1L75.56 0.360001C74.56 0.440001 73.67 0.529994 72.73 0.649994C68.5368 1.2598 64.3975 2.19598 60.35 3.45C55.6705 4.84491 51.1571 6.74616 46.89 9.12C44.3843 10.49 41.9572 11.999 39.62 13.64C37.5871 15.0531 35.6557 16.6069 33.84 18.29C30.9941 20.8642 28.2807 23.581 25.71 26.43C23.7862 28.7166 22.0695 31.1695 20.58 33.76C18.6128 36.9487 16.8493 40.2586 15.3 43.67C13.9836 46.7376 12.9331 49.9126 12.16 53.16C11.42 56.16 11.16 59.21 10.67 62.24C10.1401 66.6177 10.0798 71.0395 10.49 75.43C10.7167 79.25 10.9967 83.0633 11.33 86.87C11.59 89.87 11.95 92.87 12.33 95.87C12.54 97.61 12.97 99.34 13.02 101.08C13.12 105.48 13.1 109.89 13.07 114.29C13.0015 117.876 12.6673 121.453 12.07 124.99C11.84 126.39 11.83 127.82 11.56 129.2C10.67 133.79 10.14 138.46 8.56 142.91C7.4 146.29 6.55999 149.75 5.00999 153C3.55999 155.95 2.24 158.94 0.0899963 161.47C-0.0400037 161.62 0.03 161.93 0 162.24H0.919998L13.41 162.03L25.41 161.88C27.1479 161.76 28.8921 161.76 30.63 161.88C31.89 162.04 32.23 161.47 32.56 160.57C33.5038 158.145 34.1257 155.607 34.41 153.02C34.55 151.21 34.74 149.4 34.91 147.6H35.27C35.66 152.19 36.06 156.79 36.45 161.35C37.3282 161.557 38.2207 161.697 39.12 161.77C40.62 161.77 42.12 161.66 43.6 161.63C48.01 161.54 52.43 161.49 56.84 161.38C57.22 161.38 57.84 161.13 57.92 160.89C58.0485 160.094 58.0921 159.286 58.05 158.48C58.05 158.02 58.05 157.56 57.99 157.11C58.7479 158.189 59.382 159.349 59.88 160.57C59.9642 160.857 60.1522 161.102 60.4075 161.257C60.6627 161.412 60.9667 161.467 61.26 161.41C63.53 161.35 65.81 161.27 68.09 161.25L83.79 161.07L99.49 161.25C101.77 161.25 104.05 161.35 106.32 161.41C106.613 161.467 106.917 161.412 107.173 161.257C107.428 161.102 107.616 160.857 107.7 160.57C108.198 159.349 108.832 158.189 109.59 157.11C109.59 157.56 109.52 158.02 109.53 158.48C109.488 159.286 109.532 160.094 109.66 160.89C109.71 161.13 110.36 161.38 110.74 161.38C115.15 161.49 119.57 161.54 123.98 161.63C125.47 161.63 126.98 161.8 128.46 161.77C129.359 161.697 130.252 161.557 131.13 161.35C131.52 156.79 131.92 152.19 132.31 147.6H132.67C132.84 149.4 133.03 151.21 133.17 153.02C133.454 155.607 134.076 158.145 135.02 160.57C135.35 161.47 135.69 162.04 136.95 161.88C138.688 161.76 140.432 161.76 142.17 161.88L154.17 162.03L166.66 162.24H167.58C167.43 161.97 167.5 161.66 167.37 161.47Z" fill="url(#paint0_linear_80_10)"/>
<defs>
<linearGradient id="paint0_linear_80_10" x1="83.71" y1="162.28" x2="83.71" y2="0.0399962" gradientUnits="userSpaceOnUse">
<stop stop-color="#565ca6"/>
<stop offset="0.14" stop-color="#44498f"/>
<stop offset="0.35" stop-color="#303577"/>
<stop offset="0.6" stop-color="#262a6a"/>
<stop offset="1" stop-color="#222665"/>
</linearGradient>
</defs>
</svg>
