<svg width="140" height="155" viewBox="0 0 140 155" fill="none" xmlns="http://www.w3.org/2000/svg">
<path d="M139.896 83.73V67.98C140.016 64.7648 139.936 61.5453 139.656 58.34C139.377 55.7335 138.869 53.1568 138.136 50.64C137.243 47.3028 136.175 44.0149 134.936 40.79C133.919 38.4223 132.729 36.1328 131.376 33.94C130.376 32.15 129.146 30.44 127.976 28.71C127.376 27.83 126.706 26.96 125.976 26.13C124.716 24.63 123.456 23.13 122.106 21.71C120.756 20.29 119.486 19.06 118.106 17.8C117.897 17.6134 117.676 17.4397 117.446 17.28C105.083 6.14661 89.0328 -0.00985952 72.3958 1.18525e-05H67.5258C50.2502 0.349533 33.6828 6.93033 20.8758 18.53C16.6191 22.3966 12.8994 26.8159 9.81583 31.67C6.9922 36.0704 4.73127 40.8073 3.08585 45.77C1.60412 49.9633 0.686106 54.3349 0.355865 58.77C0.175865 62.02 -0.0641616 65.27 0.0158384 68.51C0.0158384 68.8 0.0158384 69.1 0.0158384 69.39V83.73C0.00339522 95.1475 2.89764 106.38 8.42587 116.37C8.36025 119.816 7.61251 123.215 6.22586 126.37C5.81586 127.28 5.22586 128.12 4.78586 129.01C4.45586 129.67 4.78586 129.93 5.47586 129.72C6.68586 129.32 7.89582 128.91 9.05582 128.4C10.2158 127.89 11.2758 127.24 12.4458 126.62C12.4589 126.79 12.4589 126.96 12.4458 127.13C12.4458 127.33 12.3458 127.52 12.3158 127.72C11.7478 130.578 11.8955 133.533 12.7458 136.32C13.9158 139.67 16.3258 142.16 19.1358 144.32C20.0658 145.04 21.0558 145.96 22.6858 145.63C22.5858 145.07 22.5258 144.55 22.3858 144.06C21.9219 142.553 21.8051 140.96 22.0441 139.402C22.2831 137.843 22.8717 136.359 23.7658 135.06C26.8291 137.66 30.1151 139.986 33.5858 142.01C33.5858 142.01 33.5858 142.08 33.5858 142.12C34.1558 144.4 33.5858 146.57 33.3958 148.79C33.3258 149.48 32.6658 150.22 33.3258 150.88C36.1372 149.765 38.5941 147.909 40.4358 145.51C42.1958 146.283 43.9925 146.977 45.8258 147.59C46.0575 147.894 46.2428 148.231 46.3758 148.59C46.656 149.151 47.0316 149.658 47.4859 150.09C49.2649 152.123 51.6538 153.526 54.2959 154.09C55.2959 154.33 55.7558 153.98 55.4558 153.09C55.0643 152.133 55.0359 151.066 55.3758 150.09C59.3616 150.817 63.4044 151.185 67.4558 151.19H72.3258C76.3773 151.185 80.4201 150.817 84.4059 150.09C84.8259 151.09 84.4058 152.03 84.1958 152.99C83.9858 153.95 84.4258 154.21 85.2558 153.99C86.5162 153.629 87.7465 153.171 88.9358 152.62C90.9799 151.479 92.6635 149.789 93.7959 147.74C95.6959 147.073 97.5625 146.353 99.3958 145.58C101.27 147.963 103.759 149.789 106.596 150.86C106.496 150.08 106.436 149.39 106.336 148.71C105.859 146.714 105.734 144.649 105.966 142.61C105.966 142.46 106.026 142.33 106.066 142.19C109.605 140.139 112.952 137.772 116.066 135.12C117.528 137.343 118.092 140.037 117.646 142.66C117.496 143.66 117.236 144.55 117.016 145.52C118.456 145.63 118.636 145.81 121.916 143.13C127.326 138.71 128.816 132.99 127.116 126.31C127.646 126.6 127.846 126.74 128.116 126.84C130.116 127.73 132.176 128.64 134.226 129.51C134.484 129.559 134.748 129.559 135.006 129.51C135.03 129.268 135.006 129.023 134.936 128.79C134.606 128.14 134.156 127.54 133.836 126.88C132.527 124.167 131.721 121.24 131.456 118.24C131.396 117.625 131.396 117.005 131.456 116.39C137.002 106.399 139.907 95.1575 139.896 83.73Z" fill="url(#paint0_linear_80_12)"/>
<defs>
<linearGradient id="paint0_linear_80_12" x1="69.9558" y1="154.26" x2="69.9558" y2="1.83892e-05" gradientUnits="userSpaceOnUse">
<stop stop-color="#a98ce5"/>
<stop offset="0.14" stop-color="#9274cb"/>
<stop offset="0.35" stop-color="#785baf"/>
<stop offset="0.6" stop-color="#6b4da0"/>
<stop offset="1" stop-color="#66489a"/>
</linearGradient>
</defs>
</svg>
