<svg width="183" height="257" viewBox="0 0 183 257" fill="none" xmlns="http://www.w3.org/2000/svg">
<path d="M181.84 241C181.202 240.269 180.654 239.463 180.21 238.6C178.76 234.55 177.21 230.51 176.1 226.36C174.74 221.36 173.7 216.31 172.64 211.25C171.85 207.5 171.23 203.7 170.56 199.92C170.04 196.967 169.543 194.013 169.07 191.06C168.67 188.5 168.3 185.94 167.96 183.38C167.62 180.74 167.34 178.09 167.03 175.44C166.69 172.59 166.31 169.73 166.03 166.87C165.76 164.4 165.57 161.92 165.34 159.44C165.06 156.57 164.75 153.71 164.5 150.84C164.31 148.72 164.21 146.59 164.04 144.47C163.69 140.26 163.31 136.06 162.98 131.86C162.73 128.73 162.53 125.6 162.33 122.47C162.1 118.98 161.86 115.47 161.68 112.01C161.49 108.28 161.37 104.56 161.21 100.83C161.16 99.62 161.09 98.41 161.04 97.21C161.336 94.6172 161.487 92.0097 161.49 89.4V72.88C161.49 71.44 161.55 70.01 161.49 68.58C161.319 50.3337 153.951 32.8928 140.988 20.0502C128.026 7.20756 110.517 0.00183267 92.27 1.22805e-06H90.44C76.0849 -0.00270167 62.0839 4.45639 50.3744 12.7602C38.6648 21.0641 29.8256 32.8021 25.08 46.35C25 46.56 24.92 46.76 24.85 46.97C22.8558 52.446 21.5981 58.1627 21.11 63.97C20.77 68.46 21.02 72.97 21.04 77.52C21.04 78.52 21.12 79.52 21.2 80.52V89.35C21.1994 91.688 21.3195 94.0244 21.56 96.35C21.35 100.25 21.24 104.16 21.05 108.06C20.86 111.96 20.6 115.56 20.39 119.32C20.15 123.49 19.94 127.66 19.71 131.84C19.65 132.84 19.57 133.93 19.48 134.97C19.2 138.31 18.9 141.65 18.63 144.97C18.46 147.16 18.35 149.36 18.17 151.56C17.91 154.75 17.61 157.95 17.31 161.14C17.17 162.72 17.01 164.3 16.84 165.88C16.57 168.27 16.28 170.67 16.01 173.06C15.76 175.28 15.55 177.51 15.27 179.72C14.89 182.72 14.46 185.72 14.05 188.72C13.64 191.72 13.22 194.89 12.73 197.96C12.1967 201.247 11.6167 204.527 10.99 207.8C10.11 212.39 9.29 216.99 8.19 221.52C6.94 226.81 5.51 232.01 4 237.16C3.41766 239.663 2.24116 241.988 0.57 243.94C0.318321 244.297 0.125849 244.692 0 245.11C2.32 245.66 4.4 246.19 6.49 246.64C14.6167 248.367 22.7433 250.087 30.87 251.8C31.41 251.92 31.73 251.8 31.87 251.15C32.57 248 33.35 244.88 34.03 241.73C34.8833 237.83 35.69 233.927 36.45 230.02C36.85 228.02 37.12 225.95 37.45 223.91C37.6289 224.812 37.7193 225.73 37.72 226.65C37.65 229.94 37.54 233.22 37.44 236.52C37.44 238.28 37.44 240.06 37.3 241.83C37.14 245.07 36.93 248.31 36.71 251.55C36.66 252.27 36.92 252.63 37.64 252.73C39.41 253 41.17 253.31 42.94 253.56C45.65 253.93 48.35 254.27 51.06 254.56C51.2141 254.554 51.3642 254.51 51.4968 254.431C51.6295 254.352 51.7405 254.242 51.82 254.11C52.07 253.41 52.18 252.65 52.36 251.93C52.94 249.67 53.5267 247.41 54.12 245.15C54.3981 245.466 54.5696 245.861 54.61 246.28C54.83 248.94 55.04 251.6 55.22 254.28C55.27 254.88 55.5 255.08 56.09 255.12C60.09 255.38 64.01 255.73 67.97 255.94C72.26 256.16 76.56 256.35 80.85 256.37C86.42 256.37 91.99 256.26 97.56 256.18C98.64 256.18 99.71 256.04 100.79 255.99C102.516 255.845 104.249 255.805 105.98 255.87C106.73 255.93 106.89 255.74 106.98 255.19C107.07 254.64 107.08 254.04 107.17 253.47C107.57 250.84 108.06 248.23 108.39 245.59C108.77 242.59 109.05 239.59 109.29 236.59C109.62 232.42 109.89 228.24 110.15 224.06C110.3 221.77 110.35 219.47 110.46 217.06C112.09 229.79 113.7 242.42 115.32 255.06C119.01 254.69 122.67 254.37 126.32 253.95C128.74 253.68 131.15 253.25 133.57 252.95C135.38 252.7 137.2 252.38 139.03 252.31C139.93 252.31 140.19 252.06 140.31 251.19C140.62 249.01 141.05 246.85 141.43 244.68H141.72C142.54 246.96 143.35 249.24 144.12 251.42L158.87 248.56C156.587 239.506 155.213 230.247 154.77 220.92C155.69 224.11 156.49 227.34 157.55 230.48C158.83 234.28 160.28 238.03 161.78 241.75C162.508 243.429 163.35 245.056 164.3 246.62C164.41 246.757 164.553 246.865 164.716 246.933C164.878 247.001 165.055 247.027 165.23 247.01C169.05 246.037 172.86 245.037 176.66 244.01C178.66 243.48 180.56 242.88 182.66 242.27L181.84 241Z" fill="url(#paint0_linear_80_11)"/>
<defs>
<linearGradient id="paint0_linear_80_11" x1="91.33" y1="256.38" x2="91.33" y2="0" gradientUnits="userSpaceOnUse">
<stop stop-color="#dd8696"/>
<stop offset="0.14" stop-color="#d97b8a"/>
<stop offset="0.35" stop-color="#d56f7d"/>
<stop offset="0.6" stop-color="#d36876"/>
<stop offset="1" stop-color="#d26673"/>
</linearGradient>
</defs>
</svg>
