<svg width="161" height="173" viewBox="0 0 161 173" fill="none" xmlns="http://www.w3.org/2000/svg">
<path d="M160.14 149.85C151.14 143.66 144.21 134.72 142.14 123.75C141.55 118.37 143.94 113.25 145.5 107.97C148.484 100.237 150.013 92.0189 150.01 83.73V67.5C150.01 58.6349 148.264 49.8567 144.871 41.6666C141.478 33.4764 136.505 26.0348 130.236 19.7668C123.967 13.4987 116.525 8.52687 108.334 5.13526C100.144 1.74366 91.3651 -0.0013126 82.5 7.40809e-07H77.64C59.7379 7.40809e-07 42.569 7.11158 29.9103 19.7703C17.2516 32.429 10.14 49.5979 10.14 67.5V83.73C10.1365 90.2134 11.0695 96.6633 12.91 102.88L13.12 104.54C15.73 119.47 22.21 122.54 12.26 137.49C9.50999 142.98 4.13 146.01 0 149.83C1.08 151.12 3.52 151.12 5.13 151.35C13.5 151.55 21.85 151.43 29.21 146.86C31.4 155.26 23.87 164.02 26.99 163.45C34.61 162.37 41.34 158.28 46.85 152.97C46.4744 155.418 45.7854 157.808 44.8 160.08C44.61 162.17 38.18 168.23 42.06 168.62C51.0962 169.087 59.9482 165.947 66.67 159.89C66.89 164.71 61.67 168.01 60.15 172.25C68.35 173.25 75.15 167.77 80.06 161.82C84.83 167.63 92 173.58 99.95 172.17C97.78 168 93.89 164.84 92.95 159.59C99.95 165.91 108.49 168.68 117.95 168.59C122.49 169.7 112.59 157.1 113.05 153.08L113.35 152.95C117.148 156.969 121.857 160.015 127.08 161.83C128.5 162.01 135.38 165.33 133.81 161.9C131.024 157.396 130.002 152.022 130.94 146.81C139.53 151.24 150.97 153.49 160.14 149.85Z" fill="url(#paint0_linear_106_87)"/>
<defs>
<linearGradient id="paint0_linear_106_87" x1="80.03" y1="172.38" x2="80.03" y2="0" gradientUnits="userSpaceOnUse">
<stop stop-color="#fbd0e1"/>
<stop offset="0.14" stop-color="#fbc1d1"/>
<stop offset="0.35" stop-color="#fcb0c0"/>
<stop offset="0.6" stop-color="#fca7b7"/>
<stop offset="1" stop-color="#fca4b4"/>
</linearGradient>
</defs>
</svg>
