<svg width="158" height="165" viewBox="0 0 158 165" fill="none" xmlns="http://www.w3.org/2000/svg">
<path d="M135.33 124.45C144.215 112.736 149.017 98.4327 149 83.73V67.5C149 58.6349 147.254 49.8567 143.861 41.6666C140.468 33.4764 135.495 26.0348 129.226 19.7668C122.957 13.4987 115.515 8.52687 107.324 5.13526C99.1336 1.74366 90.3551 -0.0013126 81.49 7.40809e-07H76.63C58.7279 7.40809e-07 41.559 7.11159 28.9003 19.7703C16.2416 32.429 9.13 49.5979 9.13 67.5V83.73C9.10647 98.4073 13.8903 112.688 22.75 124.39C10.38 131.57 1.48 138.01 0 142.31C0.45 155.79 24.61 166.38 29.68 164.66C34.59 163 40.04 142.01 40.38 140.66C51.2031 147.579 63.7842 151.248 76.63 151.23H81.49C94.2865 151.245 106.821 147.605 117.62 140.74C118.09 142.57 123.46 163.02 128.3 164.66C133.37 166.38 157.53 155.79 157.99 142.31C156.51 138 147.65 131.6 135.33 124.45Z" fill="url(#paint0_linear_80_9)"/>
<defs>
<linearGradient id="paint0_linear_80_9" x1="78.99" y1="164.84" x2="78.99" y2="0" gradientUnits="userSpaceOnUse">
<stop stop-color="#be605e"/>
<stop offset="0.14" stop-color="#ac4c4b"/>
<stop offset="0.35" stop-color="#983736"/>
<stop offset="0.6" stop-color="#8e2c2b"/>
<stop offset="1" stop-color="#8a2827"/>
</linearGradient>
</defs>
</svg>
