<svg width="140" height="170" viewBox="0 0 140 170" fill="none" xmlns="http://www.w3.org/2000/svg">
<path d="M139.84 85C140.48 60.59 125.84 37.28 103.09 25.49C108.99 23.82 114.36 15.55 109.09 10.88C110.28 16.1 107.03 20.88 101.78 22.44C103.97 -6.56001 40.19 -7.73001 38.4 20.49C33.4 19.15 32.52 17.29 31.4 12.8C26.82 17.68 29.77 24.16 36.34 25.73C18.59 34.38 8.25004 48.67 3.41003 65C1.15013 71.8396 -0.0011193 78.9967 8.16579e-07 86.2V102.42C8.16579e-07 120.322 7.11162 137.491 19.7703 150.15C32.429 162.808 49.5979 169.92 67.5 169.92H72.3701C90.2722 169.92 107.441 162.808 120.1 150.15C132.758 137.491 139.87 120.322 139.87 102.42V86.21C139.87 85.8 139.85 85.41 139.84 85Z" fill="url(#paint0_linear_106_90)"/>
<defs>
<linearGradient id="paint0_linear_106_90" x1="69.93" y1="169.93" x2="69.93" y2="-6.10252e-06" gradientUnits="userSpaceOnUse">
<stop stop-color="#94c6f0"/>
<stop offset="0.14" stop-color="#8bc1ef"/>
<stop offset="0.35" stop-color="#81bded"/>
<stop offset="0.6" stop-color="#7cbaec"/>
<stop offset="1" stop-color="#7ab9ec"/>
</linearGradient>
</defs>
</svg>
