<svg width="167" height="258" viewBox="0 0 167 258" fill="none" xmlns="http://www.w3.org/2000/svg">
<path d="M163.169 240.99C163.589 238.952 164.154 236.947 164.859 234.99C165.877 232.332 166.267 229.474 165.999 226.64C165.387 222.513 164.206 218.492 162.489 214.69C160.359 209.57 158.249 204.45 156.299 199.26C154.88 195.473 154.948 191.289 156.489 187.55C158.08 183.686 159.036 179.589 159.319 175.42C159.639 168.29 158.219 161.42 156.099 154.69C154.179 148.53 152.219 142.39 150.389 136.21C148.426 129.408 148.622 122.166 150.949 115.48C152.049 112.09 153.119 108.69 153.949 105.23C154.698 102.37 155.217 99.4535 155.499 96.51C155.772 92.8495 155.808 89.1752 155.609 85.51C155.401 82.3034 154.986 79.1134 154.369 75.96C153.809 72.88 153.759 69.73 153.029 66.67C152.982 66.4788 152.945 66.2852 152.919 66.09C152.553 48.4377 145.283 31.6319 132.67 19.2769C120.057 6.9218 103.105 0.00143586 85.4488 2.82185e-06H80.6388C66.7023 -0.00402529 53.106 4.30456 41.7154 12.3346C30.3248 20.3645 21.698 31.7225 17.0188 44.85C16.7288 45.6 16.4188 46.34 16.1488 47.1C13.4742 54.6622 12.085 62.6189 12.0388 70.64C12.0493 72.5902 11.919 74.5386 11.6488 76.47C10.6284 82.0195 10.1794 87.659 10.3088 93.3C10.5615 98.33 11.4279 103.31 12.8888 108.13C13.8188 111.13 14.8188 114.13 15.6588 117.13C17.059 121.719 17.4311 126.561 16.7488 131.31C15.7988 137.31 13.7488 142.92 11.9588 148.64C9.8588 155.27 7.5488 161.84 6.9588 168.86C6.35235 174.709 7.10524 180.62 9.15878 186.13C10.1134 188.329 10.6752 190.677 10.8188 193.07C10.8888 196.87 9.58878 200.34 8.24878 203.76C6.55878 208.08 4.6188 212.3 2.8288 216.58C1.38379 219.949 0.450165 223.515 0.0588089 227.16C-0.281191 230.6 0.918782 233.72 1.96878 236.9C2.55469 238.798 2.91386 240.758 3.03879 242.74C3.16879 244.56 2.0388 245.99 0.638795 247.28C2.14945 248.093 3.87942 248.405 5.5788 248.17C14.3088 247.17 20.5188 238.3 19.2988 231.3C19.2187 230.365 19.2187 229.425 19.2988 228.49H19.6688C20.8388 232.24 23.0988 235.38 25.2088 238.61C26.2745 240.207 26.9588 242.027 27.2088 243.93C27.4861 246.466 27.0858 249.03 26.0488 251.36C25.6588 252.29 25.8788 252.82 26.8488 253.02C28.9254 253.541 31.1035 253.5 33.1588 252.9C38.5988 251.1 42.0588 247.25 44.1588 242.03C44.2588 241.78 44.3588 241.53 44.5388 241.11C44.7288 242.31 44.8588 243.3 45.0488 244.28C45.753 247.611 47.7255 250.537 50.5488 252.44C52.8749 254.216 55.6403 255.326 58.5488 255.65C58.7852 255.677 59.0248 255.655 59.2521 255.584C59.4794 255.514 59.6894 255.396 59.8688 255.24C59.9707 255.04 60.0237 254.819 60.0237 254.595C60.0237 254.371 59.9707 254.15 59.8688 253.95C58.1588 250.95 58.6988 248.09 60.1088 245.27C60.42 244.641 60.8604 244.084 61.4012 243.636C61.942 243.188 62.571 242.859 63.2475 242.67C63.9239 242.481 64.6325 242.437 65.3271 242.541C66.0216 242.644 66.6867 242.893 67.2788 243.27C68.511 243.955 69.4484 245.069 69.913 246.4C70.3776 247.731 70.337 249.187 69.7988 250.49C69.1987 251.997 68.5074 253.467 67.7288 254.89C67.3488 255.67 67.0888 256.45 68.1588 256.89C70.6988 257.84 74.9688 258 77.4088 255.46C79.0662 253.836 80.4838 251.984 81.6188 249.96C82.6188 248.08 83.2788 248.1 84.4488 249.96C85.2488 251.21 86.0488 252.47 86.9488 253.65C89.3888 256.84 92.5188 258.25 96.5788 257.32C98.9388 256.78 99.1488 256.27 97.9088 254.13C96.6688 251.99 95.3688 249.53 96.1388 246.76C96.3925 245.756 96.9286 244.846 97.6836 244.137C98.4385 243.428 99.3808 242.95 100.399 242.76C101.265 242.506 102.188 242.514 103.05 242.785C103.911 243.055 104.673 243.576 105.239 244.28C106.265 245.513 106.935 247.004 107.174 248.59C107.414 250.177 107.215 251.799 106.599 253.28C106.319 254.02 105.759 254.85 106.349 255.44C106.699 255.79 107.669 255.67 108.349 255.57C110.611 255.259 112.779 254.465 114.706 253.242C116.634 252.019 118.275 250.394 119.519 248.48C120.999 246.37 121.319 243.88 121.799 241.35C121.949 241.81 122.079 242.27 122.259 242.72C123.461 245.659 125.388 248.246 127.859 250.24C129.263 251.504 130.932 252.438 132.743 252.975C134.554 253.511 136.463 253.636 138.329 253.34C140.189 253.07 140.769 252.98 139.889 250.79C139.011 248.812 138.661 246.641 138.871 244.487C139.081 242.333 139.845 240.271 141.089 238.5C142.422 236.453 143.709 234.363 144.949 232.23C145.599 231.08 146.039 229.81 146.579 228.59C146.727 229.774 146.787 230.967 146.759 232.16C146.694 232.955 146.694 233.755 146.759 234.55C147.231 237.667 148.595 240.58 150.685 242.94C152.775 245.299 155.502 247.005 158.539 247.85C160.785 248.531 163.201 248.385 165.349 247.44C165.241 247.189 165.099 246.954 164.929 246.74C164.123 246.045 163.53 245.137 163.219 244.119C162.907 243.102 162.89 242.017 163.169 240.99Z" fill="url(#paint0_linear_106_93)"/>
<defs>
<linearGradient id="paint0_linear_106_93" x1="83.0588" y1="257.54" x2="83.0588" y2="0.0100082" gradientUnits="userSpaceOnUse">
<stop stop-color="#f7fdda"/>
<stop offset="0.14" stop-color="#eafabd"/>
<stop offset="0.35" stop-color="#ddf79e"/>
<stop offset="0.6" stop-color="#d6f68d"/>
<stop offset="1" stop-color="#d3f587"/>
</linearGradient>
</defs>
</svg>
