<svg width="202" height="152" viewBox="0 0 202 152" fill="none" xmlns="http://www.w3.org/2000/svg">
<path d="M191.885 83.66C187.655 80.2 180.415 78.15 181.445 71.44C182.585 60.17 196.845 52.85 191.955 40.27C187.695 25.59 164.465 7.91004 151.555 21.88C145.031 14.9615 137.161 9.45122 128.428 5.68836C119.695 1.9255 110.284 -0.0103176 100.775 4.13555e-05C96.1075 1.76043e-05 91.4515 0.462273 86.8751 1.38004C75.7109 3.44404 65.2778 8.38315 56.6051 15.71C54.2938 17.6016 52.106 19.6391 50.0551 21.81C35.0551 6.81004 7.25506 29.49 8.88506 47.51C9.28506 56.99 19.4251 61.86 20.0051 71.19C20.8651 80.77 8.78506 81.44 4.67506 88.52C-1.02494 95.25 -1.97494 106.41 4.41506 113.01C9.18506 117.69 16.2651 117.53 22.3151 119.27C40.9251 125.27 25.9251 149.39 11.6451 141.61C15.8251 156.33 44.1951 152.16 40.1151 136.12C39.5451 132.23 46.5951 134.87 50.8551 130.26C57.3535 136.915 65.1182 142.201 73.6917 145.808C82.2652 149.414 91.4739 151.268 100.775 151.26C110.076 151.266 119.284 149.412 127.857 145.805C136.431 142.199 144.196 136.913 150.695 130.26C155.105 135.19 163.055 131.77 161.245 136.96C158.505 152.75 185.805 155.62 190.185 141.35C179.875 147.56 165.565 135.15 172.185 124.27C177.855 115.27 191.805 120.42 198.035 111.96C205.085 102.77 200.695 89.86 191.885 83.66Z" fill="url(#paint0_linear_106_88)"/>
<defs>
<linearGradient id="paint0_linear_106_88" x1="100.775" y1="151.23" x2="100.775" y2="3.6056e-05" gradientUnits="userSpaceOnUse">
<stop stop-color="#f1e7b4"/>
<stop offset="0.14" stop-color="#e9d9a8"/>
<stop offset="0.35" stop-color="#e0cb9b"/>
<stop offset="0.6" stop-color="#dbc395"/>
<stop offset="1" stop-color="#d9c092"/>
</linearGradient>
</defs>
</svg>
