<svg width="174" height="159" viewBox="0 0 174 159" fill="none" xmlns="http://www.w3.org/2000/svg">
<path d="M173.402 31.194C172.402 10.984 150.622 -4.17598 131.402 1.03402C123.662 2.44402 117.832 7.67402 112.472 12.664C107.273 10.6005 101.844 9.1735 96.3021 8.41402C93.1592 7.87247 89.9698 7.64801 86.7821 7.74402H86.6821C83.4943 7.64834 80.305 7.8728 77.1621 8.41402C71.6204 9.1735 66.191 10.6005 60.9921 12.664C55.6421 7.66402 49.8021 2.44402 42.0621 1.03402C22.8121 -4.17598 1.00207 10.984 0.0620748 31.194C-0.727925 44.624 6.06209 57.864 18.1721 64.094C17.2869 68.5699 16.8415 73.1215 16.8421 77.684V89.044C16.8408 98.2282 18.6486 107.323 22.1623 115.808C25.676 124.294 30.8268 132.004 37.3206 138.498C43.8143 144.993 51.5238 150.145 60.0087 153.66C68.4937 157.175 77.5879 158.984 86.7721 158.984C95.9567 158.984 105.051 157.175 113.537 153.66C122.022 150.145 129.733 144.994 136.227 138.499C142.722 132.005 147.873 124.294 151.388 115.809C154.903 107.323 156.712 98.2287 156.712 89.044V77.684C156.708 73.1217 156.262 68.5706 155.382 64.094C167.372 57.864 174.202 44.604 173.402 31.194Z" fill="url(#paint0_linear_80_6)"/>
<defs>
<linearGradient id="paint0_linear_80_6" x1="86.6921" y1="158.984" x2="86.6921" y2="0.0040178" gradientUnits="userSpaceOnUse">
<stop stop-color="#c8cee6"/>
<stop offset="0.14" stop-color="#babfd7"/>
<stop offset="0.35" stop-color="#aaafc8"/>
<stop offset="0.6" stop-color="#a2a6bf"/>
<stop offset="1" stop-color="#9fa3bc"/>
</linearGradient>
</defs>
</svg>
