<svg width="140" height="222" viewBox="0 0 140 222" fill="none" xmlns="http://www.w3.org/2000/svg">
<path d="M139.3 74.572C137.55 51.182 122.18 29.062 98.76 19.442C97.05 17.952 97.14 15.212 95.96 13.372C91.18 4.02203 79.2601 -1.67796 68.3201 0.442042C59.6401 2.02204 51.97 7.77204 49.11 15.662C48.9915 15.9959 48.7927 16.2955 48.5311 16.5344C48.2696 16.7733 47.9532 16.9442 47.61 17.032C33.9963 20.9591 22.016 29.1802 13.4545 40.4699C4.89305 51.7596 0.208867 65.5136 0.100041 79.682C0.040041 80.912 5.0134e-05 82.162 5.0134e-05 83.412V94.782C-0.0206362 112.039 6.36105 128.69 17.91 141.512C19.11 143.062 20.4 144.682 21.8 146.402C16.0686 155.519 13.6007 166.31 14.8 177.012C20.48 224.162 87.58 237.672 113.68 197.012L113.4 196.832C110.85 198.832 108.6 201.142 105.92 202.962C90.74 214.522 69.79 206.842 65.34 189.432C62.81 181.372 63.34 172.912 65.79 164.902C65.8211 164.791 65.8648 164.683 65.92 164.582C67.25 164.662 68.59 164.712 69.92 164.712C79.1051 164.715 88.2006 162.908 96.6872 159.395C105.174 155.882 112.885 150.731 119.381 144.237C125.877 137.743 131.029 130.033 134.545 121.548C138.061 113.062 139.87 103.967 139.87 94.782V83.412C139.863 80.4564 139.673 77.5041 139.3 74.572Z" fill="url(#paint0_linear_106_92)"/>
<defs>
<linearGradient id="paint0_linear_106_92" x1="69.94" y1="221.112" x2="69.94" y2="0.00202959" gradientUnits="userSpaceOnUse">
<stop stop-color="#5f5f5f"/>
<stop offset="0.14" stop-color="#3e3e3e"/>
<stop offset="0.35" stop-color="#1a1a1a"/>
<stop offset="0.6" stop-color="#070707"/>
<stop offset="1" stop-color="#000000"/>
</linearGradient>
</defs>
</svg>
