<svg width="152" height="197" viewBox="0 0 152 197" fill="none" xmlns="http://www.w3.org/2000/svg">
<path d="M141.707 44.5501C136.987 31.5028 128.362 20.2263 117.005 12.2551C105.648 4.28381 92.1119 0.00474622 78.237 7.06467e-05H73.367C58.2904 -0.0217875 43.6449 5.02914 31.787 14.3401C24.856 19.3784 19.0042 25.7537 14.577 33.0901C9.68696 40.5101 7.51696 48.8401 5.50696 57.2101C2.98696 60.9201 -0.333038 64.5101 0.0269622 69.2101C0.0667987 72.8742 0.642908 76.5128 1.73696 80.0101C3.88696 86.3601 5.03696 85.7001 5.93696 86.6701C6.17454 92.4373 7.14912 98.1503 8.83696 103.67C10.007 114.03 10.397 124.55 13.977 134.49C19.647 152.36 40.497 163.86 59.847 158.07C55.997 165.87 54.847 174.83 63.847 179.88C68.737 183.75 85.487 189.58 76.847 196.68L77.107 196.96C83.457 194.87 89.037 191.16 92.287 185.56C97.457 177.63 101.557 166.12 93.507 158.56C108.637 162.05 124.937 155.97 133.187 143.56C140.617 131.83 141.697 117.69 142.677 103.86C144.407 98.2664 145.399 92.4707 145.627 86.6201C150.437 83.8301 150.937 76.2501 151.447 71.4801C151.732 69.3182 151.543 67.1202 150.892 65.0391C150.24 62.958 149.143 61.0439 147.677 59.4301C146.194 57.5409 145.001 55.4412 144.137 53.2001" fill="url(#paint0_linear_106_91)"/>
<defs>
<linearGradient id="paint0_linear_106_91" x1="75.777" y1="196.89" x2="75.777" y2="7.04134e-05" gradientUnits="userSpaceOnUse">
<stop stop-color="#c8cee6"/>
<stop offset="0.14" stop-color="#babfd7"/>
<stop offset="0.35" stop-color="#aaafc8"/>
<stop offset="0.6" stop-color="#a2a6bf"/>
<stop offset="1" stop-color="#9fa3bc"/>
</linearGradient>
</defs>
</svg>
