<svg width="183" height="152" viewBox="0 0 183 152" fill="none" xmlns="http://www.w3.org/2000/svg">
<path d="M182.196 75.0401C182.316 52.5101 177.196 26.35 158.926 11.39C150.666 4.39004 135.926 -0.299956 128.926 10C118.299 3.44996 106.059 -0.0126214 93.576 4.37917e-05H88.6659C76.1826 -0.014204 63.9419 3.4485 53.316 10C46.246 -0.299956 31.526 4.39004 23.316 11.39C5.05595 26.39 -0.0740669 52.5101 0.0459331 75.0401C-0.594067 88.6201 5.51595 102.2 14.4959 110.94C8.94594 95.59 12.296 84.0601 21.206 71.7901V83.74C21.206 101.642 28.3175 118.811 40.9762 131.47C53.6349 144.128 70.8039 151.24 88.706 151.24H93.576C111.478 151.24 128.647 144.128 141.306 131.47C153.964 118.811 161.076 101.642 161.076 83.74V71.7901C169.986 84.0601 173.336 95.59 167.786 110.94C176.726 102.2 182.836 88.6201 182.196 75.0401Z" fill="url(#paint0_linear_80_8)"/>
<defs>
<linearGradient id="paint0_linear_80_8" x1="91.0959" y1="151.24" x2="91.0959" y2="0.0100416" gradientUnits="userSpaceOnUse">
<stop stop-color="#c8cee6"/>
<stop offset="0.14" stop-color="#babfd7"/>
<stop offset="0.35" stop-color="#aaafc8"/>
<stop offset="0.6" stop-color="#a2a6bf"/>
<stop offset="1" stop-color="#9fa3bc"/>
</linearGradient>
</defs>
</svg>
