<svg width="128" height="124" viewBox="0 0 128 124" fill="none" xmlns="http://www.w3.org/2000/svg">
<path d="M25 9.06999C25 9.06999 24.16 7.59999 21.56 11.16C18.96 14.72 4.55 36.53 0 47.22C0 47.22 3.54 61.61 26.3 67.31L25 9.06999Z" fill="url(#paint0_linear_95_217)"/>
<path d="M102.35 9.06999C102.35 9.06999 103.2 7.59999 105.8 11.16C108.4 14.72 122.8 36.53 127.36 47.22C127.36 47.22 123.82 61.61 101.05 67.31L102.35 9.06999Z" fill="url(#paint1_linear_95_217)"/>
<path d="M108.35 98.17C107.15 88.5 102.61 26.82 102.82 8.67C103.48 6.99 95.64 1.76 89.39 1.26C86.9 0.79 83.92 0.37 80.88 0H80.81C76.36 17.66 51 17.65 46.54 0H46.48C43.48 0.37 40.48 0.79 37.97 1.25C31.68 1.8 23.97 6.9 24.54 8.66C24.73 26.66 20.21 88.6 19 98.16C17.49 106.54 13.62 113 24.86 116.52C26.0408 116.88 27.2023 117.301 28.34 117.78C45.08 124.98 82.28 124.99 99.02 117.78C100.157 117.299 101.319 116.879 102.5 116.52C113.74 113 109.86 106.55 108.35 98.17Z" fill="url(#paint2_linear_95_217)"/>
<path d="M89.39 1.25C88.1249 7.11867 84.8893 12.3776 80.2212 16.1525C75.553 19.9274 69.7335 21.9909 63.73 22H63.27C57.3347 21.8992 51.6079 19.7943 47.0202 16.0272C42.4325 12.2601 39.2536 7.05227 38 1.25C40.51 0.79 43.49 0.37 46.54 0C46.66 0.48 46.8 1 46.96 1.42L47.08 1.76C47.2533 2.22 47.4433 2.67 47.65 3.11C47.8567 3.55 48.0767 3.98 48.31 4.4L48.49 4.71C48.68 5.03 48.87 5.33 49.08 5.63C49.29 5.93 49.35 6.03 49.5 6.22L49.94 6.79C50.08 6.97 50.24 7.16 50.4 7.34C50.56 7.52 50.72 7.7 50.89 7.87L51.14 8.13C54.3505 11.384 58.7 13.2629 63.27 13.37H63.71C66.4722 13.3697 69.196 12.7228 71.6635 11.4813C74.131 10.2397 76.2736 8.43792 77.92 6.22L78.34 5.63C78.54 5.33 78.74 5.03 78.92 4.71L79.1 4.4C79.5821 3.55543 79.9935 2.67242 80.33 1.76L80.45 1.42C80.61 0.95 80.75 0.48 80.87 0C83.92 0.37 86.9 0.79 89.39 1.25Z" fill="url(#paint3_linear_95_217)"/>
<defs>
<linearGradient id="paint0_linear_95_217" x1="13.15" y1="8.76999" x2="13.15" y2="67.31" gradientUnits="userSpaceOnUse">
<stop stop-color="#7AD3B2"/>
<stop offset="0.26" stop-color="#76D2B0"/>
<stop offset="0.49" stop-color="#6BCEAA"/>
<stop offset="0.71" stop-color="#57C79E"/>
<stop offset="0.91" stop-color="#3EBC8E"/>
<stop offset="1" stop-color="#3AAE83"/>
</linearGradient>
<linearGradient id="paint1_linear_95_217" x1="114.2" y1="8.76999" x2="114.2" y2="67.31" gradientUnits="userSpaceOnUse">
<stop stop-color="#7AD3B2"/>
<stop offset="0.26" stop-color="#76D2B0"/>
<stop offset="0.49" stop-color="#6BCEAA"/>
<stop offset="0.71" stop-color="#57C79E"/>
<stop offset="0.91" stop-color="#3EBC8E"/>
<stop offset="1" stop-color="#3AAE83"/>
</linearGradient>
<linearGradient id="paint2_linear_95_217" x1="63.68" y1="0" x2="63.68" y2="123.19" gradientUnits="userSpaceOnUse">
<stop stop-color="#7AD3B2"/>
<stop offset="0.48" stop-color="#77D2B1"/>
<stop offset="0.66" stop-color="#70D0AD"/>
<stop offset="0.78" stop-color="#64CCA6"/>
<stop offset="0.88" stop-color="#51C59B"/>
<stop offset="0.97" stop-color="#3EBA8D"/>
<stop offset="1" stop-color="#3AAE83"/>
</linearGradient>
<linearGradient id="paint3_linear_95_217" x1="63.71" y1="21.96" x2="63.71" y2="0" gradientUnits="userSpaceOnUse">
<stop stop-color="#7AD3B2"/>
<stop offset="0.55" stop-color="#4DC499"/>
<stop offset="1" stop-color="#3AAE83"/>
</linearGradient>
</defs>
</svg>
