<svg width="161" height="141" viewBox="0 0 161 141" fill="none" xmlns="http://www.w3.org/2000/svg">
<g id="mee-scale-wrapper" transform="translate(80.5, 70.5) scale(1.00625) translate(-80, -70)">
<path d="M104.089 7.18L96.5793 57.4L79.5793 62.23H79.5293L62.5293 57.4L54.9792 7.18C54.9792 7.18 60.9793 7.88 64.4693 4.87C69.7993 8.63 80.1092 12.8 94.8792 5.1C98.3892 7.85 104.089 7.18 104.089 7.18Z" fill="url(#paint0_linear_126_276)"/>
<path d="M94.8792 5.1C80.1092 12.8 69.7992 8.63 64.4692 4.87C65.1661 4.2555 65.7337 3.50841 66.1389 2.67229C66.5441 1.83617 66.7787 0.92775 66.8292 0C70.866 1.70683 75.1967 2.61035 79.5792 2.66C83.9311 2.59645 88.2298 1.69326 92.2392 0C92.2936 0.988426 92.5571 1.95407 93.0121 2.83319C93.4672 3.71231 94.1036 4.48492 94.8792 5.1Z" fill="url(#paint1_linear_126_276)"/>
<path d="M158.939 98.05C158.729 99.34 157.649 100.77 156.009 102.2C155.749 102.43 155.469 102.66 155.169 102.9C153.405 104.251 151.521 105.436 149.539 106.44L148.629 106.9C146.799 107.796 144.916 108.577 142.989 109.24L141.989 109.56C139.933 110.242 137.812 110.711 135.659 110.96C135.309 110.96 134.969 111.02 134.659 111.03C133.128 111.195 131.581 110.91 130.209 110.21C128.509 109.32 127.879 106.7 126.589 101.42C128.309 101.789 130.081 101.843 131.819 101.58C132.149 101.58 132.489 101.5 132.819 101.45C134.951 101.089 137.051 100.56 139.099 99.87L140.049 99.55C141.975 98.8803 143.861 98.1024 145.699 97.22C146.009 97.08 146.309 96.94 146.609 96.78C148.586 95.8111 150.491 94.7016 152.309 93.46C152.599 93.26 152.889 93.06 153.169 92.84C154.485 91.9151 155.681 90.8301 156.729 89.61C158.509 93.8 159.429 96.91 158.939 98.05Z" fill="url(#paint2_linear_126_276)"/>
<path d="M135.709 111C135.359 111 135.019 111.06 134.709 111.07L131.859 101.6C132.189 101.6 132.529 101.52 132.859 101.47L135.709 111Z" fill="#A40300"/>
<path d="M142.999 109.25L141.999 109.57L139.089 99.86L140.039 99.54L142.999 109.25Z" fill="#A40300"/>
<path d="M149.579 106.45L148.669 106.91L145.759 97.21C146.069 97.07 146.369 96.93 146.669 96.77L149.579 106.45Z" fill="#A40300"/>
<path d="M156.019 102.21C155.759 102.44 155.479 102.67 155.179 102.91L152.339 93.45C152.629 93.25 152.919 93.05 153.199 92.83L156.019 102.21Z" fill="#A40300"/>
<path d="M158.319 86.6901C157.119 93.9901 132.079 105.07 125.089 100.76C121.669 98.9601 121.979 91.1401 115.569 71.6701C109.859 52.9701 99.7692 19.5901 118.669 14.4301V14.5401C122.369 16.2601 123.799 18.8601 128.269 25.3601C131.779 31.0001 160.819 80.9201 158.319 86.6901Z" fill="url(#paint3_linear_126_276)"/>
<path d="M0.129174 97.94C0.339174 99.23 1.4192 100.66 3.0592 102.09C3.3192 102.32 3.59919 102.55 3.89919 102.79C5.663 104.141 7.54766 105.326 9.5292 106.33L10.4392 106.79C12.269 107.686 14.1526 108.467 16.0792 109.13L17.0792 109.45C19.1357 110.132 21.2568 110.601 23.4092 110.85C23.7592 110.85 24.0992 110.91 24.4092 110.92C25.9407 111.085 27.487 110.8 28.8592 110.1C30.5592 109.21 31.1892 106.59 32.4792 101.31C30.7598 101.679 28.9879 101.733 27.2492 101.47C26.9192 101.47 26.5792 101.39 26.2492 101.34C24.1177 100.979 22.0179 100.45 19.9692 99.76L19.0192 99.44C17.0935 98.7703 15.2072 97.9924 13.3692 97.11C13.0592 96.97 12.7592 96.83 12.4592 96.67C10.4822 95.7012 8.57728 94.5916 6.75918 93.35C6.46918 93.15 6.17919 92.95 5.89919 92.73C4.58315 91.8052 3.3873 90.7202 2.3392 89.5C0.579196 93.69 -0.360826 96.8 0.129174 97.94Z" fill="url(#paint4_linear_126_276)"/>
<path d="M23.3593 110.86C23.7093 110.86 24.0493 110.92 24.3593 110.93L27.2093 101.46C26.8793 101.46 26.5393 101.38 26.2093 101.33L23.3593 110.86Z" fill="#A40300"/>
<path d="M16.0692 109.14L17.0692 109.46L19.9792 99.7501L19.0292 99.4301L16.0692 109.14Z" fill="#A40300"/>
<path d="M9.51917 106.34L10.4292 106.8L13.3392 97.1C13.0292 96.96 12.7292 96.82 12.4292 96.66L9.51917 106.34Z" fill="#A40300"/>
<path d="M3.04919 102.1C3.30919 102.33 3.58919 102.56 3.88919 102.8L6.72919 93.34C6.43919 93.14 6.1492 92.94 5.8692 92.72L3.04919 102.1Z" fill="#A40300"/>
<path d="M0.749181 86.6901C1.94918 93.9901 26.9992 105.07 33.9792 100.76C37.3992 98.9601 37.0892 91.1401 43.4992 71.6701C49.2092 52.9701 59.2992 19.5901 40.3992 14.4301V14.5401C36.6992 16.2601 35.2692 18.8601 30.8092 25.3601C27.2892 31.0001 -1.75082 80.9201 0.749181 86.6901Z" fill="url(#paint5_linear_126_276)"/>
<path d="M122.439 120.72C121.157 121.484 119.783 122.083 118.349 122.5C117.219 122.97 116.059 123.41 114.869 123.81C114.549 123.94 114.229 124.05 113.869 124.15C110.143 125.402 106.338 126.404 102.479 127.15C102.153 127.223 101.819 127.283 101.479 127.33C96.7209 128.218 91.9114 128.806 87.0792 129.09L86.0792 129.14C81.2698 129.415 76.4486 129.415 71.6392 129.14L70.6392 129.07C66.0741 128.779 61.5318 128.201 57.0392 127.34C56.7092 127.34 56.3792 127.23 56.0392 127.16C51.9602 126.353 47.9486 125.236 44.0392 123.82L43.7892 123.76L42.7892 123.49C40.5645 122.947 38.4456 122.038 36.5192 120.8C31.5192 117.35 32.5192 112.18 34.6592 104.18C34.7792 103.18 34.9392 101.68 35.1192 99.71C36.7392 82.44 40.3692 30.97 40.1992 14.65V14.5C41.4592 10.71 47.3992 8.49996 51.9992 7.41996C52.5792 7.28996 53.1292 7.17996 53.6492 7.07996C55.9281 6.61417 58.2319 6.28029 60.5492 6.07996C60.7373 6.19248 60.8972 6.34645 61.0168 6.53015C61.1364 6.71384 61.2125 6.92241 61.2392 7.13996C61.5092 9.13996 61.8592 11.39 62.3392 13.93C62.4292 14.42 62.5292 14.93 62.6292 15.45C63.0392 17.52 63.5192 19.73 64.0892 22.04C64.2092 22.53 64.3392 23.04 64.4692 23.54C65.0692 25.86 65.7592 28.26 66.5492 30.69C66.7092 31.18 66.8792 31.69 67.0492 32.17C67.8892 34.64 68.8392 37.17 69.9092 39.62C70.1092 40.09 70.3192 40.62 70.5392 41.04C71.5392 43.22 72.5992 45.37 73.7892 47.47C74.0425 47.93 74.3025 48.38 74.5692 48.82C75.4025 50.2266 76.2825 51.5966 77.2092 52.93C77.5292 53.39 77.8492 53.83 78.2092 54.27L78.3392 54.44C78.4352 54.5728 78.5537 54.6878 78.6892 54.78C78.9145 54.942 79.1796 55.0397 79.4562 55.0626C79.7327 55.0855 80.0103 55.0327 80.2592 54.91C80.478 54.8006 80.6694 54.6434 80.8192 54.45V54.39C81.1492 53.95 81.4692 53.51 81.8192 53.06C82.7592 51.72 83.6492 50.33 84.4992 48.91C84.7592 48.46 85.0192 48.01 85.2692 47.56C86.4692 45.46 87.5492 43.3 88.5392 41.11C88.7492 40.64 88.9592 40.17 89.1592 39.69C90.2392 37.21 91.1592 34.69 92.0392 32.23C92.1992 31.74 92.3692 31.23 92.5292 30.76C93.3192 28.32 94.0192 25.92 94.6192 23.6C94.7492 23.09 94.8792 22.6 94.9992 22.09C95.5692 19.78 96.0592 17.56 96.4692 15.48C96.5692 14.97 96.6692 14.48 96.7592 13.97C97.2392 11.38 97.5992 9.04996 97.8692 7.07996C97.9278 6.68952 98.1269 6.33392 98.4292 6.07996C100.689 6.38996 102.959 6.67996 105.159 7.07996C105.212 7.0751 105.266 7.0751 105.319 7.07996C105.969 7.20996 106.669 7.35996 107.389 7.53996C111.879 8.63996 117.309 10.78 118.599 14.42C118.599 14.42 118.599 14.42 118.599 14.48C118.409 30.74 122.029 81.93 123.599 99.48C123.789 101.53 123.949 103.12 124.079 104.14C125.499 111.25 128.499 117 122.439 120.72Z" fill="url(#paint6_linear_126_276)"/>
<path d="M116.409 133.13L115.459 133.47L115.269 133.54C111.789 134.76 108.089 136.01 103.859 137.05L102.859 137.29C97.9304 138.442 92.9122 139.171 87.8593 139.47L86.8593 139.53C84.5393 139.65 82.0793 139.7 79.4593 139.67C76.3793 139.67 73.5193 139.67 70.8393 139.45L69.8393 139.38C65.0709 139.036 60.3385 138.304 55.6893 137.19L54.6893 136.95C50.6393 135.95 47.0693 134.72 43.6893 133.54L42.2193 133.01L41.2193 132.65C33.5593 129.65 34.9593 128.07 35.8993 123.38C36.0993 122.38 36.3193 121.38 36.5593 120.32C38.4542 121.298 40.4237 122.124 42.4493 122.79L42.8193 122.92L43.8193 123.25C47.818 124.674 51.8947 125.869 56.0293 126.83L57.0293 127.05C61.5038 128.004 66.0429 128.626 70.6093 128.91L71.6093 128.97C74.0693 129.1 76.6693 129.16 79.4393 129.12C81.7493 129.12 83.9393 129.12 86.0293 129.03L87.0293 128.98C91.866 128.737 96.6769 128.121 101.419 127.14L102.419 126.93C106.259 126.062 110.048 124.984 113.769 123.7C114.099 123.59 114.419 123.48 114.769 123.36L116.429 122.79C118.457 122.126 120.427 121.296 122.319 120.31C122.559 121.39 122.779 122.37 122.979 123.38C123.999 128.31 125.489 129.79 116.409 133.13Z" fill="url(#paint7_linear_126_276)"/>
<path d="M43.9192 123.25L42.3092 133L41.3092 132.64L42.9092 122.91L43.9192 123.25Z" fill="#A40300"/>
<path d="M57.1093 127.05L55.7393 137.19L54.7393 136.95L56.1093 126.83L57.1093 127.05Z" fill="#A40300"/>
<path d="M71.6893 129L70.8993 139.48L69.8993 139.41L70.6993 128.94L71.6893 129Z" fill="#A40300"/>
<path d="M116.409 133.13L115.459 133.47L113.839 123.7C114.169 123.59 114.489 123.48 114.839 123.36L116.409 133.13Z" fill="#A40300"/>
<path d="M103.859 137.05L102.859 137.29L101.479 127.14L102.479 126.93L103.859 137.05Z" fill="#A40300"/>
<path d="M87.9193 139.47L86.9193 139.53L86.1093 129.03L87.1093 128.98L87.9193 139.47Z" fill="#A40300"/>
<path d="M107.449 7.56C107.459 7.63971 107.459 7.72029 107.449 7.8C107.219 10.08 106.859 12.91 106.279 16.18C106.189 16.67 106.099 17.18 105.989 17.7C105.549 20.03 104.989 22.55 104.299 25.22C104.179 25.72 104.049 26.22 103.909 26.72C103.229 29.21 102.439 31.8 101.509 34.48C101.339 34.97 101.169 35.48 100.989 35.94C99.9892 38.61 98.9192 41.35 97.6592 44.13C97.4492 44.6 97.2292 45.07 97.0092 45.54C95.8292 48.03 94.5293 50.54 93.0893 53.06L92.3093 54.4C90.8693 56.82 89.3093 59.24 87.5893 61.63C87.2693 62.07 86.9493 62.52 86.5893 62.96C84.7445 65.4542 82.7753 67.8539 80.6892 70.15C80.5722 70.2813 80.4292 70.3869 80.2692 70.46C80.0266 70.5929 79.7524 70.6575 79.4759 70.6469C79.1995 70.6364 78.9311 70.551 78.6992 70.4C78.6182 70.3422 78.5413 70.2787 78.4693 70.21C76.2648 68.0181 74.1849 65.7045 72.2392 63.28L71.2392 62C69.4059 59.62 67.7392 57.2133 66.2392 54.78C65.9592 54.34 65.6992 53.9 65.4292 53.46C63.9292 50.95 62.5892 48.41 61.3792 45.9C61.1592 45.43 60.9392 44.96 60.7292 44.49C59.4492 41.7 58.3493 38.93 57.3993 36.23C57.2193 35.74 57.0593 35.23 56.8993 34.77C55.9893 32.06 55.2292 29.43 54.5992 26.91C54.4692 26.4 54.3492 25.91 54.2292 25.4C53.5892 22.71 53.0993 20.15 52.7193 17.79L52.4792 16.26C52.0492 13.34 51.7892 10.76 51.6292 8.61C51.6151 8.39016 51.6489 8.16988 51.7284 7.9644C51.8078 7.75893 51.9309 7.57317 52.0893 7.42C52.2841 7.23257 52.5259 7.10127 52.7892 7.04C53.4292 6.89 54.0292 6.76 54.5992 6.66C56.1492 6.34 57.8693 6.07 59.6493 5.85C59.9992 5.80844 60.3527 5.88974 60.6493 6.08C60.8374 6.19252 60.9973 6.34649 61.1168 6.53019C61.2364 6.71389 61.3125 6.92245 61.3393 7.14C61.6093 9.14 61.9592 11.39 62.4392 13.93C62.5292 14.42 62.6292 14.93 62.7292 15.45C63.1392 17.52 63.6192 19.73 64.1892 22.04C64.3092 22.53 64.4392 23.04 64.5692 23.54C65.1692 25.86 65.8593 28.26 66.6493 30.69C66.8093 31.18 66.9793 31.69 67.1493 32.17C67.9893 34.64 68.9392 37.17 70.0092 39.62C70.2092 40.09 70.4192 40.62 70.6392 41.04C71.6392 43.22 72.6992 45.37 73.8892 47.47C74.1426 47.93 74.4026 48.38 74.6692 48.82C75.5026 50.2267 76.3826 51.5967 77.3093 52.93C77.6293 53.39 77.9493 53.83 78.3093 54.27L78.4392 54.44C78.5353 54.5728 78.6537 54.6879 78.7892 54.78C79.0145 54.942 79.2797 55.0397 79.5562 55.0626C79.8328 55.0855 80.1104 55.0327 80.3592 54.91C80.5781 54.8006 80.7695 54.6434 80.9192 54.45V54.39C81.2492 53.95 81.5692 53.51 81.9192 53.06C82.8592 51.72 83.7492 50.33 84.5992 48.91C84.8592 48.46 85.1193 48.01 85.3693 47.56C86.5693 45.46 87.6492 43.3 88.6392 41.11C88.8492 40.64 89.0592 40.17 89.2592 39.69C90.3392 37.21 91.2592 34.69 92.1392 32.23C92.2992 31.74 92.4692 31.23 92.6292 30.76C93.4192 28.32 94.1193 25.92 94.7193 23.6C94.8493 23.09 94.9792 22.6 95.0992 22.09C95.6692 19.78 96.1592 17.56 96.5692 15.48C96.6692 14.97 96.7692 14.48 96.8592 13.97C97.3392 11.38 97.6993 9.05 97.9693 7.08C98.0289 6.65359 98.2547 6.26808 98.5976 6.00765C98.9405 5.74722 99.3725 5.63302 99.7992 5.69L106.739 6.83C106.917 6.86702 107.079 6.95631 107.206 7.08639C107.332 7.21647 107.417 7.3814 107.449 7.56Z" fill="url(#paint8_linear_126_276)"/>
<path d="M62.7193 15.44L52.7193 17.79L52.4792 16.26L62.4792 13.92C62.5192 14.41 62.5793 14.92 62.7193 15.44Z" fill="#A40300"/>
<path d="M64.5792 23.53L54.5792 26.91C54.4492 26.4 54.3292 25.91 54.2092 25.4L64.2092 22.03C64.2992 22.52 64.4292 23 64.5792 23.53Z" fill="#A40300"/>
<path d="M67.1393 32.1601L57.3993 36.2301C57.2193 35.7401 57.0593 35.2301 56.8993 34.7701L66.6393 30.6801C66.7993 31.1701 66.9693 31.6701 67.1393 32.1601Z" fill="#A40300"/>
<path d="M70.6292 41L61.3792 45.9C61.1592 45.43 60.9392 44.96 60.7292 44.49L69.9993 39.61C70.1993 40.08 70.4092 40.56 70.6292 41Z" fill="#A40300"/>
<path d="M74.6592 48.81L66.2392 54.81C65.9592 54.37 65.6992 53.93 65.4292 53.49L73.8792 47.49C74.1325 47.93 74.3925 48.37 74.6592 48.81Z" fill="#A40300"/>
<path d="M78.2592 54.26L72.2592 63.26L71.2592 61.98L77.3192 52.9C77.5792 53.38 77.9392 53.82 78.2592 54.26Z" fill="#A40300"/>
<path d="M80.3093 54.9V70.46C80.0666 70.5929 79.7924 70.6575 79.516 70.6469C79.2395 70.6364 78.9711 70.551 78.7393 70.4V54.77C78.9646 54.932 79.2297 55.0297 79.5062 55.0526C79.7828 55.0755 80.0604 55.0228 80.3093 54.9Z" fill="#A40300"/>
<path d="M106.279 16.18C106.189 16.67 106.099 17.18 105.989 17.7L96.5792 15.47C96.6792 14.96 96.7792 14.47 96.8692 13.96L106.279 16.18Z" fill="#A40300"/>
<path d="M104.299 25.22C104.179 25.72 104.049 26.22 103.909 26.72L94.6792 23.59C94.8092 23.08 94.9392 22.59 95.0592 22.08L104.299 25.22Z" fill="#A40300"/>
<path d="M101.509 34.48C101.339 34.97 101.169 35.48 100.989 35.94L92.0992 32.22C92.2592 31.73 92.4293 31.22 92.5893 30.75L101.509 34.48Z" fill="#A40300"/>
<path d="M97.6592 44.1301C97.4492 44.6001 97.2292 45.0701 97.0092 45.5401L88.5792 41.1001C88.7892 40.6301 88.9992 40.1601 89.1992 39.6801L97.6592 44.1301Z" fill="#A40300"/>
<path d="M93.0892 53.0601L92.3092 54.4001L84.5792 48.9001C84.8392 48.4501 85.0992 48 85.3492 47.55L93.0892 53.0601Z" fill="#A40300"/>
<path d="M87.5793 61.6301C87.2593 62.0701 86.9393 62.52 86.5793 62.96L80.8793 54.3801C81.2093 53.9401 81.5293 53.5 81.8793 53.05L87.5793 61.6301Z" fill="#A40300"/>
<defs>
<linearGradient id="paint0_linear_126_276" x1="79.5393" y1="4.87" x2="79.5393" y2="62.24" gradientUnits="userSpaceOnUse">
<stop offset="0.36" stop-color="#F7F7F7"/>
<stop offset="0.71" stop-color="#F5F6F6"/>
<stop offset="0.84" stop-color="#EEF2F4"/>
<stop offset="0.93" stop-color="#E3EBF0"/>
<stop offset="1" stop-color="#D3E2EA"/>
</linearGradient>
<linearGradient id="paint1_linear_126_276" x1="79.6792" y1="0" x2="79.6792" y2="9.43" gradientUnits="userSpaceOnUse">
<stop offset="0.48" stop-color="#F7F7F7"/>
<stop offset="0.76" stop-color="#E5EDF1"/>
<stop offset="1" stop-color="#D3E2EA"/>
</linearGradient>
<linearGradient id="paint2_linear_126_276" x1="142.839" y1="89.6" x2="142.839" y2="111.06" gradientUnits="userSpaceOnUse">
<stop stop-color="#A40300"/>
<stop offset="0.35" stop-color="#AA0300"/>
<stop offset="0.77" stop-color="#BA0300"/>
<stop offset="1" stop-color="#C50300"/>
</linearGradient>
<linearGradient id="paint3_linear_126_276" x1="133.099" y1="14.4301" x2="133.099" y2="101.75" gradientUnits="userSpaceOnUse">
<stop stop-color="#FF2F2B"/>
<stop offset="0.21" stop-color="#FF0E0A"/>
<stop offset="0.51" stop-color="#E30400"/>
<stop offset="0.79" stop-color="#CD0300"/>
<stop offset="1" stop-color="#C50300"/>
</linearGradient>
<linearGradient id="paint4_linear_126_276" x1="16.2392" y1="89.49" x2="16.2392" y2="110.94" gradientUnits="userSpaceOnUse">
<stop stop-color="#A40300"/>
<stop offset="0.35" stop-color="#AA0300"/>
<stop offset="0.77" stop-color="#BA0300"/>
<stop offset="1" stop-color="#C50300"/>
</linearGradient>
<linearGradient id="paint5_linear_126_276" x1="25.9792" y1="14.4301" x2="25.9792" y2="101.75" gradientUnits="userSpaceOnUse">
<stop stop-color="#FF2F2B"/>
<stop offset="0.21" stop-color="#FF0E0A"/>
<stop offset="0.51" stop-color="#E30400"/>
<stop offset="0.79" stop-color="#CD0300"/>
<stop offset="1" stop-color="#C50300"/>
</linearGradient>
<linearGradient id="paint6_linear_126_276" x1="79.5392" y1="6.04996" x2="79.5392" y2="129.3" gradientUnits="userSpaceOnUse">
<stop stop-color="#FF2F2B"/>
<stop offset="0.21" stop-color="#FF2521"/>
<stop offset="0.52" stop-color="#FF0904"/>
<stop offset="0.9" stop-color="#D30300"/>
<stop offset="1" stop-color="#C50300"/>
</linearGradient>
<linearGradient id="paint7_linear_126_276" x1="79.5193" y1="120.31" x2="79.5193" y2="139.68" gradientUnits="userSpaceOnUse">
<stop stop-color="#A40300"/>
<stop offset="0.37" stop-color="#A80300"/>
<stop offset="0.71" stop-color="#B40300"/>
<stop offset="1" stop-color="#C50300"/>
</linearGradient>
<linearGradient id="paint8_linear_126_276" x1="79.5392" y1="5.66" x2="79.5392" y2="70.64" gradientUnits="userSpaceOnUse">
<stop stop-color="#A40300"/>
<stop offset="0.51" stop-color="#B30300"/>
<stop offset="1" stop-color="#C50300"/>
</linearGradient>
</defs>
</g>
</svg>
