<svg width="161" height="141" viewBox="0 0 161 141" fill="none" xmlns="http://www.w3.org/2000/svg">
<g id="mee-scale-wrapper" transform="translate(80.5, 70.5) scale(1.00625) translate(-80, -70)">
<path d="M104.089 7.17999L96.5793 57.4L79.5793 62.23H79.5293L62.5293 57.4L54.9993 7.17999C54.9993 7.17999 60.9993 7.88 64.4893 4.87C69.8193 8.63 80.1293 12.8 94.8993 5.09999C98.3893 7.84999 104.089 7.17999 104.089 7.17999Z" fill="url(#paint0_linear_126_279)"/>
<path d="M94.8792 5.10001C80.1092 12.8 69.7992 8.63001 64.4692 4.87001C65.1661 4.25551 65.7337 3.50841 66.1389 2.67229C66.5441 1.83617 66.7787 0.92775 66.8292 0C70.8351 1.75441 75.161 2.66014 79.5342 2.66014C83.9075 2.66014 88.2333 1.75441 92.2392 0C92.2936 0.988426 92.5571 1.95407 93.0121 2.83319C93.4672 3.71231 94.1036 4.48492 94.8792 5.10001Z" fill="url(#paint1_linear_126_279)"/>
<path d="M158.939 98.05C158.729 99.34 157.649 100.77 156.009 102.2C155.749 102.43 155.469 102.66 155.169 102.9C153.405 104.251 151.521 105.436 149.539 106.44L148.629 106.9C146.799 107.796 144.916 108.577 142.989 109.24L141.989 109.56C139.933 110.242 137.812 110.711 135.659 110.96C135.309 110.96 134.969 111.02 134.659 111.03C133.128 111.195 131.581 110.91 130.209 110.21C128.509 109.32 127.879 106.7 126.589 101.42C128.309 101.789 130.081 101.843 131.819 101.58C132.149 101.58 132.489 101.5 132.819 101.45C134.951 101.089 137.051 100.56 139.099 99.87L140.049 99.55C141.975 98.8803 143.861 98.1024 145.699 97.22C146.009 97.08 146.309 96.94 146.609 96.78C148.586 95.8111 150.491 94.7016 152.309 93.46C152.599 93.26 152.889 93.06 153.169 92.84C154.485 91.9151 155.681 90.8301 156.729 89.61C158.509 93.8 159.429 96.91 158.939 98.05Z" fill="url(#paint2_linear_126_279)"/>
<path d="M135.709 110.97C135.359 110.97 135.019 111.03 134.709 111.04L131.859 101.57C132.189 101.57 132.529 101.49 132.859 101.44L135.709 110.97Z" fill="#020202"/>
<path d="M142.999 109.25L141.999 109.57L139.129 99.91L140.079 99.59L142.999 109.25Z" fill="#020202"/>
<path d="M149.579 106.45L148.669 106.91L145.759 97.21C146.069 97.07 146.369 96.93 146.669 96.77L149.579 106.45Z" fill="#020202"/>
<path d="M156.019 102.21C155.759 102.44 155.479 102.67 155.179 102.91L152.339 93.4501C152.629 93.2501 152.919 93.0501 153.199 92.8301L156.019 102.21Z" fill="#020202"/>
<path d="M158.319 86.69C157.119 93.99 132.079 105.07 125.089 100.76C121.669 98.9601 121.979 91.14 115.569 71.67C109.859 52.97 99.7692 19.5901 118.669 14.4301V14.5401C122.369 16.2601 123.799 18.86 128.269 25.36C131.779 30.91 160.819 80.91 158.319 86.69Z" fill="url(#paint3_linear_126_279)"/>
<path d="M0.129174 97.9101C0.339174 99.2001 1.4192 100.63 3.0592 102.06C3.3192 102.29 3.59919 102.52 3.89919 102.76C5.663 104.111 7.54766 105.296 9.5292 106.3L10.4392 106.76C12.269 107.656 14.1526 108.437 16.0792 109.1L17.0792 109.42C19.1357 110.102 21.2568 110.571 23.4092 110.82C23.7592 110.82 24.0992 110.88 24.4092 110.89C25.9407 111.055 27.487 110.77 28.8592 110.07C30.5592 109.18 31.1892 106.56 32.4792 101.28C30.7598 101.649 28.9879 101.703 27.2492 101.44C26.9192 101.44 26.5792 101.36 26.2492 101.31C24.1177 100.949 22.0179 100.421 19.9692 99.7301L19.0192 99.4101C17.0935 98.7404 15.2072 97.9625 13.3692 97.0801C13.0592 96.9401 12.7592 96.8001 12.4592 96.6401C10.4822 95.6713 8.57728 94.5617 6.75918 93.3201C6.46918 93.1201 6.17919 92.9201 5.89919 92.7001C4.58315 91.7753 3.3873 90.6903 2.3392 89.4701C0.579196 93.6901 -0.360826 96.8001 0.129174 97.9101Z" fill="url(#paint4_linear_126_279)"/>
<path d="M23.3593 110.91C23.7093 110.91 24.0493 110.97 24.3593 110.98L27.2093 101.51C26.8793 101.51 26.5393 101.43 26.2093 101.38L23.3593 110.91Z" fill="#020202"/>
<path d="M16.0692 109.14L17.0692 109.46L19.9792 99.7501L19.0292 99.4301L16.0692 109.14Z" fill="#020202"/>
<path d="M9.51917 106.34L10.4292 106.8L13.3392 97.1C13.0292 96.96 12.7292 96.82 12.4292 96.66L9.51917 106.34Z" fill="#020202"/>
<path d="M3.04919 102.1C3.30919 102.33 3.58919 102.56 3.88919 102.8L6.72919 93.3401C6.43919 93.1401 6.1492 92.9401 5.8692 92.7201L3.04919 102.1Z" fill="#020202"/>
<path d="M0.749181 86.69C1.94918 93.99 26.9992 105.07 33.9792 100.76C37.3992 98.9601 37.0892 91.14 43.4992 71.67C49.2092 52.97 59.2992 19.5901 40.3992 14.4301V14.5401C36.6992 16.2601 35.2692 18.86 30.8092 25.36C27.2892 30.91 -1.75082 80.91 0.749181 86.69Z" fill="url(#paint5_linear_126_279)"/>
<path d="M116.409 122.84C107.269 126.05 96.5893 129.4 79.4693 129.17C62.3593 129.4 51.6692 126.05 42.5392 122.84C31.8392 119.08 33.4792 117.64 34.5392 112.34C35.5992 107.04 37.0493 102.61 39.8393 80.9401C42.6293 59.2701 40.3793 15.3101 40.3093 14.4801C40.2393 13.6501 42.4793 10.0401 49.9893 7.91006C50.5993 7.73006 51.3193 7.57007 52.1093 7.40007L52.6892 7.28006L53.7993 7.06006C55.7993 6.70006 58.1493 6.35006 60.5793 6.06006H60.6392C60.8273 6.17258 60.9873 6.32656 61.1069 6.51025C61.2264 6.69395 61.3025 6.90253 61.3293 7.12007C61.5993 9.07007 61.9493 11.3701 62.4293 13.9101C62.5193 14.4001 62.6193 14.9101 62.7193 15.4301C63.1293 17.5001 63.6093 19.7101 64.1793 22.0201C64.2993 22.5101 64.4293 23.0201 64.5593 23.5201C65.1593 25.8401 65.8493 28.2401 66.6393 30.6701C66.7993 31.1601 66.9693 31.6701 67.1393 32.1501C67.9793 34.6201 68.9293 37.1501 69.9993 39.6001C70.1993 40.0701 70.4092 40.6001 70.6292 41.0201C71.6292 43.2001 72.6892 45.3501 73.8792 47.4501C74.1326 47.9101 74.3926 48.3601 74.6592 48.8001C75.4926 50.2067 76.3726 51.5767 77.2993 52.9101C77.6193 53.3701 77.9393 53.8101 78.2993 54.2501L78.4293 54.4201C78.5253 54.5529 78.6437 54.6679 78.7793 54.7601C79.0046 54.9221 79.2697 55.0198 79.5462 55.0427C79.8228 55.0656 80.1004 55.0128 80.3492 54.8901C80.5681 54.7807 80.7595 54.6235 80.9092 54.4301V54.3701C81.2392 53.9301 81.5592 53.4901 81.9092 53.0401C82.8492 51.7001 83.7393 50.3101 84.5893 48.8901C84.8493 48.4401 85.1093 47.9901 85.3593 47.5401C86.5593 45.4401 87.6392 43.2801 88.6292 41.0901C88.8392 40.6201 89.0493 40.1501 89.2493 39.6701C90.3293 37.1901 91.2492 34.6701 92.1292 32.2101C92.2892 31.7201 92.4593 31.2101 92.6193 30.7401C93.4093 28.3001 94.1093 25.9001 94.7093 23.5801C94.8393 23.0701 94.9693 22.5801 95.0893 22.0701C95.6593 19.7601 96.1493 17.5401 96.5593 15.4601C96.6593 14.9501 96.7592 14.4601 96.8492 13.9501C97.3292 11.3601 97.6893 9.03006 97.9593 7.06006C98.0178 6.66962 98.217 6.31402 98.5193 6.06006C100.909 6.37006 103.209 6.71006 105.179 7.06006H105.399C106.139 7.20006 106.839 7.35007 107.469 7.49007C108.099 7.63007 108.529 7.74007 108.989 7.87007C116.499 10.0001 118.739 13.6101 118.669 14.4401C118.599 15.2701 116.349 59.2201 119.139 80.9001C121.929 102.58 123.379 107 124.439 112.3C125.499 117.6 127.099 119.08 116.409 122.84Z" fill="url(#paint6_linear_126_279)"/>
<path d="M116.339 133.13L115.389 133.47L115.199 133.54C111.719 134.76 108.019 136.01 103.789 137.05L102.789 137.29C97.8603 138.442 92.8421 139.171 87.7892 139.47L86.7892 139.53C84.4692 139.65 82.0092 139.7 79.3892 139.67C76.3092 139.67 73.4492 139.67 70.7692 139.45L69.7692 139.38C65.0009 139.036 60.2685 138.304 55.6192 137.19L54.6192 136.95C50.5692 135.95 46.9992 134.72 43.6192 133.54L42.1492 133.01L41.1492 132.65C33.4892 129.65 34.8892 128.07 35.8292 123.38C36.0292 122.38 36.2492 121.38 36.4892 120.32C38.3841 121.298 40.3536 122.124 42.3792 122.79L42.7492 122.92L43.7492 123.25C47.748 124.674 51.8246 125.869 55.9592 126.83L56.9592 127.05C61.4469 128.006 65.9994 128.628 70.5792 128.91L71.5792 128.97C74.0392 129.1 76.6392 129.16 79.4092 129.12C81.7192 129.12 83.9092 129.12 85.9992 129.03L86.9992 128.98C91.836 128.737 96.6468 128.121 101.389 127.14L102.389 126.93C106.229 126.062 110.018 124.984 113.739 123.7C114.069 123.59 114.389 123.48 114.739 123.36L116.399 122.79C118.427 122.126 120.397 121.296 122.289 120.31C122.529 121.39 122.749 122.37 122.949 123.38C123.929 128.31 125.419 129.79 116.339 133.13Z" fill="url(#paint7_linear_126_279)"/>
<path d="M43.8492 123.25L42.2393 133.01L41.2393 132.65L42.8393 122.92L43.8492 123.25Z" fill="#020202"/>
<path d="M57.0392 127.05L55.6692 137.19L54.6692 136.95L56.0392 126.83L57.0392 127.05Z" fill="#020202"/>
<path d="M71.5792 128.97L70.7892 139.45L69.7892 139.38L70.5792 128.91L71.5792 128.97Z" fill="#020202"/>
<path d="M116.339 133.13L115.389 133.47L113.769 123.7C114.099 123.59 114.419 123.48 114.769 123.36L116.339 133.13Z" fill="#020202"/>
<path d="M103.789 137.05L102.789 137.29L101.409 127.14L102.409 126.93L103.789 137.05Z" fill="#020202"/>
<path d="M87.8492 139.47L86.8492 139.53L86.0392 129.03L87.0392 128.98L87.8492 139.47Z" fill="#020202"/>
<path d="M107.449 7.55998C107.459 7.63969 107.459 7.72028 107.449 7.79999C107.219 10.08 106.859 12.91 106.279 16.18C106.189 16.67 106.099 17.18 105.989 17.7C105.549 20.03 104.989 22.55 104.299 25.22C104.179 25.72 104.049 26.22 103.909 26.72C103.229 29.21 102.439 31.8 101.509 34.48C101.339 34.97 101.169 35.48 100.989 35.94C99.9892 38.61 98.9192 41.35 97.6592 44.13C97.4492 44.6 97.2292 45.07 97.0092 45.54C95.8292 48.03 94.5293 50.54 93.0893 53.06L92.3093 54.4C90.8693 56.82 89.3093 59.24 87.5893 61.63C87.2693 62.07 86.9493 62.52 86.5893 62.96C84.7445 65.4542 82.7753 67.8539 80.6892 70.15C80.5722 70.2813 80.4292 70.3869 80.2692 70.46C80.0266 70.5929 79.7524 70.6575 79.4759 70.6469C79.1995 70.6363 78.9311 70.551 78.6992 70.4C78.6182 70.3422 78.5413 70.2787 78.4693 70.21C76.2648 68.0181 74.1849 65.7045 72.2392 63.28L71.2392 62C69.4059 59.62 67.7392 57.2133 66.2392 54.78C65.9592 54.34 65.6992 53.9 65.4292 53.46C63.9292 50.95 62.5892 48.41 61.3792 45.9C61.1592 45.43 60.9392 44.96 60.7292 44.49C59.4492 41.7 58.3493 38.93 57.3993 36.23C57.2193 35.74 57.0593 35.23 56.8993 34.77C55.9893 32.06 55.2292 29.43 54.5992 26.91C54.4692 26.4 54.3492 25.91 54.2292 25.4C53.5892 22.71 53.0993 20.15 52.7193 17.79L52.4792 16.26C52.0492 13.34 51.7892 10.76 51.6292 8.60998C51.6151 8.39015 51.6489 8.16986 51.7284 7.96438C51.8078 7.75891 51.9309 7.57315 52.0893 7.41998C52.2818 7.24438 52.5158 7.12051 52.7692 7.05998C53.4092 6.90998 54.0092 6.77999 54.5792 6.67999C56.1292 6.35999 57.8492 6.08999 59.6292 5.86999C59.9528 5.83174 60.28 5.90209 60.5593 6.06999H60.6193C60.8074 6.18251 60.9673 6.33647 61.0868 6.52017C61.2064 6.70387 61.2825 6.91244 61.3093 7.12999C61.5793 9.07999 61.9292 11.38 62.4092 13.92C62.4992 14.41 62.5992 14.92 62.6992 15.44C63.1092 17.51 63.5892 19.72 64.1592 22.03C64.2792 22.52 64.4092 23.03 64.5392 23.53C65.1392 25.85 65.8293 28.25 66.6193 30.68C66.7793 31.17 66.9493 31.68 67.1193 32.16C67.9593 34.63 68.9092 37.16 69.9792 39.61C70.1792 40.08 70.3892 40.61 70.6092 41.03C71.6092 43.21 72.6692 45.36 73.8592 47.46C74.1126 47.92 74.3726 48.37 74.6392 48.81C75.4726 50.2166 76.3526 51.5866 77.2793 52.92C77.5993 53.38 77.9193 53.82 78.2793 54.26L78.4092 54.43C78.5053 54.5628 78.6237 54.6779 78.7592 54.77C78.9845 54.932 79.2497 55.0297 79.5262 55.0526C79.8028 55.0755 80.0804 55.0227 80.3292 54.9C80.5481 54.7906 80.7395 54.6334 80.8892 54.44V54.38C81.2192 53.94 81.5392 53.5 81.8892 53.05C82.8292 51.71 83.7192 50.32 84.5692 48.9C84.8292 48.45 85.0893 48 85.3393 47.55C86.5393 45.45 87.6192 43.29 88.6092 41.1C88.8192 40.63 89.0292 40.16 89.2292 39.68C90.3092 37.2 91.2292 34.68 92.1092 32.22C92.2692 31.73 92.4392 31.22 92.5992 30.75C93.3892 28.31 94.0892 25.91 94.6892 23.59C94.8192 23.08 94.9492 22.59 95.0692 22.08C95.6392 19.77 96.1292 17.55 96.5392 15.47C96.6392 14.96 96.7392 14.47 96.8292 13.96C97.3092 11.37 97.6692 9.03999 97.9392 7.06999C97.9988 6.64358 98.2247 6.25806 98.5676 5.99763C98.9105 5.7372 99.3425 5.62301 99.7692 5.67999L106.709 6.81999C106.89 6.85024 107.057 6.93417 107.189 7.06082C107.321 7.18747 107.412 7.35097 107.449 7.52998V7.55998Z" fill="url(#paint8_linear_126_279)"/>
<path d="M62.7193 15.44L52.7193 17.7901L52.4792 16.2601L62.4792 13.92C62.5192 14.41 62.5793 14.91 62.7193 15.44Z" fill="#020202"/>
<path d="M64.5792 23.53L54.5792 26.91C54.4492 26.4 54.3292 25.91 54.2092 25.4L64.2092 22.03C64.2992 22.52 64.4292 23.02 64.5792 23.53Z" fill="#020202"/>
<path d="M67.1393 32.16L57.3993 36.2301C57.2193 35.7401 57.0593 35.2301 56.8993 34.7701L66.6393 30.6801C66.7993 31.1701 66.9693 31.67 67.1393 32.16Z" fill="#020202"/>
<path d="M70.6292 41.03L61.3792 45.91C61.1592 45.44 60.9392 44.97 60.7292 44.5L69.9993 39.62C70.1993 40.08 70.4092 40.56 70.6292 41.03Z" fill="#020202"/>
<path d="M74.6592 48.81L66.2392 54.81C65.9592 54.37 65.6992 53.93 65.4292 53.49L73.8792 47.49C74.1325 47.93 74.3925 48.37 74.6592 48.81Z" fill="#020202"/>
<path d="M78.2592 54.26L72.2592 63.26L71.2592 61.98L77.3192 52.9C77.5792 53.38 77.9392 53.82 78.2592 54.26Z" fill="#020202"/>
<path d="M80.3093 54.91V70.47C80.0666 70.6029 79.7924 70.6675 79.516 70.657C79.2395 70.6464 78.9711 70.5611 78.7393 70.41V54.78C78.9646 54.942 79.2297 55.0397 79.5062 55.0626C79.7828 55.0855 80.0604 55.0328 80.3093 54.91Z" fill="#020202"/>
<path d="M106.279 16.1801C106.189 16.6701 106.099 17.1801 105.989 17.7001L96.5792 15.4701C96.6792 14.9601 96.7792 14.4701 96.8692 13.9601L106.279 16.1801Z" fill="#020202"/>
<path d="M104.299 25.2201C104.179 25.7201 104.049 26.2201 103.909 26.7201L94.6792 23.5901C94.8092 23.0801 94.9392 22.5901 95.0592 22.0801L104.299 25.2201Z" fill="#020202"/>
<path d="M101.509 34.48C101.339 34.97 101.169 35.48 100.989 35.94L92.0992 32.22C92.2592 31.73 92.4293 31.22 92.5893 30.75L101.509 34.48Z" fill="#020202"/>
<path d="M97.6592 44.1301C97.4492 44.6001 97.2292 45.0701 97.0092 45.5401L88.5792 41.1001C88.7892 40.6301 88.9992 40.1601 89.1992 39.6801L97.6592 44.1301Z" fill="#020202"/>
<path d="M93.0892 53.0601L92.3092 54.4001L84.5792 48.9101C84.8392 48.4601 85.0992 48.0101 85.3492 47.5601L93.0892 53.0601Z" fill="#020202"/>
<path d="M87.5793 61.6301C87.2593 62.0701 86.9393 62.5201 86.5793 62.9601L80.8793 54.3801C81.2093 53.9401 81.5293 53.5 81.8793 53.05L87.5793 61.6301Z" fill="#020202"/>
<defs>
<linearGradient id="paint0_linear_126_279" x1="79.5393" y1="4.87" x2="79.5393" y2="62.24" gradientUnits="userSpaceOnUse">
<stop offset="0.36" stop-color="#F7F7F7"/>
<stop offset="0.71" stop-color="#F5F6F6"/>
<stop offset="0.84" stop-color="#EEF2F4"/>
<stop offset="0.93" stop-color="#E3EBF0"/>
<stop offset="1" stop-color="#D3E2EA"/>
</linearGradient>
<linearGradient id="paint1_linear_126_279" x1="79.6792" y1="0" x2="79.6792" y2="9.43001" gradientUnits="userSpaceOnUse">
<stop offset="0.48" stop-color="#F7F7F7"/>
<stop offset="0.76" stop-color="#E5EDF1"/>
<stop offset="1" stop-color="#D3E2EA"/>
</linearGradient>
<linearGradient id="paint2_linear_126_279" x1="142.839" y1="89.6" x2="142.839" y2="111.06" gradientUnits="userSpaceOnUse">
<stop stop-color="#020202"/>
<stop offset="0.35" stop-color="#040404"/>
<stop offset="0.77" stop-color="#0A0A0A"/>
<stop offset="1" stop-color="#0E0E0E"/>
</linearGradient>
<linearGradient id="paint3_linear_126_279" x1="133.099" y1="14.4301" x2="133.099" y2="101.75" gradientUnits="userSpaceOnUse">
<stop stop-color="#333333"/>
<stop offset="0.21" stop-color="#272727"/>
<stop offset="0.51" stop-color="#191919"/>
<stop offset="0.79" stop-color="#111111"/>
<stop offset="1" stop-color="#0E0E0E"/>
</linearGradient>
<linearGradient id="paint4_linear_126_279" x1="16.2392" y1="89.4901" x2="16.2392" y2="110.94" gradientUnits="userSpaceOnUse">
<stop stop-color="#020202"/>
<stop offset="0.35" stop-color="#040404"/>
<stop offset="0.77" stop-color="#0A0A0A"/>
<stop offset="1" stop-color="#0E0E0E"/>
</linearGradient>
<linearGradient id="paint5_linear_126_279" x1="25.9792" y1="14.4301" x2="25.9792" y2="101.75" gradientUnits="userSpaceOnUse">
<stop stop-color="#333333"/>
<stop offset="0.21" stop-color="#272727"/>
<stop offset="0.51" stop-color="#191919"/>
<stop offset="0.79" stop-color="#111111"/>
<stop offset="1" stop-color="#0E0E0E"/>
</linearGradient>
<linearGradient id="paint6_linear_126_279" x1="79.4692" y1="6.04006" x2="79.4692" y2="129.18" gradientUnits="userSpaceOnUse">
<stop stop-color="#333333"/>
<stop offset="0.21" stop-color="#303030"/>
<stop offset="0.52" stop-color="#252525"/>
<stop offset="0.9" stop-color="#131313"/>
<stop offset="1" stop-color="#0E0E0E"/>
</linearGradient>
<linearGradient id="paint7_linear_126_279" x1="79.4592" y1="120.31" x2="79.4592" y2="139.68" gradientUnits="userSpaceOnUse">
<stop stop-color="#020202"/>
<stop offset="0.37" stop-color="#040404"/>
<stop offset="0.71" stop-color="#080808"/>
<stop offset="1" stop-color="#0E0E0E"/>
</linearGradient>
<linearGradient id="paint8_linear_126_279" x1="79.5392" y1="5.65999" x2="79.5392" y2="70.64" gradientUnits="userSpaceOnUse">
<stop stop-color="#020202"/>
<stop offset="0.51" stop-color="#080808"/>
<stop offset="1" stop-color="#0E0E0E"/>
</linearGradient>
</defs>
</g>
</svg>
