<svg width="128" height="133" viewBox="0 0 128 133" fill="none" xmlns="http://www.w3.org/2000/svg">
<path d="M46.65 3.67001C46.49 3.21001 46.35 2.74001 46.23 2.26001C46.37 2.81334 46.53 3.34334 46.71 3.85001C46.6858 3.7915 46.6657 3.73135 46.65 3.67001Z" fill="url(#paint0_linear_126_273)"/>
<path d="M84.62 121.84L84.78 123.84C70.9094 125.975 56.7985 126.036 42.91 124.02C44.23 91.63 45.74 44.82 46.58 18.24C46.74 12.88 46.88 8.33999 46.99 4.89999C48.4353 8.45082 51.059 11.3958 54.42 13.24L54.52 13.3C54.7081 13.4099 54.9017 13.51 55.1 13.6C57.8081 14.916 60.7963 15.5519 63.8056 15.4526C66.8149 15.3532 69.7546 14.5217 72.37 13.03L72.55 12.93L73.15 12.55C75.3313 11.1277 77.1442 9.20859 78.44 6.94999L78.62 6.63999C78.74 6.42999 78.85 6.21999 78.96 5.99999C79.07 5.77999 79.09 5.73999 79.14 5.59999C79.6709 4.52476 80.093 3.39916 80.4 2.23999H80.52V2.68999C80.63 6.12999 80.77 10.69 80.93 16.03C80.93 16.45 80.93 16.87 80.93 17.3C81.84 44.14 83.32 90 84.62 121.84Z" fill="url(#paint1_linear_126_273)"/>
<path d="M81 17.33C76.1741 21.7696 69.8573 24.2356 63.3 24.24C57.2109 24.2438 51.3115 22.1217 46.62 18.24C46.78 12.88 46.92 8.34005 47.03 4.90005C48.5557 8.46229 51.1987 11.4317 54.56 13.3601C57.4375 14.9748 60.7059 15.7614 64.0031 15.6325C67.3002 15.5037 70.4973 14.4645 73.24 12.63C75.3889 11.1612 77.1938 9.24384 78.53 7.01005C79.4155 5.54225 80.0888 3.95653 80.53 2.30005H80.6C80.66 6.16005 80.81 11.72 81 17.33Z" fill="url(#paint2_linear_126_273)"/>
<path d="M25 9.24C25 9.24 24.16 7.77 21.56 11.34C18.96 14.91 4.55 36.72 0 47.42C0 47.42 3.54 61.8 26.3 67.51L25 9.24Z" fill="url(#paint3_linear_126_273)"/>
<path d="M18.68 98.41C18.6779 98.37 18.6779 98.33 18.68 98.29C19.18 94.29 20.26 81.29 21.34 66.06C22.83 44.85 24.34 19.49 24.21 8.9V8.79C23.59 7.03 31.36 1.93 37.64 1.38C40.13 0.92 43.11 0.5 46.15 0.13L47.15 0L47.1 2.72C46.99 6.16 46.85 10.72 46.69 16.06C45.85 42.67 44.34 89.49 43 121.84L42.14 132.16C19.9 130.32 15.31 120.16 15.31 120.16" fill="url(#paint4_linear_126_273)"/>
<path d="M102.25 9.24C102.25 9.24 103.09 7.77 105.7 11.34C108.31 14.91 122.7 36.7 127.26 47.4C127.26 47.4 123.71 61.78 100.95 67.49L102.25 9.24Z" fill="url(#paint5_linear_126_273)"/>
<path d="M108.58 98.41C108.582 98.37 108.582 98.33 108.58 98.29C108.08 94.29 107 81.29 105.92 66.06C104.43 44.85 102.92 19.49 103.05 8.9V8.79C103.67 7.03 95.9 1.93 89.62 1.38C87.13 0.92 84.15 0.5 81.11 0.13L80.11 0L80.24 2.72C80.35 6.16 80.49 10.72 80.65 16.06C81.49 42.67 83 89.49 84.32 121.84L85.18 132.16C107.42 130.32 112.01 120.16 112.01 120.16" fill="url(#paint6_linear_126_273)"/>
<defs>
<linearGradient id="paint0_linear_126_273" x1="46.47" y1="2.26001" x2="46.47" y2="3.85001" gradientUnits="userSpaceOnUse">
<stop stop-color="#FF4D4D"/>
<stop offset="0.48" stop-color="#FE4B4B"/>
<stop offset="0.66" stop-color="#FB4444"/>
<stop offset="0.78" stop-color="#F63939"/>
<stop offset="0.88" stop-color="#EE2828"/>
<stop offset="0.97" stop-color="#E51212"/>
<stop offset="1" stop-color="#E00707"/>
</linearGradient>
<linearGradient id="paint1_linear_126_273" x1="63.84" y1="2.25999" x2="63.84" y2="125.45" gradientUnits="userSpaceOnUse">
<stop offset="0.48" stop-color="#F7F7F7"/>
<stop offset="0.66" stop-color="#F0F3F4"/>
<stop offset="0.92" stop-color="#DBE7ED"/>
<stop offset="1" stop-color="#D3E2EA"/>
</linearGradient>
<linearGradient id="paint2_linear_126_273" x1="63.78" y1="2.26005" x2="63.78" y2="24.22" gradientUnits="userSpaceOnUse">
<stop offset="0.5" stop-color="#F7F7F7"/>
<stop offset="0.7" stop-color="#ECF1F3"/>
<stop offset="1" stop-color="#D3E2EA"/>
</linearGradient>
<linearGradient id="paint3_linear_126_273" x1="13.15" y1="8.96" x2="13.15" y2="67.51" gradientUnits="userSpaceOnUse">
<stop stop-color="#FF4D4D"/>
<stop offset="0.26" stop-color="#FD4A4A"/>
<stop offset="0.49" stop-color="#F93F3F"/>
<stop offset="0.71" stop-color="#F12D2D"/>
<stop offset="0.91" stop-color="#E61414"/>
<stop offset="1" stop-color="#E00707"/>
</linearGradient>
<linearGradient id="paint4_linear_126_273" x1="31.28" y1="0" x2="31.28" y2="132.16" gradientUnits="userSpaceOnUse">
<stop stop-color="#FF4D4D"/>
<stop offset="0.21" stop-color="#FC4646"/>
<stop offset="0.51" stop-color="#F43434"/>
<stop offset="0.85" stop-color="#E71616"/>
<stop offset="1" stop-color="#E00707"/>
</linearGradient>
<linearGradient id="paint5_linear_126_273" x1="114.1" y1="8.96" x2="114.1" y2="67.51" gradientUnits="userSpaceOnUse">
<stop stop-color="#FF4D4D"/>
<stop offset="0.26" stop-color="#FD4A4A"/>
<stop offset="0.49" stop-color="#F93F3F"/>
<stop offset="0.71" stop-color="#F12D2D"/>
<stop offset="0.91" stop-color="#E61414"/>
<stop offset="1" stop-color="#E00707"/>
</linearGradient>
<linearGradient id="paint6_linear_126_273" x1="95.97" y1="0" x2="95.97" y2="132.16" gradientUnits="userSpaceOnUse">
<stop stop-color="#FF4D4D"/>
<stop offset="0.21" stop-color="#FC4646"/>
<stop offset="0.51" stop-color="#F43434"/>
<stop offset="0.85" stop-color="#E71616"/>
<stop offset="1" stop-color="#E00707"/>
</linearGradient>
</defs>
</svg>
