<svg width="160" height="141" viewBox="0 0 160 141" fill="none" xmlns="http://www.w3.org/2000/svg">
<path d="M158.941 99.2251C158.731 100.515 157.651 101.945 156.011 103.375C155.751 103.605 155.471 103.835 155.171 104.075C153.407 105.426 151.522 106.611 149.541 107.615L148.631 108.075C146.801 108.971 144.917 109.752 142.991 110.415L141.991 110.735C139.934 111.417 137.813 111.886 135.661 112.135C135.311 112.135 134.971 112.195 134.661 112.205C133.129 112.37 131.583 112.085 130.211 111.385C128.511 110.495 127.881 107.875 126.591 102.595C128.31 102.964 130.082 103.018 131.821 102.755C132.151 102.755 132.491 102.675 132.821 102.625C134.952 102.264 137.052 101.736 139.101 101.045L140.051 100.725C141.976 100.055 143.863 99.2775 145.701 98.3951C146.011 98.2551 146.311 98.1151 146.611 97.9551C148.588 96.9862 150.493 95.8767 152.311 94.6351C152.601 94.4351 152.891 94.2351 153.171 94.0151C154.487 93.0902 155.683 92.0052 156.731 90.7851C158.511 94.9851 159.431 98.0851 158.941 99.2251Z" fill="url(#paint0_linear_95_220)"/>
<path d="M135.711 112.145C135.361 112.145 135.021 112.205 134.711 112.215L131.861 102.745C132.191 102.745 132.531 102.665 132.861 102.615L135.711 112.145Z" fill="#C10505"/>
<path d="M143.001 110.425L142.001 110.745L139.091 101.035L140.041 100.715L143.001 110.425Z" fill="#C10505"/>
<path d="M149.551 107.625L148.641 108.085L145.731 98.3851C146.041 98.2451 146.341 98.1051 146.641 97.9451L149.551 107.625Z" fill="#C10505"/>
<path d="M156.021 103.385C155.761 103.615 155.481 103.845 155.181 104.085L152.341 94.6251C152.631 94.4251 152.921 94.2251 153.201 94.0051L156.021 103.385Z" fill="#C10505"/>
<path d="M158.331 87.8551C157.121 95.1551 132.081 106.245 125.101 101.925C121.671 100.125 121.981 92.3151 115.571 72.8451C109.861 54.1351 99.7708 20.7551 118.671 15.6051V15.7151C122.371 17.4251 123.811 20.0351 128.271 26.5351C131.781 32.1151 160.821 82.0851 158.331 87.8551Z" fill="url(#paint1_linear_95_220)"/>
<path d="M0.130756 99.1051C0.340756 100.395 1.42075 101.825 3.06075 103.255C3.32075 103.485 3.60075 103.715 3.90075 103.955C5.66456 105.306 7.54921 106.491 9.53075 107.495L10.4408 107.955C12.2706 108.851 14.1542 109.632 16.0807 110.295L17.0807 110.615C19.1372 111.297 21.2584 111.766 23.4108 112.015C23.7608 112.015 24.1008 112.075 24.4108 112.085C25.9422 112.25 27.4885 111.965 28.8607 111.265C30.5607 110.375 31.1908 107.755 32.4808 102.475C30.7614 102.844 28.9894 102.898 27.2508 102.635C26.9208 102.635 26.5808 102.555 26.2508 102.505C24.1192 102.144 22.0194 101.616 19.9708 100.925L19.0207 100.605C17.0951 99.9354 15.2087 99.1575 13.3707 98.2751C13.0607 98.1351 12.7607 97.9951 12.4607 97.8351C10.4837 96.8662 8.57886 95.7567 6.76076 94.5151C6.47076 94.3151 6.18075 94.1151 5.90075 93.8951C4.5847 92.9702 3.38885 91.8852 2.34075 90.6651C0.560748 94.8551 -0.359244 97.9851 0.130756 99.1051Z" fill="url(#paint2_linear_95_220)"/>
<path d="M23.3607 111.985C23.7107 111.985 24.0507 112.045 24.3607 112.055L27.2107 102.585C26.8807 102.585 26.5407 102.505 26.2107 102.455L23.3607 111.985Z" fill="#C10505"/>
<path d="M16.0707 110.305L17.0707 110.625L19.9807 100.915L19.0307 100.595L16.0707 110.305Z" fill="#C10505"/>
<path d="M9.52075 107.505L10.4308 107.965L13.3408 98.2651C13.0308 98.1251 12.7308 97.9851 12.4308 97.8251L9.52075 107.505Z" fill="#C10505"/>
<path d="M3.05072 103.265C3.31072 103.495 3.59075 103.725 3.89075 103.965L6.73074 94.5051C6.44074 94.3051 6.15073 94.1051 5.87073 93.8851L3.05072 103.265Z" fill="#C10505"/>
<path d="M0.750719 87.8551C1.95072 95.1551 27.0007 106.245 33.9807 101.925C37.4007 100.125 37.0907 92.3151 43.5007 72.8451C49.2107 54.1351 59.3007 20.7551 40.4007 15.6051V15.7151C36.7007 17.4251 35.2707 20.0351 30.8107 26.5351C27.2507 32.1151 -1.74928 82.0851 0.750719 87.8551Z" fill="url(#paint3_linear_95_220)"/>
<path d="M118.351 123.665C97.5107 132.285 65.2707 132.725 44.1007 124.925C31.1007 121.675 31.8107 116.045 34.7507 105.285C35.9607 95.7151 40.4907 33.7351 40.2907 15.6651C41.7107 11.3951 49.0407 9.10507 53.7407 8.24507C58.888 7.22352 64.1362 6.80071 69.3807 6.98507C73.7607 9.51507 78.3807 11.9851 78.9107 12.2951C85.5607 8.98507 86.8507 5.88507 97.6907 7.10507C100.221 7.44507 102.761 7.76507 105.221 8.24507C105.274 8.23529 105.328 8.23529 105.381 8.24507C110.121 9.16507 117.231 11.3851 118.681 15.6451C118.471 33.8151 123.011 95.5751 124.211 105.265C125.731 113.665 129.611 120.145 118.351 123.665Z" fill="url(#paint4_linear_95_220)"/>
<path d="M116.411 134.305L115.411 134.645L115.221 134.715C111.741 135.935 108.041 137.185 103.811 138.225L102.811 138.465C97.8818 139.617 92.8636 140.346 87.8107 140.645L86.8107 140.705C84.4907 140.825 82.0308 140.875 79.4108 140.845C76.3308 140.845 73.4708 140.845 70.7908 140.625L69.7908 140.555C65.0224 140.211 60.29 139.479 55.6408 138.365L54.6408 138.125C50.5908 137.125 47.0208 135.895 43.6408 134.715L42.1708 134.185L41.2208 133.825C33.5608 130.825 34.9607 129.245 35.9007 124.555C36.1007 123.555 36.3207 122.555 36.5607 121.495C38.4557 122.473 40.4252 123.299 42.4508 123.965L42.8208 124.095L43.8208 124.425C47.8527 125.846 51.9628 127.035 56.1308 127.985L57.1308 128.205C61.6053 129.159 66.1444 129.781 70.7107 130.065L71.7107 130.125C74.1707 130.255 76.7708 130.315 79.5408 130.275C81.8508 130.275 84.0408 130.275 86.1308 130.185L87.1308 130.135C91.9675 129.892 96.7783 129.276 101.521 128.295L102.521 128.085C106.36 127.217 110.149 126.139 113.871 124.855C114.201 124.745 114.521 124.635 114.871 124.515L116.531 123.945C118.559 123.281 120.528 122.451 122.421 121.465C122.661 122.545 122.881 123.525 123.081 124.535C124.001 129.485 125.491 130.985 116.411 134.305Z" fill="url(#paint5_linear_95_220)"/>
<path d="M43.9207 124.425L42.3107 134.185L41.3607 133.825L42.9607 124.095L43.9207 124.425Z" fill="#C10505"/>
<path d="M57.1107 128.225L55.7407 138.365L54.7407 138.125L56.1307 127.985L57.1107 128.225Z" fill="#C10505"/>
<path d="M71.6908 130.145L70.9008 140.625L69.9008 140.555L70.7008 130.085L71.6908 130.145Z" fill="#C10505"/>
<path d="M116.411 134.305L115.411 134.645L113.791 124.875C114.121 124.765 114.441 124.655 114.791 124.535L116.411 134.305Z" fill="#C10505"/>
<path d="M103.861 138.225L102.861 138.465L101.481 128.315L102.481 128.105L103.861 138.225Z" fill="#C10505"/>
<path d="M87.9207 140.645L86.9207 140.705L86.1107 130.205L87.1107 130.155L87.9207 140.645Z" fill="#C10505"/>
<path d="M74.4507 44.2051H69.2507C69.1367 44.2047 69.0243 44.178 68.9223 44.127C68.8203 44.076 68.7314 44.0021 68.6627 43.9111C68.5939 43.8201 68.5472 43.7144 68.526 43.6024C68.5049 43.4903 68.5099 43.3749 68.5407 43.2651L70.0707 37.6951L70.7507 35.2451V14.5051L72.9907 14.9051V35.2451L73.6707 37.6951L75.2007 43.2651C75.2327 43.3782 75.2371 43.4973 75.2139 43.6125C75.1906 43.7277 75.1403 43.8357 75.067 43.9276C74.9937 44.0194 74.8995 44.0925 74.7924 44.1408C74.6852 44.189 74.5681 44.2111 74.4507 44.2051Z" fill="url(#paint6_linear_95_220)"/>
<path d="M84.6307 44.2051H89.8707C89.9848 44.2047 90.0972 44.178 90.1992 44.127C90.3012 44.076 90.39 44.0021 90.4588 43.9111C90.5275 43.8201 90.5743 43.7144 90.5954 43.6024C90.6166 43.4903 90.6115 43.3749 90.5807 43.2651L89.0507 37.6951L88.3707 35.2451V14.5051L86.1307 14.9051V35.2451L85.4507 37.6951L83.9207 43.2651C83.8899 43.3749 83.8849 43.4903 83.906 43.6024C83.9272 43.7144 83.974 43.8201 84.0427 43.9111C84.1114 44.0021 84.2003 44.076 84.3023 44.127C84.4043 44.178 84.5167 44.2047 84.6307 44.2051Z" fill="url(#paint7_linear_95_220)"/>
<path d="M105.421 8.22507C103.222 9.70942 100.877 10.9627 98.4207 11.9651C92.2448 14.5551 85.6684 16.0605 78.9807 16.4151C63.9807 15.5651 54.4207 9.52507 52.7707 8.41507L52.5107 8.23507C50.8007 3.51507 54.4607 2.09507 54.4607 2.09507C54.9307 -0.844934 59.2307 -0.434934 61.3607 1.74507L62.1907 2.43507C63.6707 3.54507 66.5107 5.25507 69.4507 6.95507C73.8307 9.48507 78.4507 11.9551 78.9807 12.2651C79.5507 11.9551 84.1307 9.47507 88.5107 6.95507C92.1707 4.84507 95.6807 2.70507 96.6107 1.74507C98.7307 -0.434934 103.041 -0.844934 103.511 2.09507C103.481 2.08507 107.131 3.50507 105.421 8.22507Z" fill="url(#paint8_linear_95_220)"/>
<path d="M111.111 112.775C106.891 123.535 54.7607 122.145 48.5807 114.195C47.1007 113.195 48.8007 108.315 48.5207 108.295C52.7807 102.135 56.8807 87.9251 58.1807 83.1651C58.2916 82.7595 58.553 82.4116 58.9117 82.1923C59.2704 81.973 59.6993 81.8988 60.1107 81.9851C73.0029 83.665 86.0586 83.665 98.9508 81.9851C99.3634 81.9017 99.7922 81.9783 100.151 82.1992C100.509 82.4201 100.77 82.769 100.881 83.1751C102.181 87.9351 106.281 102.175 110.541 108.305C110.541 108.295 110.901 110.985 111.111 112.775Z" fill="url(#paint9_linear_95_220)"/>
<defs>
<linearGradient id="paint0_linear_95_220" x1="142.841" y1="90.7751" x2="142.841" y2="112.225" gradientUnits="userSpaceOnUse">
<stop stop-color="#C10505"/>
<stop offset="0.35" stop-color="#C60505"/>
<stop offset="0.77" stop-color="#D50606"/>
<stop offset="1" stop-color="#E00707"/>
</linearGradient>
<linearGradient id="paint1_linear_95_220" x1="133.101" y1="15.6051" x2="133.101" y2="102.915" gradientUnits="userSpaceOnUse">
<stop stop-color="#FF4D4D"/>
<stop offset="0.21" stop-color="#F53636"/>
<stop offset="0.51" stop-color="#E91C1C"/>
<stop offset="0.79" stop-color="#E20D0D"/>
<stop offset="1" stop-color="#E00707"/>
</linearGradient>
<linearGradient id="paint2_linear_95_220" x1="16.2308" y1="90.6551" x2="16.2308" y2="112.115" gradientUnits="userSpaceOnUse">
<stop stop-color="#C10505"/>
<stop offset="0.35" stop-color="#C60505"/>
<stop offset="0.77" stop-color="#D50606"/>
<stop offset="1" stop-color="#E00707"/>
</linearGradient>
<linearGradient id="paint3_linear_95_220" x1="25.9707" y1="15.6051" x2="25.9707" y2="102.915" gradientUnits="userSpaceOnUse">
<stop stop-color="#FF4D4D"/>
<stop offset="0.21" stop-color="#F53636"/>
<stop offset="0.51" stop-color="#E91C1C"/>
<stop offset="0.79" stop-color="#E20D0D"/>
<stop offset="1" stop-color="#E00707"/>
</linearGradient>
<linearGradient id="paint4_linear_95_220" x1="79.5407" y1="6.82507" x2="79.5407" y2="130.475" gradientUnits="userSpaceOnUse">
<stop stop-color="#FF4D4D"/>
<stop offset="0.21" stop-color="#FC4646"/>
<stop offset="0.52" stop-color="#F33232"/>
<stop offset="0.9" stop-color="#E41111"/>
<stop offset="1" stop-color="#E00707"/>
</linearGradient>
<linearGradient id="paint5_linear_95_220" x1="79.5207" y1="121.485" x2="79.5207" y2="140.855" gradientUnits="userSpaceOnUse">
<stop stop-color="#C10505"/>
<stop offset="0.37" stop-color="#C50505"/>
<stop offset="0.71" stop-color="#D00606"/>
<stop offset="1" stop-color="#E00707"/>
</linearGradient>
<linearGradient id="paint6_linear_95_220" x1="71.8307" y1="14.5051" x2="71.8307" y2="44.2051" gradientUnits="userSpaceOnUse">
<stop offset="0.15" stop-color="#F7F7F7"/>
<stop offset="0.64" stop-color="#F5F5F5"/>
<stop offset="0.82" stop-color="#EEEEEE"/>
<stop offset="0.95" stop-color="#E3E3E3"/>
<stop offset="1" stop-color="#DBDBDB"/>
</linearGradient>
<linearGradient id="paint7_linear_95_220" x1="87.2507" y1="14.5051" x2="87.2507" y2="44.2051" gradientUnits="userSpaceOnUse">
<stop offset="0.15" stop-color="#F7F7F7"/>
<stop offset="0.64" stop-color="#F5F5F5"/>
<stop offset="0.82" stop-color="#EEEEEE"/>
<stop offset="0.95" stop-color="#E3E3E3"/>
<stop offset="1" stop-color="#DBDBDB"/>
</linearGradient>
<linearGradient id="paint8_linear_95_220" x1="78.9507" y1="16.4151" x2="78.9507" y2="-0.0149344" gradientUnits="userSpaceOnUse">
<stop stop-color="#FF4D4D"/>
<stop offset="0.26" stop-color="#F23030"/>
<stop offset="0.52" stop-color="#E81919"/>
<stop offset="0.78" stop-color="#E20C0C"/>
<stop offset="1" stop-color="#E00707"/>
</linearGradient>
<linearGradient id="paint9_linear_95_220" x1="79.5407" y1="81.9351" x2="79.5407" y2="120.505" gradientUnits="userSpaceOnUse">
<stop stop-color="#FF4D4D"/>
<stop offset="0.21" stop-color="#FD4848"/>
<stop offset="0.48" stop-color="#F63838"/>
<stop offset="0.78" stop-color="#EA1E1E"/>
<stop offset="1" stop-color="#E00707"/>
</linearGradient>
</defs>
</svg>
