<svg xmlns="http://www.w3.org/2000/svg" xmlns:xlink="http://www.w3.org/1999/xlink" viewBox="0 0 248.88 493.91"><defs><style>.cls-1{fill:url(#linear-gradient);}.cls-2{fill:#ffca55;}.cls-3{fill:url(#linear-gradient-2);}.cls-4{fill:#407f2e;}.cls-5{fill:url(#linear-gradient-3);}.cls-6{fill:url(#linear-gradient-4);}.cls-7{fill:url(#linear-gradient-5);}.cls-8{fill:#fff1cc;}.cls-9{fill:#fff;}.cls-10{fill:url(#linear-gradient-6);}.cls-11{fill:#005c00;}</style><linearGradient id="linear-gradient" x1="97.02" y1="68.29" x2="97.02" y2="195.6" gradientUnits="userSpaceOnUse"><stop offset="0" stop-color="#407f2e"/><stop offset="0.63" stop-color="#2c5b1c"/><stop offset="1" stop-color="#1f4411"/></linearGradient><linearGradient id="linear-gradient-2" x1="248.88" y1="390.37" x2="69.59" y2="390.37" gradientUnits="userSpaceOnUse"><stop offset="0" stop-color="#407f2e"/><stop offset="0.24" stop-color="#3d7a2b"/><stop offset="0.54" stop-color="#346a24"/><stop offset="0.87" stop-color="#265017"/><stop offset="1" stop-color="#1f4411"/></linearGradient><linearGradient id="linear-gradient-3" x1="50.31" y1="291.9" x2="50.31" y2="186.02" gradientUnits="userSpaceOnUse"><stop offset="0" stop-color="#52a941"/><stop offset="0.44" stop-color="#51a740"/><stop offset="0.63" stop-color="#4ea03d"/><stop offset="0.77" stop-color="#489337"/><stop offset="0.89" stop-color="#40822f"/><stop offset="0.99" stop-color="#356b24"/><stop offset="1" stop-color="#346823"/></linearGradient><linearGradient id="linear-gradient-4" x1="143.89" y1="291.9" x2="143.89" y2="186.02" xlink:href="#linear-gradient-3"/><linearGradient id="linear-gradient-5" x1="97.26" y1="493.91" x2="97.26" y2="193.37" gradientUnits="userSpaceOnUse"><stop offset="0" stop-color="#52a941"/><stop offset="0.49" stop-color="#51a740"/><stop offset="0.67" stop-color="#4ea03d"/><stop offset="0.79" stop-color="#499538"/><stop offset="0.89" stop-color="#418430"/><stop offset="0.98" stop-color="#376e26"/><stop offset="1" stop-color="#346823"/></linearGradient><linearGradient id="linear-gradient-6" x1="97.27" y1="201.61" x2="97.27" y2="16.06" gradientUnits="userSpaceOnUse"><stop offset="0" stop-color="#52a941"/><stop offset="0.48" stop-color="#53ab42"/><stop offset="0.74" stop-color="#58b346"/><stop offset="0.95" stop-color="#60c14c"/><stop offset="1" stop-color="#63c64e"/></linearGradient></defs><g id="Layer_2" data-name="Layer 2"><g id="Layer_1-2" data-name="Layer 1"><path class="cls-1" d="M155.52,144C135.3,71.78,105.21,68.15,98.41,68.29c-.93,0-1.85,0-2.78,0-6.8-.14-36.89,3.49-57.12,75.73a31.2,31.2,0,0,0-1.26,5.91c-3.36,23.42,15.83,35,43.6,40a56.09,56.09,0,0,1,8,2A38.11,38.11,0,0,1,97,195.6a37.81,37.81,0,0,1,8.22-3.68,55.75,55.75,0,0,1,8-2C143.2,184.56,163.2,171.43,155.52,144Z"/><path class="cls-2" d="M197.85,439.47a1.14,1.14,0,0,1,1.71.83l1.31,10.49L202.39,463l-12.09-5.9-12.09-5.9,10.57-6.31Z"/><path class="cls-2" d="M217.41,449.81a.91.91,0,0,1,1.5.21l4.44,9.57,5,10.82-12.91-1.87-12.9-1.87,7.88-8.95Z"/><path class="cls-2" d="M180,424.66a1.26,1.26,0,0,1,1.52,1.44l-1.87,10.25-2.2,12.12-9.79-9.31-9.8-9.31,12-2.81Z"/><path class="cls-2" d="M165.65,406.37a1,1,0,0,1,1,1.41l-4.07,10-4.65,11.47L150.17,418l-7.73-11.32,12.38-.15Z"/><path class="cls-3" d="M246.88,462.65a1.6,1.6,0,0,1,1.69,2.48c-4.51,6.22-12.46,11.31-24.66,14.9C115,512,69.59,387.42,69.59,387.42l33.75-92s9.58,6.38,23.91,16.79c1.37,27.9,12.85,156.54,108.15,152A60.58,60.58,0,0,0,246.88,462.65Z"/><path class="cls-4" d="M28,259S10.28,279,12.28,286.43c0,0,0,0,0,0a4.21,4.21,0,0,0,1.53,3.41,47.45,47.45,0,0,0,13,8h0l.09,0,.08,0h0a47.62,47.62,0,0,0,14.83,3.76,4.25,4.25,0,0,0,3.51-1.28l0,0c6.71-3.71,8.17-30.65,8.17-30.65"/><path class="cls-5" d="M56.48,186S11.55,265.38,14,273.89v0a4.92,4.92,0,0,0,1.85,3.93,58.09,58.09,0,0,0,15.44,9.4h0l.1,0,.1,0h0A58.3,58.3,0,0,0,49,291.87a4.94,4.94,0,0,0,4.1-1.4s0,0,0,0c7.83-4.14,33.54-91.64,33.54-91.64"/><path class="cls-4" d="M166.22,259s17.7,20.07,15.7,27.47c0,0,0,0,0,0a4.21,4.21,0,0,1-1.53,3.41,47.45,47.45,0,0,1-13,8h0l-.09,0-.08,0h0a47.62,47.62,0,0,1-14.83,3.76,4.25,4.25,0,0,1-3.51-1.28l0,0c-6.71-3.71-8.17-30.65-8.17-30.65"/><path class="cls-6" d="M137.72,186s44.93,79.36,42.45,87.87v0a4.92,4.92,0,0,1-1.85,3.93,58.09,58.09,0,0,1-15.44,9.4h0l-.1,0-.1,0h0a58.3,58.3,0,0,1-17.51,4.54,4.94,4.94,0,0,1-4.1-1.4s0,0,0,0c-7.83-4.14-33.54-91.64-33.54-91.64"/><path class="cls-7" d="M140.7,491.66c-15.65,4.89-30.49.76-36.68-2.4s-4.24-9.23-3-18.58-.83-106.73-.83-110.6c0-3.41-2.25-3.59-2.78-3.59h-.12c-.25,0-2.87-.09-2.87,3.59,0,3.87-2,101.25-.83,110.6s3.15,15.43-3,18.58-21,7.29-36.69,2.4-24-11.09-22.82-29.19c.38-6.14,2.18-31,4.78-62.15s6-68.6,9.61-99.95l11.13-107c37.52,3,40.75,8.24,40.75,8.24s3.23-5.25,40.73-8.24l11.14,107c7.2,62.7,13.61,149.81,14.39,162.1C164.67,480.57,156.36,486.76,140.7,491.66Z"/><path class="cls-8" d="M130.06,285c-9-66.33-23.25-75.32-29.46-75.89a39.17,39.17,0,0,0-6.12,0c-5.89.12-20.78,7.62-30,75.92a32,32,0,0,0-.5,5.57c0,17.86,14.87,32.34,33.2,32.34h.17c18.33,0,33.19-14.48,33.19-32.34A32,32,0,0,0,130.06,285Z"/><path class="cls-2" d="M96.43.48a1,1,0,0,1,1.68,0l5.25,9.1,6.09,10.55H85.09L91.18,9.58Z"/><path class="cls-9" d="M97.84,78.5a.6.6,0,0,1-1,0L94,73.63l-3.34-5.78H104l-3.33,5.78Z"/><path class="cls-9" d="M109.56,82.08a.6.6,0,0,1-.89-.54l.17-5.63.19-6.67,5.68,3.51,5.67,3.5-5.87,3.16Z"/><path class="cls-9" d="M121.58,93a.6.6,0,0,1-.67-.79l1.91-5.3,2.26-6.27,4.31,5.1,4.3,5.09-6.57,1.18Z"/><path class="cls-9" d="M130.56,108.94a.59.59,0,0,1-.56-.88l2.85-5.12,3.38-6.06,3.55,5.64,3.55,5.64-6.92.42Z"/><path class="cls-9" d="M85.74,82.08a.6.6,0,0,0,.88-.54l-.17-5.63-.19-6.67-5.68,3.51-5.67,3.5,5.87,3.16Z"/><path class="cls-9" d="M73.09,92.67a.6.6,0,0,0,.7-.76l-1.73-5.36L70,80.2l-4.47,4.94-4.47,5,6.52,1.4Z"/><path class="cls-9" d="M63.59,108.59a.58.58,0,0,0,.53-.89l-3-5-3.51-6-3.42,5.72-3.42,5.72,6.93.26Z"/><path class="cls-9" d="M143.44,164.25a.57.57,0,0,1,.7-.77l5.92,1.58,7,1.88-4.48,4.93-4.49,4.93-2.53-6.8Z"/><path class="cls-9" d="M133.41,173.11a.57.57,0,0,1,1-.42l4.78,3.85,5.67,4.55-6.1,2.7-6.09,2.71.43-7.26Z"/><path class="cls-9" d="M119.11,179.06a.58.58,0,0,1,1-.23l3.87,4.41,4.59,5.21-6.51,1.46-6.51,1.45,1.93-6.67Z"/><path class="cls-9" d="M51.1,164.25a.57.57,0,0,0-.69-.77l-5.93,1.58-7,1.88L42,171.87l4.49,4.93L49,170Z"/><path class="cls-9" d="M61.14,173.11a.57.57,0,0,0-1-.42l-4.79,3.85-5.66,4.55,6.09,2.7,6.1,2.71-.43-7.26Z"/><path class="cls-9" d="M75.43,179.06a.58.58,0,0,0-1-.23l-3.87,4.41L66,188.45l6.51,1.46,6.5,1.45-1.92-6.67Z"/><path class="cls-10" d="M189,112.42C171.86,71.33,145.45,16.8,97.27,16.06h0c-24.09.37-42.74,14.18-57.5,33.05S14.12,91.88,5.56,112.42c-17.12,41.09,7.1,77.77,47.69,80.7s44,8.49,44,8.49,3.42-5.55,44-8.49S206.1,153.51,189,112.42Zm-75.79,77.49a55.75,55.75,0,0,0-8,2A37,37,0,0,0,97,195.61a37.25,37.25,0,0,0-8.22-3.69,56.09,56.09,0,0,0-8-2c-27.77-4.95-47-16.56-43.6-40a31.09,31.09,0,0,1,1.26-5.9C58.74,71.78,88.83,68.15,95.63,68.29c.93,0,1.85,0,2.78,0,6.8-.14,36.89,3.49,57.11,75.73C163.2,171.43,143.2,184.56,113.19,189.91Z"/><ellipse class="cls-9" cx="51.14" cy="59.87" rx="20.19" ry="9.24" transform="translate(-26.28 74.22) rotate(-60)"/><path d="M43.43,78.68A5.33,5.33,0,0,1,40.69,78c-2.39-1.38-3.48-4.6-3.06-9.07a36.16,36.16,0,0,1,4.89-14C48.38,44.75,56.76,39,61.59,41.77c2.39,1.38,3.48,4.6,3,9.07a36,36,0,0,1-4.88,14C54.89,73.27,48.3,78.68,43.43,78.68ZM58.85,42.49c-4.26,0-10.61,5.34-15.1,13.12A34.69,34.69,0,0,0,39.05,69c-.36,3.82.49,6.63,2.35,7.7a4,4,0,0,0,2,.51c4.26,0,10.6-5.34,15.09-13.11a34.66,34.66,0,0,0,4.71-13.43c.36-3.83-.5-6.64-2.35-7.71A4.05,4.05,0,0,0,58.85,42.49Z"/><ellipse cx="51.14" cy="59.87" rx="15.05" ry="6.17" transform="translate(-26.28 74.22) rotate(-60)"/><path class="cls-11" d="M89.74,60.55a1,1,0,0,1-.68-.25l-3.37-2.82a1.07,1.07,0,1,1,1.37-1.64l3.37,2.83a1.06,1.06,0,0,1,.13,1.5A1.08,1.08,0,0,1,89.74,60.55Z"/><ellipse class="cls-9" cx="143.41" cy="59.87" rx="9.24" ry="20.19" transform="translate(-10.72 79.73) rotate(-30)"/><path d="M134.79,64.85a36,36,0,0,1-4.88-14c-.43-4.47.66-7.69,3.05-9.07,4.83-2.79,13.21,3,19.07,13.13a36,36,0,0,1,4.88,14c.43,4.47-.66,7.69-3,9.07a5.36,5.36,0,0,1-2.74.71C146.25,78.68,139.66,73.27,134.79,64.85ZM133.67,43c-1.86,1.07-2.71,3.88-2.35,7.71A34.8,34.8,0,0,0,136,64.14c4.49,7.77,10.84,13.11,15.1,13.11a4,4,0,0,0,2-.51c1.85-1.07,2.71-3.88,2.35-7.7a34.55,34.55,0,0,0-4.71-13.43C146.3,47.83,140,42.49,135.7,42.49A4.05,4.05,0,0,0,133.67,43Z"/><ellipse cx="143.41" cy="59.87" rx="6.17" ry="15.05" transform="translate(-10.72 79.73) rotate(-30)"/><path class="cls-11" d="M104.81,60.55a1,1,0,0,0,.68-.25l3.37-2.82A1.08,1.08,0,0,0,109,56a1.06,1.06,0,0,0-1.5-.13l-3.37,2.83a1.06,1.06,0,0,0,.69,1.88Z"/></g></g></svg>