<svg xmlns="http://www.w3.org/2000/svg" xmlns:xlink="http://www.w3.org/1999/xlink" viewBox="0 0 135.33 221.55"><defs><style>.cls-1{fill:url(#linear-gradient);}.cls-2{fill:url(#linear-gradient-2);}.cls-3{fill:url(#linear-gradient-3);}.cls-4{fill:url(#linear-gradient-4);}.cls-5{fill:url(#linear-gradient-5);}.cls-6{fill:#8fa6b5;}.cls-7{fill:url(#linear-gradient-6);}.cls-8{fill:url(#linear-gradient-7);}.cls-9{fill:#ce0000;}.cls-10{fill:url(#linear-gradient-8);}.cls-11{fill:url(#linear-gradient-9);}.cls-12{fill:#090d56;}</style><linearGradient id="linear-gradient" x1="67.67" y1="221.55" x2="67.67" y2="82.25" gradientUnits="userSpaceOnUse"><stop offset="0" stop-color="#003a8e"/><stop offset="0.32" stop-color="#002f7b"/><stop offset="0.7" stop-color="#00256b"/><stop offset="1" stop-color="#026"/></linearGradient><linearGradient id="linear-gradient-2" x1="15.19" y1="12.76" x2="15.19" y2="79.06" gradientUnits="userSpaceOnUse"><stop offset="0.36" stop-color="#f7f7f7"/><stop offset="0.71" stop-color="#f5f6f6"/><stop offset="0.84" stop-color="#eef2f4"/><stop offset="0.93" stop-color="#e3ebf0"/><stop offset="1" stop-color="#d3e2ea"/></linearGradient><linearGradient id="linear-gradient-3" x1="120.15" y1="12.03" x2="120.15" y2="78.95" xlink:href="#linear-gradient-2"/><linearGradient id="linear-gradient-4" x1="67.6" y1="4.55" x2="67.6" y2="100.65" xlink:href="#linear-gradient-2"/><linearGradient id="linear-gradient-5" x1="67.64" y1="100.92" x2="67.64" y2="9.7" gradientUnits="userSpaceOnUse"><stop offset="0" stop-color="#f7f7f7"/><stop offset="0.55" stop-color="#f5f6f6"/><stop offset="0.75" stop-color="#eef2f4"/><stop offset="0.89" stop-color="#e3ebf0"/><stop offset="1" stop-color="#d3e2ea"/></linearGradient><linearGradient id="linear-gradient-6" x1="61.38" y1="64.48" x2="61.38" y2="18.83" gradientUnits="userSpaceOnUse"><stop offset="0.36" stop-color="#ce0000"/><stop offset="0.69" stop-color="#c00"/><stop offset="0.81" stop-color="#c50000"/><stop offset="0.89" stop-color="#ba0000"/><stop offset="0.96" stop-color="#a90000"/><stop offset="1" stop-color="#9b0000"/></linearGradient><linearGradient id="linear-gradient-7" x1="74.35" y1="58.22" x2="74.35" y2="18.81" xlink:href="#linear-gradient-6"/><linearGradient id="linear-gradient-8" x1="57.67" x2="57.67" y2="22.36" gradientUnits="userSpaceOnUse"><stop offset="0" stop-color="#f7f7f7"/><stop offset="0.38" stop-color="#f4f5f6"/><stop offset="0.66" stop-color="#ebf0f3"/><stop offset="0.91" stop-color="#dbe7ed"/><stop offset="1" stop-color="#d3e2ea"/></linearGradient><linearGradient id="linear-gradient-9" x1="77.65" x2="77.65" y2="22.36" xlink:href="#linear-gradient-8"/></defs><g id="Layer_2" data-name="Layer 2"><g id="Layer_1-2" data-name="Layer 1"><path class="cls-1" d="M124.91,209.19c-3.57-36.06-19.08-126.94-19.08-126.94l-38.16.33L30,82.25S14,173.13,10.43,209.19a2.51,2.51,0,0,0,1.08,2.32c4.08,2.79,18.79,11,48.63,10A2.53,2.53,0,0,0,62.58,219c.31-11.95,1.74-60.71,2.37-63.64.72-3.29,1.33-3.62,2.72-3.72,1.39.1,2,.43,2.71,3.72.64,2.93,2.06,51.69,2.37,63.64a2.53,2.53,0,0,0,2.44,2.45c29.85,1.08,44.55-7.16,48.64-10A2.51,2.51,0,0,0,124.91,209.19Z"/><path class="cls-2" d="M27.63,12.94s-.1-1.12-1.91,2.2S1.81,55.56,0,62.82c0,0,14.81,15.38,30.38,16.24Z"/><path class="cls-3" d="M107.91,12.05s.21-.49,2,2.83,23.59,40.57,25.4,47.83c0,0-14.8,15.38-30.37,16.24Z"/><path class="cls-4" d="M101.26,95.72l-.5.12-.27.06-.27.06h0c-10.77,2.33-17.83,4.27-32.17,4.67v0c-.29,0-.57,0-.87,0v0C52.86,100.21,45.76,98.31,35,96l-.27-.06C21.25,93,27.59,83,26.31,62.11s1.34-50.17,1.34-50.17c5.92-7.86,10.09-7.43,20.57-7.36,3.55,0,6.49,0,6.49,0,.65.27,11.86,5.31,12.12,5.4.73.41.86.36,1.56,0,0-.27,11.64-5,12.1-5.4,2.29.05,16.32,0,18.19.43,3.19.47,7.44,4.67,9.3,6.9,0,0,2.2,29.16.91,50.22C107.63,82.63,113.71,92.6,101.26,95.72Z"/><path class="cls-5" d="M69.57,9.7v91.14l-1.47,0v0h-.88v0l-1.52,0V9.7h.48l.71.53.77.35.79-.35h0l.7-.52Z"/><circle class="cls-6" cx="67.64" cy="25.29" r="0.86"/><circle class="cls-6" cx="67.64" cy="40.41" r="0.86"/><circle class="cls-6" cx="67.64" cy="55.52" r="0.86"/><circle class="cls-6" cx="67.64" cy="70.69" r="0.86"/><circle class="cls-6" cx="67.64" cy="85.81" r="0.86"/><path class="cls-7" d="M64.86,19.74A1.31,1.31,0,0,0,63,19c-2.2,1.36-6.35,5.57-6,18C57.27,50.9,58,59.63,58.5,64.31a.17.17,0,1,0,.34,0,136.78,136.78,0,0,1,3.49-22.22C64.61,33,67.35,26.24,64.86,19.74Z"/><path class="cls-8" d="M70.18,19.7a1.13,1.13,0,0,1,1.59-.77c2,1,5.94,4.38,6.58,15.23.71,12.13.71,19.79.63,23.91a.15.15,0,0,1-.3,0A122.16,122.16,0,0,0,74,39C71.45,31.2,68.48,25.54,70.18,19.7Z"/><path class="cls-9" d="M63.23,15.73c1.28-.35,5.11-1.22,8.16,0a.47.47,0,0,1,.26.54c-.34,1.4-1.49,6.14-2.06,7.44a.41.41,0,0,1-.35.26,18.13,18.13,0,0,1-3.07,0,.41.41,0,0,1-.31-.23,49.11,49.11,0,0,1-2.92-7.42A.45.45,0,0,1,63.23,15.73Z"/><path class="cls-10" d="M67.67,10.82h0c-.7,1-1.36,2.08-2,3.11-.28.48-.55,1-.81,1.42-.52.94-1,1.85-1.4,2.67-.17.33-.33.65-.47,1-1,2-1.51,3.37-1.51,3.37-.38-.27-.75-.56-1.12-.88C55.26,17.08,50,8,48.28,4.84c-.39-.7-.6-1.11-.6-1.11A38.55,38.55,0,0,0,54.27,0c1.07,1.4,8.65,7.22,11.91,9.7l.71.53.77.59Z"/><path class="cls-11" d="M87.65,3.73s-.21.41-.6,1.11C85.29,8,80,17.28,74.78,21.61q-.48.41-1,.75s-.47-1.2-1.33-3c-.31-.65-.67-1.38-1.07-2.15-.29-.57-.61-1.17-1-1.79s-.58-1-.9-1.57c-.58-1-1.22-2-1.91-3h0l.79-.59h0l.7-.52C72.41,7.22,80,1.4,81.06,0A38.55,38.55,0,0,0,87.65,3.73Z"/><path class="cls-12" d="M27.74,124.23a.55.55,0,0,1-.32-1c8.59-5.7,14.23-20.37,14.29-20.52a.56.56,0,0,1,.72-.32.54.54,0,0,1,.33.7c-.23.62-5.82,15.15-14.7,21A.62.62,0,0,1,27.74,124.23Z"/><path class="cls-12" d="M108.29,124.23a.55.55,0,0,0,.32-1c-8.59-5.7-14.23-20.37-14.29-20.52a.56.56,0,0,0-.72-.32.54.54,0,0,0-.33.7c.23.62,5.82,15.15,14.7,21A.62.62,0,0,0,108.29,124.23Z"/></g></g></svg>