<svg width="249" height="494" viewBox="0 0 249 494" fill="none" xmlns="http://www.w3.org/2000/svg">
<path d="M197.85 439.447C198.012 439.352 198.195 439.297 198.383 439.29C198.571 439.282 198.759 439.321 198.928 439.403C199.097 439.485 199.244 439.608 199.354 439.761C199.464 439.913 199.535 440.091 199.56 440.277L200.87 450.767L202.39 462.977L190.3 457.077L178.21 451.177L188.78 444.867L197.85 439.447Z" fill="#FFCA55"/>
<path d="M217.41 449.787C217.51 449.675 217.635 449.59 217.776 449.538C217.917 449.486 218.068 449.47 218.216 449.491C218.365 449.512 218.506 449.569 218.627 449.657C218.748 449.745 218.845 449.862 218.91 449.997L223.35 459.567L228.35 470.387L215.44 468.517L202.54 466.647L210.42 457.697L217.41 449.787Z" fill="#FFCA55"/>
<path d="M180 424.637C180.202 424.592 180.412 424.597 180.611 424.651C180.811 424.706 180.994 424.809 181.144 424.952C181.295 425.094 181.407 425.271 181.473 425.468C181.539 425.664 181.555 425.873 181.52 426.077L179.65 436.327L177.45 448.447L167.66 439.137L157.86 429.827L169.86 427.017L180 424.637Z" fill="#FFCA55"/>
<path d="M165.65 406.347C165.824 406.332 166 406.362 166.158 406.435C166.317 406.509 166.454 406.622 166.555 406.765C166.657 406.908 166.719 407.074 166.735 407.249C166.752 407.423 166.722 407.598 166.65 407.757L162.58 417.757L157.93 429.227L150.17 417.977L142.44 406.657L154.82 406.507L165.65 406.347Z" fill="#FFCA55"/>
<path d="M246.88 462.627C247.197 462.549 247.531 462.569 247.836 462.685C248.142 462.802 248.404 463.009 248.588 463.279C248.772 463.549 248.869 463.869 248.866 464.196C248.863 464.523 248.759 464.841 248.57 465.107C244.06 471.327 236.11 476.417 223.91 480.007C115 511.977 69.59 387.397 69.59 387.397L103.34 295.397C103.34 295.397 112.92 301.777 127.25 312.187C128.62 340.087 140.1 468.727 235.4 464.187C239.268 464.035 243.112 463.513 246.88 462.627Z" fill="url(#paint0_linear_95_62)"/>
<path d="M155.52 143.977C135.3 71.7574 105.21 68.1274 98.41 68.2674C97.48 68.2674 96.56 68.2674 95.63 68.2674C88.83 68.1274 58.74 71.7574 38.51 143.997C37.8997 145.922 37.4778 147.901 37.25 149.907C33.89 173.327 53.08 184.907 80.85 189.907C83.5621 190.377 86.236 191.045 88.85 191.907C91.7012 192.807 94.4367 194.039 97 195.577C99.5836 194.028 102.343 192.792 105.22 191.897C107.834 191.034 110.508 190.366 113.22 189.897C143.2 184.537 163.2 171.407 155.52 143.977Z" fill="#3F3F3F"/>
<path d="M155.52 143.977C135.3 71.7574 105.21 68.1274 98.41 68.2674C97.48 68.2674 96.56 68.2674 95.63 68.2674C88.83 68.1274 58.74 71.7574 38.51 143.997C37.8997 145.922 37.4778 147.901 37.25 149.907C33.89 173.327 53.08 184.907 80.85 189.907C83.5621 190.377 86.236 191.045 88.85 191.907C91.7012 192.807 94.4367 194.039 97 195.577C99.5836 194.028 102.343 192.792 105.22 191.897C107.834 191.034 110.508 190.366 113.22 189.897C143.2 184.537 163.2 171.407 155.52 143.977Z" fill="url(#paint1_linear_95_62)"/>
<path d="M28 258.977C28 258.977 10.28 278.977 12.28 286.407C12.2553 287.055 12.3805 287.7 12.6458 288.292C12.9112 288.883 13.3096 289.405 13.81 289.817C17.6832 293.168 22.0733 295.87 26.81 297.817H26.9H26.98C31.6884 299.862 36.6963 301.132 41.81 301.577C42.4539 301.646 43.1049 301.566 43.7132 301.344C44.3215 301.122 44.8711 300.764 45.32 300.297C52.03 296.587 53.49 269.647 53.49 269.647" fill="#407F2E"/>
<path d="M56.48 185.977C56.48 185.977 11.55 265.357 14 273.867C13.987 274.62 14.1471 275.366 14.4678 276.048C14.7886 276.729 15.2614 277.328 15.85 277.797C20.4746 281.717 25.6844 284.889 31.29 287.197H31.39H31.49C37.0487 289.65 42.9567 291.219 49 291.847C49.7449 291.941 50.5012 291.863 51.2117 291.621C51.9221 291.378 52.5679 290.977 53.1 290.447C60.93 286.307 86.64 198.807 86.64 198.807" fill="url(#paint2_linear_95_62)"/>
<path d="M166.22 258.977C166.22 258.977 183.92 279.047 181.92 286.447C181.945 287.095 181.82 287.74 181.554 288.332C181.289 288.923 180.89 289.445 180.39 289.857C176.517 293.208 172.127 295.91 167.39 297.857H167.3H167.22C162.512 299.902 157.504 301.172 152.39 301.617C151.746 301.686 151.095 301.606 150.487 301.384C149.878 301.162 149.329 300.804 148.88 300.337C142.17 296.627 140.71 269.687 140.71 269.687" fill="#407F2E"/>
<path d="M137.72 185.977C137.72 185.977 182.65 265.337 180.17 273.847C180.183 274.6 180.023 275.346 179.702 276.028C179.381 276.709 178.909 277.308 178.32 277.777C173.695 281.697 168.486 284.869 162.88 287.177H162.78H162.68C157.115 289.593 151.207 291.124 145.17 291.717C144.425 291.811 143.669 291.733 142.958 291.491C142.248 291.248 141.602 290.847 141.07 290.317C133.24 286.177 107.53 198.677 107.53 198.677" fill="url(#paint3_linear_95_62)"/>
<path d="M140.7 491.637C125.05 496.527 110.21 492.397 104.02 489.237C97.83 486.077 99.78 480.007 101.02 470.657C102.26 461.307 100.19 363.927 100.19 360.057C100.19 356.647 97.94 356.467 97.41 356.467H97.29C97.04 356.467 94.42 356.377 94.42 360.057C94.42 363.927 92.42 461.307 93.59 470.657C94.76 480.007 96.74 486.087 90.59 489.237C84.44 492.387 69.59 496.527 53.9 491.637C38.21 486.747 29.9 480.547 31.08 462.447C31.46 456.307 33.26 431.447 35.86 400.297C38.46 369.147 41.86 331.697 45.47 300.347L56.6 193.347C94.12 196.347 97.35 201.587 97.35 201.587C97.35 201.587 100.58 196.337 138.08 193.347L149.22 300.347C156.42 363.047 162.83 450.157 163.61 462.447C164.67 480.547 156.36 486.737 140.7 491.637Z" fill="url(#paint4_linear_95_62)"/>
<path d="M130.06 284.977C121.06 218.647 106.81 209.657 100.6 209.087C98.5631 208.928 96.5169 208.928 94.48 209.087C88.59 209.207 73.7 216.707 64.48 285.007C64.1511 286.846 63.9838 288.71 63.98 290.577C63.98 308.437 78.85 322.917 97.18 322.917H97.35C115.68 322.917 130.54 308.437 130.54 290.577C130.545 288.7 130.384 286.826 130.06 284.977Z" fill="#FFF1CC"/>
<path d="M96.43 0.457414C96.5207 0.317066 96.645 0.20167 96.7918 0.121767C96.9385 0.0418637 97.1029 0 97.27 0C97.4371 0 97.6015 0.0418637 97.7482 0.121767C97.895 0.20167 98.0193 0.317066 98.11 0.457414L103.36 9.55741L109.45 20.1074H85.09L91.18 9.55741L96.43 0.457414Z" fill="#FFCA55"/>
<path d="M97.84 78.4774C97.7853 78.5599 97.711 78.6276 97.6237 78.6744C97.5365 78.7213 97.439 78.7458 97.34 78.7458C97.241 78.7458 97.1435 78.7213 97.0563 78.6744C96.969 78.6276 96.8947 78.5599 96.84 78.4774L94 73.6074L90.66 67.8274H104L100.67 73.6074L97.84 78.4774Z" fill="white"/>
<path d="M109.56 82.0574C109.468 82.1085 109.363 82.1343 109.258 82.1321C109.152 82.13 109.049 82.1 108.959 82.0452C108.868 81.9904 108.794 81.9128 108.743 81.8201C108.693 81.7274 108.667 81.623 108.67 81.5174L108.84 75.8874L109.03 69.2174L114.71 72.7274L120.38 76.2274L114.51 79.3874L109.56 82.0574Z" fill="white"/>
<path d="M121.58 92.9774C121.477 92.9956 121.371 92.9864 121.272 92.9508C121.174 92.9152 121.086 92.8545 121.018 92.7746C120.951 92.6947 120.905 92.5985 120.886 92.4955C120.867 92.3924 120.875 92.2862 120.91 92.1874L122.82 86.8874L125.08 80.6174L129.39 85.7174L133.69 90.8074L127.12 91.9874L121.58 92.9774Z" fill="white"/>
<path d="M130.56 108.917C130.453 108.926 130.346 108.905 130.25 108.857C130.154 108.81 130.073 108.737 130.015 108.646C129.957 108.556 129.926 108.451 129.923 108.344C129.92 108.237 129.947 108.131 130 108.037L132.85 102.917L136.23 96.8574L139.78 102.497L143.33 108.137L136.41 108.557L130.56 108.917Z" fill="white"/>
<path d="M85.74 82.0574C85.8321 82.106 85.9354 82.1298 86.0395 82.1265C86.1436 82.1231 86.2451 82.0927 86.3339 82.0382C86.4227 81.9837 86.4958 81.907 86.5459 81.8157C86.5961 81.7244 86.6216 81.6216 86.62 81.5174L86.45 75.8874L86.26 69.2174L80.58 72.7274L74.91 76.2274L80.78 79.3874L85.74 82.0574Z" fill="white"/>
<path d="M73.09 92.6474C73.192 92.6693 73.2979 92.6641 73.3974 92.6325C73.4968 92.6009 73.5862 92.5439 73.6569 92.4672C73.7276 92.3905 73.777 92.2966 73.8004 92.195C73.8237 92.0933 73.8201 91.9873 73.79 91.8874L72.06 86.5274L70 80.1774L65.53 85.1174L61.06 90.1174L67.58 91.5174L73.09 92.6474Z" fill="white"/>
<path d="M63.59 108.567C63.6971 108.575 63.8042 108.553 63.8994 108.503C63.9946 108.453 64.0741 108.378 64.129 108.286C64.184 108.193 64.2122 108.088 64.2106 107.98C64.209 107.873 64.1777 107.768 64.12 107.677L61.12 102.677L57.61 96.6774L54.19 102.397L50.77 108.117L57.7 108.377L63.59 108.567Z" fill="white"/>
<path d="M143.44 164.227C143.396 164.127 143.382 164.015 143.4 163.907C143.418 163.798 143.466 163.697 143.54 163.616C143.614 163.534 143.71 163.476 143.817 163.448C143.923 163.42 144.035 163.423 144.14 163.457L150.06 165.037L157.06 166.917L152.58 171.847L148.09 176.777L145.56 169.977L143.44 164.227Z" fill="white"/>
<path d="M133.41 173.087C133.4 172.967 133.428 172.847 133.49 172.744C133.553 172.641 133.646 172.56 133.757 172.514C133.868 172.467 133.991 172.457 134.109 172.484C134.226 172.512 134.331 172.576 134.41 172.667L139.19 176.517L144.86 181.067L138.76 183.767L132.67 186.477L133.1 179.217L133.41 173.087Z" fill="white"/>
<path d="M119.11 179.037C119.137 178.935 119.191 178.843 119.267 178.769C119.343 178.696 119.438 178.644 119.541 178.621C119.644 178.597 119.751 178.602 119.851 178.635C119.952 178.668 120.041 178.727 120.11 178.807L123.98 183.217L128.57 188.427L122.06 189.887L115.55 191.337L117.48 184.667L119.11 179.037Z" fill="white"/>
<path d="M51.1 164.227C51.1428 164.128 51.1562 164.018 51.1386 163.91C51.121 163.803 51.0732 163.703 51.0007 163.622C50.9282 163.541 50.834 163.483 50.7294 163.454C50.6247 163.424 50.5139 163.426 50.41 163.457L44.48 165.037L37.48 166.917L42 171.847L46.49 176.777L49 169.977L51.1 164.227Z" fill="white"/>
<path d="M61.14 173.087C61.1502 172.967 61.122 172.847 61.0597 172.744C60.9973 172.641 60.9038 172.56 60.7927 172.514C60.6816 172.467 60.5586 172.457 60.4414 172.484C60.3241 172.512 60.2186 172.576 60.14 172.667L55.35 176.517L49.69 181.067L55.78 183.767L61.88 186.477L61.45 179.217L61.14 173.087Z" fill="white"/>
<path d="M75.43 179.037C75.4029 178.935 75.3485 178.843 75.2726 178.769C75.1967 178.696 75.1022 178.644 74.9993 178.621C74.8964 178.597 74.789 178.602 74.6887 178.635C74.5884 178.668 74.4989 178.727 74.43 178.807L70.56 183.217L66 188.427L72.51 189.887L79.01 191.337L77.09 184.667L75.43 179.037Z" fill="white"/>
<path d="M189 112.397C171.86 71.3074 145.45 16.7774 97.27 16.0374C73.18 16.4074 54.53 30.2174 39.77 49.0874C25.01 67.9574 14.12 91.8574 5.55999 112.397C-11.56 153.487 12.66 190.167 53.25 193.097C93.84 196.027 97.25 201.587 97.25 201.587C97.25 201.587 100.67 196.037 141.25 193.097C181.83 190.157 206.1 153.487 189 112.397ZM113.21 189.887C110.498 190.356 107.824 191.024 105.21 191.887C102.333 192.782 99.5758 194.024 97 195.587C94.4194 194.029 91.6592 192.79 88.78 191.897C86.166 191.035 83.4921 190.367 80.78 189.897C53.01 184.947 33.78 173.337 37.18 149.897C37.4077 147.895 37.8297 145.919 38.44 143.997C58.74 71.7574 88.83 68.1274 95.63 68.2674C96.56 68.2674 97.48 68.2674 98.41 68.2674C105.21 68.1274 135.3 71.7574 155.52 143.997C163.2 171.407 143.2 184.537 113.19 189.887H113.21Z" fill="url(#paint5_linear_95_62)"/>
<path d="M59.141 64.4639C64.7163 54.8071 65.6533 44.9104 61.2339 42.3588C56.8145 39.8073 48.7122 45.5671 43.1368 55.2239C37.5615 64.8806 36.6245 74.7774 41.0439 77.3289C45.4633 79.8805 53.5657 74.1206 59.141 64.4639Z" fill="white"/>
<path d="M43.43 78.6574C42.4721 78.6811 41.5256 78.4462 40.69 77.9774C38.3 76.5974 37.21 73.3774 37.63 68.9074C38.2753 63.953 39.9403 59.1861 42.52 54.9074C48.38 44.7274 56.76 38.9774 61.59 41.7474C63.98 43.1274 65.07 46.3474 64.59 50.8174C63.9523 55.7721 62.2904 60.5399 59.71 64.8174C54.89 73.2474 48.3 78.6574 43.43 78.6574ZM58.85 42.4674C54.59 42.4674 48.24 47.8074 43.75 55.5874C41.2774 59.6792 39.6772 64.2379 39.05 68.9774C38.69 72.7974 39.54 75.6074 41.4 76.6774C42.0106 77.0194 42.7002 77.1953 43.4 77.1874C47.66 77.1874 54 71.8474 58.49 64.0774C60.9721 59.9747 62.5759 55.4017 63.2 50.6474C63.56 46.8174 62.7 44.0074 60.85 42.9374C60.2348 42.6114 59.546 42.4496 58.85 42.4674Z" fill="black"/>
<path d="M56.4823 62.9289C60.6382 55.7306 61.615 48.514 58.6639 46.8102C55.7128 45.1064 49.9515 49.5606 45.7955 56.7589C41.6396 63.9572 40.6628 71.1737 43.6139 72.8775C46.565 74.5813 52.3263 70.1272 56.4823 62.9289Z" fill="black"/>
<path d="M89.74 60.5274C89.4901 60.532 89.2474 60.4428 89.06 60.2774L85.69 57.4574C85.5736 57.3703 85.4762 57.2605 85.4037 57.1345C85.3312 57.0086 85.2851 56.8692 85.2683 56.7248C85.2514 56.5805 85.2642 56.4342 85.3057 56.2949C85.3473 56.1556 85.4167 56.0263 85.5099 55.9148C85.6031 55.8032 85.718 55.7118 85.8477 55.6462C85.9773 55.5805 86.119 55.5419 86.264 55.5328C86.4091 55.5237 86.5545 55.5443 86.6913 55.5932C86.8282 55.6421 86.9536 55.7184 87.06 55.8174L90.43 58.6474C90.5376 58.737 90.6263 58.847 90.6911 58.9711C90.7559 59.0952 90.7955 59.2309 90.8076 59.3703C90.8197 59.5098 90.804 59.6503 90.7615 59.7836C90.719 59.917 90.6505 60.0407 90.56 60.1474C90.4589 60.2662 90.3332 60.3617 90.1917 60.4273C90.0501 60.4929 89.896 60.5271 89.74 60.5274Z" fill="#005C00"/>
<path d="M153.507 77.3364C157.926 74.7848 156.989 64.8881 151.414 55.2314C145.838 45.5746 137.736 39.8147 133.317 42.3663C128.897 44.9179 129.834 54.8146 135.41 64.4713C140.985 74.1281 149.087 79.888 153.507 77.3364Z" fill="white"/>
<path d="M134.79 64.8274C132.21 60.5499 130.548 55.7821 129.91 50.8274C129.48 46.3574 130.57 43.1374 132.96 41.7574C137.79 38.9674 146.17 44.7574 152.03 54.8874C154.61 59.1649 156.272 63.9327 156.91 68.8874C157.34 73.3574 156.25 76.5774 153.91 77.9574C153.077 78.4353 152.13 78.6805 151.17 78.6674C146.25 78.6574 139.66 73.2474 134.79 64.8274ZM133.67 42.9774C131.81 44.0474 130.96 46.8574 131.32 50.6874C131.939 55.4385 133.532 60.0106 136 64.1174C140.49 71.8874 146.84 77.2274 151.1 77.2274C151.8 77.2353 152.489 77.0594 153.1 76.7174C154.95 75.6474 155.81 72.8374 155.45 69.0174C154.829 64.2624 153.225 59.6887 150.74 55.5874C146.3 47.8074 140 42.4674 135.7 42.4674C134.99 42.4566 134.29 42.6325 133.67 42.9774Z" fill="black"/>
<path d="M150.937 72.885C153.888 71.1812 152.911 63.9647 148.755 56.7664C144.599 49.5681 138.838 45.1139 135.887 46.8177C132.936 48.5215 133.912 55.7381 138.068 62.9364C142.224 70.1347 147.986 74.5888 150.937 72.885Z" fill="black"/>
<path d="M104.81 60.5274C105.06 60.532 105.303 60.4428 105.49 60.2774L108.86 57.4574C109.068 57.2756 109.199 57.0207 109.225 56.7453C109.251 56.47 109.171 56.1951 109 55.9774C108.91 55.8698 108.8 55.7811 108.676 55.7163C108.552 55.6515 108.417 55.6119 108.277 55.5998C108.138 55.5877 107.997 55.6034 107.864 55.6459C107.73 55.6884 107.607 55.7569 107.5 55.8474L104.13 58.6774C103.96 58.8169 103.837 59.006 103.779 59.2184C103.721 59.4309 103.731 59.6561 103.806 59.8628C103.882 60.0695 104.021 60.2475 104.202 60.3719C104.384 60.4964 104.6 60.5612 104.82 60.5574L104.81 60.5274Z" fill="#005C00"/>
<defs>
<linearGradient id="paint0_linear_95_62" x1="248.88" y1="390.347" x2="69.59" y2="390.347" gradientUnits="userSpaceOnUse">
<stop stop-color="#407F2E"/>
<stop offset="0.24" stop-color="#3D7A2B"/>
<stop offset="0.54" stop-color="#346A24"/>
<stop offset="0.87" stop-color="#265017"/>
<stop offset="1" stop-color="#1F4411"/>
</linearGradient>
<linearGradient id="paint1_linear_95_62" x1="97.02" y1="68.2674" x2="97.02" y2="195.577" gradientUnits="userSpaceOnUse">
<stop stop-color="#407F2E"/>
<stop offset="0.63" stop-color="#2C5B1C"/>
<stop offset="1" stop-color="#1F4411"/>
</linearGradient>
<linearGradient id="paint2_linear_95_62" x1="50.31" y1="291.877" x2="50.31" y2="185.997" gradientUnits="userSpaceOnUse">
<stop stop-color="#52A941"/>
<stop offset="0.44" stop-color="#51A740"/>
<stop offset="0.63" stop-color="#4EA03D"/>
<stop offset="0.77" stop-color="#489337"/>
<stop offset="0.89" stop-color="#40822F"/>
<stop offset="0.99" stop-color="#356B24"/>
<stop offset="1" stop-color="#346823"/>
</linearGradient>
<linearGradient id="paint3_linear_95_62" x1="143.89" y1="291.877" x2="143.89" y2="185.997" gradientUnits="userSpaceOnUse">
<stop stop-color="#52A941"/>
<stop offset="0.44" stop-color="#51A740"/>
<stop offset="0.63" stop-color="#4EA03D"/>
<stop offset="0.77" stop-color="#489337"/>
<stop offset="0.89" stop-color="#40822F"/>
<stop offset="0.99" stop-color="#356B24"/>
<stop offset="1" stop-color="#346823"/>
</linearGradient>
<linearGradient id="paint4_linear_95_62" x1="97.26" y1="493.887" x2="97.26" y2="193.347" gradientUnits="userSpaceOnUse">
<stop stop-color="#52A941"/>
<stop offset="0.49" stop-color="#51A740"/>
<stop offset="0.67" stop-color="#4EA03D"/>
<stop offset="0.79" stop-color="#499538"/>
<stop offset="0.89" stop-color="#418430"/>
<stop offset="0.98" stop-color="#376E26"/>
<stop offset="1" stop-color="#346823"/>
</linearGradient>
<linearGradient id="paint5_linear_95_62" x1="97.27" y1="201.587" x2="97.27" y2="16.0374" gradientUnits="userSpaceOnUse">
<stop stop-color="#52A941"/>
<stop offset="0.48" stop-color="#53AB42"/>
<stop offset="0.74" stop-color="#58B346"/>
<stop offset="0.95" stop-color="#60C14C"/>
<stop offset="1" stop-color="#63C64E"/>
</linearGradient>
</defs>
</svg>
