<svg xmlns="http://www.w3.org/2000/svg" xmlns:xlink="http://www.w3.org/1999/xlink" viewBox="0 0 136.26 192.3"><defs><style>.cls-1{fill:url(#linear-gradient);}.cls-2{fill:url(#linear-gradient-2);}.cls-3{fill:url(#linear-gradient-3);}.cls-4{fill:url(#linear-gradient-4);}.cls-5{fill:url(#linear-gradient-5);}.cls-6{fill:url(#linear-gradient-6);}.cls-7{fill:url(#linear-gradient-7);}.cls-8{fill:url(#linear-gradient-8);}.cls-9{fill:url(#linear-gradient-9);}.cls-10{fill:#8fa6b5;}.cls-11{fill:#ce0000;}.cls-12{fill:url(#linear-gradient-10);}.cls-13{fill:url(#linear-gradient-11);}</style><linearGradient id="linear-gradient" x1="27.19" y1="179.31" x2="27.19" y2="84.27" gradientUnits="userSpaceOnUse"><stop offset="0" stop-color="#003a8e"/><stop offset="0.1" stop-color="#003585"/><stop offset="0.37" stop-color="#002a74"/><stop offset="0.66" stop-color="#002469"/><stop offset="1" stop-color="#026"/></linearGradient><linearGradient id="linear-gradient-2" x1="42.06" y1="186.74" x2="42.06" y2="87.54" gradientUnits="userSpaceOnUse"><stop offset="0" stop-color="#003a8e"/><stop offset="0.59" stop-color="#002a73"/><stop offset="1" stop-color="#026"/></linearGradient><linearGradient id="linear-gradient-3" x1="108.97" y1="179.31" x2="108.97" y2="82.13" xlink:href="#linear-gradient"/><linearGradient id="linear-gradient-4" x1="94.14" y1="186.77" x2="94.14" y2="87.18" xlink:href="#linear-gradient-2"/><linearGradient id="linear-gradient-5" x1="67.87" y1="192.3" x2="67.87" y2="90.03" gradientUnits="userSpaceOnUse"><stop offset="0" stop-color="#003a8e"/><stop offset="0.3" stop-color="#003688"/><stop offset="0.71" stop-color="#002c77"/><stop offset="1" stop-color="#026"/></linearGradient><linearGradient id="linear-gradient-6" x1="15.29" y1="12.85" x2="15.29" y2="79.6" gradientUnits="userSpaceOnUse"><stop offset="0.36" stop-color="#f7f7f7"/><stop offset="0.71" stop-color="#f5f6f6"/><stop offset="0.84" stop-color="#eef2f4"/><stop offset="0.93" stop-color="#e3ebf0"/><stop offset="1" stop-color="#d3e2ea"/></linearGradient><linearGradient id="linear-gradient-7" x1="120.96" y1="12.74" x2="120.96" y2="79.49" xlink:href="#linear-gradient-6"/><linearGradient id="linear-gradient-8" x1="68.12" y1="4.86" x2="68.12" y2="101.61" xlink:href="#linear-gradient-6"/><linearGradient id="linear-gradient-9" x1="68.1" y1="101.61" x2="68.1" y2="9.76" gradientUnits="userSpaceOnUse"><stop offset="0" stop-color="#f7f7f7"/><stop offset="0.55" stop-color="#f5f6f6"/><stop offset="0.75" stop-color="#eef2f4"/><stop offset="0.89" stop-color="#e3ebf0"/><stop offset="1" stop-color="#d3e2ea"/></linearGradient><linearGradient id="linear-gradient-10" x1="58.07" x2="58.07" y2="22.51" gradientUnits="userSpaceOnUse"><stop offset="0" stop-color="#f7f7f7"/><stop offset="0.38" stop-color="#f4f5f6"/><stop offset="0.66" stop-color="#ebf0f3"/><stop offset="0.91" stop-color="#dbe7ed"/><stop offset="1" stop-color="#d3e2ea"/></linearGradient><linearGradient id="linear-gradient-11" x1="78.18" x2="78.18" y2="22.51" xlink:href="#linear-gradient-10"/></defs><g id="Layer_2" data-name="Layer 2"><g id="Layer_1-2" data-name="Layer 1"><path class="cls-1" d="M43.47,87.54c-4.75,27.89-10.84,62.94-15.58,91.77-4.6-.87-17.12-4.26-17-6.28.3-2.07,14.43-67,19.58-88.76C33.66,85.42,38.94,86.4,43.47,87.54Z"/><path class="cls-2" d="M56.52,90c0,.09,0,.16,0,.24l-.57,0c-.14,1.86-6.38,72.74-8.26,96.52-4.94-.31-19.41-3-20.07-5.49.79-5.3,1.56-9.57,2.6-15.88,4.12-24.49,9.3-54.63,13.27-77.83A111,111,0,0,0,56.52,90Z"/><path class="cls-3" d="M125.29,173c.13,2-12.37,5.4-17,6.28-5-30.53-10.46-61.74-15.65-92.13,3.82-1.27,9.35-3,13-5.05C110.36,101.8,125,170.9,125.29,173Z"/><path class="cls-4" d="M108.6,181.25c-.83,2.6-15.48,5.18-20.54,5.52-1.84-23.46-8.15-95.15-8.26-96.55h-.11a.25.25,0,0,0,0-.08,69.66,69.66,0,0,0,13-3C97.92,118.19,103.56,150.1,108.6,181.25Z"/><path class="cls-5" d="M88.18,188.52c-6.25,5-34.38,5-40.62,0,1.74-23.47,8.26-96.43,8.37-98.3l.57,0c0-.08,0-.15,0-.24a96.35,96.35,0,0,0,11.36.82c0,.14,0,.27,0,.41l.41,0c0-.13,0-.25,0-.38a80,80,0,0,0,11.37-.7.25.25,0,0,1,0,.08h.11C80,92.6,86.39,164.65,88.18,188.52Z"/><path class="cls-6" d="M27.82,13s-.1-1.13-1.92,2.21S1.83,55.94,0,63.25c0,0,14.91,15.48,30.58,16.35Z"/><path class="cls-7" d="M108.44,12.92s.1-1.13,1.92,2.21,24.07,40.7,25.9,48c0,0-14.91,15.48-30.59,16.35Z"/><path class="cls-8" d="M107,81.84c.29,6.27,5.38,12.63-6.06,15-10.87,2.29-16.37,4.06-30.92,4.64-.48,0-1,0-1.48.06v0l-.44,0-.44,0v0l-1.53-.06c-14.51-.58-20-2.35-30.87-4.64-11.44-2.41-6.34-8.77-6.05-15,0-.82.07-1.63.09-2.44.2-5.37.22-10.49.39-15.69,0-.62,0-1.65,0-3h0c-.14-7-.86-22.69-1.42-34.23v-.2c-.31-6.44-.56-11.56-.65-13.12a1.58,1.58,0,0,1,0-.38,1.23,1.23,0,0,1,.25-.48c1.88-2.25,5.72-6.53,8.92-7,1.88-.28,7.32-.38,11.79-.41,3.58,0,6.53,0,6.53,0l11,4.91,1.2.53.77.35.79-.35h0L70,9.79,81.1,4.86s3,0,6.54,0c4.47,0,9.9.14,11.78.42,3.2.48,7,4.76,8.92,7a1.13,1.13,0,0,1,.24.46,1,1,0,0,1,0,.4c-.11,2.14-.56,11.07-1,20.89h0a.53.53,0,0,0,0,.13c-.38,8.19-.76,17-.95,23a.22.22,0,0,1,0,.08h0c-.09,3.09-.14,5.41-.1,6.48.16,5.19.19,10.31.38,15.68C107,80.2,107,81,107,81.84Z"/><path class="cls-9" d="M70,9.76v91.76c-.48,0-1,0-1.48.06v0l-.44,0-.44,0v0l-1.53-.06V9.76h.48l.72.54.77.35.79-.35h0l.7-.53Z"/><circle class="cls-10" cx="68.1" cy="25.46" r="0.87"/><circle class="cls-10" cx="68.1" cy="40.68" r="0.87"/><circle class="cls-10" cx="68.1" cy="55.9" r="0.87"/><circle class="cls-10" cx="68.1" cy="71.17" r="0.87"/><circle class="cls-10" cx="68.1" cy="86.39" r="0.87"/><path class="cls-11" d="M65.3,19.88a1.31,1.31,0,0,0-1.9-.74c-2.21,1.37-6.39,5.61-6.08,18.12.34,14,1.08,22.77,1.58,27.49a.17.17,0,1,0,.34,0,138.07,138.07,0,0,1,3.51-22.38C65.05,33.22,67.81,26.42,65.3,19.88Z"/><path class="cls-11" d="M70.66,19.83a1.13,1.13,0,0,1,1.6-.77c2,1,6,4.41,6.62,15.33.72,12.21.72,19.92.63,24.07a.15.15,0,1,1-.3,0,122,122,0,0,0-4.69-19.23C71.93,31.41,69,25.72,70.66,19.83Z"/><path class="cls-11" d="M63.67,15.83c1.28-.35,5.14-1.22,8.21,0a.48.48,0,0,1,.26.55c-.34,1.41-1.5,6.18-2.07,7.49a.43.43,0,0,1-.36.26,17.35,17.35,0,0,1-3.09,0,.39.39,0,0,1-.31-.23,48.06,48.06,0,0,1-3-7.47A.48.48,0,0,1,63.67,15.83Z"/><path class="cls-12" d="M68.13,10.89h0c-.72,1-1.38,2.1-2,3.13-.29.49-.56,1-.82,1.43-.52.95-1,1.86-1.41,2.69l-.48,1c-1,2-1.51,3.39-1.51,3.39-.38-.27-.75-.57-1.13-.89C55.64,17.2,50.36,8.06,48.61,4.88L48,3.75A38.49,38.49,0,0,0,54.64,0c1.07,1.41,8.71,7.27,12,9.76l.72.54.78.59Z"/><path class="cls-13" d="M88.25,3.75l-.61,1.12C85.87,8.08,80.5,17.4,75.28,21.76c-.32.27-.64.52-1,.75,0,0-.48-1.2-1.35-3-.31-.65-.67-1.38-1.07-2.17l-1-1.8c-.29-.51-.59-1-.91-1.57-.58-1-1.23-2-1.91-3h0l.78-.59h0l.7-.53C72.9,7.27,80.54,1.41,81.61,0A38.49,38.49,0,0,0,88.25,3.75Z"/></g></g></svg>