<svg width="125" height="128" viewBox="0 0 125 128" fill="none" xmlns="http://www.w3.org/2000/svg">
<path d="M124.18 115.26C120.283 76.4779 113.687 38.0146 104.44 0.15C81.7098 9.42 67.7098 9.52 62.8798 9.44C62.8762 9.4168 62.8762 9.3932 62.8798 9.37C62.8798 9.37 62.4698 9.37 62.0998 9.37C61.7298 9.37 61.3798 9.37 61.3298 9.37C61.3283 9.39331 61.3283 9.41669 61.3298 9.44C56.4498 9.52 42.2198 9.26 19.4698 0C10.4123 37.9415 3.91101 76.448 0.00981416 115.26C-0.0287853 115.62 0.0470863 115.983 0.226626 116.297C0.406166 116.611 0.680227 116.861 1.00981 117.01C7.50981 119.71 27.6398 127.01 57.0098 127.36C57.2403 127.364 57.4692 127.322 57.6828 127.235C57.8965 127.148 58.0904 127.019 58.2529 126.856C58.4154 126.692 58.5432 126.498 58.6286 126.284C58.714 126.07 58.7552 125.84 58.7498 125.61C57.7498 78.19 59.9298 45.11 62.0698 43.25C64.2098 45.11 66.3898 78.19 65.3998 125.61C65.3944 125.84 65.4356 126.07 65.521 126.284C65.6064 126.498 65.7342 126.692 65.8967 126.856C66.0593 127.019 66.2532 127.148 66.4668 127.235C66.6804 127.322 66.9093 127.364 67.1398 127.36C96.4798 126.97 116.61 119.71 123.14 117.01C123.477 116.867 123.759 116.62 123.947 116.305C124.134 115.991 124.215 115.624 124.18 115.26Z" fill="url(#paint0_linear_95_211)"/>
<defs>
<linearGradient id="paint0_linear_95_211" x1="62.0898" y1="127.36" x2="62.0898" y2="0" gradientUnits="userSpaceOnUse">
<stop stop-color="#FFD97B"/>
<stop offset="0.21" stop-color="#FFD775"/>
<stop offset="0.47" stop-color="#FFD365"/>
<stop offset="0.77" stop-color="#FFCB4A"/>
<stop offset="1" stop-color="#FFC431"/>
</linearGradient>
</defs>
</svg>
