<svg width="96" height="62" viewBox="0 0 96 62" fill="none" xmlns="http://www.w3.org/2000/svg">
<path d="M90.4231 0C68.2931 9 53.2231 9.61 48.4731 9.53C48.4731 9.53 48.4731 9.53 48.4731 9.47H47.7331H47.0031C47.0031 9.47 47.0031 9.47 47.0031 9.53C42.2331 9.61 27.1631 9 5.00306 0C4.91306 0.57 1.49306 23.64 0.00306169 50.75C-0.0169091 51.0734 0.061167 51.3953 0.227091 51.6737C0.393015 51.952 0.639058 52.1738 0.933054 52.31C5.26078 54.3061 9.74185 55.9514 14.333 57.23C24.0848 59.8957 34.1346 61.317 44.2431 61.46C44.656 61.4749 45.0592 61.3324 45.371 61.0614C45.6829 60.7903 45.8803 60.411 45.9231 60C46.1431 56.42 46.2231 53.39 46.4931 50.85C47.0131 45.95 47.1531 43.01 47.7231 42.47C48.3031 43.01 48.4431 45.95 48.9631 50.85C49.2331 53.39 49.3131 56.42 49.5331 60C49.5612 60.4164 49.748 60.8062 50.055 61.089C50.362 61.3718 50.7657 61.5261 51.1831 61.52C61.2915 61.377 71.3413 59.9557 81.0931 57.29C85.6842 56.0114 90.1653 54.3661 94.493 52.37C94.787 52.2338 95.0331 52.012 95.199 51.7337C95.3649 51.4553 95.443 51.1334 95.4231 50.81C93.9331 23.65 90.5131 0.58 90.4231 0Z" fill="url(#paint0_linear_95_212)"/>
<defs>
<linearGradient id="paint0_linear_95_212" x1="47.7231" y1="61.48" x2="47.7231" y2="0" gradientUnits="userSpaceOnUse">
<stop stop-color="#FFD97B"/>
<stop offset="0.21" stop-color="#FFD775"/>
<stop offset="0.47" stop-color="#FFD365"/>
<stop offset="0.77" stop-color="#FFCB4A"/>
<stop offset="1" stop-color="#FFC431"/>
</linearGradient>
</defs>
</svg>
