<svg width="124" height="160" viewBox="0 0 124 160" fill="none" xmlns="http://www.w3.org/2000/svg">
<path d="M103.73 0C82 8.85 67.2 9.43 62.55 9.36V9.29L61.77 9.34L61 9.29V9.36C56.31 9.43 41.51 8.85 19.79 0C19.79 0 3.06 73.57 2.92505e-06 144.82C-0.0104986 145.018 0.0321897 145.215 0.123633 145.391C0.215077 145.567 0.351939 145.715 0.520003 145.82C4.21 148.19 26.29 161.36 57.87 159.15C58.1582 159.127 58.427 158.996 58.622 158.782C58.8169 158.569 58.9234 158.289 58.92 158C58.75 146.16 57.29 39.43 61.59 39.43H61.92C66.22 39.43 64.77 146.16 64.6 158C64.5954 158.281 64.695 158.554 64.8796 158.767C65.0642 158.979 65.3208 159.115 65.6 159.15C97.19 161.36 119.27 148.15 122.96 145.82C123.127 145.714 123.262 145.566 123.352 145.39C123.442 145.214 123.483 145.017 123.47 144.82C120.46 73.57 103.73 0 103.73 0Z" fill="url(#paint0_linear_95_210)"/>
<defs>
<linearGradient id="paint0_linear_95_210" x1="61.76" y1="159.4" x2="61.76" y2="0" gradientUnits="userSpaceOnUse">
<stop stop-color="#FFD97B"/>
<stop offset="0.21" stop-color="#FFD775"/>
<stop offset="0.47" stop-color="#FFD365"/>
<stop offset="0.77" stop-color="#FFCB4A"/>
<stop offset="1" stop-color="#FFC431"/>
</linearGradient>
</defs>
</svg>
