<svg width="123" height="128" viewBox="0 0 123 128" fill="none" xmlns="http://www.w3.org/2000/svg">
<path d="M103.39 0.176827L18.39 0.0268268C19.99 -1.46317 1.44003 59.3768 3.05176e-05 117.027C6.50003 119.737 26.63 127.027 56 127.387C56.231 127.39 56.4601 127.346 56.6738 127.258C56.8875 127.17 57.0813 127.04 57.2437 126.876C57.406 126.712 57.5337 126.517 57.619 126.302C57.7042 126.087 57.7454 125.858 57.74 125.627C56.88 84.7068 58.39 69.8668 60.19 61.1468C60.228 60.9425 60.3363 60.7579 60.4961 60.6251C60.6559 60.4923 60.8572 60.4195 61.065 60.4195C61.2728 60.4195 61.4741 60.4923 61.6339 60.6251C61.7937 60.7579 61.902 60.9425 61.94 61.1468C63.74 69.8668 65.25 84.7068 64.39 125.627C64.3846 125.858 64.4258 126.087 64.5111 126.302C64.5964 126.517 64.724 126.712 64.8864 126.876C65.0488 127.04 65.2426 127.17 65.4563 127.258C65.6699 127.346 65.8991 127.39 66.13 127.387C95.47 126.997 115.6 119.737 122.13 117.027C120.6 59.8268 101.87 -1.94317 103.39 0.176827Z" fill="url(#paint0_linear_127_323)"/>
<defs>
<linearGradient id="paint0_linear_127_323" x1="61.04" y1="127.387" x2="61.04" y2="-0.00317389" gradientUnits="userSpaceOnUse">
<stop stop-color="#FFD97B"/>
<stop offset="0.21" stop-color="#FFD775"/>
<stop offset="0.47" stop-color="#FFD365"/>
<stop offset="0.77" stop-color="#FFCB4A"/>
<stop offset="1" stop-color="#FFC431"/>
</linearGradient>
</defs>
</svg>
