<svg width="160" height="141" viewBox="0 0 160 141" fill="none" xmlns="http://www.w3.org/2000/svg">
<path d="M158.94 99.2251C158.73 100.515 157.65 101.945 156.01 103.375C155.75 103.605 155.47 103.835 155.17 104.075C153.407 105.426 151.522 106.611 149.54 107.615L148.63 108.075C146.801 108.971 144.917 109.752 142.99 110.415L141.99 110.735C139.934 111.417 137.813 111.886 135.66 112.135C135.31 112.135 134.97 112.195 134.66 112.205C133.129 112.37 131.583 112.085 130.21 111.385C128.51 110.495 127.88 107.875 126.59 102.595C128.31 102.964 130.082 103.018 131.82 102.755C132.15 102.755 132.49 102.675 132.82 102.625C134.952 102.264 137.052 101.736 139.1 101.045L140.05 100.725C141.976 100.055 143.862 99.2775 145.7 98.3951C146.01 98.2551 146.31 98.1151 146.61 97.9551C148.587 96.9862 150.492 95.8767 152.31 94.6351C152.6 94.4351 152.89 94.2351 153.17 94.0151C154.486 93.0902 155.682 92.0052 156.73 90.7851C158.51 94.9851 159.43 98.0851 158.94 99.2251Z" fill="url(#paint0_linear_95_215)"/>
<path d="M135.71 112.145C135.36 112.145 135.02 112.205 134.71 112.215L131.84 102.745C132.17 102.745 132.51 102.665 132.84 102.615L135.71 112.145Z" fill="#C10505"/>
<path d="M143 110.425L142 110.745L139.09 101.035L140.04 100.715L143 110.425Z" fill="#C10505"/>
<path d="M149.55 107.625L148.64 108.085L145.73 98.3851C146.04 98.2451 146.34 98.1051 146.64 97.9451L149.55 107.625Z" fill="#C10505"/>
<path d="M156.02 103.385C155.76 103.615 155.48 103.845 155.18 104.085L152.34 94.6251C152.63 94.4251 152.92 94.2251 153.2 94.0051L156.02 103.385Z" fill="#C10505"/>
<path d="M158.33 87.8551C157.13 95.1551 132.08 106.245 125.1 101.925C121.68 100.125 121.98 92.3151 115.57 72.8451C109.86 54.1351 99.7704 20.7551 118.67 15.6051V15.7151C122.38 17.4251 123.81 20.0351 128.27 26.5351C131.78 32.1151 160.84 82.0851 158.33 87.8551Z" fill="url(#paint1_linear_95_215)"/>
<path d="M0.130425 99.1051C0.340425 100.395 1.41042 101.825 3.06042 103.255C3.32042 103.485 3.5904 103.715 3.8904 103.955C5.65421 105.306 7.53887 106.491 9.52041 107.495L10.4304 107.955C12.2629 108.853 14.1499 109.634 16.0804 110.295L17.0304 110.615C19.0869 111.297 21.208 111.766 23.3604 112.015C23.7104 112.015 24.0604 112.075 24.3604 112.085C25.895 112.248 27.444 111.963 28.8204 111.265C30.5204 110.375 31.1504 107.755 32.4404 102.475C30.7211 102.844 28.9491 102.898 27.2104 102.635C26.8804 102.635 26.5504 102.555 26.2104 102.505C24.0789 102.144 21.9791 101.616 19.9304 100.925L18.9304 100.605C17.0047 99.9354 15.1184 99.1575 13.2804 98.2751C12.9704 98.1351 12.6704 97.9951 12.3704 97.8351C10.3945 96.8642 8.48975 95.7547 6.6704 94.5151C6.3804 94.3151 6.09043 94.1151 5.82043 93.8951C4.50009 92.9756 3.3036 91.89 2.26043 90.6651C0.57043 94.8551 -0.359575 97.9851 0.130425 99.1051Z" fill="url(#paint2_linear_95_215)"/>
<path d="M23.3604 111.985C23.7104 111.985 24.0604 112.045 24.3604 112.055L27.2104 102.585C26.8804 102.585 26.5504 102.505 26.2104 102.455L23.3604 111.985Z" fill="#C10505"/>
<path d="M16.0804 110.305L17.0304 110.625L19.9404 100.915L18.9404 100.595L16.0804 110.305Z" fill="#C10505"/>
<path d="M9.52039 107.505L10.4304 107.965L13.3404 98.2651C13.0304 98.1251 12.7304 97.9851 12.4304 97.8251L9.52039 107.505Z" fill="#C10505"/>
<path d="M3.06042 103.265C3.32042 103.495 3.59041 103.725 3.89041 103.965L6.73044 94.5051C6.44044 94.3051 6.15043 94.1051 5.88043 93.8851L3.06042 103.265Z" fill="#C10505"/>
<path d="M0.750401 87.8551C1.9504 95.1551 27.0004 106.245 33.9804 101.925C37.4004 100.125 37.1004 92.3151 43.5004 72.8451C49.2104 54.1351 59.3004 20.7551 40.4104 15.6051V15.7151C36.7004 17.4251 35.2704 20.0351 30.8104 26.5351C27.2904 32.1151 -1.7496 82.0851 0.750401 87.8551Z" fill="url(#paint3_linear_95_215)"/>
<path d="M116.46 123.985C107.32 127.195 96.6404 130.545 79.5204 130.315C62.4104 130.545 51.7204 127.195 42.5904 123.985C31.8904 120.225 33.5304 118.785 34.5904 113.485C35.6504 108.185 37.1004 103.755 39.8904 82.0851C42.6804 60.4151 40.4304 16.4551 40.3604 15.6251C40.2904 14.7951 42.5304 11.1851 50.0404 9.05507C50.8004 8.83507 51.7204 8.63507 52.7404 8.42507L53.8404 8.18507C56.3204 7.73507 59.3104 7.31507 62.3504 6.94507H69.4104C73.7904 9.47507 78.4104 11.9451 78.9404 12.2551C79.5104 11.9451 84.0904 9.46507 88.4704 6.94507H96.6804C99.6804 7.31507 102.68 7.73507 105.19 8.18507H105.41C106.8 8.45507 108.02 8.71507 109 8.99507C116.51 11.1251 118.75 14.7351 118.68 15.5651C118.61 16.3951 116.36 60.3451 119.15 82.0251C121.94 103.705 123.39 108.125 124.45 113.425C125.51 118.725 127.15 120.205 116.46 123.985Z" fill="url(#paint4_linear_95_215)"/>
<path d="M116.41 134.305L115.46 134.645L115.27 134.715C111.84 135.985 108.09 137.185 103.84 138.225L102.84 138.465C97.9115 139.617 92.8933 140.346 87.8404 140.645L86.8404 140.705C84.5204 140.825 82.0604 140.875 79.4404 140.845C76.3604 140.845 73.5004 140.845 70.8204 140.625L69.8204 140.555C65.052 140.211 60.3196 139.479 55.6703 138.365L54.6703 138.125C50.6203 137.125 47.0503 135.895 43.6703 134.715L42.2003 134.185L41.2003 133.825C33.5403 130.825 34.9404 129.245 35.8804 124.555C36.0804 123.555 36.3004 122.555 36.5404 121.495C38.4353 122.473 40.4048 123.299 42.4304 123.965L42.8004 124.095L43.8004 124.425C47.8388 125.847 51.9556 127.035 56.1304 127.985L57.1304 128.205C61.6049 129.159 66.144 129.781 70.7104 130.065L71.7104 130.125C74.1704 130.255 76.7704 130.315 79.5404 130.275C81.8504 130.275 84.0404 130.275 86.1304 130.185L87.1304 130.135C91.9671 129.892 96.778 129.276 101.52 128.295L102.52 128.085C106.35 127.223 110.129 126.151 113.84 124.875C114.17 124.765 114.49 124.655 114.84 124.535L116.5 123.965C118.528 123.301 120.498 122.471 122.39 121.485C122.63 122.565 122.85 123.545 123.05 124.555C124 129.485 125.49 130.985 116.41 134.305Z" fill="url(#paint5_linear_95_215)"/>
<path d="M43.9204 124.425L42.3104 134.185L41.3104 133.825L42.9104 124.095L43.9204 124.425Z" fill="#C10505"/>
<path d="M57.1104 128.225L55.7404 138.365L54.7404 138.125L56.1304 127.985L57.1104 128.225Z" fill="#C10505"/>
<path d="M71.6904 130.145L70.9004 140.625L69.9004 140.555L70.7004 130.085L71.6904 130.145Z" fill="#C10505"/>
<path d="M116.41 134.305L115.46 134.645L113.84 124.875C114.17 124.765 114.49 124.655 114.84 124.535L116.41 134.305Z" fill="#C10505"/>
<path d="M103.84 138.225L102.84 138.465L101.46 128.315L102.46 128.105L103.84 138.225Z" fill="#C10505"/>
<path d="M87.9203 140.645L86.9203 140.705L86.1104 130.205L87.1104 130.155L87.9203 140.645Z" fill="#C10505"/>
<path d="M74.4504 44.2051H69.2104C69.0963 44.2047 68.9839 44.178 68.8819 44.127C68.7799 44.076 68.6911 44.0021 68.6224 43.9111C68.5536 43.8201 68.5068 43.7144 68.4857 43.6024C68.4645 43.4903 68.4696 43.3749 68.5004 43.2651L70.0304 37.6951L70.7104 35.2451V14.5051L72.9504 14.9051V35.2451L73.6304 37.6951L75.1604 43.2651C75.1912 43.3749 75.1962 43.4903 75.1751 43.6024C75.1539 43.7144 75.1071 43.8201 75.0384 43.9111C74.9697 44.0021 74.8808 44.076 74.7788 44.127C74.6768 44.178 74.5644 44.2047 74.4504 44.2051Z" fill="url(#paint6_linear_95_215)"/>
<path d="M84.6304 44.2051H89.8404C89.9544 44.2047 90.0668 44.178 90.1688 44.127C90.2708 44.076 90.3597 44.0021 90.4284 43.9111C90.4971 43.8201 90.5439 43.7144 90.5651 43.6024C90.5862 43.4903 90.5812 43.3749 90.5503 43.2651L89.0203 37.6951L88.3404 35.2451V14.5051L86.1004 14.9051V35.2451L85.4203 37.6951L83.8903 43.2651C83.8587 43.3773 83.8541 43.4955 83.8769 43.6099C83.8996 43.7243 83.9491 43.8317 84.0212 43.9233C84.0934 44.015 84.1862 44.0883 84.292 44.1372C84.3979 44.1862 84.5138 44.2094 84.6304 44.2051Z" fill="url(#paint7_linear_95_215)"/>
<path d="M105.42 8.22507C103.222 9.70942 100.876 10.9627 98.4203 11.9651C92.2444 14.5551 85.668 16.0605 78.9804 16.4151C63.9804 15.5651 54.4203 9.52507 52.7703 8.41507L52.5104 8.23507C50.8004 3.51507 54.4604 2.09507 54.4604 2.09507C54.9304 -0.844934 59.2303 -0.434934 61.3603 1.74507L62.1904 2.43507C63.6704 3.54507 66.5103 5.25507 69.4503 6.95507C73.8303 9.48507 78.4504 11.9551 78.9804 12.2651C79.5504 11.9551 84.1304 9.47507 88.5104 6.95507C92.1704 4.84507 95.6803 2.70507 96.6103 1.74507C98.7303 -0.434934 103.04 -0.844934 103.51 2.09507C103.48 2.08507 107.13 3.50507 105.42 8.22507Z" fill="url(#paint8_linear_95_215)"/>
<path d="M111.11 112.775C106.89 123.535 54.7604 122.145 48.5804 114.195C47.1004 113.195 48.8004 108.315 48.5204 108.295C52.7804 102.135 56.8804 87.9251 58.1804 83.1651C58.2912 82.7595 58.5527 82.4116 58.9113 82.1923C59.27 81.973 59.6989 81.8989 60.1104 81.9851C73.0025 83.6651 86.0582 83.6651 98.9504 81.9851C99.3556 81.9123 99.7735 81.9928 100.123 82.2109C100.472 82.4289 100.728 82.769 100.84 83.1651C102.14 87.9251 106.24 102.165 110.5 108.295C110.54 108.295 110.9 110.985 111.11 112.775Z" fill="url(#paint9_linear_95_215)"/>
<defs>
<linearGradient id="paint0_linear_95_215" x1="142.84" y1="90.7751" x2="142.84" y2="112.225" gradientUnits="userSpaceOnUse">
<stop stop-color="#C10505"/>
<stop offset="0.35" stop-color="#C60505"/>
<stop offset="0.77" stop-color="#D50606"/>
<stop offset="1" stop-color="#E00707"/>
</linearGradient>
<linearGradient id="paint1_linear_95_215" x1="133.1" y1="15.6051" x2="133.1" y2="102.915" gradientUnits="userSpaceOnUse">
<stop stop-color="#FF4D4D"/>
<stop offset="0.21" stop-color="#F53636"/>
<stop offset="0.51" stop-color="#E91C1C"/>
<stop offset="0.79" stop-color="#E20D0D"/>
<stop offset="1" stop-color="#E00707"/>
</linearGradient>
<linearGradient id="paint2_linear_95_215" x1="16.2404" y1="90.6551" x2="16.2404" y2="112.115" gradientUnits="userSpaceOnUse">
<stop stop-color="#C10505"/>
<stop offset="0.35" stop-color="#C60505"/>
<stop offset="0.77" stop-color="#D50606"/>
<stop offset="1" stop-color="#E00707"/>
</linearGradient>
<linearGradient id="paint3_linear_95_215" x1="25.9804" y1="15.6051" x2="25.9804" y2="102.915" gradientUnits="userSpaceOnUse">
<stop stop-color="#FF4D4D"/>
<stop offset="0.21" stop-color="#F53636"/>
<stop offset="0.51" stop-color="#E91C1C"/>
<stop offset="0.79" stop-color="#E20D0D"/>
<stop offset="1" stop-color="#E00707"/>
</linearGradient>
<linearGradient id="paint4_linear_95_215" x1="79.5204" y1="6.94507" x2="79.5204" y2="130.305" gradientUnits="userSpaceOnUse">
<stop stop-color="#FF4D4D"/>
<stop offset="0.21" stop-color="#FC4646"/>
<stop offset="0.52" stop-color="#F33232"/>
<stop offset="0.9" stop-color="#E41111"/>
<stop offset="1" stop-color="#E00707"/>
</linearGradient>
<linearGradient id="paint5_linear_95_215" x1="79.5304" y1="121.485" x2="79.5304" y2="140.855" gradientUnits="userSpaceOnUse">
<stop stop-color="#C10505"/>
<stop offset="0.37" stop-color="#C50505"/>
<stop offset="0.71" stop-color="#D00606"/>
<stop offset="1" stop-color="#E00707"/>
</linearGradient>
<linearGradient id="paint6_linear_95_215" x1="71.8304" y1="14.5051" x2="71.8304" y2="44.2051" gradientUnits="userSpaceOnUse">
<stop offset="0.15" stop-color="#F7F7F7"/>
<stop offset="0.64" stop-color="#F5F5F5"/>
<stop offset="0.82" stop-color="#EEEEEE"/>
<stop offset="0.95" stop-color="#E3E3E3"/>
<stop offset="1" stop-color="#DBDBDB"/>
</linearGradient>
<linearGradient id="paint7_linear_95_215" x1="87.2504" y1="14.5051" x2="87.2504" y2="44.2051" gradientUnits="userSpaceOnUse">
<stop offset="0.15" stop-color="#F7F7F7"/>
<stop offset="0.64" stop-color="#F5F5F5"/>
<stop offset="0.82" stop-color="#EEEEEE"/>
<stop offset="0.95" stop-color="#E3E3E3"/>
<stop offset="1" stop-color="#DBDBDB"/>
</linearGradient>
<linearGradient id="paint8_linear_95_215" x1="78.9504" y1="16.4151" x2="78.9504" y2="-0.0149344" gradientUnits="userSpaceOnUse">
<stop stop-color="#FF4D4D"/>
<stop offset="0.26" stop-color="#F23030"/>
<stop offset="0.52" stop-color="#E81919"/>
<stop offset="0.78" stop-color="#E20C0C"/>
<stop offset="1" stop-color="#E00707"/>
</linearGradient>
<linearGradient id="paint9_linear_95_215" x1="79.5404" y1="81.9351" x2="79.5404" y2="120.505" gradientUnits="userSpaceOnUse">
<stop stop-color="#FF4D4D"/>
<stop offset="0.21" stop-color="#FD4848"/>
<stop offset="0.48" stop-color="#F63838"/>
<stop offset="0.78" stop-color="#EA1E1E"/>
<stop offset="1" stop-color="#E00707"/>
</linearGradient>
</defs>
</svg>
