<svg width="145" height="139" viewBox="0 0 145 139" fill="none" xmlns="http://www.w3.org/2000/svg">
<g id="mee-scale-wrapper" transform="translate(72.5, 69.5) scale(1.00694) translate(-72, -69)">
<path d="M72.9599 15.7375H70.0399L66.3099 19.4675L71.7299 24.8775L77.3899 19.2175L72.9599 15.7375Z" fill="url(#paint0_linear_126_275)"/>
<path d="M30 15.7076C30 15.7076 20.14 25.2276 0 56.8676C0 56.8676 8.47999 94.2476 32.68 94.4776L30 15.7076Z" fill="url(#paint1_linear_126_275)"/>
<path d="M113.58 15.7076C113.58 15.7076 123.44 25.2276 143.58 56.8676C143.58 56.8676 135.09 94.2476 110.9 94.4776L113.58 15.7076Z" fill="url(#paint2_linear_126_275)"/>
<path d="M34.0699 11.2375L33.7699 20.2375V21.4775L33.44 31.2575V32.3776L33.0699 40.9075V42.0175L32.83 49.2775V50.3675L32.55 58.7076V59.1975V59.7876L32.2699 68.2575V69.3475L32.0199 76.7775V77.8375L31.2899 99.6075C29.5999 99.8775 28.0599 91.1775 26.7599 79.5075C26.7599 79.1775 26.6899 78.8375 26.6499 78.5075C26.4199 76.3775 26.1999 74.1575 25.9899 71.8775C25.9899 71.5375 25.92 71.1975 25.89 70.8775C25.63 68.1375 25.39 65.3276 25.17 62.4976L25.08 61.4976C24.88 58.9176 24.69 56.3376 24.5 53.7876C24.5 53.4376 24.4499 53.0976 24.4299 52.7876C24.2699 50.5276 24.12 48.2976 23.97 46.1376L23.91 45.1376C23.73 42.3776 23.57 39.7475 23.42 37.3175C23.42 36.9509 23.4 36.5909 23.36 36.2376C23.2 33.5876 23.0699 31.2375 22.9599 29.1575C22.9599 28.7475 22.96 28.3575 22.89 27.9775C22.69 24.1275 22.58 21.7975 22.58 21.7975C29.83 12.7275 34.0699 11.2375 34.0699 11.2375Z" fill="url(#paint3_linear_126_275)"/>
<path d="M33.7699 20.2275V21.4675L22.7699 29.0375C22.7699 28.6275 22.77 28.2375 22.7 27.8575L33.7699 20.2275Z" fill="#C10505"/>
<path d="M33.3999 31.2476V32.3676L23.2599 37.1976C23.2599 36.8309 23.24 36.4709 23.2 36.1176L33.3999 31.2476Z" fill="#C10505"/>
<path d="M33.07 40.9076V42.0176L23.81 46.0176L23.75 45.0176L33.07 40.9076Z" fill="#C10505"/>
<path d="M32.7899 49.3076V50.3976L24.3399 53.7576C24.3399 53.4076 24.2899 53.0676 24.2699 52.7576L32.7899 49.3076Z" fill="#C10505"/>
<path d="M32.4699 58.7375V59.2275V59.8175L25.0099 62.4875L24.9199 61.4875L32.4699 58.7375Z" fill="#C10505"/>
<path d="M32.1499 68.2876V69.3776L25.7899 71.9076C25.7899 71.5676 25.7199 71.2276 25.6899 70.9076L32.1499 68.2876Z" fill="#C10505"/>
<path d="M31.86 76.8076V77.8676L26.6 79.5376C26.6 79.2076 26.53 78.8676 26.49 78.5376L31.86 76.8076Z" fill="#C10505"/>
<path d="M109.51 11.2375L109.81 20.2375V21.4775L110.14 31.2575V32.3776L110.43 40.9475V42.0576L110.67 49.3176V50.4075L110.95 58.7476V59.2375V59.8275L111.23 68.2975V69.3876L111.48 76.8176V77.8775L112.21 99.6475C113.9 99.9175 115.44 91.2175 116.74 79.5475C116.74 79.2175 116.81 78.8775 116.85 78.5475C117.08 76.4175 117.3 74.1975 117.51 71.9175C117.51 71.5775 117.58 71.2375 117.61 70.9175C117.87 68.1775 118.11 65.3676 118.33 62.5376L118.42 61.5376C118.62 58.9576 118.81 56.3775 119 53.8275C119 53.4775 119.05 53.1375 119.07 52.8275C119.23 50.5675 119.38 48.3376 119.53 46.1776L119.59 45.1776C119.77 42.4176 119.93 39.7875 120.08 37.3575L120.14 36.2775C120.3 33.6275 120.43 31.2775 120.54 29.1975C120.54 28.7875 120.54 28.3975 120.61 28.0175C120.81 24.1675 120.92 21.8375 120.92 21.8375C113.75 12.7275 109.51 11.2375 109.51 11.2375Z" fill="url(#paint4_linear_126_275)"/>
<path d="M109.81 20.2275V21.4675L120.81 29.0375C120.81 28.6275 120.81 28.2375 120.88 27.8575L109.81 20.2275Z" fill="#C10505"/>
<path d="M110.18 31.2476V32.3676L120.34 37.1976L120.4 36.1176L110.18 31.2476Z" fill="#C10505"/>
<path d="M110.51 40.9076V42.0176L119.77 46.0176L119.83 45.0176L110.51 40.9076Z" fill="#C10505"/>
<path d="M110.79 49.3076V50.3976L119.24 53.7576C119.24 53.4076 119.29 53.0676 119.31 52.7576L110.79 49.3076Z" fill="#C10505"/>
<path d="M111.11 58.7375V59.2275V59.8175L118.57 62.4875L118.66 61.4875L111.11 58.7375Z" fill="#C10505"/>
<path d="M111.43 68.2876V69.3776L117.79 71.9076C117.79 71.5676 117.86 71.2276 117.89 70.9076L111.43 68.2876Z" fill="#C10505"/>
<path d="M111.72 76.8076V77.8676L116.98 79.5376C116.98 79.2076 117.05 78.8676 117.09 78.5376L111.72 76.8076Z" fill="#C10505"/>
<path d="M114.53 119.088C113.29 119.799 111.971 120.362 110.6 120.768C109.419 121.128 108.258 121.548 107.12 122.028L106.91 122.108C106.6 122.248 106.28 122.378 105.96 122.498C102.264 123.873 98.4475 124.898 94.5599 125.558L93.5599 125.728C88.7742 126.519 83.9457 127.027 79.0999 127.248H78.0999C73.2999 127.448 68.3899 127.418 63.6199 127.148H62.6199C58.0461 126.879 53.4918 126.344 48.9799 125.548L47.9799 125.368C44.0268 124.662 40.1589 123.542 36.4399 122.028L35.7599 121.748C35.4399 121.614 35.1066 121.494 34.7599 121.388C34.1499 121.168 33.5399 120.958 32.9099 120.768C31.3425 120.315 29.8475 119.642 28.4699 118.768C22.8999 115.038 25.7999 109.388 27.0599 102.408C28.3399 92.9076 32.8399 30.9576 32.6399 12.9076C32.0899 11.3276 38.2499 7.07756 44.0599 5.80756C44.7204 5.66746 45.3881 5.56397 46.0599 5.49756C48.2599 5.08756 50.8499 4.71756 53.5299 4.37756C54.5875 6.35117 55.7908 8.24309 57.1299 10.0376V10.0976C57.5699 10.6842 58.0099 11.2442 58.4499 11.7776L58.4999 11.8376C65.0099 19.5976 71.3699 21.0476 71.7699 21.1276C72.1599 21.0476 78.5199 19.6076 85.0399 11.8376L85.0899 11.7776C85.5674 11.248 86.0084 10.6868 86.4099 10.0976V10.0376C87.7456 8.2462 88.9456 6.35762 89.9999 4.38756C92.6599 4.71756 95.2199 5.09756 97.3999 5.49756C98.073 5.55435 98.7413 5.65793 99.3999 5.80756C105.2 7.05756 111.4 11.4076 110.82 12.9076C110.61 31.0576 115.14 92.7376 116.35 102.408C117.76 109.598 120.79 115.368 114.53 119.088Z" fill="url(#paint5_linear_126_275)"/>
<path d="M108.34 130.908L107.39 131.248L107.2 131.318C103.72 132.538 100.02 133.788 95.7899 134.828L94.7899 135.068C89.861 136.219 84.8428 136.949 79.7899 137.248L78.7899 137.308C76.4699 137.428 74.0099 137.478 71.3899 137.448C68.3099 137.448 65.4499 137.448 62.7699 137.228L61.7699 137.158C57.0016 136.813 52.2692 136.081 47.6199 134.968L46.6199 134.728C42.6199 133.728 38.9999 132.498 35.6199 131.318L34.1499 130.788L33.1499 130.428C25.4899 127.428 26.8899 125.848 27.8299 121.158C28.0299 120.158 28.2499 119.158 28.4899 118.098C30.3849 119.075 32.3544 119.901 34.3799 120.568L34.7499 120.698L35.7499 121.028C39.7487 122.452 43.8253 123.647 47.9599 124.608L48.9599 124.828C53.4345 125.782 57.9736 126.403 62.5399 126.688L63.5399 126.748C65.9999 126.878 68.5999 126.938 71.3699 126.898C73.6799 126.898 75.8699 126.898 77.9599 126.808H78.9599C83.7967 126.564 88.6075 125.949 93.3499 124.968L94.3499 124.758C98.1896 123.89 101.979 122.812 105.7 121.528C106.03 121.418 106.35 121.308 106.7 121.188L108.36 120.618C110.388 119.953 112.358 119.124 114.25 118.138C114.49 119.218 114.71 120.198 114.91 121.208C115.96 126.128 117.45 127.608 108.34 130.908Z" fill="url(#paint6_linear_126_275)"/>
<path d="M35.8799 121.068L34.2699 130.828L33.2699 130.468L34.8699 120.738L35.8799 121.068Z" fill="#C10505"/>
<path d="M49.0699 124.908L47.7 135.048L46.7 134.808L48.0699 124.688L49.0699 124.908Z" fill="#C10505"/>
<path d="M63.65 126.788L62.86 137.268L61.86 137.198L62.66 126.728L63.65 126.788Z" fill="#C10505"/>
<path d="M108.34 130.908L107.39 131.248L105.77 121.478C106.1 121.368 106.42 121.258 106.77 121.138L108.34 130.908Z" fill="#C10505"/>
<path d="M95.8199 134.908L94.8199 135.148L93.4399 124.998L94.4399 124.788L95.8199 134.908Z" fill="#C10505"/>
<path d="M79.8799 137.288L78.8799 137.348L78.0699 126.848H79.0699L79.8799 137.288Z" fill="#C10505"/>
<path d="M99.5199 5.78759C98.7794 8.12852 97.8288 10.3977 96.6799 12.5676C96.5299 12.8476 96.3799 13.1476 96.2099 13.4376C94.4889 16.5611 92.3971 19.4655 89.9799 22.0876C89.7599 22.3276 89.5299 22.5776 89.2899 22.8176C86.8418 25.3616 84.0874 27.592 81.0899 29.4576C80.8099 29.6476 80.5199 29.8176 80.2299 29.9976C77.7229 31.4914 75.0813 32.7469 72.3399 33.7476L71.8199 33.9476H71.7399L71.3399 33.7976C68.5582 32.7888 65.8794 31.5163 63.3399 29.9976L62.4799 29.4676C59.4861 27.593 56.7324 25.3598 54.2799 22.8176L53.5899 22.0876C51.1711 19.4731 49.0729 16.5793 47.3399 13.4676C47.1699 13.1676 47.0199 12.8776 46.8699 12.5876C45.7214 10.421 44.7709 8.15513 44.0299 5.81759C44.6504 5.68666 45.2782 5.59316 45.9099 5.53759C48.1299 5.12759 50.7399 4.74759 53.4499 4.40759H53.5199C54.1799 5.63759 54.8599 6.77759 55.5199 7.82759C55.7099 8.10759 55.8899 8.38759 56.0799 8.65759C56.4099 9.14759 56.7499 9.65759 57.0799 10.0676V10.1276C57.5199 10.7143 57.9599 11.2743 58.3999 11.8076L58.4499 11.8676C59.0999 12.6476 59.7599 13.3676 60.3999 14.0176C60.6399 14.2676 60.8699 14.4976 61.1099 14.7176C62.8504 16.4182 64.7952 17.8962 66.8999 19.1176C67.1999 19.2976 67.4999 19.4576 67.7799 19.5976C68.8938 20.1996 70.0666 20.6855 71.2799 21.0476L71.7199 21.1576C71.9096 21.1198 72.0967 21.0697 72.2799 21.0076C73.4283 20.6637 74.5403 20.2082 75.5999 19.6476L76.4799 19.1676C78.5862 17.9356 80.5369 16.455 82.2899 14.7576C82.5199 14.5376 82.7599 14.2976 82.9999 14.0476C83.6599 13.3876 84.3199 12.6676 84.9999 11.8676L85.0499 11.8076C85.5274 11.2781 85.9684 10.7168 86.3699 10.1276V10.0676C86.7032 9.62759 87.0366 9.16759 87.3699 8.68759C87.5599 8.41759 87.7399 8.13759 87.9299 7.85759C88.6199 6.79759 89.2999 5.64759 89.9299 4.41759C92.6399 4.75759 95.2499 5.13759 97.4699 5.54759C98.1577 5.58288 98.8425 5.66305 99.5199 5.78759Z" fill="url(#paint7_linear_126_275)"/>
<path d="M56.13 8.62761L47.34 13.4676C47.17 13.1676 47.02 12.8776 46.87 12.5876L55.54 7.79761C55.76 8.07761 55.94 8.35761 56.13 8.62761Z" fill="#C10505"/>
<path d="M61.21 14.6875L54.28 22.8475L53.59 22.1175L60.5 13.9875C60.74 14.2375 60.97 14.4675 61.21 14.6875Z" fill="#C10505"/>
<path d="M67.88 19.5676L63.34 30.0276L62.48 29.4976L67 19.0876C67.34 19.2676 67.6 19.4276 67.88 19.5676Z" fill="#C10505"/>
<path d="M72.34 20.9775V33.7475L71.82 33.9475H71.74L71.34 33.7975V21.0175L71.78 21.1275C71.9697 21.0898 72.1568 21.0397 72.34 20.9775Z" fill="#C10505"/>
<path d="M96.67 12.5976C96.52 12.8776 96.37 13.1776 96.2 13.4676L87.49 8.65764C87.68 8.38764 87.86 8.10764 88.05 7.82764L96.67 12.5976Z" fill="#C10505"/>
<path d="M89.97 22.1176C89.75 22.3576 89.52 22.6076 89.28 22.8476L82.39 14.7276C82.62 14.5076 82.86 14.2676 83.1 14.0176L89.97 22.1176Z" fill="#C10505"/>
<path d="M81.08 29.4876C80.8 29.6776 80.51 29.8476 80.22 30.0276L75.7 19.6176L76.58 19.1376L81.08 29.4876Z" fill="#C10505"/>
<path d="M90.02 2.10756C86.61 1.25756 85.23 0.507562 84.68 0.107562C84.6312 0.0699284 84.5748 0.0434731 84.5147 0.0300698C84.4546 0.0166665 84.3923 0.0166431 84.3322 0.0300014C84.2721 0.0433596 84.2156 0.0697728 84.1669 0.10737C84.1181 0.144966 84.0782 0.192827 84.05 0.247562C80.923 5.88618 76.8231 10.9272 71.94 15.1376C71.8725 15.1978 71.8268 15.2786 71.81 15.3676C71.7939 15.276 71.7439 15.1939 71.67 15.1376C66.7922 10.9168 62.6963 5.86969 59.57 0.227562C59.5418 0.172827 59.5019 0.124966 59.4531 0.0873695C59.4043 0.0497727 59.3479 0.0233597 59.2878 0.0100014C59.2277 -0.00335687 59.1653 -0.00333346 59.1052 0.0100698C59.0451 0.0234731 58.9887 0.0499283 58.94 0.0875617C58.39 0.507562 57.01 1.25756 53.6 2.08756C53.5083 2.10626 53.426 2.15653 53.3676 2.22962C53.3091 2.30271 53.2781 2.39398 53.28 2.48756C53.33 4.73756 53.71 18.1176 55.28 27.9176C55.293 27.9896 55.3246 28.057 55.3717 28.1131C55.4187 28.1692 55.4797 28.212 55.5484 28.2373C55.6171 28.2625 55.6913 28.2694 55.7635 28.2572C55.8357 28.2449 55.9034 28.2141 55.96 28.1676C58.54 26.2376 69.21 18.1676 71.67 15.7076C71.6542 15.6886 71.6442 15.6655 71.641 15.641C71.6379 15.6165 71.6418 15.5916 71.6523 15.5693C71.6628 15.5469 71.6794 15.528 71.7003 15.5148C71.7211 15.5015 71.7453 15.4945 71.77 15.4945C71.7947 15.4945 71.8189 15.5015 71.8397 15.5148C71.8605 15.528 71.8772 15.5469 71.8877 15.5693C71.8982 15.5916 71.9021 15.6165 71.8989 15.641C71.8958 15.6655 71.8858 15.6886 71.87 15.7076C74.34 18.2076 85.04 26.2576 87.62 28.1876C87.6775 28.2464 87.7511 28.287 87.8315 28.3044C87.912 28.3218 87.9957 28.3151 88.0724 28.2853C88.1491 28.2555 88.2154 28.2038 88.2629 28.1366C88.3105 28.0695 88.3373 27.9898 88.34 27.9076C89.95 18.1076 90.34 4.72756 90.34 2.47756C90.3351 2.38917 90.301 2.3049 90.2431 2.23794C90.1852 2.17099 90.1067 2.12513 90.02 2.10756Z" fill="url(#paint8_linear_126_275)"/>
<defs>
<linearGradient id="paint0_linear_126_275" x1="71.8499" y1="24.8775" x2="71.8499" y2="15.7375" gradientUnits="userSpaceOnUse">
<stop offset="0.36" stop-color="#F7F7F7"/>
<stop offset="1" stop-color="#D3E2EA"/>
</linearGradient>
<linearGradient id="paint1_linear_126_275" x1="16.3" y1="15.7076" x2="16.3" y2="94.4776" gradientUnits="userSpaceOnUse">
<stop offset="0.36" stop-color="#F7F7F7"/>
<stop offset="1" stop-color="#D3E2EA"/>
</linearGradient>
<linearGradient id="paint2_linear_126_275" x1="127.28" y1="15.7076" x2="127.28" y2="94.4776" gradientUnits="userSpaceOnUse">
<stop offset="0.36" stop-color="#F7F7F7"/>
<stop offset="1" stop-color="#D3E2EA"/>
</linearGradient>
<linearGradient id="paint3_linear_126_275" x1="34.0699" y1="55.4375" x2="22.38" y2="55.4375" gradientUnits="userSpaceOnUse">
<stop stop-color="#C10505"/>
<stop offset="0.08" stop-color="#C90606"/>
<stop offset="0.26" stop-color="#D60606"/>
<stop offset="0.5" stop-color="#DE0707"/>
<stop offset="1" stop-color="#E00707"/>
</linearGradient>
<linearGradient id="paint4_linear_126_275" x1="109.51" y1="55.4375" x2="121.2" y2="55.4375" gradientUnits="userSpaceOnUse">
<stop stop-color="#C10505"/>
<stop offset="0.08" stop-color="#C90606"/>
<stop offset="0.26" stop-color="#D60606"/>
<stop offset="0.5" stop-color="#DE0707"/>
<stop offset="1" stop-color="#E00707"/>
</linearGradient>
<linearGradient id="paint5_linear_126_275" x1="71.7899" y1="4.36756" x2="71.7899" y2="127.428" gradientUnits="userSpaceOnUse">
<stop stop-color="#FF4D4D"/>
<stop offset="0.48" stop-color="#FE4B4B"/>
<stop offset="0.66" stop-color="#FB4444"/>
<stop offset="0.78" stop-color="#F63939"/>
<stop offset="0.88" stop-color="#EE2828"/>
<stop offset="0.97" stop-color="#E51212"/>
<stop offset="1" stop-color="#E00707"/>
</linearGradient>
<linearGradient id="paint6_linear_126_275" x1="71.4799" y1="118.128" x2="71.4799" y2="137.498" gradientUnits="userSpaceOnUse">
<stop stop-color="#C10505"/>
<stop offset="0.37" stop-color="#C50505"/>
<stop offset="0.71" stop-color="#D00606"/>
<stop offset="1" stop-color="#E00707"/>
</linearGradient>
<linearGradient id="paint7_linear_126_275" x1="71.7899" y1="4.36759" x2="71.7899" y2="33.9776" gradientUnits="userSpaceOnUse">
<stop stop-color="#C10505"/>
<stop offset="0.59" stop-color="#D70606"/>
<stop offset="1" stop-color="#E00707"/>
</linearGradient>
<linearGradient id="paint8_linear_126_275" x1="71.81" y1="-0.00243823" x2="71.81" y2="28.2776" gradientUnits="userSpaceOnUse">
<stop offset="0.36" stop-color="#F7F7F7"/>
<stop offset="0.57" stop-color="#F2F4F5"/>
<stop offset="0.8" stop-color="#E5ECF0"/>
<stop offset="1" stop-color="#D3E2EA"/>
</linearGradient>
</defs>
</g>
</svg>
