<svg xmlns="http://www.w3.org/2000/svg" viewBox="0 0 76.02 116.33">
  <g id="Layer_2" data-name="Layer 2">
    <g id="Layer_1-2" data-name="Layer 1">
      <path d="M23.89,29.32c1.48,0,2.44-1.26,1.75-2.31-2.37-3.61-7.09-6.08-12.51-6.08S3,23.4.61,27c-.69,1,.28,2.31,1.75,2.31h.18a2.1,2.1,0,0,0,1.75-.86,10.63,10.63,0,0,1,8.84-4.23A10.61,10.61,0,0,1,22,28.46a2.1,2.1,0,0,0,1.75.86Z" />
      <path d="M71.24,29.32c1.48,0,2.44-1.26,1.75-2.31-2.37-3.61-7.09-6.08-12.51-6.08S50.34,23.4,48,27c-.69,1,.28,2.31,1.75,2.31h.18a2.13,2.13,0,0,0,1.76-.86,10.6,10.6,0,0,1,8.83-4.23,10.6,10.6,0,0,1,8.83,4.23,2.13,2.13,0,0,0,1.76.86Z" />
    </g>
  </g>
</svg>
