<svg xmlns="http://www.w3.org/2000/svg" viewBox="0 0 76.02 116.33">
  <g id="Layer_2" data-name="Layer 2">
    <g id="Layer_1-2" data-name="Layer 1">
      <path d="M23,72.9a2.12,2.12,0,0,0-1.41,1.37A10.58,10.58,0,0,1,14.46,81a10.6,10.6,0,0,1-9.71-1.3,2.14,2.14,0,0,0-1.94-.28l-.16.06c-1.41.45-1.94,2-1,2.74,3.38,2.7,8.63,3.59,13.78,1.92s8.89-5.47,10-9.64c.34-1.21-1-2.12-2.38-1.67Z" />
      <path d="M51.55,72.84c-1.41-.45-2.72.46-2.38,1.67,1.14,4.17,4.87,8,10,9.64s10.4.78,13.78-1.92c1-.79.45-2.29-1-2.74l-.17-.06a2.14,2.14,0,0,0-1.94.28A10.6,10.6,0,0,1,60.21,81a10.58,10.58,0,0,1-7.09-6.74,2.13,2.13,0,0,0-1.4-1.37Z" />
    </g>
  </g>
</svg>
