<svg xmlns="http://www.w3.org/2000/svg" viewBox="0 0 76.02 116.33"><g id="Layer_2" data-name="Layer 2"><g id="Layer_1-2" data-name="Layer 1"><ellipse cx="52.68" cy="44.31" rx="7.55" ry="3.95" transform="translate(-14.67 30.06) rotate(-28.12)"/><ellipse cx="19.2" cy="44.31" rx="3.95" ry="7.55" transform="translate(-28.93 40.35) rotate(-61.88)"/><rect x="4.61" y="1.94" width="18.96" height="5.54" rx="2.77" transform="translate(1.96 -3.86) rotate(16.76)"/><rect x="54.04" y="1.94" width="18.96" height="5.54" rx="2.77" transform="translate(125.69 -9.11) rotate(163.24)"/><rect x="3.53" y="59.13" width="18.96" height="5.54" rx="2.77" transform="translate(-17.3 6.38) rotate(-16.76)"/><rect x="52.96" y="59.13" width="18.96" height="5.54" rx="2.77" transform="translate(104.37 139.17) rotate(-163.24)"/><path d="M23.89,29.32c1.48,0,2.44-1.26,1.75-2.31-2.37-3.61-7.09-6.08-12.51-6.08S3,23.4.61,27c-.69,1,.28,2.31,1.75,2.31h.18a2.1,2.1,0,0,0,1.75-.86,10.63,10.63,0,0,1,8.84-4.23A10.61,10.61,0,0,1,22,28.46a2.1,2.1,0,0,0,1.75.86Z"/><path d="M71.24,29.32c1.48,0,2.44-1.26,1.75-2.31-2.37-3.61-7.09-6.08-12.51-6.08S50.34,23.4,48,27c-.69,1,.28,2.31,1.75,2.31h.18a2.13,2.13,0,0,0,1.76-.86,10.6,10.6,0,0,1,8.83-4.23,10.6,10.6,0,0,1,8.83,4.23,2.13,2.13,0,0,0,1.76.86Z"/><path d="M51.55,72.84c-1.41-.45-2.72.46-2.38,1.67,1.14,4.17,4.87,8,10,9.64s10.4.78,13.78-1.92c1-.79.45-2.29-1-2.74l-.17-.06a2.14,2.14,0,0,0-1.94.28A10.6,10.6,0,0,1,60.21,81a10.58,10.58,0,0,1-7.09-6.74,2.13,2.13,0,0,0-1.4-1.37Z"/><path d="M23,72.9a2.12,2.12,0,0,0-1.41,1.37A10.58,10.58,0,0,1,14.46,81a10.6,10.6,0,0,1-9.71-1.3,2.14,2.14,0,0,0-1.94-.28l-.16.06c-1.41.45-1.94,2-1,2.74,3.38,2.7,8.63,3.59,13.78,1.92s8.89-5.47,10-9.64c.34-1.21-1-2.12-2.38-1.67Z"/><path d="M25.54,101.81.8,99.14A1,1,0,0,1,0,98l.55-5.13a1,1,0,0,1,1.18-1l24.19,7.8a1.08,1.08,0,0,1,.6,1.31h0A1,1,0,0,1,25.54,101.81Z"/><path d="M50.33,101.81l24.74-2.67A1,1,0,0,0,75.86,98l-.55-5.13a1,1,0,0,0-1.18-1L50,99.68a1.08,1.08,0,0,0-.61,1.31h0A1,1,0,0,0,50.33,101.81Z"/><path d="M26.56,116.33H3.17a2,2,0,0,1,0-4H26.56a2,2,0,0,1,0,4Z"/><path d="M74,116.33H50.63a2,2,0,0,1,0-4H74a2,2,0,0,1,0,4Z"/></g></g></svg>