<svg xmlns="http://www.w3.org/2000/svg" viewBox="0 0 76.04 30"><g transform="translate(0.0000, 0.0000)"><g transform="translate(0.0000, -18.0550)"><g id="Layer_2" data-name="Layer 2">
    <g id="Layer_1-2" data-name="Layer 1">
      <rect x="3.87" y="22.36" width="18.96" height="21.39" rx="9.48" fill="#0fa53a"/>
      <path fill="#ffffff" d="M13.35,41.53h0a8.48,8.48,0,0,0-8.48-8.48h0a8.48,8.48,0,0,0,8.48-8.48h0a8.49,8.49,0,0,0,8.49,8.48h0A8.49,8.49,0,0,0,13.35,41.53Z"/>
      <rect x="53.21" y="22.36" width="18.96" height="21.39" rx="9.48" fill="#0fa53a"/>
      <path fill="#ffffff" d="M62.69,41.53h0a8.48,8.48,0,0,0-8.48-8.48h0a8.48,8.48,0,0,0,8.48-8.48h0a8.49,8.49,0,0,0,8.49,8.48h0A8.49,8.49,0,0,0,62.69,41.53Z"/>
    </g>
  </g></g></g></svg>