<svg xmlns="http://www.w3.org/2000/svg" viewBox="0 0 76.04 259.05"><defs><style>.cls-1{fill:#fff;}.cls-2{fill:none;stroke:#000;stroke-miterlimit:10;stroke-width:1.17px;}</style></defs><g id="Layer_2" data-name="Layer 2"><g id="Layer_1-2" data-name="Layer 1"><ellipse cx="12.34" cy="62.64" rx="4.74" ry="8.71"/><ellipse cx="63.7" cy="62.64" rx="4.74" ry="8.71"/><rect x="3.87" y="22.36" width="18.96" height="21.39" rx="9.48"/><rect x="53.21" y="22.36" width="18.96" height="21.39" rx="9.48"/><path class="cls-1" d="M13.35,41.53h0a8.48,8.48,0,0,0-8.48-8.48h0a8.48,8.48,0,0,0,8.48-8.48h0a8.49,8.49,0,0,0,8.49,8.48h0A8.49,8.49,0,0,0,13.35,41.53Z"/><path class="cls-1" d="M62.69,41.53h0a8.48,8.48,0,0,0-8.48-8.48h0a8.48,8.48,0,0,0,8.48-8.48h0a8.49,8.49,0,0,0,8.49,8.48h0A8.49,8.49,0,0,0,62.69,41.53Z"/><rect x="3.86" y="85.78" width="18.96" height="7.8" rx="3.9"/><rect x="53.23" y="85.78" width="18.96" height="7.8" rx="3.9"/><path d="M53.41,208.12c0-.1,0-.2,0-.31a2.73,2.73,0,0,1,.1-.48v0a2.77,2.77,0,0,1,1.86-1.87l12.84-3.87a2.77,2.77,0,1,1,1.6,5.3l-6.46,1.95L69.3,212a2.77,2.77,0,1,1-2.62,4.88l-11.82-6.35a2.76,2.76,0,0,1-1.45-2.19A1.62,1.62,0,0,1,53.41,208.12Z"/><path d="M22.63,208.12a1.6,1.6,0,0,0,0-.31,2.7,2.7,0,0,0-.09-.48,0,0,0,0,1,0,0,2.77,2.77,0,0,0-1.85-1.87L7.83,201.56a2.77,2.77,0,1,0-1.6,5.3l6.46,1.95L6.75,212a2.77,2.77,0,1,0,2.62,4.88l11.82-6.35a2.75,2.75,0,0,0,1.44-2.19A1.62,1.62,0,0,0,22.63,208.12Z"/><rect x="3.83" y="183.5" width="18.96" height="5.54" rx="2.77" transform="translate(54.28 4.08) rotate(16.76)"/><rect x="53.26" y="183.5" width="18.96" height="5.54" rx="2.77" transform="matrix(-0.96, 0.29, -0.29, -0.96, 176.52, 346.54)"/><rect x="3.83" y="226.3" width="18.96" height="5.54" rx="2.77" transform="translate(-65.5 13.57) rotate(-16.76)"/><rect x="53.26" y="226.3" width="18.96" height="5.54" rx="2.77" transform="translate(56.74 466.51) rotate(-163.24)"/><path d="M25.11,120.28a2.13,2.13,0,0,0,1.75-3.11A14.06,14.06,0,0,0,14.35,109a14.08,14.08,0,0,0-12.52,8.15,2.13,2.13,0,0,0,1.75,3.11h.18a2,2,0,0,0,1.75-1.17,10,10,0,0,1,8.84-5.67,10,10,0,0,1,8.83,5.67,2,2,0,0,0,1.75,1.17Z"/><path d="M72.46,120.28a2.13,2.13,0,0,0,1.75-3.11,13.68,13.68,0,0,0-25,0,2.13,2.13,0,0,0,1.75,3.11h.18a2,2,0,0,0,1.76-1.17,9.71,9.71,0,0,1,17.66,0,2,2,0,0,0,1.76,1.17Z"/><path d="M24.13,162H24a1.81,1.81,0,0,0-1.57,1,8.92,8.92,0,0,1-7.9,5.08,9,9,0,0,1-7.9-5.08A1.8,1.8,0,0,0,5,162H4.87a1.9,1.9,0,0,0-1.56,2.78A11,11,0,0,0,4,166l-2.53,1a1.33,1.33,0,0,0-.75,1.72,1.34,1.34,0,0,0,1,.83,1.35,1.35,0,0,0,.74-.07l3.25-1.26a12.14,12.14,0,0,0,8.82,3.89,12.61,12.61,0,0,0,11.2-7.3A1.91,1.91,0,0,0,24.13,162Z"/><path d="M74.58,167l-2.52-1c.24-.39.47-.79.68-1.21A1.91,1.91,0,0,0,71.17,162H71a1.81,1.81,0,0,0-1.57,1,8.68,8.68,0,0,1-15.8,0,1.81,1.81,0,0,0-1.57-1h-.16a1.9,1.9,0,0,0-1.56,2.78,12.59,12.59,0,0,0,11.19,7.3,12.18,12.18,0,0,0,8.83-3.89l3.24,1.26a1.33,1.33,0,0,0,1.73-.76A1.34,1.34,0,0,0,74.58,167Z"/><rect x="8" width="14.45" height="16.3" rx="7.23"/><rect x="53.59" width="14.45" height="16.3" rx="7.23" transform="translate(121.64 16.3) rotate(-180)"/><rect x="9.61" y="135.06" width="14.45" height="16.3" rx="7.23"/><path d="M24.74,142.89a1.92,1.92,0,0,0,1.84-2.79,15.12,15.12,0,0,0-13.17-7.31A15.12,15.12,0,0,0,.24,140.1a1.92,1.92,0,0,0,1.84,2.79h.19a2.13,2.13,0,0,0,1.84-1,10.76,10.76,0,0,1,9.3-5.09,10.76,10.76,0,0,1,9.3,5.09,2.13,2.13,0,0,0,1.84,1Z"/><path d="M2.94,148.75a.92.92,0,0,1-.8-.44A.94.94,0,0,1,2.43,147l2.18-1.39a1,1,0,0,1,1.32.3,1,1,0,0,1-.3,1.31L3.45,148.6A1,1,0,0,1,2.94,148.75Z"/><path d="M6,151.41a.94.94,0,0,1-.89-.2,1,1,0,0,1-.08-1.35l1.72-1.93a1,1,0,0,1,1.35-.07,1,1,0,0,1,.07,1.34l-1.72,1.93A.93.93,0,0,1,6,151.41Z"/><rect x="51.99" y="135.06" width="14.45" height="16.3" rx="7.23" transform="translate(118.43 286.42) rotate(180)"/><path d="M51.49,142.89a2.15,2.15,0,0,0,1.85-1,11,11,0,0,1,18.59,0,2.14,2.14,0,0,0,1.85,1H74a1.92,1.92,0,0,0,1.84-2.79,15.52,15.52,0,0,0-26.34,0,1.92,1.92,0,0,0,1.84,2.79Z"/><path d="M73.1,148.75a.95.95,0,0,0,.51-1.75l-2.18-1.39a1,1,0,0,0-1,1.61l2.18,1.38A1,1,0,0,0,73.1,148.75Z"/><path d="M70,151.41a.95.95,0,0,0,1-1.55l-1.72-1.93a1,1,0,0,0-1.42,1.27l1.72,1.93A1,1,0,0,0,70,151.41Z"/><path class="cls-1" d="M27.49,249.49a13.62,13.62,0,1,1-25.33-9.85l6.36,2.49L21.11,247Z"/><path d="M21.11,247a6.81,6.81,0,0,1-13.44-1.58,6.67,6.67,0,0,1,.85-3.3Z"/><polyline class="cls-2" points="27.49 249.49 21.11 247.01 8.52 242.13 2.16 239.64"/><path class="cls-1" d="M48.56,249.49a13.62,13.62,0,1,0,25.33-9.85l-6.36,2.49L54.93,247Z"/><path d="M54.93,247a6.82,6.82,0,1,0,12.6-4.88Z"/><polyline class="cls-2" points="73.89 239.64 67.53 242.13 54.93 247.01 48.56 249.49"/></g></g></svg>