<svg xmlns="http://www.w3.org/2000/svg" viewBox="0 0 76.04 30"><defs>
    <style>
      .cls-1{fill:#fff;}
      .cls-2{fill:none;stroke:#000;stroke-miterlimit:10;stroke-width:1.17px;}
    </style>
  </defs><g transform="translate(-0.0000, -0.0000)"><g transform="translate(-0.0200, -127.1249)"><g id="Layer_2" data-name="Layer 2">
    <g id="Layer_1-2" data-name="Layer 1">
      <path d="M2.94,148.75a.92.92,0,0,1-.8-.44A.94.94,0,0,1,2.43,147l2.18-1.39a1,1,0,0,1,1.32.3,1,1,0,0,1-.3,1.31L3.45,148.6A1,1,0,0,1,2.94,148.75Z"/>
      <path d="M6,151.41a.94.94,0,0,1-.89-.2,1,1,0,0,1-.08-1.35l1.72-1.93a1,1,0,0,1,1.35-.07,1,1,0,0,1,.07,1.34l-1.72,1.93A.93.93,0,0,1,6,151.41Z"/>
      <rect x="9.61" y="135.06" width="14.45" height="16.3" rx="7.23"/>
      <path d="M24.74,142.89a1.92,1.92,0,0,0,1.84-2.79,15.12,15.12,0,0,0-13.17-7.31A15.12,15.12,0,0,0,.24,140.1a1.92,1.92,0,0,0,1.84,2.79h.19a2.13,2.13,0,0,0,1.84-1,10.76,10.76,0,0,1,9.3-5.09,10.76,10.76,0,0,1,9.3,5.09,2.13,2.13,0,0,0,1.84,1Z"/>
      <rect x="51.99" y="135.06" width="14.45" height="16.3" rx="7.23" transform="translate(118.43 286.42) rotate(180)"/>
      <path d="M51.49,142.89a2.15,2.15,0,0,0,1.85-1,11,11,0,0,1,18.59,0,2.14,2.14,0,0,0,1.85,1H74a1.92,1.92,0,0,0,1.84-2.79,15.52,15.52,0,0,0-26.34,0,1.92,1.92,0,0,0,1.84,2.79Z"/>
      <path d="M70,151.41a.95.95,0,0,0,1-1.55l-1.72-1.93a1,1,0,0,0-1.42,1.27l1.72,1.93A1,1,0,0,0,70,151.41Z"/>
      <path d="M73.1,148.75a.95.95,0,0,0,.51-1.75l-2.18-1.39a1,1,0,0,0-1,1.61l2.18,1.38A1,1,0,0,0,73.1,148.75Z"/>
    </g>
  </g></g></g></svg>