<svg xmlns="http://www.w3.org/2000/svg" viewBox="0 0 76.04 259.05">
  <defs>
    <style>
      .cls-1{fill:#fff;}
      .cls-2{fill:none;stroke:#000;stroke-miterlimit:10;stroke-width:1.17px;}
    </style>
  </defs>
  <g id="Layer_2" data-name="Layer 2">
    <g id="Layer_1-2" data-name="Layer 1">
      <path d="M22.63,208.12a1.6,1.6,0,0,0,0-.31,2.7,2.7,0,0,0-.09-.48,0,0,0,0,1,0,0,2.77,2.77,0,0,0-1.85-1.87L7.83,201.56a2.77,2.77,0,1,0-1.6,5.3l6.46,1.95L6.75,212a2.77,2.77,0,1,0,2.62,4.88l11.82-6.35a2.75,2.75,0,0,0,1.44-2.19A1.62,1.62,0,0,0,22.63,208.12Z" />
      <path d="M53.41,208.12c0-.1,0-.2,0-.31a2.73,2.73,0,0,1,.1-.48v0a2.77,2.77,0,0,1,1.86-1.87l12.84-3.87a2.77,2.77,0,1,1,1.6,5.3l-6.46,1.95L69.3,212a2.77,2.77,0,1,1-2.62,4.88l-11.82-6.35a2.76,2.76,0,0,1-1.45-2.19A1.62,1.62,0,0,1,53.41,208.12Z" />
    </g>
  </g>
</svg>
