<svg xmlns="http://www.w3.org/2000/svg" viewBox="0 0 76.04 259.05">
  <defs>
    <style>
      .cls-1{fill:#fff;}
      .cls-2{fill:none;stroke:#000;stroke-miterlimit:10;stroke-width:1.17px;}
    </style>
  </defs>
  <g id="Layer_2" data-name="Layer 2">
    <g id="Layer_1-2" data-name="Layer 1">
      <path d="M24.13,162H24a1.81,1.81,0,0,0-1.57,1,8.92,8.92,0,0,1-7.9,5.08,9,9,0,0,1-7.9-5.08A1.8,1.8,0,0,0,5,162H4.87a1.9,1.9,0,0,0-1.56,2.78A11,11,0,0,0,4,166l-2.53,1a1.33,1.33,0,0,0-.75,1.72,1.34,1.34,0,0,0,1,.83,1.35,1.35,0,0,0,.74-.07l3.25-1.26a12.14,12.14,0,0,0,8.82,3.89,12.61,12.61,0,0,0,11.2-7.3A1.91,1.91,0,0,0,24.13,162Z" />
      <path d="M74.58,167l-2.52-1c.24-.39.47-.79.68-1.21A1.91,1.91,0,0,0,71.17,162H71a1.81,1.81,0,0,0-1.57,1,8.68,8.68,0,0,1-15.8,0,1.81,1.81,0,0,0-1.57-1h-.16a1.9,1.9,0,0,0-1.56,2.78,12.59,12.59,0,0,0,11.19,7.3,12.18,12.18,0,0,0,8.83-3.89l3.24,1.26a1.33,1.33,0,0,0,1.73-.76A1.34,1.34,0,0,0,74.58,167Z" />
    </g>
  </g>
</svg>
