<svg xmlns="http://www.w3.org/2000/svg" viewBox="0 0 76.04 259.05">
  <defs>
    <style>
      .cls-1{fill:#fff;}
      .cls-2{fill:none;stroke:#000;stroke-miterlimit:10;stroke-width:1.17px;}
    </style>
  </defs>
  <g id="Layer_2" data-name="Layer 2">
    <g id="Layer_1-2" data-name="Layer 1">
      <path d="M25.11,120.28a2.13,2.13,0,0,0,1.75-3.11A14.06,14.06,0,0,0,14.35,109a14.08,14.08,0,0,0-12.52,8.15,2.13,2.13,0,0,0,1.75,3.11h.18a2,2,0,0,0,1.75-1.17,10,10,0,0,1,8.84-5.67,10,10,0,0,1,8.83,5.67,2,2,0,0,0,1.75,1.17Z" />
      <path d="M72.46,120.28a2.13,2.13,0,0,0,1.75-3.11,13.68,13.68,0,0,0-25,0,2.13,2.13,0,0,0,1.75,3.11h.18a2,2,0,0,0,1.76-1.17,9.71,9.71,0,0,1,17.66,0,2,2,0,0,0,1.76,1.17Z" />
    </g>
  </g>
</svg>
