<svg xmlns="http://www.w3.org/2000/svg" viewBox="0 0 50 25">
  <g id="Layer_2" data-name="Layer 2">
    <g id="Layer_1-2" data-name="Layer 1" transform="translate(12.37, 6.85)">
      <path d="M21.55,3.73a.58.58,0,0,0-1,0c-1.24,1.6-2.53,2.38-3.84,2.32C14.69,6,13.2,3.8,13.18,3.78l0,0a0,0,0,0,0,0,0s-.05,0-.08-.07a1.06,1.06,0,0,0-.12-.1l-.12,0-.13,0-.13,0-.13,0-.13,0-.12.09-.09.07v0l0,0C11,5.33,9.66,6.11,8.36,6.05,6.29,6,4.8,3.8,4.79,3.78a.58.58,0,0,0-1-.09,1.05,1.05,0,0,0-.08,1.23C3.84,5,5.64,7.67,8.29,7.8a5.56,5.56,0,0,0,4.37-2.25,6.09,6.09,0,0,0,4,2.25c1.7.08,3.33-.87,4.86-2.83a1,1,0,0,0,.19-.62A1,1,0,0,0,21.55,3.73Z"/>
    </g>
  </g>
</svg>
