<svg xmlns="http://www.w3.org/2000/svg" viewBox="0 0 50 25">
  <defs>
    <style>
      .cls-1{fill:#f44d4d;}
      .cls-2{fill:#fff;}
    </style>
  </defs>
  <g id="Layer_2" data-name="Layer 2">
    <g id="Layer_1-2" data-name="Layer 1" transform="translate(10.095, -28.125)">
      <path class="cls-2" d="M28.05,42.42a24.93,24.93,0,0,1-4.3,2l-.72.25a24.19,24.19,0,0,1-7.65,1.23h-.75a27.44,27.44,0,0,1-7.41-1.26l-.72-.23a24.74,24.74,0,0,1-4.6-2.06,4,4,0,0,1,4.19-6.82,14,14,0,0,0,1.68.82c.22.1.45.2.71.29a19.68,19.68,0,0,0,6.15,1.26h.75a16.57,16.57,0,0,0,6.48-1.34c.24-.1.47-.2.71-.32q.7-.33,1.41-.75a4,4,0,1,1,4.07,6.89Z"/>
      <path d="M15.38,37.94v8h-.75v-8Z"/>
      <path d="M8.48,36.67l-1.26,8-.72-.23,1.27-8.06C8,36.48,8.22,36.58,8.48,36.67Z"/>
      <path d="M23.75,44.46l-.72.25L21.86,36.6c.24-.1.47-.2.71-.32Z"/>
    </g>
  </g>
</svg>
