<svg xmlns="http://www.w3.org/2000/svg" viewBox="0 0 50 25">
  <defs>
    <style>
      .cls-1{fill:#f44d4d;}
      .cls-2{fill:#fff;}
    </style>
  </defs>
  <g id="Layer_2" data-name="Layer 2">
    <g id="Layer_1-2" data-name="Layer 1" transform="translate(-67.085, 4.005000000000001)">
      <path class="cls-1" d="M102.73,7.75a2.82,2.82,0,0,0-2.82-2.82H84.27a2.83,2.83,0,0,0,0,5.65H94.92l0,1.06a1.88,1.88,0,0,0,.21,1,1.85,1.85,0,0,0,.52.8,1.82,1.82,0,0,0,.8.52,1.9,1.9,0,0,0,1,.22l.66-.09a2.55,2.55,0,0,0,1.11-.65l.39-.5a2.53,2.53,0,0,0,.34-1.26l0-1.06A2.82,2.82,0,0,0,102.73,7.75Z"/>
    </g>
  </g>
</svg>
