<svg xmlns="http://www.w3.org/2000/svg" viewBox="0 0 129.24 45.94"><defs><style>.cls-1{fill:#f44d4d;}.cls-2{fill:#fff;}</style></defs><g id="Layer_2" data-name="Layer 2"><g id="Layer_1-2" data-name="Layer 1"><polygon class="cls-1" points="11.84 26.48 9.16 21.84 6.47 17.18 11.84 17.18 17.21 17.18 14.53 21.84 11.84 26.48"/><rect class="cls-1" x="56.26" width="21.29" height="15.96" rx="7.98"/><path d="M37,3.83a1,1,0,0,1-.27.71c-2,2.25-4.21,3.34-6.48,3.24-3.56-.14-6-3.16-6.06-3.29a1.08,1.08,0,0,1,.1-1.41.84.84,0,0,1,1.27.1s2,2.5,4.77,2.61C32,5.85,33.76,5,35.42,3.13a.85.85,0,0,1,1.28,0A1,1,0,0,1,37,3.83Z"/><path d="M21.55,3.73a.58.58,0,0,0-1,0c-1.24,1.6-2.53,2.38-3.84,2.32C14.69,6,13.2,3.8,13.18,3.78l0,0a0,0,0,0,0,0,0s-.05,0-.08-.07a1.06,1.06,0,0,0-.12-.1l-.12,0-.13,0-.13,0-.13,0-.12.09-.09.07v0l0,0C11,5.33,9.66,6.11,8.36,6.05,6.29,6,4.8,3.8,4.79,3.78a.58.58,0,0,0-1-.09,1.05,1.05,0,0,0-.08,1.23C3.84,5,5.64,7.67,8.29,7.8a5.56,5.56,0,0,0,4.37-2.25,6.09,6.09,0,0,0,4,2.25c1.7.08,3.33-.87,4.86-2.83a1,1,0,0,0,.19-.62A1,1,0,0,0,21.55,3.73Z"/><path d="M52.33,6.79a1.09,1.09,0,0,0-.26-.71c-2-2.24-4.22-3.33-6.49-3.24C42,3,39.63,6,39.53,6.14a1.07,1.07,0,0,0,.09,1.41.85.85,0,0,0,1.28-.11h0s2-2.5,4.76-2.6c1.74-.07,3.47.83,5.13,2.66a.85.85,0,0,0,1.28,0A1.09,1.09,0,0,0,52.33,6.79Z"/><path class="cls-1" d="M102.73,7.75a2.82,2.82,0,0,0-2.82-2.82H84.27a2.83,2.83,0,0,0,0,5.65H94.92l0,1.06a1.88,1.88,0,0,0,.21,1,1.85,1.85,0,0,0,.52.8,1.82,1.82,0,0,0,.8.52,1.9,1.9,0,0,0,1,.22l.66-.09a2.55,2.55,0,0,0,1.11-.65l.39-.5a2.53,2.53,0,0,0,.34-1.26l0-1.06A2.82,2.82,0,0,0,102.73,7.75Z"/><path class="cls-1" d="M126.74,3.23a1.63,1.63,0,0,1,1.61,1.9,10.83,10.83,0,0,1-21.33,0,1.63,1.63,0,0,1,1.61-1.9Z"/><path d="M38.28,21.64H23.83a1.14,1.14,0,0,1,0-2.26H38.28a1.14,1.14,0,0,1,0,2.26Z"/><path class="cls-1" d="M65.55,23.45a3.86,3.86,0,0,1-3.86,3.86H48.12a3.86,3.86,0,0,1-3.86-3.86,3.81,3.81,0,0,1,1.13-2.72,3.88,3.88,0,0,1,2.73-1.13H61.69a3.91,3.91,0,0,1,.91.11A3.84,3.84,0,0,1,65.55,23.45Z"/><path class="cls-2" d="M62.6,19.71l-1,2.06L61,23.05a.48.48,0,0,1-.89,0l-.63-1.28L58.36,19.6h3.33A3.91,3.91,0,0,1,62.6,19.71Z"/><path class="cls-2" d="M51.45,19.6l-1.07,2.17-.63,1.28a.48.48,0,0,1-.88,0l-.63-1.28-1-2.06a3.91,3.91,0,0,1,.91-.11Z"/><path d="M92.51,23.58c-.43.15-.86.3-1.28.43a26.66,26.66,0,0,1-3.08.77,28.82,28.82,0,0,1-5.58.53,28.18,28.18,0,0,1-10.08-1.75.84.84,0,0,1-.46-1.1A.81.81,0,0,1,73.1,22,28.62,28.62,0,0,0,92,22a.81.81,0,0,1,1,.52A.85.85,0,0,1,92.51,23.58Z"/><path class="cls-2" d="M91.23,24l-.29,1.53-.22,1.19a.4.4,0,0,1-.71.21L89.22,26l-1.07-1.25A26.66,26.66,0,0,0,91.23,24Z"/><path d="M128.65,28.8a4,4,0,0,1-5.49,1.32c-.4-.24-9-5.25-17.89,0a4,4,0,1,1-4.08-6.88,26.41,26.41,0,0,1,4.29-2,24.46,24.46,0,0,1,8.43-1.49,27.38,27.38,0,0,1,8.54,1.4,24.37,24.37,0,0,1,4.89,2.17A4,4,0,0,1,128.65,28.8Z"/><path class="cls-2" d="M122.45,21.13c-7.55,4.83-13.72,2.29-17,.09a24.46,24.46,0,0,1,8.43-1.49A27.38,27.38,0,0,1,122.45,21.13Z"/><path class="cls-2" d="M28.05,42.42a24.93,24.93,0,0,1-4.3,2l-.72.25a24.19,24.19,0,0,1-7.65,1.23h-.75a27.44,27.44,0,0,1-7.41-1.26l-.72-.23a24.74,24.74,0,0,1-4.6-2.06,4,4,0,0,1,4.19-6.82,14,14,0,0,0,1.68.82c.22.1.45.2.71.29a19.68,19.68,0,0,0,6.15,1.26h.75a16.57,16.57,0,0,0,6.48-1.34c.24-.1.47-.2.71-.32q.7-.33,1.41-.75a4,4,0,1,1,4.07,6.89Z"/><path d="M15.38,37.94v8h-.75v-8Z"/><path d="M8.48,36.67l-1.26,8-.72-.23,1.27-8.06C8,36.48,8.22,36.58,8.48,36.67Z"/><path d="M23.75,44.46l-.72.25L21.86,36.6c.24-.1.47-.2.71-.32Z"/><path d="M33.37,36.38a1,1,0,0,0-.13,2c.06,0,5.36.37,8.85,3.12a1,1,0,0,0,.62.21,1,1,0,0,0,.78-.38,1,1,0,0,0-.16-1.41C39.34,36.78,33.61,36.39,33.37,36.38Z"/><path d="M63.07,38.77a1,1,0,0,0-1.13-1.65s-4.45,3-8.88,3a1,1,0,0,0-1,1,1,1,0,0,0,1,1C58.12,42.14,62.87,38.9,63.07,38.77Z"/></g></g></svg>