<svg xmlns="http://www.w3.org/2000/svg" viewBox="0 0 50 25">
  <defs>
    <style>
      .cls-1{fill:#f44d4d;}
      .cls-2{fill:#fff;}
    </style>
  </defs>
  <g id="Layer_2" data-name="Layer 2">
    <g id="Layer_1-2" data-name="Layer 1" transform="translate(-29.905, -10.899999999999999)">
      <path class="cls-1" d="M65.55,23.45a3.86,3.86,0,0,1-3.86,3.86H48.12a3.86,3.86,0,0,1-3.86-3.86,3.81,3.81,0,0,1,1.13-2.72,3.88,3.88,0,0,1,2.73-1.13H61.69a3.91,3.91,0,0,1,.91.11A3.84,3.84,0,0,1,65.55,23.45Z"/>
      <path class="cls-2" d="M62.6,19.71l-1,2.06L61,23.05a.48.48,0,0,1-.89,0l-.63-1.28L58.36,19.6h3.33A3.91,3.91,0,0,1,62.6,19.71Z"/>
      <path class="cls-2" d="M51.45,19.6l-1.07,2.17-.63,1.28a.48.48,0,0,1-.88,0l-.63-1.28-1-2.06a3.91,3.91,0,0,1,.91-.11Z"/>
    </g>
  </g>
</svg>
