<svg xmlns="http://www.w3.org/2000/svg" viewBox="0 0 50 25">
  <defs>
    <style>
      .cls-1{fill:#f44d4d;}
      .cls-2{fill:#fff;}
    </style>
  </defs>
  <g id="Layer_2" data-name="Layer 2">
    <g id="Layer_1-2" data-name="Layer 1" transform="translate(-57.629999999999995, -11.125)">
      <path d="M92.51,23.58c-.43.15-.86.3-1.28.43a26.66,26.66,0,0,1-3.08.77,28.82,28.82,0,0,1-5.58.53,28.18,28.18,0,0,1-10.08-1.75.84.84,0,0,1-.46-1.1A.81.81,0,0,1,73.1,22,28.62,28.62,0,0,0,92,22a.81.81,0,0,1,1,.52A.85.85,0,0,1,92.51,23.58Z"/>
      <path class="cls-2" d="M91.23,24l-.29,1.53-.22,1.19a.4.4,0,0,1-.71.21L89.22,26l-1.07-1.25A26.66,26.66,0,0,0,91.23,24Z"/>
    </g>
  </g>
</svg>
