<svg xmlns="http://www.w3.org/2000/svg" viewBox="0 0 50 25">
  <defs>
    <style>
      .cls-1{fill:#f44d4d;}
      .cls-2{fill:#fff;}
    </style>
  </defs>
  <g id="Layer_2" data-name="Layer 2">
    <g id="Layer_1-2" data-name="Layer 1" transform="translate(-89.96, -11.59)">
      <path d="M128.65,28.8a4,4,0,0,1-5.49,1.32c-.4-.24-9-5.25-17.89,0a4,4,0,1,1-4.08-6.88,26.41,26.41,0,0,1,4.29-2,24.46,24.46,0,0,1,8.43-1.49,27.38,27.38,0,0,1,8.54,1.4,24.37,24.37,0,0,1,4.89,2.17A4,4,0,0,1,128.65,28.8Z"/>
      <path class="cls-2" d="M122.45,21.13c-7.55,4.83-13.72,2.29-17,.09a24.46,24.46,0,0,1,8.43-1.49A27.38,27.38,0,0,1,122.45,21.13Z"/>
    </g>
  </g>
</svg>
