<svg xmlns="http://www.w3.org/2000/svg" viewBox="0 0 30 18">
  <defs>
    <style>.cls-1{fill:#f4b28e;}.cls-2{fill:none;}</style>
  </defs>
  <g id="Layer_2" data-name="Layer 2">
    <g id="Layer_1-2" data-name="Layer 1" transform="translate(-7.864999999999998, -6.1)">
      <line class="cls-2" x1="25.09" y1="17.04" x2="25.09"/>
      <path class="cls-1" d="M29.53,13.16a1,1,0,0,1-.26.71c-2,2.24-4.22,3.33-6.49,3.24-3.55-.14-6-3.17-6.05-3.3a1.07,1.07,0,0,1,.09-1.41.85.85,0,0,1,1.28.11h0s2,2.5,4.76,2.6c1.75.07,3.47-.83,5.13-2.66a.85.85,0,0,1,1.28,0A1.06,1.06,0,0,1,29.53,13.16Z"/>
    </g>
  </g>
</svg>
