<svg xmlns="http://www.w3.org/2000/svg" viewBox="0 0 105.01 17.18"><defs><style>.cls-1{fill:#f4b28e;}.cls-2{fill:none;}</style></defs><g id="Layer_2" data-name="Layer 2"><g id="Layer_1-2" data-name="Layer 1"><path class="cls-1" d="M9,17l3.8-2.47A.91.91,0,0,0,13,13.28h0a1,1,0,0,0-1.3-.25L7.94,15.5a.91.91,0,0,0-.28,1.27h0A.93.93,0,0,0,9,17Z"/><path class="cls-1" d="M4.22,17,.43,14.55a.91.91,0,0,1-.28-1.27h0A1,1,0,0,1,1.45,13L5.24,15.5a.91.91,0,0,1,.28,1.27h0A.94.94,0,0,1,4.22,17Z"/><polygon class="cls-1" points="49.85 5.88 53.08 11.46 56.3 17.04 49.85 17.04 43.41 17.04 46.63 11.46 49.85 5.88"/><rect class="cls-1" x="100.22" y="0.02" width="1.61" height="16.98" rx="0.8"/><rect class="cls-1" x="96.88" y="2.21" width="1.61" height="12.6" rx="0.8"/><rect class="cls-1" x="103.4" y="2.21" width="1.61" height="12.6" rx="0.8"/><rect class="cls-1" x="80.82" y="0.14" width="7.11" height="16.98" rx="3.55"/><rect class="cls-1" x="61.44" y="6.81" width="13.76" height="10.32" rx="5.16"/><rect class="cls-1" x="34.56" y="13.52" width="3.6" height="3.64" rx="1.8" transform="translate(51.7 -21.02) rotate(90)"/><line class="cls-2" x1="25.09" y1="17.04" x2="25.09"/><path class="cls-1" d="M29.53,13.16a1,1,0,0,1-.26.71c-2,2.24-4.22,3.33-6.49,3.24-3.55-.14-6-3.17-6.05-3.3a1.07,1.07,0,0,1,.09-1.41.85.85,0,0,1,1.28.11h0s2,2.5,4.76,2.6c1.75.07,3.47-.83,5.13-2.66a.85.85,0,0,1,1.28,0A1.06,1.06,0,0,1,29.53,13.16Z"/></g></g></svg>