<svg xmlns="http://www.w3.org/2000/svg" viewBox="0 0 30 18">
  <defs>
    <style>.cls-1{fill:#f4b28e;}.cls-2{fill:none;}</style>
  </defs>
  <g id="Layer_2" data-name="Layer 2">
    <g id="Layer_1-2" data-name="Layer 1" transform="translate(8.285, -6)">
      <path class="cls-1" d="M9,17l3.8-2.47A.91.91,0,0,0,13,13.28h0a1,1,0,0,0-1.3-.25L7.94,15.5a.91.91,0,0,0-.28,1.27h0A.93.93,0,0,0,9,17Z"/>
      <path class="cls-1" d="M4.22,17,.43,14.55a.91.91,0,0,1-.28-1.27h0A1,1,0,0,1,1.45,13L5.24,15.5a.91.91,0,0,1,.28,1.27h0A.94.94,0,0,1,4.22,17Z"/>
    </g>
  </g>
</svg>
