<svg width="145" height="139" viewBox="0 0 145 139" fill="none" xmlns="http://www.w3.org/2000/svg">
<g id="mee-scale-wrapper" transform="translate(72.5, 69.5) scale(1.00694) translate(-72, -69)">
<path d="M73 15.7285H70.08L66.35 19.4485L71.77 24.8685L77.43 19.2085L73 15.7285Z" fill="url(#paint0_linear_127_282)"/>
<path d="M30 15.6985C30 15.6985 20.18 25.2085 0 56.8585C0 56.8585 8.48 94.2285 32.68 94.4585L30 15.6985Z" fill="url(#paint1_linear_127_282)"/>
<path d="M113.62 15.6985C113.62 15.6985 123.48 25.2085 143.62 56.8585C143.62 56.8585 135.13 94.2285 110.94 94.4585L113.62 15.6985Z" fill="url(#paint2_linear_127_282)"/>
<path d="M35.52 10.2985L35.22 19.2985V20.5385L34.89 30.3185V31.4385L34.52 39.9885V41.0985L34.28 48.3585V49.4485L34 57.7885V58.2785V58.8685L33.72 67.3385V68.4285L33.47 75.8585V76.9185L32.74 98.6885C30.85 98.9885 27.9 91.1885 26.6 79.5185C26.6 79.1885 26.53 78.8485 26.49 78.5185C26.26 76.3885 26.04 74.1685 25.83 71.8885C25.83 71.5485 25.76 71.2085 25.73 70.8885C25.47 68.1485 25.23 65.3385 25.01 62.5085L24.92 61.5085C24.72 58.9285 24.53 56.3485 24.34 53.7985C24.34 53.4485 24.29 53.1085 24.27 52.7985C24.11 50.5385 23.96 48.3085 23.81 46.1485L23.75 44.9885C23.57 42.2285 23.41 39.5985 23.26 37.1685L23.2 36.0885C23.04 33.4385 22.91 31.0885 22.8 29.0085C22.8 28.5985 22.75 28.2085 22.73 27.8285C22.53 23.9785 22.42 21.6485 22.42 21.6485C29.87 12.7085 35.52 10.2985 35.52 10.2985Z" fill="url(#paint3_linear_127_282)"/>
<path d="M35.22 19.2885V20.5285L22.8 28.9885C22.8 28.5785 22.75 28.1885 22.73 27.8085L35.22 19.2885Z" fill="#18347A"/>
<path d="M34.85 30.3085V31.4285L23.26 37.1785L23.2 36.0985L34.85 30.3085Z" fill="#18347A"/>
<path d="M34.52 39.9885V41.0985L23.81 46.0485L23.75 44.9885L34.52 39.9885Z" fill="#18347A"/>
<path d="M34.24 48.3685V49.4585L24.38 53.7385C24.38 53.3885 24.33 53.0485 24.31 52.7385L34.24 48.3685Z" fill="#18347A"/>
<path d="M33.92 57.7985V58.2885V58.8785L25 62.4685L24.91 61.4685L33.92 57.7985Z" fill="#18347A"/>
<path d="M33.6 67.3485V68.4385L25.87 71.8785C25.87 71.5385 25.8 71.1985 25.77 70.8785L33.6 67.3485Z" fill="#18347A"/>
<path d="M33.31 75.8685V76.9285L26.6 79.5185C26.6 79.1885 26.53 78.8485 26.49 78.5185L33.31 75.8685Z" fill="#18347A"/>
<path d="M108.17 10.2985L108.47 19.2985V20.5385L108.8 30.3185V31.4385L109.09 40.0085V41.1185L109.33 48.3785V49.4685L109.61 57.8085V58.2985V58.8885L109.89 67.3585V68.4485L110.14 75.8785V76.9385L110.87 98.7085C112.56 98.9785 115.51 91.1985 116.81 79.5285C116.81 79.1985 116.88 78.8585 116.92 78.5285C117.15 76.3985 117.37 74.1785 117.58 71.8985C117.58 71.5585 117.65 71.2185 117.68 70.8985C117.94 68.1585 118.18 65.3485 118.4 62.5185L118.49 61.5185C118.69 58.9385 118.88 56.3585 119.07 53.8085C119.07 53.4585 119.12 53.1185 119.14 52.8085C119.3 50.5485 119.45 48.3185 119.6 46.1585L119.66 45.1085C119.84 42.3485 120 39.7185 120.15 37.2885L120.21 36.2085C120.37 33.5585 120.5 31.2085 120.61 29.1285C120.61 28.7185 120.61 28.3285 120.68 27.9485C120.88 24.0985 120.99 21.7685 120.99 21.7685C113.82 12.7085 108.17 10.2985 108.17 10.2985Z" fill="url(#paint4_linear_127_282)"/>
<path d="M108.47 19.2885V20.5285L120.89 28.9885C120.89 28.5785 120.89 28.1885 120.96 27.8085L108.47 19.2885Z" fill="#18347A"/>
<path d="M108.84 30.3085V31.4285L120.39 37.1785L120.45 36.0985L108.84 30.3085Z" fill="#18347A"/>
<path d="M109.17 39.9885V41.0985L119.84 46.0385L119.9 44.9885L109.17 39.9885Z" fill="#18347A"/>
<path d="M109.45 48.3685V49.4585L119.31 53.7385C119.31 53.3885 119.36 53.0485 119.38 52.7385L109.45 48.3685Z" fill="#18347A"/>
<path d="M109.77 57.7985V58.2885V58.8785L118.64 62.4685L118.73 61.4685L109.77 57.7985Z" fill="#18347A"/>
<path d="M110.09 67.3485V68.4385L117.82 71.8785C117.82 71.5385 117.89 71.1985 117.92 70.8785L110.09 67.3485Z" fill="#18347A"/>
<path d="M110.38 75.8685V76.9285L117.05 79.5185C117.05 79.1885 117.12 78.8485 117.16 78.5185L110.38 75.8685Z" fill="#18347A"/>
<path d="M108.41 130.739L107.41 131.079L107.22 131.149C103.74 132.369 100.04 133.619 95.81 134.659L94.81 134.899C89.8811 136.05 84.8629 136.78 79.81 137.079L78.81 137.139C76.49 137.259 74.03 137.309 71.41 137.279C68.33 137.279 65.47 137.279 62.79 137.059L61.79 136.989C57.0217 136.644 52.2893 135.912 47.64 134.799L46.64 134.559C42.64 133.559 39.02 132.329 35.64 131.149L34.17 130.619L33.17 130.259C25.51 127.259 26.91 125.679 27.85 120.989C28.05 119.989 28.27 118.989 28.51 117.929C30.405 118.906 32.3745 119.732 34.4 120.399L34.77 120.529L35.77 120.859C39.7688 122.283 43.8454 123.478 47.98 124.439L48.98 124.659C53.4546 125.613 57.9937 126.234 62.56 126.519L63.56 126.579C66.02 126.709 68.62 126.769 71.39 126.729C73.7 126.729 75.89 126.729 77.98 126.639L78.98 126.589C83.8168 126.345 88.6276 125.73 93.37 124.749L94.37 124.539C98.2097 123.671 101.999 122.592 105.72 121.309C106.05 121.199 106.37 121.089 106.72 120.969L108.38 120.399C110.408 119.734 112.378 118.905 114.27 117.919C114.51 118.999 114.73 119.979 114.93 120.989C116 125.919 117.49 127.399 108.41 130.739Z" fill="url(#paint5_linear_127_282)"/>
<path d="M35.92 120.859L34.31 130.619L33.31 130.259L34.91 120.529L35.92 120.859Z" fill="#18347A"/>
<path d="M49.11 124.659L47.74 134.799L46.74 134.559L48.11 124.439L49.11 124.659Z" fill="#18347A"/>
<path d="M63.69 126.579L62.9 137.059L61.9 136.989L62.7 126.519L63.69 126.579Z" fill="#18347A"/>
<path d="M108.41 130.739L107.41 131.079L105.79 121.309C106.12 121.199 106.44 121.089 106.79 120.969L108.41 130.739Z" fill="#18347A"/>
<path d="M95.86 134.659L94.86 134.899L93.48 124.749L94.48 124.539L95.86 134.659Z" fill="#18347A"/>
<path d="M79.92 137.079L78.92 137.139L78.11 126.639L79.11 126.589L79.92 137.079Z" fill="#18347A"/>
<path d="M108.77 121.149C99.63 124.359 88.94 127.709 71.83 127.479C54.72 127.709 44.03 124.359 34.89 121.149C24.2 117.389 25.89 115.949 26.89 110.649C27.89 105.349 29.39 100.919 32.19 79.2485C34.99 57.5785 32.73 13.6185 32.66 12.7885C32.59 11.9585 34.82 8.34853 42.34 6.21853C42.87 6.06853 43.48 5.91853 44.16 5.76853C44.84 5.61853 45.44 5.49853 46.16 5.36853C48.36 4.96853 50.96 4.58853 53.65 4.23853C54.29 5.42853 54.95 6.52853 55.65 7.54853C55.84 7.82853 56.02 8.10853 56.21 8.37853C56.54 8.86853 56.88 9.37853 57.21 9.78853V9.84853C57.65 10.4352 58.09 10.9952 58.53 11.5285L58.58 11.5885C59.23 12.3685 59.89 13.0885 60.53 13.7385C60.77 13.9885 61 14.2185 61.24 14.4385C62.9805 16.1392 64.9253 17.6171 67.03 18.8385C67.33 19.0185 67.63 19.1785 67.91 19.3185C69.0239 19.9205 70.1967 20.4064 71.41 20.7685C71.65 20.8385 71.8 20.8685 71.85 20.8785C72.0397 20.8408 72.2268 20.7906 72.41 20.7285C73.5584 20.3846 74.6703 19.9291 75.73 19.3685L76.61 18.8885C78.7163 17.6566 80.6669 16.1759 82.42 14.4785C82.65 14.2585 82.89 14.0185 83.13 13.7685C83.79 13.1085 84.45 12.3885 85.13 11.5885V11.5285C85.6075 10.999 86.0485 10.4377 86.45 9.84853V9.78853C86.7766 9.34853 87.11 8.88853 87.45 8.40853C87.64 8.13853 87.82 7.85853 88.01 7.57853C88.6766 6.55186 89.3433 5.44186 90.01 4.24853C92.68 4.59853 95.25 4.96853 97.44 5.36853C98.15 5.49853 98.82 5.63853 99.44 5.76853C100.06 5.89853 100.72 6.06853 101.25 6.21853C108.77 8.34853 111.01 11.9585 110.93 12.7885C110.85 13.6185 108.61 57.5685 111.4 79.2485C114.19 100.929 115.64 105.349 116.7 110.649C117.76 115.949 119.46 117.389 108.77 121.149Z" fill="url(#paint6_linear_127_282)"/>
<path d="M99.57 5.53851L99.51 5.73851C98.7751 8.008 97.8449 10.2096 96.73 12.3185C96.58 12.5985 96.43 12.8985 96.26 13.1885C94.5317 16.3241 92.4297 19.2387 90 21.8685C89.78 22.1085 89.55 22.3585 89.31 22.5985C86.8619 25.1426 84.1075 27.3729 81.11 29.2385C80.83 29.4285 80.54 29.5985 80.25 29.7785C77.7578 31.2592 75.1332 32.5046 72.41 33.4985L71.89 33.6985H71.81L71.41 33.5485C68.6283 32.5397 65.9495 31.2673 63.41 29.7485L62.55 29.2185C59.5562 27.3439 56.8025 25.1107 54.35 22.5685L53.66 21.8385C51.2498 19.213 49.1616 16.3091 47.44 13.1885C47.27 12.8885 47.12 12.5985 46.97 12.3085C45.8555 10.2028 44.9254 8.00461 44.19 5.73851L44.13 5.53851C44.7472 5.40798 45.3716 5.31447 46 5.25851C48.22 4.84851 50.83 4.46851 53.54 4.12851H53.61L53.67 4.23851C54.31 5.42851 54.97 6.52851 55.67 7.54851C55.86 7.82851 56.04 8.10851 56.23 8.37851C56.56 8.86851 56.9 9.37851 57.23 9.78851V9.84851C57.67 10.4352 58.11 10.9952 58.55 11.5285L58.6 11.5885C59.25 12.3685 59.91 13.0885 60.55 13.7385C60.79 13.9885 61.02 14.2185 61.26 14.4385C63.0005 16.1391 64.9454 17.6171 67.05 18.8385C67.35 19.0185 67.65 19.1785 67.93 19.3185C69.0439 19.9205 70.2167 20.4064 71.43 20.7685C71.67 20.8385 71.82 20.8685 71.87 20.8785C72.0597 20.8407 72.2468 20.7906 72.43 20.7285C73.5784 20.3846 74.6904 19.9291 75.75 19.3685L76.63 18.8885C78.7363 17.6565 80.687 16.1759 82.44 14.4785C82.67 14.2585 82.91 14.0185 83.15 13.7685C83.81 13.1085 84.47 12.3885 85.15 11.5885V11.5285C85.6275 10.999 86.0685 10.4377 86.47 9.84851V9.78851C86.7967 9.34851 87.13 8.88851 87.47 8.40851C87.66 8.13851 87.84 7.85851 88.03 7.57851C88.6967 6.55184 89.3633 5.44184 90.03 4.24851L90.09 4.13851C92.8 4.47851 95.41 4.85851 97.63 5.26851C98.2816 5.31835 98.9295 5.40853 99.57 5.53851Z" fill="url(#paint7_linear_127_282)"/>
<path d="M56.18 8.37852L47.42 13.2185C47.25 12.9185 47.1 12.6285 46.95 12.3385L55.62 7.54852C55.81 7.82852 56 8.10852 56.18 8.37852Z" fill="#18347A"/>
<path d="M61.26 14.4385L54.33 22.5985L53.64 21.8685L60.55 13.7385C60.79 13.9885 61 14.2185 61.26 14.4385Z" fill="#18347A"/>
<path d="M67.93 19.3185L63.39 29.7785L62.53 29.2485L67.05 18.8385C67.35 18.9885 67.65 19.1785 67.93 19.3185Z" fill="#18347A"/>
<path d="M72.43 20.7285V33.4985L71.91 33.6985H71.83L71.43 33.5485V20.7685C71.67 20.8385 71.82 20.8685 71.87 20.8785C72.0597 20.8407 72.2468 20.7906 72.43 20.7285Z" fill="#18347A"/>
<path d="M96.72 12.3485C96.57 12.6285 96.42 12.9285 96.25 13.2185L87.54 8.40852C87.73 8.13852 87.91 7.85852 88.1 7.57852L96.72 12.3485Z" fill="#18347A"/>
<path d="M90 21.8685C89.78 22.1085 89.55 22.3585 89.31 22.5985L82.42 14.4785C82.65 14.2585 82.89 14.0185 83.13 13.7685L90 21.8685Z" fill="#18347A"/>
<path d="M81.13 29.2385C80.85 29.4285 80.56 29.5985 80.27 29.7785L75.75 19.3685L76.63 18.8885L81.13 29.2385Z" fill="#18347A"/>
<path d="M90.06 2.08852C86.65 1.23852 85.27 0.488524 84.72 0.0885243C84.6701 0.0540845 84.6137 0.0303104 84.5542 0.0186915C84.4948 0.00707269 84.4336 0.00785952 84.3744 0.0210027C84.3153 0.0341459 84.2595 0.0593623 84.2105 0.0950717C84.1616 0.130781 84.1205 0.176214 84.09 0.228524C80.9721 5.86766 76.8787 10.9091 72 15.1185C71.9346 15.1805 71.8893 15.2606 71.87 15.3485C71.8513 15.258 71.8018 15.1767 71.73 15.1185C66.8423 10.9021 62.7391 5.85437 59.61 0.208524C59.5793 0.159019 59.5392 0.116082 59.4919 0.082202C59.4445 0.0483217 59.3909 0.0241713 59.3342 0.0111497C59.2775 -0.00187187 59.2187 -0.00350567 59.1613 0.00634296C59.104 0.0161916 59.0491 0.0373268 59 0.0685243C58.45 0.488524 57.07 1.23852 53.66 2.06852C53.5683 2.09099 53.4869 2.14365 53.4289 2.21803C53.3708 2.29241 53.3395 2.38417 53.34 2.47852C53.34 4.71852 53.77 18.1085 55.34 27.8985C55.3541 27.9699 55.3862 28.0364 55.4331 28.092C55.48 28.1476 55.5402 28.1904 55.6082 28.2164C55.6761 28.2423 55.7495 28.2506 55.8215 28.2405C55.8935 28.2304 55.9618 28.2022 56.02 28.1585C58.6 26.2185 69.27 18.1585 71.73 15.6885C71.718 15.6704 71.7111 15.6495 71.7101 15.6278C71.7091 15.6061 71.714 15.5846 71.7242 15.5654C71.7345 15.5463 71.7497 15.5304 71.7684 15.5192C71.787 15.5081 71.8083 15.5022 71.83 15.5022C71.8517 15.5022 71.873 15.5081 71.8916 15.5192C71.9102 15.5304 71.9254 15.5463 71.9357 15.5654C71.946 15.5846 71.9508 15.6061 71.9498 15.6278C71.9488 15.6495 71.942 15.6704 71.93 15.6885C74.39 18.1785 85.06 26.2185 87.64 28.1585C87.6981 28.2022 87.7664 28.2304 87.8384 28.2405C87.9104 28.2506 87.9839 28.2423 88.0518 28.2164C88.1197 28.1904 88.18 28.1476 88.2269 28.092C88.2738 28.0364 88.3058 27.9699 88.32 27.8985C89.93 18.1085 90.32 4.71852 90.32 2.47852C90.3203 2.39504 90.2957 2.31335 90.2494 2.24388C90.2031 2.17442 90.1372 2.12033 90.06 2.08852Z" fill="url(#paint8_linear_127_282)"/>
<defs>
<linearGradient id="paint0_linear_127_282" x1="71.89" y1="24.8685" x2="71.89" y2="15.7285" gradientUnits="userSpaceOnUse">
<stop offset="0.36" stop-color="#F7F7F7"/>
<stop offset="1" stop-color="#D3E2EA"/>
</linearGradient>
<linearGradient id="paint1_linear_127_282" x1="16.34" y1="15.6985" x2="16.34" y2="94.4585" gradientUnits="userSpaceOnUse">
<stop offset="0.36" stop-color="#F7F7F7"/>
<stop offset="1" stop-color="#D3E2EA"/>
</linearGradient>
<linearGradient id="paint2_linear_127_282" x1="127.32" y1="15.6985" x2="127.32" y2="94.4585" gradientUnits="userSpaceOnUse">
<stop offset="0.36" stop-color="#F7F7F7"/>
<stop offset="1" stop-color="#D3E2EA"/>
</linearGradient>
<linearGradient id="paint3_linear_127_282" x1="35.52" y1="54.5085" x2="22.42" y2="54.5085" gradientUnits="userSpaceOnUse">
<stop stop-color="#18347A"/>
<stop offset="0.08" stop-color="#1A3882"/>
<stop offset="0.26" stop-color="#1C3C8D"/>
<stop offset="0.5" stop-color="#1D4094"/>
<stop offset="1" stop-color="#1E4096"/>
</linearGradient>
<linearGradient id="paint4_linear_127_282" x1="108.18" y1="54.5085" x2="121.28" y2="54.5085" gradientUnits="userSpaceOnUse">
<stop stop-color="#18347A"/>
<stop offset="0.08" stop-color="#1A3882"/>
<stop offset="0.26" stop-color="#1C3C8D"/>
<stop offset="0.5" stop-color="#1D4094"/>
<stop offset="1" stop-color="#1E4096"/>
</linearGradient>
<linearGradient id="paint5_linear_127_282" x1="71.52" y1="117.919" x2="71.52" y2="137.289" gradientUnits="userSpaceOnUse">
<stop stop-color="#18347A"/>
<stop offset="0.37" stop-color="#19367E"/>
<stop offset="0.71" stop-color="#1B3A88"/>
<stop offset="1" stop-color="#1E4096"/>
</linearGradient>
<linearGradient id="paint6_linear_127_282" x1="71.83" y1="4.23853" x2="71.83" y2="127.489" gradientUnits="userSpaceOnUse">
<stop stop-color="#406CD9"/>
<stop offset="0.48" stop-color="#3D6AD8"/>
<stop offset="0.66" stop-color="#3563D7"/>
<stop offset="0.78" stop-color="#2A5AD2"/>
<stop offset="0.88" stop-color="#2651BD"/>
<stop offset="0.97" stop-color="#2046A3"/>
<stop offset="1" stop-color="#1E4096"/>
</linearGradient>
<linearGradient id="paint7_linear_127_282" x1="71.83" y1="4.11851" x2="71.83" y2="33.7285" gradientUnits="userSpaceOnUse">
<stop stop-color="#18347A"/>
<stop offset="0.59" stop-color="#1C3D8D"/>
<stop offset="1" stop-color="#1E4096"/>
</linearGradient>
<linearGradient id="paint8_linear_127_282" x1="71.85" y1="-0.0114757" x2="71.85" y2="28.2685" gradientUnits="userSpaceOnUse">
<stop offset="0.36" stop-color="#F7F7F7"/>
<stop offset="0.57" stop-color="#F2F4F5"/>
<stop offset="0.8" stop-color="#E5ECF0"/>
<stop offset="1" stop-color="#D3E2EA"/>
</linearGradient>
</defs>
</g>
</svg>
