<svg width="156" height="124" viewBox="0 0 156 124" fill="none" xmlns="http://www.w3.org/2000/svg">
<path d="M38.697 8.67V8.78C38.197 8.71 37.277 9.04 35.697 11.16C33.107 14.7 20.917 27.79 0.0969695 95.3C-0.0363236 95.7402 -0.0321091 96.2107 0.109054 96.6485C0.250218 97.0863 0.521603 97.4705 0.886963 97.75C4.39696 100.45 14.967 107.75 26.887 107.94C27.368 107.955 27.8413 107.816 28.2373 107.542C28.6332 107.269 28.9311 106.875 29.087 106.42C31.987 97.8 46.367 54.42 49.527 34.55C53.027 12.38 38.697 8.67 38.697 8.67Z" fill="url(#paint0_linear_95_218)"/>
<path d="M116.877 8.67V8.78C117.377 8.71 118.297 9.04 119.877 11.16C122.457 14.7 134.647 27.79 155.467 95.3C155.601 95.7393 155.599 96.209 155.459 96.6467C155.32 97.0844 155.051 97.4693 154.687 97.75C151.167 100.45 140.597 107.75 128.687 107.94C128.206 107.954 127.734 107.814 127.338 107.54C126.942 107.267 126.644 106.874 126.487 106.42C123.587 97.8 109.207 54.42 106.057 34.55C102.547 12.38 116.877 8.67 116.877 8.67Z" fill="url(#paint1_linear_95_218)"/>
<path d="M122.547 98.18C121.337 88.5 116.807 26.83 117.017 8.67C117.677 6.99 109.837 1.76 103.577 1.26C101.097 0.8 98.1169 0.38 95.0669 0H95.0069C90.5569 17.66 65.1769 17.65 60.7669 0H60.7069C57.7069 0.38 54.7069 0.8 52.1869 1.25C45.8969 1.81 38.1269 6.9 38.7469 8.66C38.9469 26.66 34.4269 88.66 33.2169 98.17C31.7069 106.54 27.8269 113.01 39.0669 116.52C40.2569 116.89 41.4169 117.3 42.5569 117.78C59.2869 124.98 96.4869 124.99 113.227 117.78C114.365 117.301 115.526 116.88 116.707 116.52C127.937 113 124.057 106.55 122.547 98.18Z" fill="url(#paint2_linear_95_218)"/>
<path d="M103.537 1.25C101.057 0.79 98.0669 0.37 95.0269 0C94.0582 3.82081 91.8445 7.21017 88.7354 9.63303C85.6262 12.0559 81.7987 13.3743 77.8569 13.38C73.9165 13.3738 70.0904 12.055 66.983 9.63206C63.8755 7.20911 61.6637 3.82001 60.6969 0C57.6969 0.37 54.697 0.79 52.187 1.25C53.4534 7.11614 56.6879 12.3727 61.3537 16.1472C66.0194 19.9216 71.8357 21.9868 77.837 22H77.8869C83.8882 21.9868 89.7045 19.9216 94.3702 16.1472C99.036 12.3727 102.271 7.11614 103.537 1.25Z" fill="url(#paint3_linear_95_218)"/>
<defs>
<linearGradient id="paint0_linear_95_218" x1="25.047" y1="8.67" x2="25.047" y2="107.94" gradientUnits="userSpaceOnUse">
<stop stop-color="#333333"/>
<stop offset="0.21" stop-color="#303030"/>
<stop offset="0.52" stop-color="#252525"/>
<stop offset="0.9" stop-color="#131313"/>
<stop offset="1" stop-color="#0E0E0E"/>
</linearGradient>
<linearGradient id="paint1_linear_95_218" x1="130.527" y1="8.67" x2="130.527" y2="107.94" gradientUnits="userSpaceOnUse">
<stop stop-color="#333333"/>
<stop offset="0.21" stop-color="#303030"/>
<stop offset="0.52" stop-color="#252525"/>
<stop offset="0.9" stop-color="#131313"/>
<stop offset="1" stop-color="#0E0E0E"/>
</linearGradient>
<linearGradient id="paint2_linear_95_218" x1="77.8669" y1="0" x2="77.8669" y2="123.2" gradientUnits="userSpaceOnUse">
<stop stop-color="#333333"/>
<stop offset="0.48" stop-color="#323232"/>
<stop offset="0.66" stop-color="#2E2E2E"/>
<stop offset="0.78" stop-color="#292929"/>
<stop offset="0.88" stop-color="#1F1F1F"/>
<stop offset="0.97" stop-color="#141414"/>
<stop offset="1" stop-color="#0E0E0E"/>
</linearGradient>
<linearGradient id="paint3_linear_95_218" x1="77.857" y1="21.95" x2="77.857" y2="0" gradientUnits="userSpaceOnUse">
<stop stop-color="#333333"/>
<stop offset="0.55" stop-color="#1E1E1E"/>
<stop offset="1" stop-color="#0E0E0E"/>
</linearGradient>
</defs>
</svg>
